<svg id="Layer_1" data-name="Layer 1" xmlns="http://www.w3.org/2000/svg" viewBox="0 0 47.63 47.63"><defs><style>.cls-1{fill:#25a9ce;}</style></defs><title>topic_machine_learning_small</title><path class="cls-1" d="M717.18,351.93a3.87,3.87,0,1,1-1.91-5.13A3.87,3.87,0,0,1,717.18,351.93ZM725,335a2.4,2.4,0,1,0,1.19,3.18A2.4,2.4,0,0,0,725,335Zm15.72,11a23.81,23.81,0,1,1-23.81-23.81A23.81,23.81,0,0,1,740.69,346Zm-18.47,3.81,0.51-.19a1.93,1.93,0,0,0,1.13-2.48L723.41,346a1.93,1.93,0,0,0-2.48-1.13l-0.51.19c-1,.37-1.45-0.12-1-1.08l0.12-.27a1.93,1.93,0,0,0-1-2.55l-1.19-.54a1.93,1.93,0,0,0-2.55,1l-0.12.27c-0.44,1-1.1.94-1.47-.05l-0.19-.51a1.93,1.93,0,0,0-2.48-1.13l-1.22.46a1.93,1.93,0,0,0-1.13,2.48l0.19,0.51c0.37,1-.12,1.45-1.08,1l-0.27-.12a1.93,1.93,0,0,0-2.55,1L704,346.57a1.93,1.93,0,0,0,1,2.55l0.26,0.12c1,0.44.94,1.1-.05,1.47l-0.51.19a1.93,1.93,0,0,0-1.13,2.48l0.46,1.22a1.93,1.93,0,0,0,2.48,1.13l0.51-.19c1-.37,1.45.11,1,1.08l-0.12.27a1.93,1.93,0,0,0,1,2.55L710,360a1.93,1.93,0,0,0,2.55-1l0.12-.27c0.44-1,1.1-.94,1.47.05l0.19,0.51a1.93,1.93,0,0,0,2.48,1.13L718,360a1.93,1.93,0,0,0,1.13-2.48L719,357c-0.37-1,.12-1.45,1.08-1l0.26,0.12a1.93,1.93,0,0,0,2.55-1l0.54-1.19a1.93,1.93,0,0,0-1-2.55l-0.27-.12C721.21,350.89,721.23,350.22,722.22,349.85Zm7.06-12.93,0.32-.12a1.2,1.2,0,0,0,.7-1.54l-0.28-.76a1.2,1.2,0,0,0-1.54-.7l-0.32.12c-0.62.23-.9-0.07-0.62-0.67l0.08-.16a1.2,1.2,0,0,0-.59-1.58l-0.74-.34a1.2,1.2,0,0,0-1.58.59l-0.08.16c-0.27.6-.68,0.58-0.91,0l-0.12-.32a1.2,1.2,0,0,0-1.54-.7l-0.76.28a1.2,1.2,0,0,0-.7,1.54l0.12,0.32c0.23,0.62-.07.9-0.67,0.62l-0.16-.08a1.2,1.2,0,0,0-1.58.59l-0.34.73a1.2,1.2,0,0,0,.59,1.58l0.16,0.07c0.6,0.27.58,0.68,0,.91l-0.32.12a1.2,1.2,0,0,0-.7,1.54l0.28,0.76a1.2,1.2,0,0,0,1.54.7l0.32-.12c0.62-.23.9,0.07,0.62,0.67l-0.08.17a1.2,1.2,0,0,0,.59,1.58l0.74,0.34a1.2,1.2,0,0,0,1.58-.59l0.08-.16c0.27-.6.68-0.58,0.91,0l0.12,0.32a1.2,1.2,0,0,0,1.54.7l0.76-.28a1.2,1.2,0,0,0,.7-1.54l-0.12-.32c-0.23-.62.07-0.9,0.67-0.62l0.16,0.07a1.2,1.2,0,0,0,1.58-.59l0.34-.73a1.2,1.2,0,0,0-.59-1.58l-0.17-.08C728.65,337.56,728.66,337.15,729.28,336.92Z" transform="translate(-693.06 -322.23)"/></svg>