<?xml version="1.0" encoding="utf-8" standalone="no"?>
<!DOCTYPE svg PUBLIC "-//W3C//DTD SVG 1.1//EN"
  "http://www.w3.org/Graphics/SVG/1.1/DTD/svg11.dtd">
<!-- Created with matplotlib (http://matplotlib.org/) -->
<svg height="396pt" version="1.1" viewBox="0 0 576 396" width="576pt" xmlns="http://www.w3.org/2000/svg" xmlns:xlink="http://www.w3.org/1999/xlink">
 <defs>
  <style type="text/css">
*{stroke-linecap:butt;stroke-linejoin:round;}
  </style>
 </defs>
 <g id="figure_1">
  <g id="patch_1">
   <path d="M 0 396 
L 576 396 
L 576 0 
L 0 0 
z
" style="fill:#ffffff;"/>
  </g>
  <g id="axes_1">
   <g id="patch_2">
    <path d="M 72 346.5 
L 518.4 346.5 
L 518.4 47.52 
L 72 47.52 
z
" style="fill:#eaeaf2;"/>
   </g>
   <g id="matplotlib.axis_1">
    <g id="xtick_1">
     <g id="line2d_1">
      <path clip-path="url(#pfecb97080f)" d="M 127.8 346.5 
L 127.8 47.52 
" style="fill:none;stroke:#ffffff;stroke-linecap:round;"/>
     </g>
     <g id="line2d_2"/>
     <g id="text_1">
      <!-- Plotting_cccfff -->
      <defs>
       <path d="M 19.671875 64.796875 
L 19.671875 37.40625 
L 32.078125 37.40625 
Q 38.96875 37.40625 42.71875 40.96875 
Q 46.484375 44.53125 46.484375 51.125 
Q 46.484375 57.671875 42.71875 61.234375 
Q 38.96875 64.796875 32.078125 64.796875 
z
M 9.8125 72.90625 
L 32.078125 72.90625 
Q 44.34375 72.90625 50.609375 67.359375 
Q 56.890625 61.8125 56.890625 51.125 
Q 56.890625 40.328125 50.609375 34.8125 
Q 44.34375 29.296875 32.078125 29.296875 
L 19.671875 29.296875 
L 19.671875 0 
L 9.8125 0 
z
" id="DejaVuSans-50"/>
       <path d="M 9.421875 75.984375 
L 18.40625 75.984375 
L 18.40625 0 
L 9.421875 0 
z
" id="DejaVuSans-6c"/>
       <path d="M 30.609375 48.390625 
Q 23.390625 48.390625 19.1875 42.75 
Q 14.984375 37.109375 14.984375 27.296875 
Q 14.984375 17.484375 19.15625 11.84375 
Q 23.34375 6.203125 30.609375 6.203125 
Q 37.796875 6.203125 41.984375 11.859375 
Q 46.1875 17.53125 46.1875 27.296875 
Q 46.1875 37.015625 41.984375 42.703125 
Q 37.796875 48.390625 30.609375 48.390625 
z
M 30.609375 56 
Q 42.328125 56 49.015625 48.375 
Q 55.71875 40.765625 55.71875 27.296875 
Q 55.71875 13.875 49.015625 6.21875 
Q 42.328125 -1.421875 30.609375 -1.421875 
Q 18.84375 -1.421875 12.171875 6.21875 
Q 5.515625 13.875 5.515625 27.296875 
Q 5.515625 40.765625 12.171875 48.375 
Q 18.84375 56 30.609375 56 
z
" id="DejaVuSans-6f"/>
       <path d="M 18.3125 70.21875 
L 18.3125 54.6875 
L 36.8125 54.6875 
L 36.8125 47.703125 
L 18.3125 47.703125 
L 18.3125 18.015625 
Q 18.3125 11.328125 20.140625 9.421875 
Q 21.96875 7.515625 27.59375 7.515625 
L 36.8125 7.515625 
L 36.8125 0 
L 27.59375 0 
Q 17.1875 0 13.234375 3.875 
Q 9.28125 7.765625 9.28125 18.015625 
L 9.28125 47.703125 
L 2.6875 47.703125 
L 2.6875 54.6875 
L 9.28125 54.6875 
L 9.28125 70.21875 
z
" id="DejaVuSans-74"/>
       <path d="M 9.421875 54.6875 
L 18.40625 54.6875 
L 18.40625 0 
L 9.421875 0 
z
M 9.421875 75.984375 
L 18.40625 75.984375 
L 18.40625 64.59375 
L 9.421875 64.59375 
z
" id="DejaVuSans-69"/>
       <path d="M 54.890625 33.015625 
L 54.890625 0 
L 45.90625 0 
L 45.90625 32.71875 
Q 45.90625 40.484375 42.875 44.328125 
Q 39.84375 48.1875 33.796875 48.1875 
Q 26.515625 48.1875 22.3125 43.546875 
Q 18.109375 38.921875 18.109375 30.90625 
L 18.109375 0 
L 9.078125 0 
L 9.078125 54.6875 
L 18.109375 54.6875 
L 18.109375 46.1875 
Q 21.34375 51.125 25.703125 53.5625 
Q 30.078125 56 35.796875 56 
Q 45.21875 56 50.046875 50.171875 
Q 54.890625 44.34375 54.890625 33.015625 
z
" id="DejaVuSans-6e"/>
       <path d="M 45.40625 27.984375 
Q 45.40625 37.75 41.375 43.109375 
Q 37.359375 48.484375 30.078125 48.484375 
Q 22.859375 48.484375 18.828125 43.109375 
Q 14.796875 37.75 14.796875 27.984375 
Q 14.796875 18.265625 18.828125 12.890625 
Q 22.859375 7.515625 30.078125 7.515625 
Q 37.359375 7.515625 41.375 12.890625 
Q 45.40625 18.265625 45.40625 27.984375 
z
M 54.390625 6.78125 
Q 54.390625 -7.171875 48.1875 -13.984375 
Q 42 -20.796875 29.203125 -20.796875 
Q 24.46875 -20.796875 20.265625 -20.09375 
Q 16.0625 -19.390625 12.109375 -17.921875 
L 12.109375 -9.1875 
Q 16.0625 -11.328125 19.921875 -12.34375 
Q 23.78125 -13.375 27.78125 -13.375 
Q 36.625 -13.375 41.015625 -8.765625 
Q 45.40625 -4.15625 45.40625 5.171875 
L 45.40625 9.625 
Q 42.625 4.78125 38.28125 2.390625 
Q 33.9375 0 27.875 0 
Q 17.828125 0 11.671875 7.65625 
Q 5.515625 15.328125 5.515625 27.984375 
Q 5.515625 40.671875 11.671875 48.328125 
Q 17.828125 56 27.875 56 
Q 33.9375 56 38.28125 53.609375 
Q 42.625 51.21875 45.40625 46.390625 
L 45.40625 54.6875 
L 54.390625 54.6875 
z
" id="DejaVuSans-67"/>
       <path d="M 50.984375 -16.609375 
L 50.984375 -23.578125 
L -0.984375 -23.578125 
L -0.984375 -16.609375 
z
" id="DejaVuSans-5f"/>
       <path d="M 48.78125 52.59375 
L 48.78125 44.1875 
Q 44.96875 46.296875 41.140625 47.34375 
Q 37.3125 48.390625 33.40625 48.390625 
Q 24.65625 48.390625 19.8125 42.84375 
Q 14.984375 37.3125 14.984375 27.296875 
Q 14.984375 17.28125 19.8125 11.734375 
Q 24.65625 6.203125 33.40625 6.203125 
Q 37.3125 6.203125 41.140625 7.25 
Q 44.96875 8.296875 48.78125 10.40625 
L 48.78125 2.09375 
Q 45.015625 0.34375 40.984375 -0.53125 
Q 36.96875 -1.421875 32.421875 -1.421875 
Q 20.0625 -1.421875 12.78125 6.34375 
Q 5.515625 14.109375 5.515625 27.296875 
Q 5.515625 40.671875 12.859375 48.328125 
Q 20.21875 56 33.015625 56 
Q 37.15625 56 41.109375 55.140625 
Q 45.0625 54.296875 48.78125 52.59375 
z
" id="DejaVuSans-63"/>
       <path d="M 37.109375 75.984375 
L 37.109375 68.5 
L 28.515625 68.5 
Q 23.6875 68.5 21.796875 66.546875 
Q 19.921875 64.59375 19.921875 59.515625 
L 19.921875 54.6875 
L 34.71875 54.6875 
L 34.71875 47.703125 
L 19.921875 47.703125 
L 19.921875 0 
L 10.890625 0 
L 10.890625 47.703125 
L 2.296875 47.703125 
L 2.296875 54.6875 
L 10.890625 54.6875 
L 10.890625 58.5 
Q 10.890625 67.625 15.140625 71.796875 
Q 19.390625 75.984375 28.609375 75.984375 
z
" id="DejaVuSans-66"/>
      </defs>
      <g style="fill:#262626;" transform="translate(98.674776 395.22419)rotate(-30)scale(0.1 -0.1)">
       <use xlink:href="#DejaVuSans-50"/>
       <use x="60.302734" xlink:href="#DejaVuSans-6c"/>
       <use x="88.085938" xlink:href="#DejaVuSans-6f"/>
       <use x="149.267578" xlink:href="#DejaVuSans-74"/>
       <use x="188.476562" xlink:href="#DejaVuSans-74"/>
       <use x="227.685547" xlink:href="#DejaVuSans-69"/>
       <use x="255.46875" xlink:href="#DejaVuSans-6e"/>
       <use x="318.847656" xlink:href="#DejaVuSans-67"/>
       <use x="382.324219" xlink:href="#DejaVuSans-5f"/>
       <use x="432.324219" xlink:href="#DejaVuSans-63"/>
       <use x="487.304688" xlink:href="#DejaVuSans-63"/>
       <use x="542.285156" xlink:href="#DejaVuSans-63"/>
       <use x="597.265625" xlink:href="#DejaVuSans-66"/>
       <use x="632.470703" xlink:href="#DejaVuSans-66"/>
       <use x="667.675781" xlink:href="#DejaVuSans-66"/>
      </g>
     </g>
    </g>
    <g id="xtick_2">
     <g id="line2d_3">
      <path clip-path="url(#pfecb97080f)" d="M 239.4 346.5 
L 239.4 47.52 
" style="fill:none;stroke:#ffffff;stroke-linecap:round;"/>
     </g>
     <g id="line2d_4"/>
     <g id="text_2">
      <!-- Plotting_cccfdff -->
      <defs>
       <path d="M 45.40625 46.390625 
L 45.40625 75.984375 
L 54.390625 75.984375 
L 54.390625 0 
L 45.40625 0 
L 45.40625 8.203125 
Q 42.578125 3.328125 38.25 0.953125 
Q 33.9375 -1.421875 27.875 -1.421875 
Q 17.96875 -1.421875 11.734375 6.484375 
Q 5.515625 14.40625 5.515625 27.296875 
Q 5.515625 40.1875 11.734375 48.09375 
Q 17.96875 56 27.875 56 
Q 33.9375 56 38.25 53.625 
Q 42.578125 51.265625 45.40625 46.390625 
z
M 14.796875 27.296875 
Q 14.796875 17.390625 18.875 11.75 
Q 22.953125 6.109375 30.078125 6.109375 
Q 37.203125 6.109375 41.296875 11.75 
Q 45.40625 17.390625 45.40625 27.296875 
Q 45.40625 37.203125 41.296875 42.84375 
Q 37.203125 48.484375 30.078125 48.484375 
Q 22.953125 48.484375 18.875 42.84375 
Q 14.796875 37.203125 14.796875 27.296875 
z
" id="DejaVuSans-64"/>
      </defs>
      <g style="fill:#262626;" transform="translate(207.525822 398.398409)rotate(-30)scale(0.1 -0.1)">
       <use xlink:href="#DejaVuSans-50"/>
       <use x="60.302734" xlink:href="#DejaVuSans-6c"/>
       <use x="88.085938" xlink:href="#DejaVuSans-6f"/>
       <use x="149.267578" xlink:href="#DejaVuSans-74"/>
       <use x="188.476562" xlink:href="#DejaVuSans-74"/>
       <use x="227.685547" xlink:href="#DejaVuSans-69"/>
       <use x="255.46875" xlink:href="#DejaVuSans-6e"/>
       <use x="318.847656" xlink:href="#DejaVuSans-67"/>
       <use x="382.324219" xlink:href="#DejaVuSans-5f"/>
       <use x="432.324219" xlink:href="#DejaVuSans-63"/>
       <use x="487.304688" xlink:href="#DejaVuSans-63"/>
       <use x="542.285156" xlink:href="#DejaVuSans-63"/>
       <use x="597.265625" xlink:href="#DejaVuSans-66"/>
       <use x="632.470703" xlink:href="#DejaVuSans-64"/>
       <use x="695.947266" xlink:href="#DejaVuSans-66"/>
       <use x="731.152344" xlink:href="#DejaVuSans-66"/>
      </g>
     </g>
    </g>
    <g id="xtick_3">
     <g id="line2d_5">
      <path clip-path="url(#pfecb97080f)" d="M 351 346.5 
L 351 47.52 
" style="fill:none;stroke:#ffffff;stroke-linecap:round;"/>
     </g>
     <g id="line2d_6"/>
     <g id="text_3">
      <!-- Plotting_cccffdf -->
      <g style="fill:#262626;" transform="translate(319.125822 398.398409)rotate(-30)scale(0.1 -0.1)">
       <use xlink:href="#DejaVuSans-50"/>
       <use x="60.302734" xlink:href="#DejaVuSans-6c"/>
       <use x="88.085938" xlink:href="#DejaVuSans-6f"/>
       <use x="149.267578" xlink:href="#DejaVuSans-74"/>
       <use x="188.476562" xlink:href="#DejaVuSans-74"/>
       <use x="227.685547" xlink:href="#DejaVuSans-69"/>
       <use x="255.46875" xlink:href="#DejaVuSans-6e"/>
       <use x="318.847656" xlink:href="#DejaVuSans-67"/>
       <use x="382.324219" xlink:href="#DejaVuSans-5f"/>
       <use x="432.324219" xlink:href="#DejaVuSans-63"/>
       <use x="487.304688" xlink:href="#DejaVuSans-63"/>
       <use x="542.285156" xlink:href="#DejaVuSans-63"/>
       <use x="597.265625" xlink:href="#DejaVuSans-66"/>
       <use x="632.470703" xlink:href="#DejaVuSans-66"/>
       <use x="667.675781" xlink:href="#DejaVuSans-64"/>
       <use x="731.152344" xlink:href="#DejaVuSans-66"/>
      </g>
     </g>
    </g>
    <g id="xtick_4">
     <g id="line2d_7">
      <path clip-path="url(#pfecb97080f)" d="M 462.6 346.5 
L 462.6 47.52 
" style="fill:none;stroke:#ffffff;stroke-linecap:round;"/>
     </g>
     <g id="line2d_8"/>
     <g id="text_4">
      <!-- Plotting_cccfffd -->
      <g style="fill:#262626;" transform="translate(430.725822 398.398409)rotate(-30)scale(0.1 -0.1)">
       <use xlink:href="#DejaVuSans-50"/>
       <use x="60.302734" xlink:href="#DejaVuSans-6c"/>
       <use x="88.085938" xlink:href="#DejaVuSans-6f"/>
       <use x="149.267578" xlink:href="#DejaVuSans-74"/>
       <use x="188.476562" xlink:href="#DejaVuSans-74"/>
       <use x="227.685547" xlink:href="#DejaVuSans-69"/>
       <use x="255.46875" xlink:href="#DejaVuSans-6e"/>
       <use x="318.847656" xlink:href="#DejaVuSans-67"/>
       <use x="382.324219" xlink:href="#DejaVuSans-5f"/>
       <use x="432.324219" xlink:href="#DejaVuSans-63"/>
       <use x="487.304688" xlink:href="#DejaVuSans-63"/>
       <use x="542.285156" xlink:href="#DejaVuSans-63"/>
       <use x="597.265625" xlink:href="#DejaVuSans-66"/>
       <use x="632.470703" xlink:href="#DejaVuSans-66"/>
       <use x="667.675781" xlink:href="#DejaVuSans-66"/>
       <use x="702.880859" xlink:href="#DejaVuSans-64"/>
      </g>
     </g>
    </g>
    <g id="text_5">
     <!-- Architectures -->
     <defs>
      <path d="M 34.1875 63.1875 
L 20.796875 26.90625 
L 47.609375 26.90625 
z
M 28.609375 72.90625 
L 39.796875 72.90625 
L 67.578125 0 
L 57.328125 0 
L 50.6875 18.703125 
L 17.828125 18.703125 
L 11.1875 0 
L 0.78125 0 
z
" id="DejaVuSans-41"/>
      <path d="M 41.109375 46.296875 
Q 39.59375 47.171875 37.8125 47.578125 
Q 36.03125 48 33.890625 48 
Q 26.265625 48 22.1875 43.046875 
Q 18.109375 38.09375 18.109375 28.8125 
L 18.109375 0 
L 9.078125 0 
L 9.078125 54.6875 
L 18.109375 54.6875 
L 18.109375 46.1875 
Q 20.953125 51.171875 25.484375 53.578125 
Q 30.03125 56 36.53125 56 
Q 37.453125 56 38.578125 55.875 
Q 39.703125 55.765625 41.0625 55.515625 
z
" id="DejaVuSans-72"/>
      <path d="M 54.890625 33.015625 
L 54.890625 0 
L 45.90625 0 
L 45.90625 32.71875 
Q 45.90625 40.484375 42.875 44.328125 
Q 39.84375 48.1875 33.796875 48.1875 
Q 26.515625 48.1875 22.3125 43.546875 
Q 18.109375 38.921875 18.109375 30.90625 
L 18.109375 0 
L 9.078125 0 
L 9.078125 75.984375 
L 18.109375 75.984375 
L 18.109375 46.1875 
Q 21.34375 51.125 25.703125 53.5625 
Q 30.078125 56 35.796875 56 
Q 45.21875 56 50.046875 50.171875 
Q 54.890625 44.34375 54.890625 33.015625 
z
" id="DejaVuSans-68"/>
      <path d="M 56.203125 29.59375 
L 56.203125 25.203125 
L 14.890625 25.203125 
Q 15.484375 15.921875 20.484375 11.0625 
Q 25.484375 6.203125 34.421875 6.203125 
Q 39.59375 6.203125 44.453125 7.46875 
Q 49.3125 8.734375 54.109375 11.28125 
L 54.109375 2.78125 
Q 49.265625 0.734375 44.1875 -0.34375 
Q 39.109375 -1.421875 33.890625 -1.421875 
Q 20.796875 -1.421875 13.15625 6.1875 
Q 5.515625 13.8125 5.515625 26.8125 
Q 5.515625 40.234375 12.765625 48.109375 
Q 20.015625 56 32.328125 56 
Q 43.359375 56 49.78125 48.890625 
Q 56.203125 41.796875 56.203125 29.59375 
z
M 47.21875 32.234375 
Q 47.125 39.59375 43.09375 43.984375 
Q 39.0625 48.390625 32.421875 48.390625 
Q 24.90625 48.390625 20.390625 44.140625 
Q 15.875 39.890625 15.1875 32.171875 
z
" id="DejaVuSans-65"/>
      <path d="M 8.5 21.578125 
L 8.5 54.6875 
L 17.484375 54.6875 
L 17.484375 21.921875 
Q 17.484375 14.15625 20.5 10.265625 
Q 23.53125 6.390625 29.59375 6.390625 
Q 36.859375 6.390625 41.078125 11.03125 
Q 45.3125 15.671875 45.3125 23.6875 
L 45.3125 54.6875 
L 54.296875 54.6875 
L 54.296875 0 
L 45.3125 0 
L 45.3125 8.40625 
Q 42.046875 3.421875 37.71875 1 
Q 33.40625 -1.421875 27.6875 -1.421875 
Q 18.265625 -1.421875 13.375 4.4375 
Q 8.5 10.296875 8.5 21.578125 
z
M 31.109375 56 
z
" id="DejaVuSans-75"/>
      <path d="M 44.28125 53.078125 
L 44.28125 44.578125 
Q 40.484375 46.53125 36.375 47.5 
Q 32.28125 48.484375 27.875 48.484375 
Q 21.1875 48.484375 17.84375 46.4375 
Q 14.5 44.390625 14.5 40.28125 
Q 14.5 37.15625 16.890625 35.375 
Q 19.28125 33.59375 26.515625 31.984375 
L 29.59375 31.296875 
Q 39.15625 29.25 43.1875 25.515625 
Q 47.21875 21.78125 47.21875 15.09375 
Q 47.21875 7.46875 41.1875 3.015625 
Q 35.15625 -1.421875 24.609375 -1.421875 
Q 20.21875 -1.421875 15.453125 -0.5625 
Q 10.6875 0.296875 5.421875 2 
L 5.421875 11.28125 
Q 10.40625 8.6875 15.234375 7.390625 
Q 20.0625 6.109375 24.8125 6.109375 
Q 31.15625 6.109375 34.5625 8.28125 
Q 37.984375 10.453125 37.984375 14.40625 
Q 37.984375 18.0625 35.515625 20.015625 
Q 33.0625 21.96875 24.703125 23.78125 
L 21.578125 24.515625 
Q 13.234375 26.265625 9.515625 29.90625 
Q 5.8125 33.546875 5.8125 39.890625 
Q 5.8125 47.609375 11.28125 51.796875 
Q 16.75 56 26.8125 56 
Q 31.78125 56 36.171875 55.265625 
Q 40.578125 54.546875 44.28125 53.078125 
z
" id="DejaVuSans-73"/>
     </defs>
     <g style="fill:#262626;" transform="translate(258.425625 412.798615)scale(0.11 -0.11)">
      <use xlink:href="#DejaVuSans-41"/>
      <use x="68.408203" xlink:href="#DejaVuSans-72"/>
      <use x="109.490234" xlink:href="#DejaVuSans-63"/>
      <use x="164.470703" xlink:href="#DejaVuSans-68"/>
      <use x="227.849609" xlink:href="#DejaVuSans-69"/>
      <use x="255.632812" xlink:href="#DejaVuSans-74"/>
      <use x="294.841797" xlink:href="#DejaVuSans-65"/>
      <use x="356.365234" xlink:href="#DejaVuSans-63"/>
      <use x="411.345703" xlink:href="#DejaVuSans-74"/>
      <use x="450.554688" xlink:href="#DejaVuSans-75"/>
      <use x="513.933594" xlink:href="#DejaVuSans-72"/>
      <use x="555.015625" xlink:href="#DejaVuSans-65"/>
      <use x="616.539062" xlink:href="#DejaVuSans-73"/>
     </g>
    </g>
   </g>
   <g id="matplotlib.axis_2">
    <g id="ytick_1">
     <g id="line2d_9">
      <path clip-path="url(#pfecb97080f)" d="M 72 342.86893 
L 518.4 342.86893 
" style="fill:none;stroke:#ffffff;stroke-linecap:round;"/>
     </g>
     <g id="line2d_10"/>
     <g id="text_6">
      <!-- 0.940 -->
      <defs>
       <path d="M 31.78125 66.40625 
Q 24.171875 66.40625 20.328125 58.90625 
Q 16.5 51.421875 16.5 36.375 
Q 16.5 21.390625 20.328125 13.890625 
Q 24.171875 6.390625 31.78125 6.390625 
Q 39.453125 6.390625 43.28125 13.890625 
Q 47.125 21.390625 47.125 36.375 
Q 47.125 51.421875 43.28125 58.90625 
Q 39.453125 66.40625 31.78125 66.40625 
z
M 31.78125 74.21875 
Q 44.046875 74.21875 50.515625 64.515625 
Q 56.984375 54.828125 56.984375 36.375 
Q 56.984375 17.96875 50.515625 8.265625 
Q 44.046875 -1.421875 31.78125 -1.421875 
Q 19.53125 -1.421875 13.0625 8.265625 
Q 6.59375 17.96875 6.59375 36.375 
Q 6.59375 54.828125 13.0625 64.515625 
Q 19.53125 74.21875 31.78125 74.21875 
z
" id="DejaVuSans-30"/>
       <path d="M 10.6875 12.40625 
L 21 12.40625 
L 21 0 
L 10.6875 0 
z
" id="DejaVuSans-2e"/>
       <path d="M 10.984375 1.515625 
L 10.984375 10.5 
Q 14.703125 8.734375 18.5 7.8125 
Q 22.3125 6.890625 25.984375 6.890625 
Q 35.75 6.890625 40.890625 13.453125 
Q 46.046875 20.015625 46.78125 33.40625 
Q 43.953125 29.203125 39.59375 26.953125 
Q 35.25 24.703125 29.984375 24.703125 
Q 19.046875 24.703125 12.671875 31.3125 
Q 6.296875 37.9375 6.296875 49.421875 
Q 6.296875 60.640625 12.9375 67.421875 
Q 19.578125 74.21875 30.609375 74.21875 
Q 43.265625 74.21875 49.921875 64.515625 
Q 56.59375 54.828125 56.59375 36.375 
Q 56.59375 19.140625 48.40625 8.859375 
Q 40.234375 -1.421875 26.421875 -1.421875 
Q 22.703125 -1.421875 18.890625 -0.6875 
Q 15.09375 0.046875 10.984375 1.515625 
z
M 30.609375 32.421875 
Q 37.25 32.421875 41.125 36.953125 
Q 45.015625 41.5 45.015625 49.421875 
Q 45.015625 57.28125 41.125 61.84375 
Q 37.25 66.40625 30.609375 66.40625 
Q 23.96875 66.40625 20.09375 61.84375 
Q 16.21875 57.28125 16.21875 49.421875 
Q 16.21875 41.5 20.09375 36.953125 
Q 23.96875 32.421875 30.609375 32.421875 
z
" id="DejaVuSans-39"/>
       <path d="M 37.796875 64.3125 
L 12.890625 25.390625 
L 37.796875 25.390625 
z
M 35.203125 72.90625 
L 47.609375 72.90625 
L 47.609375 25.390625 
L 58.015625 25.390625 
L 58.015625 17.1875 
L 47.609375 17.1875 
L 47.609375 0 
L 37.796875 0 
L 37.796875 17.1875 
L 4.890625 17.1875 
L 4.890625 26.703125 
z
" id="DejaVuSans-34"/>
      </defs>
      <g style="fill:#262626;" transform="translate(36.371875 346.668149)scale(0.1 -0.1)">
       <use xlink:href="#DejaVuSans-30"/>
       <use x="63.623047" xlink:href="#DejaVuSans-2e"/>
       <use x="95.410156" xlink:href="#DejaVuSans-39"/>
       <use x="159.033203" xlink:href="#DejaVuSans-34"/>
       <use x="222.65625" xlink:href="#DejaVuSans-30"/>
      </g>
     </g>
    </g>
    <g id="ytick_2">
     <g id="line2d_11">
      <path clip-path="url(#pfecb97080f)" d="M 72 295.726419 
L 518.4 295.726419 
" style="fill:none;stroke:#ffffff;stroke-linecap:round;"/>
     </g>
     <g id="line2d_12"/>
     <g id="text_7">
      <!-- 0.942 -->
      <defs>
       <path d="M 19.1875 8.296875 
L 53.609375 8.296875 
L 53.609375 0 
L 7.328125 0 
L 7.328125 8.296875 
Q 12.9375 14.109375 22.625 23.890625 
Q 32.328125 33.6875 34.8125 36.53125 
Q 39.546875 41.84375 41.421875 45.53125 
Q 43.3125 49.21875 43.3125 52.78125 
Q 43.3125 58.59375 39.234375 62.25 
Q 35.15625 65.921875 28.609375 65.921875 
Q 23.96875 65.921875 18.8125 64.3125 
Q 13.671875 62.703125 7.8125 59.421875 
L 7.8125 69.390625 
Q 13.765625 71.78125 18.9375 73 
Q 24.125 74.21875 28.421875 74.21875 
Q 39.75 74.21875 46.484375 68.546875 
Q 53.21875 62.890625 53.21875 53.421875 
Q 53.21875 48.921875 51.53125 44.890625 
Q 49.859375 40.875 45.40625 35.40625 
Q 44.1875 33.984375 37.640625 27.21875 
Q 31.109375 20.453125 19.1875 8.296875 
z
" id="DejaVuSans-32"/>
      </defs>
      <g style="fill:#262626;" transform="translate(36.371875 299.525638)scale(0.1 -0.1)">
       <use xlink:href="#DejaVuSans-30"/>
       <use x="63.623047" xlink:href="#DejaVuSans-2e"/>
       <use x="95.410156" xlink:href="#DejaVuSans-39"/>
       <use x="159.033203" xlink:href="#DejaVuSans-34"/>
       <use x="222.65625" xlink:href="#DejaVuSans-32"/>
      </g>
     </g>
    </g>
    <g id="ytick_3">
     <g id="line2d_13">
      <path clip-path="url(#pfecb97080f)" d="M 72 248.583908 
L 518.4 248.583908 
" style="fill:none;stroke:#ffffff;stroke-linecap:round;"/>
     </g>
     <g id="line2d_14"/>
     <g id="text_8">
      <!-- 0.944 -->
      <g style="fill:#262626;" transform="translate(36.371875 252.383126)scale(0.1 -0.1)">
       <use xlink:href="#DejaVuSans-30"/>
       <use x="63.623047" xlink:href="#DejaVuSans-2e"/>
       <use x="95.410156" xlink:href="#DejaVuSans-39"/>
       <use x="159.033203" xlink:href="#DejaVuSans-34"/>
       <use x="222.65625" xlink:href="#DejaVuSans-34"/>
      </g>
     </g>
    </g>
    <g id="ytick_4">
     <g id="line2d_15">
      <path clip-path="url(#pfecb97080f)" d="M 72 201.441396 
L 518.4 201.441396 
" style="fill:none;stroke:#ffffff;stroke-linecap:round;"/>
     </g>
     <g id="line2d_16"/>
     <g id="text_9">
      <!-- 0.946 -->
      <defs>
       <path d="M 33.015625 40.375 
Q 26.375 40.375 22.484375 35.828125 
Q 18.609375 31.296875 18.609375 23.390625 
Q 18.609375 15.53125 22.484375 10.953125 
Q 26.375 6.390625 33.015625 6.390625 
Q 39.65625 6.390625 43.53125 10.953125 
Q 47.40625 15.53125 47.40625 23.390625 
Q 47.40625 31.296875 43.53125 35.828125 
Q 39.65625 40.375 33.015625 40.375 
z
M 52.59375 71.296875 
L 52.59375 62.3125 
Q 48.875 64.0625 45.09375 64.984375 
Q 41.3125 65.921875 37.59375 65.921875 
Q 27.828125 65.921875 22.671875 59.328125 
Q 17.53125 52.734375 16.796875 39.40625 
Q 19.671875 43.65625 24.015625 45.921875 
Q 28.375 48.1875 33.59375 48.1875 
Q 44.578125 48.1875 50.953125 41.515625 
Q 57.328125 34.859375 57.328125 23.390625 
Q 57.328125 12.15625 50.6875 5.359375 
Q 44.046875 -1.421875 33.015625 -1.421875 
Q 20.359375 -1.421875 13.671875 8.265625 
Q 6.984375 17.96875 6.984375 36.375 
Q 6.984375 53.65625 15.1875 63.9375 
Q 23.390625 74.21875 37.203125 74.21875 
Q 40.921875 74.21875 44.703125 73.484375 
Q 48.484375 72.75 52.59375 71.296875 
z
" id="DejaVuSans-36"/>
      </defs>
      <g style="fill:#262626;" transform="translate(36.371875 205.240615)scale(0.1 -0.1)">
       <use xlink:href="#DejaVuSans-30"/>
       <use x="63.623047" xlink:href="#DejaVuSans-2e"/>
       <use x="95.410156" xlink:href="#DejaVuSans-39"/>
       <use x="159.033203" xlink:href="#DejaVuSans-34"/>
       <use x="222.65625" xlink:href="#DejaVuSans-36"/>
      </g>
     </g>
    </g>
    <g id="ytick_5">
     <g id="line2d_17">
      <path clip-path="url(#pfecb97080f)" d="M 72 154.298885 
L 518.4 154.298885 
" style="fill:none;stroke:#ffffff;stroke-linecap:round;"/>
     </g>
     <g id="line2d_18"/>
     <g id="text_10">
      <!-- 0.948 -->
      <defs>
       <path d="M 31.78125 34.625 
Q 24.75 34.625 20.71875 30.859375 
Q 16.703125 27.09375 16.703125 20.515625 
Q 16.703125 13.921875 20.71875 10.15625 
Q 24.75 6.390625 31.78125 6.390625 
Q 38.8125 6.390625 42.859375 10.171875 
Q 46.921875 13.96875 46.921875 20.515625 
Q 46.921875 27.09375 42.890625 30.859375 
Q 38.875 34.625 31.78125 34.625 
z
M 21.921875 38.8125 
Q 15.578125 40.375 12.03125 44.71875 
Q 8.5 49.078125 8.5 55.328125 
Q 8.5 64.0625 14.71875 69.140625 
Q 20.953125 74.21875 31.78125 74.21875 
Q 42.671875 74.21875 48.875 69.140625 
Q 55.078125 64.0625 55.078125 55.328125 
Q 55.078125 49.078125 51.53125 44.71875 
Q 48 40.375 41.703125 38.8125 
Q 48.828125 37.15625 52.796875 32.3125 
Q 56.78125 27.484375 56.78125 20.515625 
Q 56.78125 9.90625 50.3125 4.234375 
Q 43.84375 -1.421875 31.78125 -1.421875 
Q 19.734375 -1.421875 13.25 4.234375 
Q 6.78125 9.90625 6.78125 20.515625 
Q 6.78125 27.484375 10.78125 32.3125 
Q 14.796875 37.15625 21.921875 38.8125 
z
M 18.3125 54.390625 
Q 18.3125 48.734375 21.84375 45.5625 
Q 25.390625 42.390625 31.78125 42.390625 
Q 38.140625 42.390625 41.71875 45.5625 
Q 45.3125 48.734375 45.3125 54.390625 
Q 45.3125 60.0625 41.71875 63.234375 
Q 38.140625 66.40625 31.78125 66.40625 
Q 25.390625 66.40625 21.84375 63.234375 
Q 18.3125 60.0625 18.3125 54.390625 
z
" id="DejaVuSans-38"/>
      </defs>
      <g style="fill:#262626;" transform="translate(36.371875 158.098103)scale(0.1 -0.1)">
       <use xlink:href="#DejaVuSans-30"/>
       <use x="63.623047" xlink:href="#DejaVuSans-2e"/>
       <use x="95.410156" xlink:href="#DejaVuSans-39"/>
       <use x="159.033203" xlink:href="#DejaVuSans-34"/>
       <use x="222.65625" xlink:href="#DejaVuSans-38"/>
      </g>
     </g>
    </g>
    <g id="ytick_6">
     <g id="line2d_19">
      <path clip-path="url(#pfecb97080f)" d="M 72 107.156373 
L 518.4 107.156373 
" style="fill:none;stroke:#ffffff;stroke-linecap:round;"/>
     </g>
     <g id="line2d_20"/>
     <g id="text_11">
      <!-- 0.950 -->
      <defs>
       <path d="M 10.796875 72.90625 
L 49.515625 72.90625 
L 49.515625 64.59375 
L 19.828125 64.59375 
L 19.828125 46.734375 
Q 21.96875 47.46875 24.109375 47.828125 
Q 26.265625 48.1875 28.421875 48.1875 
Q 40.625 48.1875 47.75 41.5 
Q 54.890625 34.8125 54.890625 23.390625 
Q 54.890625 11.625 47.5625 5.09375 
Q 40.234375 -1.421875 26.90625 -1.421875 
Q 22.3125 -1.421875 17.546875 -0.640625 
Q 12.796875 0.140625 7.71875 1.703125 
L 7.71875 11.625 
Q 12.109375 9.234375 16.796875 8.0625 
Q 21.484375 6.890625 26.703125 6.890625 
Q 35.15625 6.890625 40.078125 11.328125 
Q 45.015625 15.765625 45.015625 23.390625 
Q 45.015625 31 40.078125 35.4375 
Q 35.15625 39.890625 26.703125 39.890625 
Q 22.75 39.890625 18.8125 39.015625 
Q 14.890625 38.140625 10.796875 36.28125 
z
" id="DejaVuSans-35"/>
      </defs>
      <g style="fill:#262626;" transform="translate(36.371875 110.955592)scale(0.1 -0.1)">
       <use xlink:href="#DejaVuSans-30"/>
       <use x="63.623047" xlink:href="#DejaVuSans-2e"/>
       <use x="95.410156" xlink:href="#DejaVuSans-39"/>
       <use x="159.033203" xlink:href="#DejaVuSans-35"/>
       <use x="222.65625" xlink:href="#DejaVuSans-30"/>
      </g>
     </g>
    </g>
    <g id="ytick_7">
     <g id="line2d_21">
      <path clip-path="url(#pfecb97080f)" d="M 72 60.013862 
L 518.4 60.013862 
" style="fill:none;stroke:#ffffff;stroke-linecap:round;"/>
     </g>
     <g id="line2d_22"/>
     <g id="text_12">
      <!-- 0.952 -->
      <g style="fill:#262626;" transform="translate(36.371875 63.813081)scale(0.1 -0.1)">
       <use xlink:href="#DejaVuSans-30"/>
       <use x="63.623047" xlink:href="#DejaVuSans-2e"/>
       <use x="95.410156" xlink:href="#DejaVuSans-39"/>
       <use x="159.033203" xlink:href="#DejaVuSans-35"/>
       <use x="222.65625" xlink:href="#DejaVuSans-32"/>
      </g>
     </g>
    </g>
    <g id="text_13">
     <!-- Auc -->
     <g style="fill:#262626;" transform="translate(30.084219 207.282109)rotate(-90)scale(0.11 -0.11)">
      <use xlink:href="#DejaVuSans-41"/>
      <use x="68.408203" xlink:href="#DejaVuSans-75"/>
      <use x="131.787109" xlink:href="#DejaVuSans-63"/>
     </g>
    </g>
   </g>
   <g id="PolyCollection_1">
    <defs>
     <path d="M 132.261744 -163.718266 
L 123.338256 -163.718266 
L 122.711791 -165.07725 
L 122.020216 -166.436234 
L 121.260484 -167.795218 
L 120.429993 -169.154202 
L 119.526687 -170.513186 
L 118.549153 -171.87217 
L 117.496722 -173.231155 
L 116.369567 -174.590139 
L 115.168789 -175.949123 
L 113.896494 -177.308107 
L 112.555865 -178.667091 
L 111.1512 -180.026075 
L 109.687954 -181.385059 
L 108.172736 -182.744043 
L 106.613301 -184.103027 
L 105.018502 -185.462012 
L 103.398228 -186.820996 
L 101.763299 -188.17998 
L 100.12535 -189.538964 
L 98.496678 -190.897948 
L 96.890069 -192.256932 
L 95.318606 -193.615916 
L 93.795455 -194.9749 
L 92.33364 -196.333885 
L 90.945814 -197.692869 
L 89.644022 -199.051853 
L 88.439468 -200.410837 
L 87.342297 -201.769821 
L 86.36139 -203.128805 
L 85.504178 -204.487789 
L 84.776486 -205.846773 
L 84.182413 -207.205758 
L 83.72424 -208.564742 
L 83.402385 -209.923726 
L 83.2154 -211.28271 
L 83.16 -212.641694 
L 83.23115 -214.000678 
L 83.42218 -215.359662 
L 83.724946 -216.718646 
L 84.130019 -218.07763 
L 84.62691 -219.436615 
L 85.20431 -220.795599 
L 85.850354 -222.154583 
L 86.552888 -223.513567 
L 87.299747 -224.872551 
L 88.079015 -226.231535 
L 88.879285 -227.590519 
L 89.689893 -228.949503 
L 90.501127 -230.308488 
L 91.304407 -231.667472 
L 92.092429 -233.026456 
L 92.85927 -234.38544 
L 93.600455 -235.744424 
L 94.312982 -237.103408 
L 94.995303 -238.462392 
L 95.647272 -239.821376 
L 96.270054 -241.180361 
L 96.865999 -242.539345 
L 97.438495 -243.898329 
L 97.991793 -245.257313 
L 98.530816 -246.616297 
L 99.060965 -247.975281 
L 99.587908 -249.334265 
L 100.117384 -250.693249 
L 100.655006 -252.052234 
L 101.206084 -253.411218 
L 101.775455 -254.770202 
L 102.367351 -256.129186 
L 102.985273 -257.48817 
L 103.63191 -258.847154 
L 104.309071 -260.206138 
L 105.017653 -261.565122 
L 105.757639 -262.924106 
L 106.528113 -264.283091 
L 107.327311 -265.642075 
L 108.152683 -267.001059 
L 109.00098 -268.360043 
L 109.868353 -269.719027 
L 110.750464 -271.078011 
L 111.642601 -272.436995 
L 112.5398 -273.795979 
L 113.436968 -275.154964 
L 114.328991 -276.513948 
L 115.210854 -277.872932 
L 116.077731 -279.231916 
L 116.925081 -280.5909 
L 117.74872 -281.949884 
L 118.544884 -283.308868 
L 119.310278 -284.667852 
L 120.042106 -286.026837 
L 120.738089 -287.385821 
L 121.396476 -288.744805 
L 122.016033 -290.103789 
L 122.596024 -291.462773 
L 123.13619 -292.821757 
L 123.636708 -294.180741 
L 124.098154 -295.539725 
L 124.521457 -296.898709 
L 124.907851 -298.257694 
L 130.692149 -298.257694 
L 130.692149 -298.257694 
L 131.078543 -296.898709 
L 131.501846 -295.539725 
L 131.963292 -294.180741 
L 132.46381 -292.821757 
L 133.003976 -291.462773 
L 133.583967 -290.103789 
L 134.203524 -288.744805 
L 134.861911 -287.385821 
L 135.557894 -286.026837 
L 136.289722 -284.667852 
L 137.055116 -283.308868 
L 137.85128 -281.949884 
L 138.674919 -280.5909 
L 139.522269 -279.231916 
L 140.389146 -277.872932 
L 141.271009 -276.513948 
L 142.163032 -275.154964 
L 143.0602 -273.795979 
L 143.957399 -272.436995 
L 144.849536 -271.078011 
L 145.731647 -269.719027 
L 146.59902 -268.360043 
L 147.447317 -267.001059 
L 148.272689 -265.642075 
L 149.071887 -264.283091 
L 149.842361 -262.924106 
L 150.582347 -261.565122 
L 151.290929 -260.206138 
L 151.96809 -258.847154 
L 152.614727 -257.48817 
L 153.232649 -256.129186 
L 153.824545 -254.770202 
L 154.393916 -253.411218 
L 154.944994 -252.052234 
L 155.482616 -250.693249 
L 156.012092 -249.334265 
L 156.539035 -247.975281 
L 157.069184 -246.616297 
L 157.608207 -245.257313 
L 158.161505 -243.898329 
L 158.734001 -242.539345 
L 159.329946 -241.180361 
L 159.952728 -239.821376 
L 160.604697 -238.462392 
L 161.287018 -237.103408 
L 161.999545 -235.744424 
L 162.74073 -234.38544 
L 163.507571 -233.026456 
L 164.295593 -231.667472 
L 165.098873 -230.308488 
L 165.910107 -228.949503 
L 166.720715 -227.590519 
L 167.520985 -226.231535 
L 168.300253 -224.872551 
L 169.047112 -223.513567 
L 169.749646 -222.154583 
L 170.39569 -220.795599 
L 170.97309 -219.436615 
L 171.469981 -218.07763 
L 171.875054 -216.718646 
L 172.17782 -215.359662 
L 172.36885 -214.000678 
L 172.44 -212.641694 
L 172.3846 -211.28271 
L 172.197615 -209.923726 
L 171.87576 -208.564742 
L 171.417587 -207.205758 
L 170.823514 -205.846773 
L 170.095822 -204.487789 
L 169.23861 -203.128805 
L 168.257703 -201.769821 
L 167.160532 -200.410837 
L 165.955978 -199.051853 
L 164.654186 -197.692869 
L 163.26636 -196.333885 
L 161.804545 -194.9749 
L 160.281394 -193.615916 
L 158.709931 -192.256932 
L 157.103322 -190.897948 
L 155.47465 -189.538964 
L 153.836701 -188.17998 
L 152.201772 -186.820996 
L 150.581498 -185.462012 
L 148.986699 -184.103027 
L 147.427264 -182.744043 
L 145.912046 -181.385059 
L 144.4488 -180.026075 
L 143.044135 -178.667091 
L 141.703506 -177.308107 
L 140.431211 -175.949123 
L 139.230433 -174.590139 
L 138.103278 -173.231155 
L 137.050847 -171.87217 
L 136.073313 -170.513186 
L 135.170007 -169.154202 
L 134.339516 -167.795218 
L 133.579784 -166.436234 
L 132.888209 -165.07725 
L 132.261744 -163.718266 
z
" id="md10fc260ad" style="stroke:#8a8a8a;stroke-width:1.75;"/>
    </defs>
    <g clip-path="url(#pfecb97080f)">
     <use style="fill:#e6e6e6;stroke:#8a8a8a;stroke-width:1.75;" x="0" xlink:href="#md10fc260ad" y="396"/>
    </g>
   </g>
   <g id="PolyCollection_2">
    <defs>
     <path d="M 240.961195 -63.09 
L 237.838805 -63.09 
L 237.616439 -65.835455 
L 237.370509 -68.580909 
L 237.09981 -71.326364 
L 236.803267 -74.071818 
L 236.479964 -76.817273 
L 236.129176 -79.562727 
L 235.750397 -82.308182 
L 235.343368 -85.053636 
L 234.9081 -87.799091 
L 234.4449 -90.544545 
L 233.954384 -93.29 
L 233.437493 -96.035455 
L 232.895501 -98.780909 
L 232.330012 -101.526364 
L 231.74296 -104.271818 
L 231.136597 -107.017273 
L 230.513472 -109.762727 
L 229.87641 -112.508182 
L 229.228479 -115.253636 
L 228.572956 -117.999091 
L 227.913285 -120.744545 
L 227.253032 -123.49 
L 226.595838 -126.235455 
L 225.945367 -128.980909 
L 225.305255 -131.726364 
L 224.679064 -134.471818 
L 224.070224 -137.217273 
L 223.481993 -139.962727 
L 222.917413 -142.708182 
L 222.379267 -145.453636 
L 221.87005 -148.199091 
L 221.391937 -150.944545 
L 220.946766 -153.69 
L 220.536021 -156.435455 
L 220.160825 -159.180909 
L 219.821943 -161.926364 
L 219.519782 -164.671818 
L 219.25441 -167.417273 
L 219.025576 -170.162727 
L 218.832731 -172.908182 
L 218.675062 -175.653636 
L 218.551529 -178.399091 
L 218.460898 -181.144545 
L 218.401787 -183.89 
L 218.372708 -186.635455 
L 218.37211 -189.380909 
L 218.398423 -192.126364 
L 218.450102 -194.871818 
L 218.525662 -197.617273 
L 218.623722 -200.362727 
L 218.743028 -203.108182 
L 218.882487 -205.853636 
L 219.041184 -208.599091 
L 219.218394 -211.344545 
L 219.413595 -214.09 
L 219.626459 -216.835455 
L 219.85685 -219.580909 
L 220.104801 -222.326364 
L 220.370499 -225.071818 
L 220.654249 -227.817273 
L 220.956441 -230.562727 
L 221.277512 -233.308182 
L 221.617902 -236.053636 
L 221.978009 -238.799091 
L 222.358146 -241.544545 
L 222.758498 -244.29 
L 223.17908 -247.035455 
L 223.619702 -249.780909 
L 224.079942 -252.526364 
L 224.559116 -255.271818 
L 225.05627 -258.017273 
L 225.570166 -260.762727 
L 226.099288 -263.508182 
L 226.641851 -266.253636 
L 227.195817 -268.999091 
L 227.758925 -271.744545 
L 228.328721 -274.49 
L 228.902598 -277.235455 
L 229.477841 -279.980909 
L 230.051672 -282.726364 
L 230.621297 -285.471818 
L 231.183956 -288.217273 
L 231.736972 -290.962727 
L 232.277792 -293.708182 
L 232.804029 -296.453636 
L 233.313499 -299.199091 
L 233.804248 -301.944545 
L 234.27458 -304.69 
L 234.723069 -307.435455 
L 235.148576 -310.180909 
L 235.550247 -312.926364 
L 235.927514 -315.671818 
L 236.280082 -318.417273 
L 236.607923 -321.162727 
L 236.911252 -323.908182 
L 237.190508 -326.653636 
L 237.446328 -329.399091 
L 237.679521 -332.144545 
L 237.891045 -334.89 
L 240.908955 -334.89 
L 240.908955 -334.89 
L 241.120479 -332.144545 
L 241.353672 -329.399091 
L 241.609492 -326.653636 
L 241.888748 -323.908182 
L 242.192077 -321.162727 
L 242.519918 -318.417273 
L 242.872486 -315.671818 
L 243.249753 -312.926364 
L 243.651424 -310.180909 
L 244.076931 -307.435455 
L 244.52542 -304.69 
L 244.995752 -301.944545 
L 245.486501 -299.199091 
L 245.995971 -296.453636 
L 246.522208 -293.708182 
L 247.063028 -290.962727 
L 247.616044 -288.217273 
L 248.178703 -285.471818 
L 248.748328 -282.726364 
L 249.322159 -279.980909 
L 249.897402 -277.235455 
L 250.471279 -274.49 
L 251.041075 -271.744545 
L 251.604183 -268.999091 
L 252.158149 -266.253636 
L 252.700712 -263.508182 
L 253.229834 -260.762727 
L 253.74373 -258.017273 
L 254.240884 -255.271818 
L 254.720058 -252.526364 
L 255.180298 -249.780909 
L 255.62092 -247.035455 
L 256.041502 -244.29 
L 256.441854 -241.544545 
L 256.821991 -238.799091 
L 257.182098 -236.053636 
L 257.522488 -233.308182 
L 257.843559 -230.562727 
L 258.145751 -227.817273 
L 258.429501 -225.071818 
L 258.695199 -222.326364 
L 258.94315 -219.580909 
L 259.173541 -216.835455 
L 259.386405 -214.09 
L 259.581606 -211.344545 
L 259.758816 -208.599091 
L 259.917513 -205.853636 
L 260.056972 -203.108182 
L 260.176278 -200.362727 
L 260.274338 -197.617273 
L 260.349898 -194.871818 
L 260.401577 -192.126364 
L 260.42789 -189.380909 
L 260.427292 -186.635455 
L 260.398213 -183.89 
L 260.339102 -181.144545 
L 260.248471 -178.399091 
L 260.124938 -175.653636 
L 259.967269 -172.908182 
L 259.774424 -170.162727 
L 259.54559 -167.417273 
L 259.280218 -164.671818 
L 258.978057 -161.926364 
L 258.639175 -159.180909 
L 258.263979 -156.435455 
L 257.853234 -153.69 
L 257.408063 -150.944545 
L 256.92995 -148.199091 
L 256.420733 -145.453636 
L 255.882587 -142.708182 
L 255.318007 -139.962727 
L 254.729776 -137.217273 
L 254.120936 -134.471818 
L 253.494745 -131.726364 
L 252.854633 -128.980909 
L 252.204162 -126.235455 
L 251.546968 -123.49 
L 250.886715 -120.744545 
L 250.227044 -117.999091 
L 249.571521 -115.253636 
L 248.92359 -112.508182 
L 248.286528 -109.762727 
L 247.663403 -107.017273 
L 247.05704 -104.271818 
L 246.469988 -101.526364 
L 245.904499 -98.780909 
L 245.362507 -96.035455 
L 244.845616 -93.29 
L 244.3551 -90.544545 
L 243.8919 -87.799091 
L 243.456632 -85.053636 
L 243.049603 -82.308182 
L 242.670824 -79.562727 
L 242.320036 -76.817273 
L 241.996733 -74.071818 
L 241.70019 -71.326364 
L 241.429491 -68.580909 
L 241.183561 -65.835455 
L 240.961195 -63.09 
z
" id="m0ec2f9bc04" style="stroke:#8a8a8a;stroke-width:1.75;"/>
    </defs>
    <g clip-path="url(#pfecb97080f)">
     <use style="fill:#e6e6e6;stroke:#8a8a8a;stroke-width:1.75;" x="0" xlink:href="#m0ec2f9bc04" y="396"/>
    </g>
   </g>
   <g id="PolyCollection_3">
    <defs>
     <path d="M 353.801523 -89.407635 
L 348.198477 -89.407635 
L 347.796738 -91.34666 
L 347.351777 -93.285685 
L 346.861312 -95.22471 
L 346.323318 -97.163736 
L 345.736086 -99.102761 
L 345.0983 -101.041786 
L 344.409097 -102.980811 
L 343.668138 -104.919837 
L 342.875673 -106.858862 
L 342.032594 -108.797887 
L 341.140492 -110.736913 
L 340.201695 -112.675938 
L 339.219299 -114.614963 
L 338.197186 -116.553988 
L 337.140021 -118.493014 
L 336.053245 -120.432039 
L 334.943036 -122.371064 
L 333.816258 -124.310089 
L 332.680397 -126.249115 
L 331.543472 -128.18814 
L 330.413926 -130.127165 
L 329.300512 -132.066191 
L 328.212156 -134.005216 
L 327.157815 -135.944241 
L 326.146319 -137.883266 
L 325.186219 -139.822292 
L 324.285628 -141.761317 
L 323.452062 -143.700342 
L 322.692298 -145.639367 
L 322.012236 -147.578393 
L 321.416779 -149.517418 
L 320.909729 -151.456443 
L 320.493713 -153.395468 
L 320.170127 -155.334494 
L 319.939107 -157.273519 
L 319.799536 -159.212544 
L 319.749068 -161.15157 
L 319.784193 -163.090595 
L 319.900318 -165.02962 
L 320.091883 -166.968645 
L 320.352493 -168.907671 
L 320.67507 -170.846696 
L 321.052022 -172.785721 
L 321.47542 -174.724746 
L 321.937185 -176.663772 
L 322.429268 -178.602797 
L 322.943828 -180.541822 
L 323.473408 -182.480848 
L 324.011084 -184.419873 
L 324.550605 -186.358898 
L 325.086507 -188.297923 
L 325.614204 -190.236949 
L 326.130053 -192.175974 
L 326.631386 -194.114999 
L 327.116521 -196.054024 
L 327.584741 -197.99305 
L 328.036246 -199.932075 
L 328.472084 -201.8711 
L 328.894057 -203.810126 
L 329.304612 -205.749151 
L 329.70672 -207.688176 
L 330.103735 -209.627201 
L 330.499264 -211.566227 
L 330.897019 -213.505252 
L 331.300684 -215.444277 
L 331.713785 -217.383302 
L 332.139568 -219.322328 
L 332.5809 -221.261353 
L 333.040173 -223.200378 
L 333.519238 -225.139403 
L 334.019354 -227.078429 
L 334.541156 -229.017454 
L 335.084644 -230.956479 
L 335.649193 -232.895505 
L 336.233579 -234.83453 
L 336.83602 -236.773555 
L 337.454234 -238.71258 
L 338.085507 -240.651606 
L 338.726767 -242.590631 
L 339.37467 -244.529656 
L 340.025685 -246.468681 
L 340.676176 -248.407707 
L 341.322492 -250.346732 
L 341.961041 -252.285757 
L 342.588365 -254.224783 
L 343.201207 -256.163808 
L 343.796563 -258.102833 
L 344.371732 -260.041858 
L 344.924349 -261.980884 
L 345.452409 -263.919909 
L 345.954285 -265.858934 
L 346.428729 -267.797959 
L 346.874868 -269.736985 
L 347.292195 -271.67601 
L 347.680545 -273.615035 
L 348.040073 -275.554061 
L 348.371222 -277.493086 
L 348.674693 -279.432111 
L 348.951407 -281.371136 
L 353.048593 -281.371136 
L 353.048593 -281.371136 
L 353.325307 -279.432111 
L 353.628778 -277.493086 
L 353.959927 -275.554061 
L 354.319455 -273.615035 
L 354.707805 -271.67601 
L 355.125132 -269.736985 
L 355.571271 -267.797959 
L 356.045715 -265.858934 
L 356.547591 -263.919909 
L 357.075651 -261.980884 
L 357.628268 -260.041858 
L 358.203437 -258.102833 
L 358.798793 -256.163808 
L 359.411635 -254.224783 
L 360.038959 -252.285757 
L 360.677508 -250.346732 
L 361.323824 -248.407707 
L 361.974315 -246.468681 
L 362.62533 -244.529656 
L 363.273233 -242.590631 
L 363.914493 -240.651606 
L 364.545766 -238.71258 
L 365.16398 -236.773555 
L 365.766421 -234.83453 
L 366.350807 -232.895505 
L 366.915356 -230.956479 
L 367.458844 -229.017454 
L 367.980646 -227.078429 
L 368.480762 -225.139403 
L 368.959827 -223.200378 
L 369.4191 -221.261353 
L 369.860432 -219.322328 
L 370.286215 -217.383302 
L 370.699316 -215.444277 
L 371.102981 -213.505252 
L 371.500736 -211.566227 
L 371.896265 -209.627201 
L 372.29328 -207.688176 
L 372.695388 -205.749151 
L 373.105943 -203.810126 
L 373.527916 -201.8711 
L 373.963754 -199.932075 
L 374.415259 -197.99305 
L 374.883479 -196.054024 
L 375.368614 -194.114999 
L 375.869947 -192.175974 
L 376.385796 -190.236949 
L 376.913493 -188.297923 
L 377.449395 -186.358898 
L 377.988916 -184.419873 
L 378.526592 -182.480848 
L 379.056172 -180.541822 
L 379.570732 -178.602797 
L 380.062815 -176.663772 
L 380.52458 -174.724746 
L 380.947978 -172.785721 
L 381.32493 -170.846696 
L 381.647507 -168.907671 
L 381.908117 -166.968645 
L 382.099682 -165.02962 
L 382.215807 -163.090595 
L 382.250932 -161.15157 
L 382.200464 -159.212544 
L 382.060893 -157.273519 
L 381.829873 -155.334494 
L 381.506287 -153.395468 
L 381.090271 -151.456443 
L 380.583221 -149.517418 
L 379.987764 -147.578393 
L 379.307702 -145.639367 
L 378.547938 -143.700342 
L 377.714372 -141.761317 
L 376.813781 -139.822292 
L 375.853681 -137.883266 
L 374.842185 -135.944241 
L 373.787844 -134.005216 
L 372.699488 -132.066191 
L 371.586074 -130.127165 
L 370.456528 -128.18814 
L 369.319603 -126.249115 
L 368.183742 -124.310089 
L 367.056964 -122.371064 
L 365.946755 -120.432039 
L 364.859979 -118.493014 
L 363.802814 -116.553988 
L 362.780701 -114.614963 
L 361.798305 -112.675938 
L 360.859508 -110.736913 
L 359.967406 -108.797887 
L 359.124327 -106.858862 
L 358.331862 -104.919837 
L 357.590903 -102.980811 
L 356.9017 -101.041786 
L 356.263914 -99.102761 
L 355.676682 -97.163736 
L 355.138688 -95.22471 
L 354.648223 -93.285685 
L 354.203262 -91.34666 
L 353.801523 -89.407635 
z
" id="mef4b584409" style="stroke:#8a8a8a;stroke-width:1.75;"/>
    </defs>
    <g clip-path="url(#pfecb97080f)">
     <use style="fill:#e6e6e6;stroke:#8a8a8a;stroke-width:1.75;" x="0" xlink:href="#mef4b584409" y="396"/>
    </g>
   </g>
   <g id="PolyCollection_4">
    <defs>
     <path d="M 464.846805 -85.172187 
L 460.353195 -85.172187 
L 460.042051 -86.986302 
L 459.69975 -88.800418 
L 459.325062 -90.614533 
L 458.916991 -92.428648 
L 458.474816 -94.242763 
L 457.99813 -96.056879 
L 457.486871 -97.870994 
L 456.941357 -99.685109 
L 456.362302 -101.499224 
L 455.750839 -103.313339 
L 455.108522 -105.127455 
L 454.437326 -106.94157 
L 453.739632 -108.755685 
L 453.018203 -110.5698 
L 452.276148 -112.383915 
L 451.51688 -114.198031 
L 450.744054 -116.012146 
L 449.961506 -117.826261 
L 449.173177 -119.640376 
L 448.383037 -121.454492 
L 447.595004 -123.268607 
L 446.812857 -125.082722 
L 446.040157 -126.896837 
L 445.280169 -128.710952 
L 444.535795 -130.525068 
L 443.809508 -132.339183 
L 443.103308 -134.153298 
L 442.418687 -135.967413 
L 441.756608 -137.781528 
L 441.11751 -139.595644 
L 440.501316 -141.409759 
L 439.907474 -143.223874 
L 439.335004 -145.037989 
L 438.782566 -146.852105 
L 438.248537 -148.66622 
L 437.731108 -150.480335 
L 437.228378 -152.29445 
L 436.738463 -154.108565 
L 436.2596 -155.922681 
L 435.790253 -157.736796 
L 435.329211 -159.550911 
L 434.87568 -161.365026 
L 434.429358 -163.179142 
L 433.990502 -164.993257 
L 433.55997 -166.807372 
L 433.139248 -168.621487 
L 432.730458 -170.435602 
L 432.336345 -172.249718 
L 431.96024 -174.063833 
L 431.606006 -175.877948 
L 431.277971 -177.692063 
L 430.980832 -179.506178 
L 430.719562 -181.320294 
L 430.499293 -183.134409 
L 430.325198 -184.948524 
L 430.202365 -186.762639 
L 430.135678 -188.576755 
L 430.12969 -190.39087 
L 430.188511 -192.204985 
L 430.315697 -194.0191 
L 430.514158 -195.833215 
L 430.786074 -197.647331 
L 431.132833 -199.461446 
L 431.554976 -201.275561 
L 432.052173 -203.089676 
L 432.623209 -204.903791 
L 433.265987 -206.717907 
L 433.97756 -208.532022 
L 434.75417 -210.346137 
L 435.591305 -212.160252 
L 436.483773 -213.974368 
L 437.425786 -215.788483 
L 438.411058 -217.602598 
L 439.4329 -219.416713 
L 440.484338 -221.230828 
L 441.558213 -223.044944 
L 442.647299 -224.859059 
L 443.744407 -226.673174 
L 444.84249 -228.487289 
L 445.93474 -230.301405 
L 447.014678 -232.11552 
L 448.076228 -233.929635 
L 449.113793 -235.74375 
L 450.122302 -237.557865 
L 451.097259 -239.371981 
L 452.03477 -241.186096 
L 452.931564 -243.000211 
L 453.784994 -244.814326 
L 454.593036 -246.628441 
L 455.354268 -248.442557 
L 456.067847 -250.256672 
L 456.733474 -252.070787 
L 457.35135 -253.884902 
L 457.922136 -255.699018 
L 458.446894 -257.513133 
L 458.927041 -259.327248 
L 459.364293 -261.141363 
L 459.76061 -262.955478 
L 460.118141 -264.769594 
L 465.081859 -264.769594 
L 465.081859 -264.769594 
L 465.43939 -262.955478 
L 465.835707 -261.141363 
L 466.272959 -259.327248 
L 466.753106 -257.513133 
L 467.277864 -255.699018 
L 467.84865 -253.884902 
L 468.466526 -252.070787 
L 469.132153 -250.256672 
L 469.845732 -248.442557 
L 470.606964 -246.628441 
L 471.415006 -244.814326 
L 472.268436 -243.000211 
L 473.16523 -241.186096 
L 474.102741 -239.371981 
L 475.077698 -237.557865 
L 476.086207 -235.74375 
L 477.123772 -233.929635 
L 478.185322 -232.11552 
L 479.26526 -230.301405 
L 480.35751 -228.487289 
L 481.455593 -226.673174 
L 482.552701 -224.859059 
L 483.641787 -223.044944 
L 484.715662 -221.230828 
L 485.7671 -219.416713 
L 486.788942 -217.602598 
L 487.774214 -215.788483 
L 488.716227 -213.974368 
L 489.608695 -212.160252 
L 490.44583 -210.346137 
L 491.22244 -208.532022 
L 491.934013 -206.717907 
L 492.576791 -204.903791 
L 493.147827 -203.089676 
L 493.645024 -201.275561 
L 494.067167 -199.461446 
L 494.413926 -197.647331 
L 494.685842 -195.833215 
L 494.884303 -194.0191 
L 495.011489 -192.204985 
L 495.07031 -190.39087 
L 495.064322 -188.576755 
L 494.997635 -186.762639 
L 494.874802 -184.948524 
L 494.700707 -183.134409 
L 494.480438 -181.320294 
L 494.219168 -179.506178 
L 493.922029 -177.692063 
L 493.593994 -175.877948 
L 493.23976 -174.063833 
L 492.863655 -172.249718 
L 492.469542 -170.435602 
L 492.060752 -168.621487 
L 491.64003 -166.807372 
L 491.209498 -164.993257 
L 490.770642 -163.179142 
L 490.32432 -161.365026 
L 489.870789 -159.550911 
L 489.409747 -157.736796 
L 488.9404 -155.922681 
L 488.461537 -154.108565 
L 487.971622 -152.29445 
L 487.468892 -150.480335 
L 486.951463 -148.66622 
L 486.417434 -146.852105 
L 485.864996 -145.037989 
L 485.292526 -143.223874 
L 484.698684 -141.409759 
L 484.08249 -139.595644 
L 483.443392 -137.781528 
L 482.781313 -135.967413 
L 482.096692 -134.153298 
L 481.390492 -132.339183 
L 480.664205 -130.525068 
L 479.919831 -128.710952 
L 479.159843 -126.896837 
L 478.387143 -125.082722 
L 477.604996 -123.268607 
L 476.816963 -121.454492 
L 476.026823 -119.640376 
L 475.238494 -117.826261 
L 474.455946 -116.012146 
L 473.68312 -114.198031 
L 472.923852 -112.383915 
L 472.181797 -110.5698 
L 471.460368 -108.755685 
L 470.762674 -106.94157 
L 470.091478 -105.127455 
L 469.449161 -103.313339 
L 468.837698 -101.499224 
L 468.258643 -99.685109 
L 467.713129 -97.870994 
L 467.20187 -96.056879 
L 466.725184 -94.242763 
L 466.283009 -92.428648 
L 465.874938 -90.614533 
L 465.50025 -88.800418 
L 465.157949 -86.986302 
L 464.846805 -85.172187 
z
" id="m917c40f6ab" style="stroke:#8a8a8a;stroke-width:1.75;"/>
    </defs>
    <g clip-path="url(#pfecb97080f)">
     <use style="fill:#e6e6e6;stroke:#8a8a8a;stroke-width:1.75;" x="0" xlink:href="#m917c40f6ab" y="396"/>
    </g>
   </g>
   <g id="patch_3">
    <path d="M 72 346.5 
L 72 47.52 
" style="fill:none;"/>
   </g>
   <g id="patch_4">
    <path d="M 518.4 346.5 
L 518.4 47.52 
" style="fill:none;"/>
   </g>
   <g id="patch_5">
    <path d="M 72 346.5 
L 518.4 346.5 
" style="fill:none;"/>
   </g>
   <g id="patch_6">
    <path d="M 72 47.52 
L 518.4 47.52 
" style="fill:none;"/>
   </g>
   <g id="PathCollection_1">
    <defs>
     <path d="M 0 2.5 
C 0.663008 2.5 1.29895 2.236584 1.767767 1.767767 
C 2.236584 1.29895 2.5 0.663008 2.5 0 
C 2.5 -0.663008 2.236584 -1.29895 1.767767 -1.767767 
C 1.29895 -2.236584 0.663008 -2.5 0 -2.5 
C -0.663008 -2.5 -1.29895 -2.236584 -1.767767 -1.767767 
C -2.236584 -1.29895 -2.5 -0.663008 -2.5 0 
C -2.5 0.663008 -2.236584 1.29895 -1.767767 1.767767 
C -1.29895 2.236584 -0.663008 2.5 0 2.5 
z
" id="C0_0_9e9b46ea6b"/>
    </defs>
    <g clip-path="url(#pfecb97080f)">
     <use style="fill:#4c72b0;" x="127.8" xlink:href="#C0_0_9e9b46ea6b" y="189.467198"/>
    </g>
    <g clip-path="url(#pfecb97080f)">
     <use style="fill:#4c72b0;" x="127.8" xlink:href="#C0_0_9e9b46ea6b" y="183.432957"/>
    </g>
    <g clip-path="url(#pfecb97080f)">
     <use style="fill:#4c72b0;" x="127.8" xlink:href="#C0_0_9e9b46ea6b" y="140.556843"/>
    </g>
   </g>
   <g id="PathCollection_2">
    <defs>
     <path d="M 0 2.5 
C 0.663008 2.5 1.29895 2.236584 1.767767 1.767767 
C 2.236584 1.29895 2.5 0.663008 2.5 0 
C 2.5 -0.663008 2.236584 -1.29895 1.767767 -1.767767 
C 1.29895 -2.236584 0.663008 -2.5 0 -2.5 
C -0.663008 -2.5 -1.29895 -2.236584 -1.767767 -1.767767 
C -2.236584 -1.29895 -2.5 -0.663008 -2.5 0 
C -2.5 0.663008 -2.236584 1.29895 -1.767767 1.767767 
C -1.29895 2.236584 -0.663008 2.5 0 2.5 
z
" id="C1_0_a8eb9ac93c"/>
    </defs>
    <g clip-path="url(#pfecb97080f)">
     <use style="fill:#55a868;" x="239.4" xlink:href="#C1_0_a8eb9ac93c" y="249.102475"/>
    </g>
    <g clip-path="url(#pfecb97080f)">
     <use style="fill:#55a868;" x="239.4" xlink:href="#C1_0_a8eb9ac93c" y="202.8321"/>
    </g>
    <g clip-path="url(#pfecb97080f)">
     <use style="fill:#55a868;" x="239.4" xlink:href="#C1_0_a8eb9ac93c" y="144.917525"/>
    </g>
   </g>
   <g id="PathCollection_3">
    <defs>
     <path d="M 0 2.5 
C 0.663008 2.5 1.29895 2.236584 1.767767 1.767767 
C 2.236584 1.29895 2.5 0.663008 2.5 0 
C 2.5 -0.663008 2.236584 -1.29895 1.767767 -1.767767 
C 1.29895 -2.236584 0.663008 -2.5 0 -2.5 
C -0.663008 -2.5 -1.29895 -2.236584 -1.767767 -1.767767 
C -2.236584 -1.29895 -2.5 -0.663008 -2.5 0 
C -2.5 0.663008 -2.236584 1.29895 -1.767767 1.767767 
C -1.29895 2.236584 -0.663008 2.5 0 2.5 
z
" id="C2_0_263d9b0499"/>
    </defs>
    <g clip-path="url(#pfecb97080f)">
     <use style="fill:#c44e52;" x="351" xlink:href="#C2_0_263d9b0499" y="246.085354"/>
    </g>
    <g clip-path="url(#pfecb97080f)">
     <use style="fill:#c44e52;" x="351" xlink:href="#C2_0_263d9b0499" y="232.649739"/>
    </g>
    <g clip-path="url(#pfecb97080f)">
     <use style="fill:#c44e52;" x="351" xlink:href="#C2_0_263d9b0499" y="175.135875"/>
    </g>
   </g>
   <g id="PathCollection_4">
    <defs>
     <path d="M 0 2.5 
C 0.663008 2.5 1.29895 2.236584 1.767767 1.767767 
C 2.236584 1.29895 2.5 0.663008 2.5 0 
C 2.5 -0.663008 2.236584 -1.29895 1.767767 -1.767767 
C 1.29895 -2.236584 0.663008 -2.5 0 -2.5 
C -0.663008 -2.5 -1.29895 -2.236584 -1.767767 -1.767767 
C -2.236584 -1.29895 -2.5 -0.663008 -2.5 0 
C -2.5 0.663008 -2.236584 1.29895 -1.767767 1.767767 
C -1.29895 2.236584 -0.663008 2.5 0 2.5 
z
" id="C3_0_adce703a5b"/>
    </defs>
    <g clip-path="url(#pfecb97080f)">
     <use style="fill:#8172b2;" x="462.6" xlink:href="#C3_0_adce703a5b" y="255.20743"/>
    </g>
    <g clip-path="url(#pfecb97080f)">
     <use style="fill:#8172b2;" x="462.6" xlink:href="#C3_0_adce703a5b" y="211.223467"/>
    </g>
    <g clip-path="url(#pfecb97080f)">
     <use style="fill:#8172b2;" x="462.6" xlink:href="#C3_0_adce703a5b" y="186.850789"/>
    </g>
   </g>
   <g id="text_14">
    <!-- Comparing the Top 10 Aucs of the best Dropout-Architectures -->
    <defs>
     <path d="M 64.40625 67.28125 
L 64.40625 56.890625 
Q 59.421875 61.53125 53.78125 63.8125 
Q 48.140625 66.109375 41.796875 66.109375 
Q 29.296875 66.109375 22.65625 58.46875 
Q 16.015625 50.828125 16.015625 36.375 
Q 16.015625 21.96875 22.65625 14.328125 
Q 29.296875 6.6875 41.796875 6.6875 
Q 48.140625 6.6875 53.78125 8.984375 
Q 59.421875 11.28125 64.40625 15.921875 
L 64.40625 5.609375 
Q 59.234375 2.09375 53.4375 0.328125 
Q 47.65625 -1.421875 41.21875 -1.421875 
Q 24.65625 -1.421875 15.125 8.703125 
Q 5.609375 18.84375 5.609375 36.375 
Q 5.609375 53.953125 15.125 64.078125 
Q 24.65625 74.21875 41.21875 74.21875 
Q 47.75 74.21875 53.53125 72.484375 
Q 59.328125 70.75 64.40625 67.28125 
z
" id="DejaVuSans-43"/>
     <path d="M 52 44.1875 
Q 55.375 50.25 60.0625 53.125 
Q 64.75 56 71.09375 56 
Q 79.640625 56 84.28125 50.015625 
Q 88.921875 44.046875 88.921875 33.015625 
L 88.921875 0 
L 79.890625 0 
L 79.890625 32.71875 
Q 79.890625 40.578125 77.09375 44.375 
Q 74.3125 48.1875 68.609375 48.1875 
Q 61.625 48.1875 57.5625 43.546875 
Q 53.515625 38.921875 53.515625 30.90625 
L 53.515625 0 
L 44.484375 0 
L 44.484375 32.71875 
Q 44.484375 40.625 41.703125 44.40625 
Q 38.921875 48.1875 33.109375 48.1875 
Q 26.21875 48.1875 22.15625 43.53125 
Q 18.109375 38.875 18.109375 30.90625 
L 18.109375 0 
L 9.078125 0 
L 9.078125 54.6875 
L 18.109375 54.6875 
L 18.109375 46.1875 
Q 21.1875 51.21875 25.484375 53.609375 
Q 29.78125 56 35.6875 56 
Q 41.65625 56 45.828125 52.96875 
Q 50 49.953125 52 44.1875 
z
" id="DejaVuSans-6d"/>
     <path d="M 18.109375 8.203125 
L 18.109375 -20.796875 
L 9.078125 -20.796875 
L 9.078125 54.6875 
L 18.109375 54.6875 
L 18.109375 46.390625 
Q 20.953125 51.265625 25.265625 53.625 
Q 29.59375 56 35.59375 56 
Q 45.5625 56 51.78125 48.09375 
Q 58.015625 40.1875 58.015625 27.296875 
Q 58.015625 14.40625 51.78125 6.484375 
Q 45.5625 -1.421875 35.59375 -1.421875 
Q 29.59375 -1.421875 25.265625 0.953125 
Q 20.953125 3.328125 18.109375 8.203125 
z
M 48.6875 27.296875 
Q 48.6875 37.203125 44.609375 42.84375 
Q 40.53125 48.484375 33.40625 48.484375 
Q 26.265625 48.484375 22.1875 42.84375 
Q 18.109375 37.203125 18.109375 27.296875 
Q 18.109375 17.390625 22.1875 11.75 
Q 26.265625 6.109375 33.40625 6.109375 
Q 40.53125 6.109375 44.609375 11.75 
Q 48.6875 17.390625 48.6875 27.296875 
z
" id="DejaVuSans-70"/>
     <path d="M 34.28125 27.484375 
Q 23.390625 27.484375 19.1875 25 
Q 14.984375 22.515625 14.984375 16.5 
Q 14.984375 11.71875 18.140625 8.90625 
Q 21.296875 6.109375 26.703125 6.109375 
Q 34.1875 6.109375 38.703125 11.40625 
Q 43.21875 16.703125 43.21875 25.484375 
L 43.21875 27.484375 
z
M 52.203125 31.203125 
L 52.203125 0 
L 43.21875 0 
L 43.21875 8.296875 
Q 40.140625 3.328125 35.546875 0.953125 
Q 30.953125 -1.421875 24.3125 -1.421875 
Q 15.921875 -1.421875 10.953125 3.296875 
Q 6 8.015625 6 15.921875 
Q 6 25.140625 12.171875 29.828125 
Q 18.359375 34.515625 30.609375 34.515625 
L 43.21875 34.515625 
L 43.21875 35.40625 
Q 43.21875 41.609375 39.140625 45 
Q 35.0625 48.390625 27.6875 48.390625 
Q 23 48.390625 18.546875 47.265625 
Q 14.109375 46.140625 10.015625 43.890625 
L 10.015625 52.203125 
Q 14.9375 54.109375 19.578125 55.046875 
Q 24.21875 56 28.609375 56 
Q 40.484375 56 46.34375 49.84375 
Q 52.203125 43.703125 52.203125 31.203125 
z
" id="DejaVuSans-61"/>
     <path id="DejaVuSans-20"/>
     <path d="M -0.296875 72.90625 
L 61.375 72.90625 
L 61.375 64.59375 
L 35.5 64.59375 
L 35.5 0 
L 25.59375 0 
L 25.59375 64.59375 
L -0.296875 64.59375 
z
" id="DejaVuSans-54"/>
     <path d="M 12.40625 8.296875 
L 28.515625 8.296875 
L 28.515625 63.921875 
L 10.984375 60.40625 
L 10.984375 69.390625 
L 28.421875 72.90625 
L 38.28125 72.90625 
L 38.28125 8.296875 
L 54.390625 8.296875 
L 54.390625 0 
L 12.40625 0 
z
" id="DejaVuSans-31"/>
     <path d="M 48.6875 27.296875 
Q 48.6875 37.203125 44.609375 42.84375 
Q 40.53125 48.484375 33.40625 48.484375 
Q 26.265625 48.484375 22.1875 42.84375 
Q 18.109375 37.203125 18.109375 27.296875 
Q 18.109375 17.390625 22.1875 11.75 
Q 26.265625 6.109375 33.40625 6.109375 
Q 40.53125 6.109375 44.609375 11.75 
Q 48.6875 17.390625 48.6875 27.296875 
z
M 18.109375 46.390625 
Q 20.953125 51.265625 25.265625 53.625 
Q 29.59375 56 35.59375 56 
Q 45.5625 56 51.78125 48.09375 
Q 58.015625 40.1875 58.015625 27.296875 
Q 58.015625 14.40625 51.78125 6.484375 
Q 45.5625 -1.421875 35.59375 -1.421875 
Q 29.59375 -1.421875 25.265625 0.953125 
Q 20.953125 3.328125 18.109375 8.203125 
L 18.109375 0 
L 9.078125 0 
L 9.078125 75.984375 
L 18.109375 75.984375 
z
" id="DejaVuSans-62"/>
     <path d="M 19.671875 64.796875 
L 19.671875 8.109375 
L 31.59375 8.109375 
Q 46.6875 8.109375 53.6875 14.9375 
Q 60.6875 21.78125 60.6875 36.53125 
Q 60.6875 51.171875 53.6875 57.984375 
Q 46.6875 64.796875 31.59375 64.796875 
z
M 9.8125 72.90625 
L 30.078125 72.90625 
Q 51.265625 72.90625 61.171875 64.09375 
Q 71.09375 55.28125 71.09375 36.53125 
Q 71.09375 17.671875 61.125 8.828125 
Q 51.171875 0 30.078125 0 
L 9.8125 0 
z
" id="DejaVuSans-44"/>
     <path d="M 4.890625 31.390625 
L 31.203125 31.390625 
L 31.203125 23.390625 
L 4.890625 23.390625 
z
" id="DejaVuSans-2d"/>
    </defs>
    <g style="fill:#262626;" transform="translate(62.183203 41.52)scale(0.15 -0.15)">
     <use xlink:href="#DejaVuSans-43"/>
     <use x="69.824219" xlink:href="#DejaVuSans-6f"/>
     <use x="131.005859" xlink:href="#DejaVuSans-6d"/>
     <use x="228.417969" xlink:href="#DejaVuSans-70"/>
     <use x="291.894531" xlink:href="#DejaVuSans-61"/>
     <use x="353.173828" xlink:href="#DejaVuSans-72"/>
     <use x="394.287109" xlink:href="#DejaVuSans-69"/>
     <use x="422.070312" xlink:href="#DejaVuSans-6e"/>
     <use x="485.449219" xlink:href="#DejaVuSans-67"/>
     <use x="548.925781" xlink:href="#DejaVuSans-20"/>
     <use x="580.712891" xlink:href="#DejaVuSans-74"/>
     <use x="619.921875" xlink:href="#DejaVuSans-68"/>
     <use x="683.300781" xlink:href="#DejaVuSans-65"/>
     <use x="744.824219" xlink:href="#DejaVuSans-20"/>
     <use x="776.611328" xlink:href="#DejaVuSans-54"/>
     <use x="837.429688" xlink:href="#DejaVuSans-6f"/>
     <use x="898.611328" xlink:href="#DejaVuSans-70"/>
     <use x="962.087891" xlink:href="#DejaVuSans-20"/>
     <use x="993.875" xlink:href="#DejaVuSans-31"/>
     <use x="1057.498047" xlink:href="#DejaVuSans-30"/>
     <use x="1121.121094" xlink:href="#DejaVuSans-20"/>
     <use x="1152.908203" xlink:href="#DejaVuSans-41"/>
     <use x="1221.316406" xlink:href="#DejaVuSans-75"/>
     <use x="1284.695312" xlink:href="#DejaVuSans-63"/>
     <use x="1339.675781" xlink:href="#DejaVuSans-73"/>
     <use x="1391.775391" xlink:href="#DejaVuSans-20"/>
     <use x="1423.5625" xlink:href="#DejaVuSans-6f"/>
     <use x="1484.744141" xlink:href="#DejaVuSans-66"/>
     <use x="1519.949219" xlink:href="#DejaVuSans-20"/>
     <use x="1551.736328" xlink:href="#DejaVuSans-74"/>
     <use x="1590.945312" xlink:href="#DejaVuSans-68"/>
     <use x="1654.324219" xlink:href="#DejaVuSans-65"/>
     <use x="1715.847656" xlink:href="#DejaVuSans-20"/>
     <use x="1747.634766" xlink:href="#DejaVuSans-62"/>
     <use x="1811.111328" xlink:href="#DejaVuSans-65"/>
     <use x="1872.634766" xlink:href="#DejaVuSans-73"/>
     <use x="1924.734375" xlink:href="#DejaVuSans-74"/>
     <use x="1963.943359" xlink:href="#DejaVuSans-20"/>
     <use x="1995.730469" xlink:href="#DejaVuSans-44"/>
     <use x="2072.732422" xlink:href="#DejaVuSans-72"/>
     <use x="2113.814453" xlink:href="#DejaVuSans-6f"/>
     <use x="2174.996094" xlink:href="#DejaVuSans-70"/>
     <use x="2238.472656" xlink:href="#DejaVuSans-6f"/>
     <use x="2299.654297" xlink:href="#DejaVuSans-75"/>
     <use x="2363.033203" xlink:href="#DejaVuSans-74"/>
     <use x="2402.242188" xlink:href="#DejaVuSans-2d"/>
     <use x="2438.294922" xlink:href="#DejaVuSans-41"/>
     <use x="2506.703125" xlink:href="#DejaVuSans-72"/>
     <use x="2547.785156" xlink:href="#DejaVuSans-63"/>
     <use x="2602.765625" xlink:href="#DejaVuSans-68"/>
     <use x="2666.144531" xlink:href="#DejaVuSans-69"/>
     <use x="2693.927734" xlink:href="#DejaVuSans-74"/>
     <use x="2733.136719" xlink:href="#DejaVuSans-65"/>
     <use x="2794.660156" xlink:href="#DejaVuSans-63"/>
     <use x="2849.640625" xlink:href="#DejaVuSans-74"/>
     <use x="2888.849609" xlink:href="#DejaVuSans-75"/>
     <use x="2952.228516" xlink:href="#DejaVuSans-72"/>
     <use x="2993.310547" xlink:href="#DejaVuSans-65"/>
     <use x="3054.833984" xlink:href="#DejaVuSans-73"/>
    </g>
   </g>
  </g>
 </g>
 <defs>
  <clipPath id="pfecb97080f">
   <rect height="298.98" width="446.4" x="72" y="47.52"/>
  </clipPath>
 </defs>
</svg>
