<?xml version="1.0" encoding="utf-8" standalone="no"?>
<!DOCTYPE svg PUBLIC "-//W3C//DTD SVG 1.1//EN"
  "http://www.w3.org/Graphics/SVG/1.1/DTD/svg11.dtd">
<!-- Created with matplotlib (http://matplotlib.org/) -->
<svg height="216pt" version="1.1" viewBox="0 0 432 216" width="432pt" xmlns="http://www.w3.org/2000/svg" xmlns:xlink="http://www.w3.org/1999/xlink">
 <defs>
  <style type="text/css">
*{stroke-linecap:butt;stroke-linejoin:round;}
  </style>
 </defs>
 <g id="figure_1">
  <g id="patch_1">
   <path d="M 0 216 
L 432 216 
L 432 0 
L 0 0 
z
" style="fill:#ffffff;"/>
  </g>
  <g id="axes_1">
   <g id="patch_2">
    <path d="M 56.335 172.04 
L 419.04 172.04 
L 419.04 28.96 
L 56.335 28.96 
z
" style="fill:#eaeaf2;"/>
   </g>
   <g id="matplotlib.axis_1">
    <g id="xtick_1">
     <g id="line2d_1">
      <path clip-path="url(#p71f4c327ad)" d="M 69.493446 172.04 
L 69.493446 28.96 
" style="fill:none;stroke:#ffffff;stroke-linecap:round;"/>
     </g>
     <g id="line2d_2"/>
     <g id="text_1">
      <!-- 85 -->
      <defs>
       <path d="M 31.78125 34.625 
Q 24.75 34.625 20.71875 30.859375 
Q 16.703125 27.09375 16.703125 20.515625 
Q 16.703125 13.921875 20.71875 10.15625 
Q 24.75 6.390625 31.78125 6.390625 
Q 38.8125 6.390625 42.859375 10.171875 
Q 46.921875 13.96875 46.921875 20.515625 
Q 46.921875 27.09375 42.890625 30.859375 
Q 38.875 34.625 31.78125 34.625 
z
M 21.921875 38.8125 
Q 15.578125 40.375 12.03125 44.71875 
Q 8.5 49.078125 8.5 55.328125 
Q 8.5 64.0625 14.71875 69.140625 
Q 20.953125 74.21875 31.78125 74.21875 
Q 42.671875 74.21875 48.875 69.140625 
Q 55.078125 64.0625 55.078125 55.328125 
Q 55.078125 49.078125 51.53125 44.71875 
Q 48 40.375 41.703125 38.8125 
Q 48.828125 37.15625 52.796875 32.3125 
Q 56.78125 27.484375 56.78125 20.515625 
Q 56.78125 9.90625 50.3125 4.234375 
Q 43.84375 -1.421875 31.78125 -1.421875 
Q 19.734375 -1.421875 13.25 4.234375 
Q 6.78125 9.90625 6.78125 20.515625 
Q 6.78125 27.484375 10.78125 32.3125 
Q 14.796875 37.15625 21.921875 38.8125 
z
M 18.3125 54.390625 
Q 18.3125 48.734375 21.84375 45.5625 
Q 25.390625 42.390625 31.78125 42.390625 
Q 38.140625 42.390625 41.71875 45.5625 
Q 45.3125 48.734375 45.3125 54.390625 
Q 45.3125 60.0625 41.71875 63.234375 
Q 38.140625 66.40625 31.78125 66.40625 
Q 25.390625 66.40625 21.84375 63.234375 
Q 18.3125 60.0625 18.3125 54.390625 
z
" id="DejaVuSans-38"/>
       <path d="M 10.796875 72.90625 
L 49.515625 72.90625 
L 49.515625 64.59375 
L 19.828125 64.59375 
L 19.828125 46.734375 
Q 21.96875 47.46875 24.109375 47.828125 
Q 26.265625 48.1875 28.421875 48.1875 
Q 40.625 48.1875 47.75 41.5 
Q 54.890625 34.8125 54.890625 23.390625 
Q 54.890625 11.625 47.5625 5.09375 
Q 40.234375 -1.421875 26.90625 -1.421875 
Q 22.3125 -1.421875 17.546875 -0.640625 
Q 12.796875 0.140625 7.71875 1.703125 
L 7.71875 11.625 
Q 12.109375 9.234375 16.796875 8.0625 
Q 21.484375 6.890625 26.703125 6.890625 
Q 35.15625 6.890625 40.078125 11.328125 
Q 45.015625 15.765625 45.015625 23.390625 
Q 45.015625 31 40.078125 35.4375 
Q 35.15625 39.890625 26.703125 39.890625 
Q 22.75 39.890625 18.8125 39.015625 
Q 14.890625 38.140625 10.796875 36.28125 
z
" id="DejaVuSans-35"/>
      </defs>
      <g style="fill:#262626;" transform="translate(63.130946 186.638438)scale(0.1 -0.1)">
       <use xlink:href="#DejaVuSans-38"/>
       <use x="63.623047" xlink:href="#DejaVuSans-35"/>
      </g>
     </g>
    </g>
    <g id="xtick_2">
     <g id="line2d_3">
      <path clip-path="url(#p71f4c327ad)" d="M 131.902916 172.04 
L 131.902916 28.96 
" style="fill:none;stroke:#ffffff;stroke-linecap:round;"/>
     </g>
     <g id="line2d_4"/>
     <g id="text_2">
      <!-- 86 -->
      <defs>
       <path d="M 33.015625 40.375 
Q 26.375 40.375 22.484375 35.828125 
Q 18.609375 31.296875 18.609375 23.390625 
Q 18.609375 15.53125 22.484375 10.953125 
Q 26.375 6.390625 33.015625 6.390625 
Q 39.65625 6.390625 43.53125 10.953125 
Q 47.40625 15.53125 47.40625 23.390625 
Q 47.40625 31.296875 43.53125 35.828125 
Q 39.65625 40.375 33.015625 40.375 
z
M 52.59375 71.296875 
L 52.59375 62.3125 
Q 48.875 64.0625 45.09375 64.984375 
Q 41.3125 65.921875 37.59375 65.921875 
Q 27.828125 65.921875 22.671875 59.328125 
Q 17.53125 52.734375 16.796875 39.40625 
Q 19.671875 43.65625 24.015625 45.921875 
Q 28.375 48.1875 33.59375 48.1875 
Q 44.578125 48.1875 50.953125 41.515625 
Q 57.328125 34.859375 57.328125 23.390625 
Q 57.328125 12.15625 50.6875 5.359375 
Q 44.046875 -1.421875 33.015625 -1.421875 
Q 20.359375 -1.421875 13.671875 8.265625 
Q 6.984375 17.96875 6.984375 36.375 
Q 6.984375 53.65625 15.1875 63.9375 
Q 23.390625 74.21875 37.203125 74.21875 
Q 40.921875 74.21875 44.703125 73.484375 
Q 48.484375 72.75 52.59375 71.296875 
z
" id="DejaVuSans-36"/>
      </defs>
      <g style="fill:#262626;" transform="translate(125.540416 186.638438)scale(0.1 -0.1)">
       <use xlink:href="#DejaVuSans-38"/>
       <use x="63.623047" xlink:href="#DejaVuSans-36"/>
      </g>
     </g>
    </g>
    <g id="xtick_3">
     <g id="line2d_5">
      <path clip-path="url(#p71f4c327ad)" d="M 194.312387 172.04 
L 194.312387 28.96 
" style="fill:none;stroke:#ffffff;stroke-linecap:round;"/>
     </g>
     <g id="line2d_6"/>
     <g id="text_3">
      <!-- 87 -->
      <defs>
       <path d="M 8.203125 72.90625 
L 55.078125 72.90625 
L 55.078125 68.703125 
L 28.609375 0 
L 18.3125 0 
L 43.21875 64.59375 
L 8.203125 64.59375 
z
" id="DejaVuSans-37"/>
      </defs>
      <g style="fill:#262626;" transform="translate(187.949887 186.638438)scale(0.1 -0.1)">
       <use xlink:href="#DejaVuSans-38"/>
       <use x="63.623047" xlink:href="#DejaVuSans-37"/>
      </g>
     </g>
    </g>
    <g id="xtick_4">
     <g id="line2d_7">
      <path clip-path="url(#p71f4c327ad)" d="M 256.721857 172.04 
L 256.721857 28.96 
" style="fill:none;stroke:#ffffff;stroke-linecap:round;"/>
     </g>
     <g id="line2d_8"/>
     <g id="text_4">
      <!-- 88 -->
      <g style="fill:#262626;" transform="translate(250.359357 186.638438)scale(0.1 -0.1)">
       <use xlink:href="#DejaVuSans-38"/>
       <use x="63.623047" xlink:href="#DejaVuSans-38"/>
      </g>
     </g>
    </g>
    <g id="xtick_5">
     <g id="line2d_9">
      <path clip-path="url(#p71f4c327ad)" d="M 319.131327 172.04 
L 319.131327 28.96 
" style="fill:none;stroke:#ffffff;stroke-linecap:round;"/>
     </g>
     <g id="line2d_10"/>
     <g id="text_5">
      <!-- 89 -->
      <defs>
       <path d="M 10.984375 1.515625 
L 10.984375 10.5 
Q 14.703125 8.734375 18.5 7.8125 
Q 22.3125 6.890625 25.984375 6.890625 
Q 35.75 6.890625 40.890625 13.453125 
Q 46.046875 20.015625 46.78125 33.40625 
Q 43.953125 29.203125 39.59375 26.953125 
Q 35.25 24.703125 29.984375 24.703125 
Q 19.046875 24.703125 12.671875 31.3125 
Q 6.296875 37.9375 6.296875 49.421875 
Q 6.296875 60.640625 12.9375 67.421875 
Q 19.578125 74.21875 30.609375 74.21875 
Q 43.265625 74.21875 49.921875 64.515625 
Q 56.59375 54.828125 56.59375 36.375 
Q 56.59375 19.140625 48.40625 8.859375 
Q 40.234375 -1.421875 26.421875 -1.421875 
Q 22.703125 -1.421875 18.890625 -0.6875 
Q 15.09375 0.046875 10.984375 1.515625 
z
M 30.609375 32.421875 
Q 37.25 32.421875 41.125 36.953125 
Q 45.015625 41.5 45.015625 49.421875 
Q 45.015625 57.28125 41.125 61.84375 
Q 37.25 66.40625 30.609375 66.40625 
Q 23.96875 66.40625 20.09375 61.84375 
Q 16.21875 57.28125 16.21875 49.421875 
Q 16.21875 41.5 20.09375 36.953125 
Q 23.96875 32.421875 30.609375 32.421875 
z
" id="DejaVuSans-39"/>
      </defs>
      <g style="fill:#262626;" transform="translate(312.768827 186.638438)scale(0.1 -0.1)">
       <use xlink:href="#DejaVuSans-38"/>
       <use x="63.623047" xlink:href="#DejaVuSans-39"/>
      </g>
     </g>
    </g>
    <g id="xtick_6">
     <g id="line2d_11">
      <path clip-path="url(#p71f4c327ad)" d="M 381.540798 172.04 
L 381.540798 28.96 
" style="fill:none;stroke:#ffffff;stroke-linecap:round;"/>
     </g>
     <g id="line2d_12"/>
     <g id="text_6">
      <!-- 90 -->
      <defs>
       <path d="M 31.78125 66.40625 
Q 24.171875 66.40625 20.328125 58.90625 
Q 16.5 51.421875 16.5 36.375 
Q 16.5 21.390625 20.328125 13.890625 
Q 24.171875 6.390625 31.78125 6.390625 
Q 39.453125 6.390625 43.28125 13.890625 
Q 47.125 21.390625 47.125 36.375 
Q 47.125 51.421875 43.28125 58.90625 
Q 39.453125 66.40625 31.78125 66.40625 
z
M 31.78125 74.21875 
Q 44.046875 74.21875 50.515625 64.515625 
Q 56.984375 54.828125 56.984375 36.375 
Q 56.984375 17.96875 50.515625 8.265625 
Q 44.046875 -1.421875 31.78125 -1.421875 
Q 19.53125 -1.421875 13.0625 8.265625 
Q 6.59375 17.96875 6.59375 36.375 
Q 6.59375 54.828125 13.0625 64.515625 
Q 19.53125 74.21875 31.78125 74.21875 
z
" id="DejaVuSans-30"/>
      </defs>
      <g style="fill:#262626;" transform="translate(375.178298 186.638438)scale(0.1 -0.1)">
       <use xlink:href="#DejaVuSans-39"/>
       <use x="63.623047" xlink:href="#DejaVuSans-30"/>
      </g>
     </g>
    </g>
    <g id="text_7">
     <!-- Accuracy -->
     <defs>
      <path d="M 34.1875 63.1875 
L 20.796875 26.90625 
L 47.609375 26.90625 
z
M 28.609375 72.90625 
L 39.796875 72.90625 
L 67.578125 0 
L 57.328125 0 
L 50.6875 18.703125 
L 17.828125 18.703125 
L 11.1875 0 
L 0.78125 0 
z
" id="DejaVuSans-41"/>
      <path d="M 48.78125 52.59375 
L 48.78125 44.1875 
Q 44.96875 46.296875 41.140625 47.34375 
Q 37.3125 48.390625 33.40625 48.390625 
Q 24.65625 48.390625 19.8125 42.84375 
Q 14.984375 37.3125 14.984375 27.296875 
Q 14.984375 17.28125 19.8125 11.734375 
Q 24.65625 6.203125 33.40625 6.203125 
Q 37.3125 6.203125 41.140625 7.25 
Q 44.96875 8.296875 48.78125 10.40625 
L 48.78125 2.09375 
Q 45.015625 0.34375 40.984375 -0.53125 
Q 36.96875 -1.421875 32.421875 -1.421875 
Q 20.0625 -1.421875 12.78125 6.34375 
Q 5.515625 14.109375 5.515625 27.296875 
Q 5.515625 40.671875 12.859375 48.328125 
Q 20.21875 56 33.015625 56 
Q 37.15625 56 41.109375 55.140625 
Q 45.0625 54.296875 48.78125 52.59375 
z
" id="DejaVuSans-63"/>
      <path d="M 8.5 21.578125 
L 8.5 54.6875 
L 17.484375 54.6875 
L 17.484375 21.921875 
Q 17.484375 14.15625 20.5 10.265625 
Q 23.53125 6.390625 29.59375 6.390625 
Q 36.859375 6.390625 41.078125 11.03125 
Q 45.3125 15.671875 45.3125 23.6875 
L 45.3125 54.6875 
L 54.296875 54.6875 
L 54.296875 0 
L 45.3125 0 
L 45.3125 8.40625 
Q 42.046875 3.421875 37.71875 1 
Q 33.40625 -1.421875 27.6875 -1.421875 
Q 18.265625 -1.421875 13.375 4.4375 
Q 8.5 10.296875 8.5 21.578125 
z
M 31.109375 56 
z
" id="DejaVuSans-75"/>
      <path d="M 41.109375 46.296875 
Q 39.59375 47.171875 37.8125 47.578125 
Q 36.03125 48 33.890625 48 
Q 26.265625 48 22.1875 43.046875 
Q 18.109375 38.09375 18.109375 28.8125 
L 18.109375 0 
L 9.078125 0 
L 9.078125 54.6875 
L 18.109375 54.6875 
L 18.109375 46.1875 
Q 20.953125 51.171875 25.484375 53.578125 
Q 30.03125 56 36.53125 56 
Q 37.453125 56 38.578125 55.875 
Q 39.703125 55.765625 41.0625 55.515625 
z
" id="DejaVuSans-72"/>
      <path d="M 34.28125 27.484375 
Q 23.390625 27.484375 19.1875 25 
Q 14.984375 22.515625 14.984375 16.5 
Q 14.984375 11.71875 18.140625 8.90625 
Q 21.296875 6.109375 26.703125 6.109375 
Q 34.1875 6.109375 38.703125 11.40625 
Q 43.21875 16.703125 43.21875 25.484375 
L 43.21875 27.484375 
z
M 52.203125 31.203125 
L 52.203125 0 
L 43.21875 0 
L 43.21875 8.296875 
Q 40.140625 3.328125 35.546875 0.953125 
Q 30.953125 -1.421875 24.3125 -1.421875 
Q 15.921875 -1.421875 10.953125 3.296875 
Q 6 8.015625 6 15.921875 
Q 6 25.140625 12.171875 29.828125 
Q 18.359375 34.515625 30.609375 34.515625 
L 43.21875 34.515625 
L 43.21875 35.40625 
Q 43.21875 41.609375 39.140625 45 
Q 35.0625 48.390625 27.6875 48.390625 
Q 23 48.390625 18.546875 47.265625 
Q 14.109375 46.140625 10.015625 43.890625 
L 10.015625 52.203125 
Q 14.9375 54.109375 19.578125 55.046875 
Q 24.21875 56 28.609375 56 
Q 40.484375 56 46.34375 49.84375 
Q 52.203125 43.703125 52.203125 31.203125 
z
" id="DejaVuSans-61"/>
      <path d="M 32.171875 -5.078125 
Q 28.375 -14.84375 24.75 -17.8125 
Q 21.140625 -20.796875 15.09375 -20.796875 
L 7.90625 -20.796875 
L 7.90625 -13.28125 
L 13.1875 -13.28125 
Q 16.890625 -13.28125 18.9375 -11.515625 
Q 21 -9.765625 23.484375 -3.21875 
L 25.09375 0.875 
L 2.984375 54.6875 
L 12.5 54.6875 
L 29.59375 11.921875 
L 46.6875 54.6875 
L 56.203125 54.6875 
z
" id="DejaVuSans-79"/>
     </defs>
     <g style="fill:#262626;" transform="translate(212.481172 201.076406)scale(0.11 -0.11)">
      <use xlink:href="#DejaVuSans-41"/>
      <use x="68.392578" xlink:href="#DejaVuSans-63"/>
      <use x="123.373047" xlink:href="#DejaVuSans-63"/>
      <use x="178.353516" xlink:href="#DejaVuSans-75"/>
      <use x="241.732422" xlink:href="#DejaVuSans-72"/>
      <use x="282.845703" xlink:href="#DejaVuSans-61"/>
      <use x="344.125" xlink:href="#DejaVuSans-63"/>
      <use x="399.105469" xlink:href="#DejaVuSans-79"/>
     </g>
    </g>
   </g>
   <g id="matplotlib.axis_2">
    <g id="ytick_1">
     <g id="line2d_13">
      <path clip-path="url(#p71f4c327ad)" d="M 56.335 147.657899 
L 419.04 147.657899 
" style="fill:none;stroke:#ffffff;stroke-linecap:round;"/>
     </g>
     <g id="line2d_14"/>
     <g id="text_8">
      <!-- 0.90 -->
      <defs>
       <path d="M 10.6875 12.40625 
L 21 12.40625 
L 21 0 
L 10.6875 0 
z
" id="DejaVuSans-2e"/>
      </defs>
      <g style="fill:#262626;" transform="translate(27.069375 151.457117)scale(0.1 -0.1)">
       <use xlink:href="#DejaVuSans-30"/>
       <use x="63.623047" xlink:href="#DejaVuSans-2e"/>
       <use x="95.410156" xlink:href="#DejaVuSans-39"/>
       <use x="159.033203" xlink:href="#DejaVuSans-30"/>
      </g>
     </g>
    </g>
    <g id="ytick_2">
     <g id="line2d_15">
      <path clip-path="url(#p71f4c327ad)" d="M 56.335 115.209059 
L 419.04 115.209059 
" style="fill:none;stroke:#ffffff;stroke-linecap:round;"/>
     </g>
     <g id="line2d_16"/>
     <g id="text_9">
      <!-- 0.92 -->
      <defs>
       <path d="M 19.1875 8.296875 
L 53.609375 8.296875 
L 53.609375 0 
L 7.328125 0 
L 7.328125 8.296875 
Q 12.9375 14.109375 22.625 23.890625 
Q 32.328125 33.6875 34.8125 36.53125 
Q 39.546875 41.84375 41.421875 45.53125 
Q 43.3125 49.21875 43.3125 52.78125 
Q 43.3125 58.59375 39.234375 62.25 
Q 35.15625 65.921875 28.609375 65.921875 
Q 23.96875 65.921875 18.8125 64.3125 
Q 13.671875 62.703125 7.8125 59.421875 
L 7.8125 69.390625 
Q 13.765625 71.78125 18.9375 73 
Q 24.125 74.21875 28.421875 74.21875 
Q 39.75 74.21875 46.484375 68.546875 
Q 53.21875 62.890625 53.21875 53.421875 
Q 53.21875 48.921875 51.53125 44.890625 
Q 49.859375 40.875 45.40625 35.40625 
Q 44.1875 33.984375 37.640625 27.21875 
Q 31.109375 20.453125 19.1875 8.296875 
z
" id="DejaVuSans-32"/>
      </defs>
      <g style="fill:#262626;" transform="translate(27.069375 119.008278)scale(0.1 -0.1)">
       <use xlink:href="#DejaVuSans-30"/>
       <use x="63.623047" xlink:href="#DejaVuSans-2e"/>
       <use x="95.410156" xlink:href="#DejaVuSans-39"/>
       <use x="159.033203" xlink:href="#DejaVuSans-32"/>
      </g>
     </g>
    </g>
    <g id="ytick_3">
     <g id="line2d_17">
      <path clip-path="url(#p71f4c327ad)" d="M 56.335 82.760219 
L 419.04 82.760219 
" style="fill:none;stroke:#ffffff;stroke-linecap:round;"/>
     </g>
     <g id="line2d_18"/>
     <g id="text_10">
      <!-- 0.94 -->
      <defs>
       <path d="M 37.796875 64.3125 
L 12.890625 25.390625 
L 37.796875 25.390625 
z
M 35.203125 72.90625 
L 47.609375 72.90625 
L 47.609375 25.390625 
L 58.015625 25.390625 
L 58.015625 17.1875 
L 47.609375 17.1875 
L 47.609375 0 
L 37.796875 0 
L 37.796875 17.1875 
L 4.890625 17.1875 
L 4.890625 26.703125 
z
" id="DejaVuSans-34"/>
      </defs>
      <g style="fill:#262626;" transform="translate(27.069375 86.559438)scale(0.1 -0.1)">
       <use xlink:href="#DejaVuSans-30"/>
       <use x="63.623047" xlink:href="#DejaVuSans-2e"/>
       <use x="95.410156" xlink:href="#DejaVuSans-39"/>
       <use x="159.033203" xlink:href="#DejaVuSans-34"/>
      </g>
     </g>
    </g>
    <g id="ytick_4">
     <g id="line2d_19">
      <path clip-path="url(#p71f4c327ad)" d="M 56.335 50.31138 
L 419.04 50.31138 
" style="fill:none;stroke:#ffffff;stroke-linecap:round;"/>
     </g>
     <g id="line2d_20"/>
     <g id="text_11">
      <!-- 0.96 -->
      <g style="fill:#262626;" transform="translate(27.069375 54.110599)scale(0.1 -0.1)">
       <use xlink:href="#DejaVuSans-30"/>
       <use x="63.623047" xlink:href="#DejaVuSans-2e"/>
       <use x="95.410156" xlink:href="#DejaVuSans-39"/>
       <use x="159.033203" xlink:href="#DejaVuSans-36"/>
      </g>
     </g>
    </g>
    <g id="text_12">
     <!-- Auc -->
     <g style="fill:#262626;" transform="translate(20.781719 110.772109)rotate(-90)scale(0.11 -0.11)">
      <use xlink:href="#DejaVuSans-41"/>
      <use x="68.408203" xlink:href="#DejaVuSans-75"/>
      <use x="131.787109" xlink:href="#DejaVuSans-63"/>
     </g>
    </g>
   </g>
   <g id="PathCollection_1">
    <defs>
     <path d="M 0 2.236068 
C 0.593012 2.236068 1.161816 2.000462 1.581139 1.581139 
C 2.000462 1.161816 2.236068 0.593012 2.236068 0 
C 2.236068 -0.593012 2.000462 -1.161816 1.581139 -1.581139 
C 1.161816 -2.000462 0.593012 -2.236068 0 -2.236068 
C -0.593012 -2.236068 -1.161816 -2.000462 -1.581139 -1.581139 
C -2.000462 -1.161816 -2.236068 -0.593012 -2.236068 0 
C -2.236068 0.593012 -2.000462 1.161816 -1.581139 1.581139 
C -1.161816 2.000462 -0.593012 2.236068 0 2.236068 
z
" id="ma90f8c3b87" style="stroke:#ee810a;stroke-width:0.3;"/>
    </defs>
    <g clip-path="url(#p71f4c327ad)">
     <use style="fill:#ee810a;stroke:#ee810a;stroke-width:0.3;" x="342.223598" xlink:href="#ma90f8c3b87" y="74.560398"/>
     <use style="fill:#ee810a;stroke:#ee810a;stroke-width:0.3;" x="355.953356" xlink:href="#ma90f8c3b87" y="74.162899"/>
     <use style="fill:#ee810a;stroke:#ee810a;stroke-width:0.3;" x="374.6767" xlink:href="#ma90f8c3b87" y="71.69841"/>
     <use style="fill:#ee810a;stroke:#ee810a;stroke-width:0.3;" x="344.095449" xlink:href="#ma90f8c3b87" y="77.368845"/>
     <use style="fill:#ee810a;stroke:#ee810a;stroke-width:0.3;" x="402.136588" xlink:href="#ma90f8c3b87" y="60.768018"/>
     <use style="fill:#ee810a;stroke:#ee810a;stroke-width:0.3;" x="387.158061" xlink:href="#ma90f8c3b87" y="61.022742"/>
     <use style="fill:#ee810a;stroke:#ee810a;stroke-width:0.3;" x="394.023126" xlink:href="#ma90f8c3b87" y="57.709715"/>
     <use style="fill:#ee810a;stroke:#ee810a;stroke-width:0.3;" x="219.900825" xlink:href="#ma90f8c3b87" y="77.385069"/>
     <use style="fill:#ee810a;stroke:#ee810a;stroke-width:0.3;" x="360.945826" xlink:href="#ma90f8c3b87" y="66.51633"/>
     <use style="fill:#ee810a;stroke:#ee810a;stroke-width:0.3;" x="355.953356" xlink:href="#ma90f8c3b87" y="77.09303"/>
     <use style="fill:#ee810a;stroke:#ee810a;stroke-width:0.3;" x="203.674274" xlink:href="#ma90f8c3b87" y="88.909275"/>
     <use style="fill:#ee810a;stroke:#ee810a;stroke-width:0.3;" x="336.606557" xlink:href="#ma90f8c3b87" y="75.12663"/>
     <use style="fill:#ee810a;stroke:#ee810a;stroke-width:0.3;" x="302.281233" xlink:href="#ma90f8c3b87" y="72.151071"/>
     <use style="fill:#ee810a;stroke:#ee810a;stroke-width:0.3;" x="360.946198" xlink:href="#ma90f8c3b87" y="79.224918"/>
     <use style="fill:#ee810a;stroke:#ee810a;stroke-width:0.3;" x="327.245071" xlink:href="#ma90f8c3b87" y="91.297509"/>
     <use style="fill:#ee810a;stroke:#ee810a;stroke-width:0.3;" x="235.50355" xlink:href="#ma90f8c3b87" y="90.835113"/>
     <use style="fill:#ee810a;stroke:#ee810a;stroke-width:0.3;" x="373.428303" xlink:href="#ma90f8c3b87" y="65.005837"/>
     <use style="fill:#ee810a;stroke:#ee810a;stroke-width:0.3;" x="247.985283" xlink:href="#ma90f8c3b87" y="93.804182"/>
     <use style="fill:#ee810a;stroke:#ee810a;stroke-width:0.3;" x="226.141692" xlink:href="#ma90f8c3b87" y="68.313996"/>
     <use style="fill:#ee810a;stroke:#ee810a;stroke-width:0.3;" x="223.021073" xlink:href="#ma90f8c3b87" y="96.02206"/>
     <use style="fill:#ee810a;stroke:#ee810a;stroke-width:0.3;" x="251.105159" xlink:href="#ma90f8c3b87" y="97.704532"/>
     <use style="fill:#ee810a;stroke:#ee810a;stroke-width:0.3;" x="360.322372" xlink:href="#ma90f8c3b87" y="75.142854"/>
     <use style="fill:#ee810a;stroke:#ee810a;stroke-width:0.3;" x="286.05431" xlink:href="#ma90f8c3b87" y="90.419768"/>
     <use style="fill:#ee810a;stroke:#ee810a;stroke-width:0.3;" x="224.893296" xlink:href="#ma90f8c3b87" y="96.30112"/>
     <use style="fill:#ee810a;stroke:#ee810a;stroke-width:0.3;" x="360.945826" xlink:href="#ma90f8c3b87" y="78.728451"/>
     <use style="fill:#ee810a;stroke:#ee810a;stroke-width:0.3;" x="221.14885" xlink:href="#ma90f8c3b87" y="97.962501"/>
     <use style="fill:#ee810a;stroke:#ee810a;stroke-width:0.3;" x="242.992441" xlink:href="#ma90f8c3b87" y="102.792511"/>
     <use style="fill:#ee810a;stroke:#ee810a;stroke-width:0.3;" x="366.562866" xlink:href="#ma90f8c3b87" y="72.40255"/>
     <use style="fill:#ee810a;stroke:#ee810a;stroke-width:0.3;" x="232.382559" xlink:href="#ma90f8c3b87" y="97.021484"/>
     <use style="fill:#ee810a;stroke:#ee810a;stroke-width:0.3;" x="287.926905" xlink:href="#ma90f8c3b87" y="74.338123"/>
     <use style="fill:#ee810a;stroke:#ee810a;stroke-width:0.3;" x="262.33924" xlink:href="#ma90f8c3b87" y="97.456299"/>
     <use style="fill:#ee810a;stroke:#ee810a;stroke-width:0.3;" x="376.548551" xlink:href="#ma90f8c3b87" y="74.021747"/>
     <use style="fill:#ee810a;stroke:#ee810a;stroke-width:0.3;" x="209.915141" xlink:href="#ma90f8c3b87" y="93.645183"/>
     <use style="fill:#ee810a;stroke:#ee810a;stroke-width:0.3;" x="179.334634" xlink:href="#ma90f8c3b87" y="96.656435"/>
     <use style="fill:#ee810a;stroke:#ee810a;stroke-width:0.3;" x="196.809209" xlink:href="#ma90f8c3b87" y="96.604517"/>
     <use style="fill:#ee810a;stroke:#ee810a;stroke-width:0.3;" x="327.868898" xlink:href="#ma90f8c3b87" y="70.123019"/>
     <use style="fill:#ee810a;stroke:#ee810a;stroke-width:0.3;" x="348.464465" xlink:href="#ma90f8c3b87" y="78.848512"/>
     <use style="fill:#ee810a;stroke:#ee810a;stroke-width:0.3;" x="306.02605" xlink:href="#ma90f8c3b87" y="83.136626"/>
     <use style="fill:#ee810a;stroke:#ee810a;stroke-width:0.3;" x="311.643091" xlink:href="#ma90f8c3b87" y="80.972288"/>
     <use style="fill:#ee810a;stroke:#ee810a;stroke-width:0.3;" x="367.811635" xlink:href="#ma90f8c3b87" y="62.796071"/>
     <use style="fill:#ee810a;stroke:#ee810a;stroke-width:0.3;" x="362.818793" xlink:href="#ma90f8c3b87" y="76.917806"/>
     <use style="fill:#ee810a;stroke:#ee810a;stroke-width:0.3;" x="296.040366" xlink:href="#ma90f8c3b87" y="83.379992"/>
     <use style="fill:#ee810a;stroke:#ee810a;stroke-width:0.3;" x="277.94122" xlink:href="#ma90f8c3b87" y="86.355551"/>
     <use style="fill:#ee810a;stroke:#ee810a;stroke-width:0.3;" x="309.145926" xlink:href="#ma90f8c3b87" y="65.531508"/>
     <use style="fill:#ee810a;stroke:#ee810a;stroke-width:0.3;" x="314.13914" xlink:href="#ma90f8c3b87" y="76.160125"/>
     <use style="fill:#ee810a;stroke:#ee810a;stroke-width:0.3;" x="311.018893" xlink:href="#ma90f8c3b87" y="85.928849"/>
     <use style="fill:#ee810a;stroke:#ee810a;stroke-width:0.3;" x="323.500626" xlink:href="#ma90f8c3b87" y="67.741274"/>
     <use style="fill:#ee810a;stroke:#ee810a;stroke-width:0.3;" x="332.862112" xlink:href="#ma90f8c3b87" y="74.56851"/>
     <use style="fill:#ee810a;stroke:#ee810a;stroke-width:0.3;" x="222.396874" xlink:href="#ma90f8c3b87" y="97.031219"/>
     <use style="fill:#ee810a;stroke:#ee810a;stroke-width:0.3;" x="129.406956" xlink:href="#ma90f8c3b87" y="114.634715"/>
     <use style="fill:#ee810a;stroke:#ee810a;stroke-width:0.3;" x="385.910037" xlink:href="#ma90f8c3b87" y="69.642776"/>
     <use style="fill:#ee810a;stroke:#ee810a;stroke-width:0.3;" x="377.796947" xlink:href="#ma90f8c3b87" y="67.468704"/>
     <use style="fill:#ee810a;stroke:#ee810a;stroke-width:0.3;" x="330.364947" xlink:href="#ma90f8c3b87" y="72.201367"/>
     <use style="fill:#ee810a;stroke:#ee810a;stroke-width:0.3;" x="302.905803" xlink:href="#ma90f8c3b87" y="77.623568"/>
     <use style="fill:#ee810a;stroke:#ee810a;stroke-width:0.3;" x="328.493096" xlink:href="#ma90f8c3b87" y="82.46818"/>
     <use style="fill:#ee810a;stroke:#ee810a;stroke-width:0.3;" x="290.423326" xlink:href="#ma90f8c3b87" y="78.520779"/>
     <use style="fill:#ee810a;stroke:#ee810a;stroke-width:0.3;" x="352.833108" xlink:href="#ma90f8c3b87" y="76.306145"/>
     <use style="fill:#ee810a;stroke:#ee810a;stroke-width:0.3;" x="345.967672" xlink:href="#ma90f8c3b87" y="71.214922"/>
     <use style="fill:#ee810a;stroke:#ee810a;stroke-width:0.3;" x="322.876428" xlink:href="#ma90f8c3b87" y="76.726358"/>
     <use style="fill:#ee810a;stroke:#ee810a;stroke-width:0.3;" x="338.479152" xlink:href="#ma90f8c3b87" y="71.786022"/>
     <use style="fill:#ee810a;stroke:#ee810a;stroke-width:0.3;" x="347.839894" xlink:href="#ma90f8c3b87" y="80.563433"/>
     <use style="fill:#ee810a;stroke:#ee810a;stroke-width:0.3;" x="294.79197" xlink:href="#ma90f8c3b87" y="88.250563"/>
     <use style="fill:#ee810a;stroke:#ee810a;stroke-width:0.3;" x="324.749022" xlink:href="#ma90f8c3b87" y="72.021276"/>
     <use style="fill:#ee810a;stroke:#ee810a;stroke-width:0.3;" x="300.40901" xlink:href="#ma90f8c3b87" y="83.654185"/>
     <use style="fill:#ee810a;stroke:#ee810a;stroke-width:0.3;" x="305.401852" xlink:href="#ma90f8c3b87" y="74.649632"/>
     <use style="fill:#ee810a;stroke:#ee810a;stroke-width:0.3;" x="329.741121" xlink:href="#ma90f8c3b87" y="69.134952"/>
     <use style="fill:#ee810a;stroke:#ee810a;stroke-width:0.3;" x="359.698545" xlink:href="#ma90f8c3b87" y="75.173681"/>
     <use style="fill:#ee810a;stroke:#ee810a;stroke-width:0.3;" x="352.833108" xlink:href="#ma90f8c3b87" y="68.8348"/>
     <use style="fill:#ee810a;stroke:#ee810a;stroke-width:0.3;" x="325.373221" xlink:href="#ma90f8c3b87" y="81.131288"/>
     <use style="fill:#ee810a;stroke:#ee810a;stroke-width:0.3;" x="269.204305" xlink:href="#ma90f8c3b87" y="84.205815"/>
     <use style="fill:#ee810a;stroke:#ee810a;stroke-width:0.3;" x="360.945826" xlink:href="#ma90f8c3b87" y="73.121292"/>
     <use style="fill:#ee810a;stroke:#ee810a;stroke-width:0.3;" x="311.018521" xlink:href="#ma90f8c3b87" y="73.698881"/>
     <use style="fill:#ee810a;stroke:#ee810a;stroke-width:0.3;" x="294.167771" xlink:href="#ma90f8c3b87" y="87.109986"/>
     <use style="fill:#ee810a;stroke:#ee810a;stroke-width:0.3;" x="323.500254" xlink:href="#ma90f8c3b87" y="76.098473"/>
     <use style="fill:#ee810a;stroke:#ee810a;stroke-width:0.3;" x="297.288763" xlink:href="#ma90f8c3b87" y="83.775868"/>
     <use style="fill:#ee810a;stroke:#ee810a;stroke-width:0.3;" x="280.437269" xlink:href="#ma90f8c3b87" y="69.95104"/>
     <use style="fill:#ee810a;stroke:#ee810a;stroke-width:0.3;" x="273.572576" xlink:href="#ma90f8c3b87" y="75.869708"/>
     <use style="fill:#ee810a;stroke:#ee810a;stroke-width:0.3;" x="311.642719" xlink:href="#ma90f8c3b87" y="92.212566"/>
     <use style="fill:#ee810a;stroke:#ee810a;stroke-width:0.3;" x="311.642719" xlink:href="#ma90f8c3b87" y="75.008192"/>
     <use style="fill:#ee810a;stroke:#ee810a;stroke-width:0.3;" x="324.74865" xlink:href="#ma90f8c3b87" y="90.938949"/>
     <use style="fill:#ee810a;stroke:#ee810a;stroke-width:0.3;" x="285.430856" xlink:href="#ma90f8c3b87" y="69.962397"/>
     <use style="fill:#ee810a;stroke:#ee810a;stroke-width:0.3;" x="350.960886" xlink:href="#ma90f8c3b87" y="68.818576"/>
     <use style="fill:#ee810a;stroke:#ee810a;stroke-width:0.3;" x="354.704959" xlink:href="#ma90f8c3b87" y="71.416105"/>
     <use style="fill:#ee810a;stroke:#ee810a;stroke-width:0.3;" x="313.51457" xlink:href="#ma90f8c3b87" y="80.177292"/>
     <use style="fill:#ee810a;stroke:#ee810a;stroke-width:0.3;" x="359.073975" xlink:href="#ma90f8c3b87" y="66.208066"/>
     <use style="fill:#ee810a;stroke:#ee810a;stroke-width:0.3;" x="327.245071" xlink:href="#ma90f8c3b87" y="72.527478"/>
     <use style="fill:#ee810a;stroke:#ee810a;stroke-width:0.3;" x="335.358533" xlink:href="#ma90f8c3b87" y="92.147669"/>
     <use style="fill:#ee810a;stroke:#ee810a;stroke-width:0.3;" x="360.94657" xlink:href="#ma90f8c3b87" y="68.63524"/>
     <use style="fill:#ee810a;stroke:#ee810a;stroke-width:0.3;" x="284.182831" xlink:href="#ma90f8c3b87" y="76.614409"/>
     <use style="fill:#ee810a;stroke:#ee810a;stroke-width:0.3;" x="320.379635" xlink:href="#ma90f8c3b87" y="74.193726"/>
     <use style="fill:#ee810a;stroke:#ee810a;stroke-width:0.3;" x="311.643091" xlink:href="#ma90f8c3b87" y="83.368635"/>
     <use style="fill:#ee810a;stroke:#ee810a;stroke-width:0.3;" x="296.040366" xlink:href="#ma90f8c3b87" y="90.755613"/>
     <use style="fill:#ee810a;stroke:#ee810a;stroke-width:0.3;" x="292.29592" xlink:href="#ma90f8c3b87" y="77.56516"/>
     <use style="fill:#ee810a;stroke:#ee810a;stroke-width:0.3;" x="314.13914" xlink:href="#ma90f8c3b87" y="88.888183"/>
     <use style="fill:#ee810a;stroke:#ee810a;stroke-width:0.3;" x="333.485566" xlink:href="#ma90f8c3b87" y="77.386692"/>
     <use style="fill:#ee810a;stroke:#ee810a;stroke-width:0.3;" x="323.500998" xlink:href="#ma90f8c3b87" y="88.623725"/>
     <use style="fill:#ee810a;stroke:#ee810a;stroke-width:0.3;" x="301.657406" xlink:href="#ma90f8c3b87" y="92.837207"/>
     <use style="fill:#ee810a;stroke:#ee810a;stroke-width:0.3;" x="286.67888" xlink:href="#ma90f8c3b87" y="76.397002"/>
     <use style="fill:#ee810a;stroke:#ee810a;stroke-width:0.3;" x="272.94875" xlink:href="#ma90f8c3b87" y="86.170592"/>
     <use style="fill:#ee810a;stroke:#ee810a;stroke-width:0.3;" x="234.255154" xlink:href="#ma90f8c3b87" y="82.782934"/>
     <use style="fill:#ee810a;stroke:#ee810a;stroke-width:0.3;" x="330.989517" xlink:href="#ma90f8c3b87" y="75.069844"/>
     <use style="fill:#ee810a;stroke:#ee810a;stroke-width:0.3;" x="322.252229" xlink:href="#ma90f8c3b87" y="78.215759"/>
     <use style="fill:#ee810a;stroke:#ee810a;stroke-width:0.3;" x="327.245071" xlink:href="#ma90f8c3b87" y="85.982389"/>
     <use style="fill:#ee810a;stroke:#ee810a;stroke-width:0.3;" x="258.594422" xlink:href="#ma90f8c3b87" y="81.355185"/>
     <use style="fill:#ee810a;stroke:#ee810a;stroke-width:0.3;" x="362.818421" xlink:href="#ma90f8c3b87" y="66.80837"/>
     <use style="fill:#ee810a;stroke:#ee810a;stroke-width:0.3;" x="252.978126" xlink:href="#ma90f8c3b87" y="88.354399"/>
     <use style="fill:#ee810a;stroke:#ee810a;stroke-width:0.3;" x="347.21644" xlink:href="#ma90f8c3b87" y="80.685116"/>
     <use style="fill:#ee810a;stroke:#ee810a;stroke-width:0.3;" x="362.818421" xlink:href="#ma90f8c3b87" y="69.493511"/>
     <use style="fill:#ee810a;stroke:#ee810a;stroke-width:0.3;" x="276.693196" xlink:href="#ma90f8c3b87" y="89.363558"/>
     <use style="fill:#ee810a;stroke:#ee810a;stroke-width:0.3;" x="335.982359" xlink:href="#ma90f8c3b87" y="76.512195"/>
     <use style="fill:#ee810a;stroke:#ee810a;stroke-width:0.3;" x="264.211834" xlink:href="#ma90f8c3b87" y="92.451065"/>
     <use style="fill:#ee810a;stroke:#ee810a;stroke-width:0.3;" x="172.469941" xlink:href="#ma90f8c3b87" y="68.990554"/>
     <use style="fill:#ee810a;stroke:#ee810a;stroke-width:0.3;" x="347.216068" xlink:href="#ma90f8c3b87" y="80.625086"/>
     <use style="fill:#ee810a;stroke:#ee810a;stroke-width:0.3;" x="217.404032" xlink:href="#ma90f8c3b87" y="96.739179"/>
     <use style="fill:#ee810a;stroke:#ee810a;stroke-width:0.3;" x="290.423326" xlink:href="#ma90f8c3b87" y="74.659367"/>
     <use style="fill:#ee810a;stroke:#ee810a;stroke-width:0.3;" x="327.245443" xlink:href="#ma90f8c3b87" y="69.446461"/>
     <use style="fill:#ee810a;stroke:#ee810a;stroke-width:0.3;" x="208.04329" xlink:href="#ma90f8c3b87" y="95.52397"/>
     <use style="fill:#ee810a;stroke:#ee810a;stroke-width:0.3;" x="316.635933" xlink:href="#ma90f8c3b87" y="73.663187"/>
     <use style="fill:#ee810a;stroke:#ee810a;stroke-width:0.3;" x="304.153456" xlink:href="#ma90f8c3b87" y="78.201157"/>
     <use style="fill:#ee810a;stroke:#ee810a;stroke-width:0.3;" x="263.587264" xlink:href="#ma90f8c3b87" y="78.890695"/>
     <use style="fill:#ee810a;stroke:#ee810a;stroke-width:0.3;" x="178.710064" xlink:href="#ma90f8c3b87" y="140.472103"/>
     <use style="fill:#ee810a;stroke:#ee810a;stroke-width:0.3;" x="274.196775" xlink:href="#ma90f8c3b87" y="74.06393"/>
     <use style="fill:#ee810a;stroke:#ee810a;stroke-width:0.3;" x="380.916823" xlink:href="#ma90f8c3b87" y="63.673812"/>
     <use style="fill:#ee810a;stroke:#ee810a;stroke-width:0.3;" x="196.808837" xlink:href="#ma90f8c3b87" y="100.993222"/>
     <use style="fill:#ee810a;stroke:#ee810a;stroke-width:0.3;" x="306.02605" xlink:href="#ma90f8c3b87" y="76.311013"/>
     <use style="fill:#ee810a;stroke:#ee810a;stroke-width:0.3;" x="316.635189" xlink:href="#ma90f8c3b87" y="78.90043"/>
     <use style="fill:#ee810a;stroke:#ee810a;stroke-width:0.3;" x="339.727177" xlink:href="#ma90f8c3b87" y="88.091564"/>
     <use style="fill:#ee810a;stroke:#ee810a;stroke-width:0.3;" x="334.734335" xlink:href="#ma90f8c3b87" y="78.184933"/>
     <use style="fill:#ee810a;stroke:#ee810a;stroke-width:0.3;" x="260.467017" xlink:href="#ma90f8c3b87" y="90.885409"/>
     <use style="fill:#ee810a;stroke:#ee810a;stroke-width:0.3;" x="335.358161" xlink:href="#ma90f8c3b87" y="77.871802"/>
     <use style="fill:#ee810a;stroke:#ee810a;stroke-width:0.3;" x="357.201752" xlink:href="#ma90f8c3b87" y="68.593056"/>
     <use style="fill:#ee810a;stroke:#ee810a;stroke-width:0.3;" x="270.452701" xlink:href="#ma90f8c3b87" y="87.585362"/>
     <use style="fill:#ee810a;stroke:#ee810a;stroke-width:0.3;" x="288.551103" xlink:href="#ma90f8c3b87" y="68.7553"/>
     <use style="fill:#ee810a;stroke:#ee810a;stroke-width:0.3;" x="301.657034" xlink:href="#ma90f8c3b87" y="79.297928"/>
     <use style="fill:#ee810a;stroke:#ee810a;stroke-width:0.3;" x="329.741865" xlink:href="#ma90f8c3b87" y="79.323887"/>
     <use style="fill:#ee810a;stroke:#ee810a;stroke-width:0.3;" x="292.920119" xlink:href="#ma90f8c3b87" y="85.698462"/>
     <use style="fill:#ee810a;stroke:#ee810a;stroke-width:0.3;" x="340.975573" xlink:href="#ma90f8c3b87" y="75.993014"/>
     <use style="fill:#ee810a;stroke:#ee810a;stroke-width:0.3;" x="311.018893" xlink:href="#ma90f8c3b87" y="74.886509"/>
     <use style="fill:#ee810a;stroke:#ee810a;stroke-width:0.3;" x="312.890743" xlink:href="#ma90f8c3b87" y="86.469122"/>
     <use style="fill:#ee810a;stroke:#ee810a;stroke-width:0.3;" x="291.047152" xlink:href="#ma90f8c3b87" y="78.217382"/>
     <use style="fill:#ee810a;stroke:#ee810a;stroke-width:0.3;" x="289.175673" xlink:href="#ma90f8c3b87" y="81.241614"/>
     <use style="fill:#ee810a;stroke:#ee810a;stroke-width:0.3;" x="203.050076" xlink:href="#ma90f8c3b87" y="93.580285"/>
     <use style="fill:#ee810a;stroke:#ee810a;stroke-width:0.3;" x="372.179907" xlink:href="#ma90f8c3b87" y="66.063669"/>
     <use style="fill:#ee810a;stroke:#ee810a;stroke-width:0.3;" x="384.662012" xlink:href="#ma90f8c3b87" y="65.226489"/>
     <use style="fill:#ee810a;stroke:#ee810a;stroke-width:0.3;" x="367.187065" xlink:href="#ma90f8c3b87" y="76.044932"/>
     <use style="fill:#ee810a;stroke:#ee810a;stroke-width:0.3;" x="354.081133" xlink:href="#ma90f8c3b87" y="73.283536"/>
     <use style="fill:#ee810a;stroke:#ee810a;stroke-width:0.3;" x="338.47878" xlink:href="#ma90f8c3b87" y="68.544383"/>
     <use style="fill:#ee810a;stroke:#ee810a;stroke-width:0.3;" x="324.124824" xlink:href="#ma90f8c3b87" y="80.899278"/>
     <use style="fill:#ee810a;stroke:#ee810a;stroke-width:0.3;" x="365.938668" xlink:href="#ma90f8c3b87" y="72.670253"/>
     <use style="fill:#ee810a;stroke:#ee810a;stroke-width:0.3;" x="314.763338" xlink:href="#ma90f8c3b87" y="83.160963"/>
     <use style="fill:#ee810a;stroke:#ee810a;stroke-width:0.3;" x="340.974457" xlink:href="#ma90f8c3b87" y="68.07712"/>
     <use style="fill:#ee810a;stroke:#ee810a;stroke-width:0.3;" x="333.485938" xlink:href="#ma90f8c3b87" y="68.383761"/>
     <use style="fill:#ee810a;stroke:#ee810a;stroke-width:0.3;" x="337.854582" xlink:href="#ma90f8c3b87" y="70.166825"/>
     <use style="fill:#ee810a;stroke:#ee810a;stroke-width:0.3;" x="383.413616" xlink:href="#ma90f8c3b87" y="68.338333"/>
     <use style="fill:#ee810a;stroke:#ee810a;stroke-width:0.3;" x="369.059287" xlink:href="#ma90f8c3b87" y="64.984745"/>
     <use style="fill:#ee810a;stroke:#ee810a;stroke-width:0.3;" x="350.336687" xlink:href="#ma90f8c3b87" y="73.50581"/>
     <use style="fill:#ee810a;stroke:#ee810a;stroke-width:0.3;" x="136.895848" xlink:href="#ma90f8c3b87" y="90.468441"/>
     <use style="fill:#ee810a;stroke:#ee810a;stroke-width:0.3;" x="359.698173" xlink:href="#ma90f8c3b87" y="69.501624"/>
     <use style="fill:#ee810a;stroke:#ee810a;stroke-width:0.3;" x="361.570024" xlink:href="#ma90f8c3b87" y="70.776863"/>
     <use style="fill:#ee810a;stroke:#ee810a;stroke-width:0.3;" x="354.705331" xlink:href="#ma90f8c3b87" y="73.122914"/>
     <use style="fill:#ee810a;stroke:#ee810a;stroke-width:0.3;" x="362.818421" xlink:href="#ma90f8c3b87" y="61.713902"/>
     <use style="fill:#ee810a;stroke:#ee810a;stroke-width:0.3;" x="334.733963" xlink:href="#ma90f8c3b87" y="66.599075"/>
     <use style="fill:#ee810a;stroke:#ee810a;stroke-width:0.3;" x="314.138768" xlink:href="#ma90f8c3b87" y="71.227902"/>
     <use style="fill:#ee810a;stroke:#ee810a;stroke-width:0.3;" x="263.587264" xlink:href="#ma90f8c3b87" y="75.614985"/>
     <use style="fill:#ee810a;stroke:#ee810a;stroke-width:0.3;" x="73.238412" xlink:href="#ma90f8c3b87" y="143.290285"/>
     <use style="fill:#ee810a;stroke:#ee810a;stroke-width:0.3;" x="329.116922" xlink:href="#ma90f8c3b87" y="73.058016"/>
     <use style="fill:#ee810a;stroke:#ee810a;stroke-width:0.3;" x="242.367871" xlink:href="#ma90f8c3b87" y="96.554221"/>
     <use style="fill:#ee810a;stroke:#ee810a;stroke-width:0.3;" x="327.245443" xlink:href="#ma90f8c3b87" y="73.108312"/>
    </g>
   </g>
   <g id="patch_3">
    <path d="M 56.335 172.04 
L 56.335 28.96 
" style="fill:none;"/>
   </g>
   <g id="patch_4">
    <path d="M 419.04 172.04 
L 419.04 28.96 
" style="fill:none;"/>
   </g>
   <g id="patch_5">
    <path d="M 56.335 172.04 
L 419.04 172.04 
" style="fill:none;"/>
   </g>
   <g id="patch_6">
    <path d="M 56.335 28.96 
L 419.04 28.96 
" style="fill:none;"/>
   </g>
   <g id="text_13">
    <!-- Impact of Accuracy on the Auc -->
    <defs>
     <path d="M 9.8125 72.90625 
L 19.671875 72.90625 
L 19.671875 0 
L 9.8125 0 
z
" id="DejaVuSans-49"/>
     <path d="M 52 44.1875 
Q 55.375 50.25 60.0625 53.125 
Q 64.75 56 71.09375 56 
Q 79.640625 56 84.28125 50.015625 
Q 88.921875 44.046875 88.921875 33.015625 
L 88.921875 0 
L 79.890625 0 
L 79.890625 32.71875 
Q 79.890625 40.578125 77.09375 44.375 
Q 74.3125 48.1875 68.609375 48.1875 
Q 61.625 48.1875 57.5625 43.546875 
Q 53.515625 38.921875 53.515625 30.90625 
L 53.515625 0 
L 44.484375 0 
L 44.484375 32.71875 
Q 44.484375 40.625 41.703125 44.40625 
Q 38.921875 48.1875 33.109375 48.1875 
Q 26.21875 48.1875 22.15625 43.53125 
Q 18.109375 38.875 18.109375 30.90625 
L 18.109375 0 
L 9.078125 0 
L 9.078125 54.6875 
L 18.109375 54.6875 
L 18.109375 46.1875 
Q 21.1875 51.21875 25.484375 53.609375 
Q 29.78125 56 35.6875 56 
Q 41.65625 56 45.828125 52.96875 
Q 50 49.953125 52 44.1875 
z
" id="DejaVuSans-6d"/>
     <path d="M 18.109375 8.203125 
L 18.109375 -20.796875 
L 9.078125 -20.796875 
L 9.078125 54.6875 
L 18.109375 54.6875 
L 18.109375 46.390625 
Q 20.953125 51.265625 25.265625 53.625 
Q 29.59375 56 35.59375 56 
Q 45.5625 56 51.78125 48.09375 
Q 58.015625 40.1875 58.015625 27.296875 
Q 58.015625 14.40625 51.78125 6.484375 
Q 45.5625 -1.421875 35.59375 -1.421875 
Q 29.59375 -1.421875 25.265625 0.953125 
Q 20.953125 3.328125 18.109375 8.203125 
z
M 48.6875 27.296875 
Q 48.6875 37.203125 44.609375 42.84375 
Q 40.53125 48.484375 33.40625 48.484375 
Q 26.265625 48.484375 22.1875 42.84375 
Q 18.109375 37.203125 18.109375 27.296875 
Q 18.109375 17.390625 22.1875 11.75 
Q 26.265625 6.109375 33.40625 6.109375 
Q 40.53125 6.109375 44.609375 11.75 
Q 48.6875 17.390625 48.6875 27.296875 
z
" id="DejaVuSans-70"/>
     <path d="M 18.3125 70.21875 
L 18.3125 54.6875 
L 36.8125 54.6875 
L 36.8125 47.703125 
L 18.3125 47.703125 
L 18.3125 18.015625 
Q 18.3125 11.328125 20.140625 9.421875 
Q 21.96875 7.515625 27.59375 7.515625 
L 36.8125 7.515625 
L 36.8125 0 
L 27.59375 0 
Q 17.1875 0 13.234375 3.875 
Q 9.28125 7.765625 9.28125 18.015625 
L 9.28125 47.703125 
L 2.6875 47.703125 
L 2.6875 54.6875 
L 9.28125 54.6875 
L 9.28125 70.21875 
z
" id="DejaVuSans-74"/>
     <path id="DejaVuSans-20"/>
     <path d="M 30.609375 48.390625 
Q 23.390625 48.390625 19.1875 42.75 
Q 14.984375 37.109375 14.984375 27.296875 
Q 14.984375 17.484375 19.15625 11.84375 
Q 23.34375 6.203125 30.609375 6.203125 
Q 37.796875 6.203125 41.984375 11.859375 
Q 46.1875 17.53125 46.1875 27.296875 
Q 46.1875 37.015625 41.984375 42.703125 
Q 37.796875 48.390625 30.609375 48.390625 
z
M 30.609375 56 
Q 42.328125 56 49.015625 48.375 
Q 55.71875 40.765625 55.71875 27.296875 
Q 55.71875 13.875 49.015625 6.21875 
Q 42.328125 -1.421875 30.609375 -1.421875 
Q 18.84375 -1.421875 12.171875 6.21875 
Q 5.515625 13.875 5.515625 27.296875 
Q 5.515625 40.765625 12.171875 48.375 
Q 18.84375 56 30.609375 56 
z
" id="DejaVuSans-6f"/>
     <path d="M 37.109375 75.984375 
L 37.109375 68.5 
L 28.515625 68.5 
Q 23.6875 68.5 21.796875 66.546875 
Q 19.921875 64.59375 19.921875 59.515625 
L 19.921875 54.6875 
L 34.71875 54.6875 
L 34.71875 47.703125 
L 19.921875 47.703125 
L 19.921875 0 
L 10.890625 0 
L 10.890625 47.703125 
L 2.296875 47.703125 
L 2.296875 54.6875 
L 10.890625 54.6875 
L 10.890625 58.5 
Q 10.890625 67.625 15.140625 71.796875 
Q 19.390625 75.984375 28.609375 75.984375 
z
" id="DejaVuSans-66"/>
     <path d="M 54.890625 33.015625 
L 54.890625 0 
L 45.90625 0 
L 45.90625 32.71875 
Q 45.90625 40.484375 42.875 44.328125 
Q 39.84375 48.1875 33.796875 48.1875 
Q 26.515625 48.1875 22.3125 43.546875 
Q 18.109375 38.921875 18.109375 30.90625 
L 18.109375 0 
L 9.078125 0 
L 9.078125 54.6875 
L 18.109375 54.6875 
L 18.109375 46.1875 
Q 21.34375 51.125 25.703125 53.5625 
Q 30.078125 56 35.796875 56 
Q 45.21875 56 50.046875 50.171875 
Q 54.890625 44.34375 54.890625 33.015625 
z
" id="DejaVuSans-6e"/>
     <path d="M 54.890625 33.015625 
L 54.890625 0 
L 45.90625 0 
L 45.90625 32.71875 
Q 45.90625 40.484375 42.875 44.328125 
Q 39.84375 48.1875 33.796875 48.1875 
Q 26.515625 48.1875 22.3125 43.546875 
Q 18.109375 38.921875 18.109375 30.90625 
L 18.109375 0 
L 9.078125 0 
L 9.078125 75.984375 
L 18.109375 75.984375 
L 18.109375 46.1875 
Q 21.34375 51.125 25.703125 53.5625 
Q 30.078125 56 35.796875 56 
Q 45.21875 56 50.046875 50.171875 
Q 54.890625 44.34375 54.890625 33.015625 
z
" id="DejaVuSans-68"/>
     <path d="M 56.203125 29.59375 
L 56.203125 25.203125 
L 14.890625 25.203125 
Q 15.484375 15.921875 20.484375 11.0625 
Q 25.484375 6.203125 34.421875 6.203125 
Q 39.59375 6.203125 44.453125 7.46875 
Q 49.3125 8.734375 54.109375 11.28125 
L 54.109375 2.78125 
Q 49.265625 0.734375 44.1875 -0.34375 
Q 39.109375 -1.421875 33.890625 -1.421875 
Q 20.796875 -1.421875 13.15625 6.1875 
Q 5.515625 13.8125 5.515625 26.8125 
Q 5.515625 40.234375 12.765625 48.109375 
Q 20.015625 56 32.328125 56 
Q 43.359375 56 49.78125 48.890625 
Q 56.203125 41.796875 56.203125 29.59375 
z
M 47.21875 32.234375 
Q 47.125 39.59375 43.09375 43.984375 
Q 39.0625 48.390625 32.421875 48.390625 
Q 24.90625 48.390625 20.390625 44.140625 
Q 15.875 39.890625 15.1875 32.171875 
z
" id="DejaVuSans-65"/>
    </defs>
    <g style="fill:#262626;" transform="translate(145.594063 22.96)scale(0.12 -0.12)">
     <use xlink:href="#DejaVuSans-49"/>
     <use x="29.492188" xlink:href="#DejaVuSans-6d"/>
     <use x="126.904297" xlink:href="#DejaVuSans-70"/>
     <use x="190.380859" xlink:href="#DejaVuSans-61"/>
     <use x="251.660156" xlink:href="#DejaVuSans-63"/>
     <use x="306.640625" xlink:href="#DejaVuSans-74"/>
     <use x="345.849609" xlink:href="#DejaVuSans-20"/>
     <use x="377.636719" xlink:href="#DejaVuSans-6f"/>
     <use x="438.818359" xlink:href="#DejaVuSans-66"/>
     <use x="474.023438" xlink:href="#DejaVuSans-20"/>
     <use x="505.810547" xlink:href="#DejaVuSans-41"/>
     <use x="574.203125" xlink:href="#DejaVuSans-63"/>
     <use x="629.183594" xlink:href="#DejaVuSans-63"/>
     <use x="684.164062" xlink:href="#DejaVuSans-75"/>
     <use x="747.542969" xlink:href="#DejaVuSans-72"/>
     <use x="788.65625" xlink:href="#DejaVuSans-61"/>
     <use x="849.935547" xlink:href="#DejaVuSans-63"/>
     <use x="904.916016" xlink:href="#DejaVuSans-79"/>
     <use x="964.095703" xlink:href="#DejaVuSans-20"/>
     <use x="995.882812" xlink:href="#DejaVuSans-6f"/>
     <use x="1057.064453" xlink:href="#DejaVuSans-6e"/>
     <use x="1120.443359" xlink:href="#DejaVuSans-20"/>
     <use x="1152.230469" xlink:href="#DejaVuSans-74"/>
     <use x="1191.439453" xlink:href="#DejaVuSans-68"/>
     <use x="1254.818359" xlink:href="#DejaVuSans-65"/>
     <use x="1316.341797" xlink:href="#DejaVuSans-20"/>
     <use x="1348.128906" xlink:href="#DejaVuSans-41"/>
     <use x="1416.537109" xlink:href="#DejaVuSans-75"/>
     <use x="1479.916016" xlink:href="#DejaVuSans-63"/>
    </g>
   </g>
  </g>
 </g>
 <defs>
  <clipPath id="p71f4c327ad">
   <rect height="143.08" width="362.705" x="56.335" y="28.96"/>
  </clipPath>
 </defs>
</svg>
