<?xml version="1.0" encoding="utf-8" standalone="no"?>
<!DOCTYPE svg PUBLIC "-//W3C//DTD SVG 1.1//EN"
  "http://www.w3.org/Graphics/SVG/1.1/DTD/svg11.dtd">
<!-- Created with matplotlib (http://matplotlib.org/) -->
<svg height="396pt" version="1.1" viewBox="0 0 576 396" width="576pt" xmlns="http://www.w3.org/2000/svg" xmlns:xlink="http://www.w3.org/1999/xlink">
 <defs>
  <style type="text/css">
*{stroke-linecap:butt;stroke-linejoin:round;}
  </style>
 </defs>
 <g id="figure_1">
  <g id="patch_1">
   <path d="M 0 396 
L 576 396 
L 576 0 
L 0 0 
z
" style="fill:#ffffff;"/>
  </g>
  <g id="axes_1">
   <g id="patch_2">
    <path d="M 69.085 300.129746 
L 563.04 300.129746 
L 563.04 30.96 
L 69.085 30.96 
z
" style="fill:#eaeaf2;"/>
   </g>
   <g id="matplotlib.axis_1">
    <g id="xtick_1">
     <g id="line2d_1">
      <path clip-path="url(#pd43fb9848d)" d="M 151.410833 300.129746 
L 151.410833 30.96 
" style="fill:none;stroke:#ffffff;stroke-linecap:round;"/>
     </g>
     <g id="line2d_2"/>
     <g id="text_1">
      <!-- Pre: 5 x4, Final: 100 -->
      <defs>
       <path d="M 19.671875 64.796875 
L 19.671875 37.40625 
L 32.078125 37.40625 
Q 38.96875 37.40625 42.71875 40.96875 
Q 46.484375 44.53125 46.484375 51.125 
Q 46.484375 57.671875 42.71875 61.234375 
Q 38.96875 64.796875 32.078125 64.796875 
z
M 9.8125 72.90625 
L 32.078125 72.90625 
Q 44.34375 72.90625 50.609375 67.359375 
Q 56.890625 61.8125 56.890625 51.125 
Q 56.890625 40.328125 50.609375 34.8125 
Q 44.34375 29.296875 32.078125 29.296875 
L 19.671875 29.296875 
L 19.671875 0 
L 9.8125 0 
z
" id="DejaVuSans-50"/>
       <path d="M 41.109375 46.296875 
Q 39.59375 47.171875 37.8125 47.578125 
Q 36.03125 48 33.890625 48 
Q 26.265625 48 22.1875 43.046875 
Q 18.109375 38.09375 18.109375 28.8125 
L 18.109375 0 
L 9.078125 0 
L 9.078125 54.6875 
L 18.109375 54.6875 
L 18.109375 46.1875 
Q 20.953125 51.171875 25.484375 53.578125 
Q 30.03125 56 36.53125 56 
Q 37.453125 56 38.578125 55.875 
Q 39.703125 55.765625 41.0625 55.515625 
z
" id="DejaVuSans-72"/>
       <path d="M 56.203125 29.59375 
L 56.203125 25.203125 
L 14.890625 25.203125 
Q 15.484375 15.921875 20.484375 11.0625 
Q 25.484375 6.203125 34.421875 6.203125 
Q 39.59375 6.203125 44.453125 7.46875 
Q 49.3125 8.734375 54.109375 11.28125 
L 54.109375 2.78125 
Q 49.265625 0.734375 44.1875 -0.34375 
Q 39.109375 -1.421875 33.890625 -1.421875 
Q 20.796875 -1.421875 13.15625 6.1875 
Q 5.515625 13.8125 5.515625 26.8125 
Q 5.515625 40.234375 12.765625 48.109375 
Q 20.015625 56 32.328125 56 
Q 43.359375 56 49.78125 48.890625 
Q 56.203125 41.796875 56.203125 29.59375 
z
M 47.21875 32.234375 
Q 47.125 39.59375 43.09375 43.984375 
Q 39.0625 48.390625 32.421875 48.390625 
Q 24.90625 48.390625 20.390625 44.140625 
Q 15.875 39.890625 15.1875 32.171875 
z
" id="DejaVuSans-65"/>
       <path d="M 11.71875 12.40625 
L 22.015625 12.40625 
L 22.015625 0 
L 11.71875 0 
z
M 11.71875 51.703125 
L 22.015625 51.703125 
L 22.015625 39.3125 
L 11.71875 39.3125 
z
" id="DejaVuSans-3a"/>
       <path id="DejaVuSans-20"/>
       <path d="M 10.796875 72.90625 
L 49.515625 72.90625 
L 49.515625 64.59375 
L 19.828125 64.59375 
L 19.828125 46.734375 
Q 21.96875 47.46875 24.109375 47.828125 
Q 26.265625 48.1875 28.421875 48.1875 
Q 40.625 48.1875 47.75 41.5 
Q 54.890625 34.8125 54.890625 23.390625 
Q 54.890625 11.625 47.5625 5.09375 
Q 40.234375 -1.421875 26.90625 -1.421875 
Q 22.3125 -1.421875 17.546875 -0.640625 
Q 12.796875 0.140625 7.71875 1.703125 
L 7.71875 11.625 
Q 12.109375 9.234375 16.796875 8.0625 
Q 21.484375 6.890625 26.703125 6.890625 
Q 35.15625 6.890625 40.078125 11.328125 
Q 45.015625 15.765625 45.015625 23.390625 
Q 45.015625 31 40.078125 35.4375 
Q 35.15625 39.890625 26.703125 39.890625 
Q 22.75 39.890625 18.8125 39.015625 
Q 14.890625 38.140625 10.796875 36.28125 
z
" id="DejaVuSans-35"/>
       <path d="M 54.890625 54.6875 
L 35.109375 28.078125 
L 55.90625 0 
L 45.3125 0 
L 29.390625 21.484375 
L 13.484375 0 
L 2.875 0 
L 24.125 28.609375 
L 4.6875 54.6875 
L 15.28125 54.6875 
L 29.78125 35.203125 
L 44.28125 54.6875 
z
" id="DejaVuSans-78"/>
       <path d="M 37.796875 64.3125 
L 12.890625 25.390625 
L 37.796875 25.390625 
z
M 35.203125 72.90625 
L 47.609375 72.90625 
L 47.609375 25.390625 
L 58.015625 25.390625 
L 58.015625 17.1875 
L 47.609375 17.1875 
L 47.609375 0 
L 37.796875 0 
L 37.796875 17.1875 
L 4.890625 17.1875 
L 4.890625 26.703125 
z
" id="DejaVuSans-34"/>
       <path d="M 11.71875 12.40625 
L 22.015625 12.40625 
L 22.015625 4 
L 14.015625 -11.625 
L 7.71875 -11.625 
L 11.71875 4 
z
" id="DejaVuSans-2c"/>
       <path d="M 9.8125 72.90625 
L 51.703125 72.90625 
L 51.703125 64.59375 
L 19.671875 64.59375 
L 19.671875 43.109375 
L 48.578125 43.109375 
L 48.578125 34.8125 
L 19.671875 34.8125 
L 19.671875 0 
L 9.8125 0 
z
" id="DejaVuSans-46"/>
       <path d="M 9.421875 54.6875 
L 18.40625 54.6875 
L 18.40625 0 
L 9.421875 0 
z
M 9.421875 75.984375 
L 18.40625 75.984375 
L 18.40625 64.59375 
L 9.421875 64.59375 
z
" id="DejaVuSans-69"/>
       <path d="M 54.890625 33.015625 
L 54.890625 0 
L 45.90625 0 
L 45.90625 32.71875 
Q 45.90625 40.484375 42.875 44.328125 
Q 39.84375 48.1875 33.796875 48.1875 
Q 26.515625 48.1875 22.3125 43.546875 
Q 18.109375 38.921875 18.109375 30.90625 
L 18.109375 0 
L 9.078125 0 
L 9.078125 54.6875 
L 18.109375 54.6875 
L 18.109375 46.1875 
Q 21.34375 51.125 25.703125 53.5625 
Q 30.078125 56 35.796875 56 
Q 45.21875 56 50.046875 50.171875 
Q 54.890625 44.34375 54.890625 33.015625 
z
" id="DejaVuSans-6e"/>
       <path d="M 34.28125 27.484375 
Q 23.390625 27.484375 19.1875 25 
Q 14.984375 22.515625 14.984375 16.5 
Q 14.984375 11.71875 18.140625 8.90625 
Q 21.296875 6.109375 26.703125 6.109375 
Q 34.1875 6.109375 38.703125 11.40625 
Q 43.21875 16.703125 43.21875 25.484375 
L 43.21875 27.484375 
z
M 52.203125 31.203125 
L 52.203125 0 
L 43.21875 0 
L 43.21875 8.296875 
Q 40.140625 3.328125 35.546875 0.953125 
Q 30.953125 -1.421875 24.3125 -1.421875 
Q 15.921875 -1.421875 10.953125 3.296875 
Q 6 8.015625 6 15.921875 
Q 6 25.140625 12.171875 29.828125 
Q 18.359375 34.515625 30.609375 34.515625 
L 43.21875 34.515625 
L 43.21875 35.40625 
Q 43.21875 41.609375 39.140625 45 
Q 35.0625 48.390625 27.6875 48.390625 
Q 23 48.390625 18.546875 47.265625 
Q 14.109375 46.140625 10.015625 43.890625 
L 10.015625 52.203125 
Q 14.9375 54.109375 19.578125 55.046875 
Q 24.21875 56 28.609375 56 
Q 40.484375 56 46.34375 49.84375 
Q 52.203125 43.703125 52.203125 31.203125 
z
" id="DejaVuSans-61"/>
       <path d="M 9.421875 75.984375 
L 18.40625 75.984375 
L 18.40625 0 
L 9.421875 0 
z
" id="DejaVuSans-6c"/>
       <path d="M 12.40625 8.296875 
L 28.515625 8.296875 
L 28.515625 63.921875 
L 10.984375 60.40625 
L 10.984375 69.390625 
L 28.421875 72.90625 
L 38.28125 72.90625 
L 38.28125 8.296875 
L 54.390625 8.296875 
L 54.390625 0 
L 12.40625 0 
z
" id="DejaVuSans-31"/>
       <path d="M 31.78125 66.40625 
Q 24.171875 66.40625 20.328125 58.90625 
Q 16.5 51.421875 16.5 36.375 
Q 16.5 21.390625 20.328125 13.890625 
Q 24.171875 6.390625 31.78125 6.390625 
Q 39.453125 6.390625 43.28125 13.890625 
Q 47.125 21.390625 47.125 36.375 
Q 47.125 51.421875 43.28125 58.90625 
Q 39.453125 66.40625 31.78125 66.40625 
z
M 31.78125 74.21875 
Q 44.046875 74.21875 50.515625 64.515625 
Q 56.984375 54.828125 56.984375 36.375 
Q 56.984375 17.96875 50.515625 8.265625 
Q 44.046875 -1.421875 31.78125 -1.421875 
Q 19.53125 -1.421875 13.0625 8.265625 
Q 6.59375 17.96875 6.59375 36.375 
Q 6.59375 54.828125 13.0625 64.515625 
Q 19.53125 74.21875 31.78125 74.21875 
z
" id="DejaVuSans-30"/>
      </defs>
      <g style="fill:#262626;" transform="translate(109.311309 363.915655)rotate(-30)scale(0.1 -0.1)">
       <use xlink:href="#DejaVuSans-50"/>
       <use x="60.287109" xlink:href="#DejaVuSans-72"/>
       <use x="101.369141" xlink:href="#DejaVuSans-65"/>
       <use x="162.892578" xlink:href="#DejaVuSans-3a"/>
       <use x="196.583984" xlink:href="#DejaVuSans-20"/>
       <use x="228.371094" xlink:href="#DejaVuSans-35"/>
       <use x="291.994141" xlink:href="#DejaVuSans-20"/>
       <use x="323.78125" xlink:href="#DejaVuSans-78"/>
       <use x="382.960938" xlink:href="#DejaVuSans-34"/>
       <use x="446.583984" xlink:href="#DejaVuSans-2c"/>
       <use x="478.371094" xlink:href="#DejaVuSans-20"/>
       <use x="510.158203" xlink:href="#DejaVuSans-46"/>
       <use x="567.568359" xlink:href="#DejaVuSans-69"/>
       <use x="595.351562" xlink:href="#DejaVuSans-6e"/>
       <use x="658.730469" xlink:href="#DejaVuSans-61"/>
       <use x="720.009766" xlink:href="#DejaVuSans-6c"/>
       <use x="747.792969" xlink:href="#DejaVuSans-3a"/>
       <use x="781.484375" xlink:href="#DejaVuSans-20"/>
       <use x="813.271484" xlink:href="#DejaVuSans-31"/>
       <use x="876.894531" xlink:href="#DejaVuSans-30"/>
       <use x="940.517578" xlink:href="#DejaVuSans-30"/>
      </g>
     </g>
    </g>
    <g id="xtick_2">
     <g id="line2d_3">
      <path clip-path="url(#pd43fb9848d)" d="M 316.0625 300.129746 
L 316.0625 30.96 
" style="fill:none;stroke:#ffffff;stroke-linecap:round;"/>
     </g>
     <g id="line2d_4"/>
     <g id="text_2">
      <!-- Pre: 10 x4, Final: 100 -->
      <g style="fill:#262626;" transform="translate(271.207933 367.096905)rotate(-30)scale(0.1 -0.1)">
       <use xlink:href="#DejaVuSans-50"/>
       <use x="60.287109" xlink:href="#DejaVuSans-72"/>
       <use x="101.369141" xlink:href="#DejaVuSans-65"/>
       <use x="162.892578" xlink:href="#DejaVuSans-3a"/>
       <use x="196.583984" xlink:href="#DejaVuSans-20"/>
       <use x="228.371094" xlink:href="#DejaVuSans-31"/>
       <use x="291.994141" xlink:href="#DejaVuSans-30"/>
       <use x="355.617188" xlink:href="#DejaVuSans-20"/>
       <use x="387.404297" xlink:href="#DejaVuSans-78"/>
       <use x="446.583984" xlink:href="#DejaVuSans-34"/>
       <use x="510.207031" xlink:href="#DejaVuSans-2c"/>
       <use x="541.994141" xlink:href="#DejaVuSans-20"/>
       <use x="573.78125" xlink:href="#DejaVuSans-46"/>
       <use x="631.191406" xlink:href="#DejaVuSans-69"/>
       <use x="658.974609" xlink:href="#DejaVuSans-6e"/>
       <use x="722.353516" xlink:href="#DejaVuSans-61"/>
       <use x="783.632812" xlink:href="#DejaVuSans-6c"/>
       <use x="811.416016" xlink:href="#DejaVuSans-3a"/>
       <use x="845.107422" xlink:href="#DejaVuSans-20"/>
       <use x="876.894531" xlink:href="#DejaVuSans-31"/>
       <use x="940.517578" xlink:href="#DejaVuSans-30"/>
       <use x="1004.140625" xlink:href="#DejaVuSans-30"/>
      </g>
     </g>
    </g>
    <g id="xtick_3">
     <g id="line2d_5">
      <path clip-path="url(#pd43fb9848d)" d="M 480.714167 300.129746 
L 480.714167 30.96 
" style="fill:none;stroke:#ffffff;stroke-linecap:round;"/>
     </g>
     <g id="line2d_6"/>
     <g id="text_3">
      <!-- Pre: 0 x4, Final: 100  -->
      <g style="fill:#262626;" transform="translate(437.238474 365.504717)rotate(-30)scale(0.1 -0.1)">
       <use xlink:href="#DejaVuSans-50"/>
       <use x="60.287109" xlink:href="#DejaVuSans-72"/>
       <use x="101.369141" xlink:href="#DejaVuSans-65"/>
       <use x="162.892578" xlink:href="#DejaVuSans-3a"/>
       <use x="196.583984" xlink:href="#DejaVuSans-20"/>
       <use x="228.371094" xlink:href="#DejaVuSans-30"/>
       <use x="291.994141" xlink:href="#DejaVuSans-20"/>
       <use x="323.78125" xlink:href="#DejaVuSans-78"/>
       <use x="382.960938" xlink:href="#DejaVuSans-34"/>
       <use x="446.583984" xlink:href="#DejaVuSans-2c"/>
       <use x="478.371094" xlink:href="#DejaVuSans-20"/>
       <use x="510.158203" xlink:href="#DejaVuSans-46"/>
       <use x="567.568359" xlink:href="#DejaVuSans-69"/>
       <use x="595.351562" xlink:href="#DejaVuSans-6e"/>
       <use x="658.730469" xlink:href="#DejaVuSans-61"/>
       <use x="720.009766" xlink:href="#DejaVuSans-6c"/>
       <use x="747.792969" xlink:href="#DejaVuSans-3a"/>
       <use x="781.484375" xlink:href="#DejaVuSans-20"/>
       <use x="813.271484" xlink:href="#DejaVuSans-31"/>
       <use x="876.894531" xlink:href="#DejaVuSans-30"/>
       <use x="940.517578" xlink:href="#DejaVuSans-30"/>
       <use x="1004.140625" xlink:href="#DejaVuSans-20"/>
      </g>
     </g>
    </g>
    <g id="text_4">
     <!-- Trainings -->
     <defs>
      <path d="M -0.296875 72.90625 
L 61.375 72.90625 
L 61.375 64.59375 
L 35.5 64.59375 
L 35.5 0 
L 25.59375 0 
L 25.59375 64.59375 
L -0.296875 64.59375 
z
" id="DejaVuSans-54"/>
      <path d="M 45.40625 27.984375 
Q 45.40625 37.75 41.375 43.109375 
Q 37.359375 48.484375 30.078125 48.484375 
Q 22.859375 48.484375 18.828125 43.109375 
Q 14.796875 37.75 14.796875 27.984375 
Q 14.796875 18.265625 18.828125 12.890625 
Q 22.859375 7.515625 30.078125 7.515625 
Q 37.359375 7.515625 41.375 12.890625 
Q 45.40625 18.265625 45.40625 27.984375 
z
M 54.390625 6.78125 
Q 54.390625 -7.171875 48.1875 -13.984375 
Q 42 -20.796875 29.203125 -20.796875 
Q 24.46875 -20.796875 20.265625 -20.09375 
Q 16.0625 -19.390625 12.109375 -17.921875 
L 12.109375 -9.1875 
Q 16.0625 -11.328125 19.921875 -12.34375 
Q 23.78125 -13.375 27.78125 -13.375 
Q 36.625 -13.375 41.015625 -8.765625 
Q 45.40625 -4.15625 45.40625 5.171875 
L 45.40625 9.625 
Q 42.625 4.78125 38.28125 2.390625 
Q 33.9375 0 27.875 0 
Q 17.828125 0 11.671875 7.65625 
Q 5.515625 15.328125 5.515625 27.984375 
Q 5.515625 40.671875 11.671875 48.328125 
Q 17.828125 56 27.875 56 
Q 33.9375 56 38.28125 53.609375 
Q 42.625 51.21875 45.40625 46.390625 
L 45.40625 54.6875 
L 54.390625 54.6875 
z
" id="DejaVuSans-67"/>
      <path d="M 44.28125 53.078125 
L 44.28125 44.578125 
Q 40.484375 46.53125 36.375 47.5 
Q 32.28125 48.484375 27.875 48.484375 
Q 21.1875 48.484375 17.84375 46.4375 
Q 14.5 44.390625 14.5 40.28125 
Q 14.5 37.15625 16.890625 35.375 
Q 19.28125 33.59375 26.515625 31.984375 
L 29.59375 31.296875 
Q 39.15625 29.25 43.1875 25.515625 
Q 47.21875 21.78125 47.21875 15.09375 
Q 47.21875 7.46875 41.1875 3.015625 
Q 35.15625 -1.421875 24.609375 -1.421875 
Q 20.21875 -1.421875 15.453125 -0.5625 
Q 10.6875 0.296875 5.421875 2 
L 5.421875 11.28125 
Q 10.40625 8.6875 15.234375 7.390625 
Q 20.0625 6.109375 24.8125 6.109375 
Q 31.15625 6.109375 34.5625 8.28125 
Q 37.984375 10.453125 37.984375 14.40625 
Q 37.984375 18.0625 35.515625 20.015625 
Q 33.0625 21.96875 24.703125 23.78125 
L 21.578125 24.515625 
Q 13.234375 26.265625 9.515625 29.90625 
Q 5.8125 33.546875 5.8125 39.890625 
Q 5.8125 47.609375 11.28125 51.796875 
Q 16.75 56 26.8125 56 
Q 31.78125 56 36.171875 55.265625 
Q 40.578125 54.546875 44.28125 53.078125 
z
" id="DejaVuSans-73"/>
     </defs>
     <g style="fill:#262626;" transform="translate(290.699766 381.256248)scale(0.11 -0.11)">
      <use xlink:href="#DejaVuSans-54"/>
      <use x="60.865234" xlink:href="#DejaVuSans-72"/>
      <use x="101.978516" xlink:href="#DejaVuSans-61"/>
      <use x="163.257812" xlink:href="#DejaVuSans-69"/>
      <use x="191.041016" xlink:href="#DejaVuSans-6e"/>
      <use x="254.419922" xlink:href="#DejaVuSans-69"/>
      <use x="282.203125" xlink:href="#DejaVuSans-6e"/>
      <use x="345.582031" xlink:href="#DejaVuSans-67"/>
      <use x="409.058594" xlink:href="#DejaVuSans-73"/>
     </g>
    </g>
   </g>
   <g id="matplotlib.axis_2">
    <g id="ytick_1">
     <g id="line2d_7">
      <path clip-path="url(#pd43fb9848d)" d="M 69.085 271.345533 
L 563.04 271.345533 
" style="fill:none;stroke:#ffffff;stroke-linecap:round;"/>
     </g>
     <g id="line2d_8"/>
     <g id="text_5">
      <!-- 0.9425 -->
      <defs>
       <path d="M 10.6875 12.40625 
L 21 12.40625 
L 21 0 
L 10.6875 0 
z
" id="DejaVuSans-2e"/>
       <path d="M 10.984375 1.515625 
L 10.984375 10.5 
Q 14.703125 8.734375 18.5 7.8125 
Q 22.3125 6.890625 25.984375 6.890625 
Q 35.75 6.890625 40.890625 13.453125 
Q 46.046875 20.015625 46.78125 33.40625 
Q 43.953125 29.203125 39.59375 26.953125 
Q 35.25 24.703125 29.984375 24.703125 
Q 19.046875 24.703125 12.671875 31.3125 
Q 6.296875 37.9375 6.296875 49.421875 
Q 6.296875 60.640625 12.9375 67.421875 
Q 19.578125 74.21875 30.609375 74.21875 
Q 43.265625 74.21875 49.921875 64.515625 
Q 56.59375 54.828125 56.59375 36.375 
Q 56.59375 19.140625 48.40625 8.859375 
Q 40.234375 -1.421875 26.421875 -1.421875 
Q 22.703125 -1.421875 18.890625 -0.6875 
Q 15.09375 0.046875 10.984375 1.515625 
z
M 30.609375 32.421875 
Q 37.25 32.421875 41.125 36.953125 
Q 45.015625 41.5 45.015625 49.421875 
Q 45.015625 57.28125 41.125 61.84375 
Q 37.25 66.40625 30.609375 66.40625 
Q 23.96875 66.40625 20.09375 61.84375 
Q 16.21875 57.28125 16.21875 49.421875 
Q 16.21875 41.5 20.09375 36.953125 
Q 23.96875 32.421875 30.609375 32.421875 
z
" id="DejaVuSans-39"/>
       <path d="M 19.1875 8.296875 
L 53.609375 8.296875 
L 53.609375 0 
L 7.328125 0 
L 7.328125 8.296875 
Q 12.9375 14.109375 22.625 23.890625 
Q 32.328125 33.6875 34.8125 36.53125 
Q 39.546875 41.84375 41.421875 45.53125 
Q 43.3125 49.21875 43.3125 52.78125 
Q 43.3125 58.59375 39.234375 62.25 
Q 35.15625 65.921875 28.609375 65.921875 
Q 23.96875 65.921875 18.8125 64.3125 
Q 13.671875 62.703125 7.8125 59.421875 
L 7.8125 69.390625 
Q 13.765625 71.78125 18.9375 73 
Q 24.125 74.21875 28.421875 74.21875 
Q 39.75 74.21875 46.484375 68.546875 
Q 53.21875 62.890625 53.21875 53.421875 
Q 53.21875 48.921875 51.53125 44.890625 
Q 49.859375 40.875 45.40625 35.40625 
Q 44.1875 33.984375 37.640625 27.21875 
Q 31.109375 20.453125 19.1875 8.296875 
z
" id="DejaVuSans-32"/>
      </defs>
      <g style="fill:#262626;" transform="translate(27.094375 275.144751)scale(0.1 -0.1)">
       <use xlink:href="#DejaVuSans-30"/>
       <use x="63.623047" xlink:href="#DejaVuSans-2e"/>
       <use x="95.410156" xlink:href="#DejaVuSans-39"/>
       <use x="159.033203" xlink:href="#DejaVuSans-34"/>
       <use x="222.65625" xlink:href="#DejaVuSans-32"/>
       <use x="286.279297" xlink:href="#DejaVuSans-35"/>
      </g>
     </g>
    </g>
    <g id="ytick_2">
     <g id="line2d_9">
      <path clip-path="url(#pd43fb9848d)" d="M 69.085 236.490378 
L 563.04 236.490378 
" style="fill:none;stroke:#ffffff;stroke-linecap:round;"/>
     </g>
     <g id="line2d_10"/>
     <g id="text_6">
      <!-- 0.9450 -->
      <g style="fill:#262626;" transform="translate(27.094375 240.289597)scale(0.1 -0.1)">
       <use xlink:href="#DejaVuSans-30"/>
       <use x="63.623047" xlink:href="#DejaVuSans-2e"/>
       <use x="95.410156" xlink:href="#DejaVuSans-39"/>
       <use x="159.033203" xlink:href="#DejaVuSans-34"/>
       <use x="222.65625" xlink:href="#DejaVuSans-35"/>
       <use x="286.279297" xlink:href="#DejaVuSans-30"/>
      </g>
     </g>
    </g>
    <g id="ytick_3">
     <g id="line2d_11">
      <path clip-path="url(#pd43fb9848d)" d="M 69.085 201.635223 
L 563.04 201.635223 
" style="fill:none;stroke:#ffffff;stroke-linecap:round;"/>
     </g>
     <g id="line2d_12"/>
     <g id="text_7">
      <!-- 0.9475 -->
      <defs>
       <path d="M 8.203125 72.90625 
L 55.078125 72.90625 
L 55.078125 68.703125 
L 28.609375 0 
L 18.3125 0 
L 43.21875 64.59375 
L 8.203125 64.59375 
z
" id="DejaVuSans-37"/>
      </defs>
      <g style="fill:#262626;" transform="translate(27.094375 205.434442)scale(0.1 -0.1)">
       <use xlink:href="#DejaVuSans-30"/>
       <use x="63.623047" xlink:href="#DejaVuSans-2e"/>
       <use x="95.410156" xlink:href="#DejaVuSans-39"/>
       <use x="159.033203" xlink:href="#DejaVuSans-34"/>
       <use x="222.65625" xlink:href="#DejaVuSans-37"/>
       <use x="286.279297" xlink:href="#DejaVuSans-35"/>
      </g>
     </g>
    </g>
    <g id="ytick_4">
     <g id="line2d_13">
      <path clip-path="url(#pd43fb9848d)" d="M 69.085 166.780068 
L 563.04 166.780068 
" style="fill:none;stroke:#ffffff;stroke-linecap:round;"/>
     </g>
     <g id="line2d_14"/>
     <g id="text_8">
      <!-- 0.9500 -->
      <g style="fill:#262626;" transform="translate(27.094375 170.579287)scale(0.1 -0.1)">
       <use xlink:href="#DejaVuSans-30"/>
       <use x="63.623047" xlink:href="#DejaVuSans-2e"/>
       <use x="95.410156" xlink:href="#DejaVuSans-39"/>
       <use x="159.033203" xlink:href="#DejaVuSans-35"/>
       <use x="222.65625" xlink:href="#DejaVuSans-30"/>
       <use x="286.279297" xlink:href="#DejaVuSans-30"/>
      </g>
     </g>
    </g>
    <g id="ytick_5">
     <g id="line2d_15">
      <path clip-path="url(#pd43fb9848d)" d="M 69.085 131.924913 
L 563.04 131.924913 
" style="fill:none;stroke:#ffffff;stroke-linecap:round;"/>
     </g>
     <g id="line2d_16"/>
     <g id="text_9">
      <!-- 0.9525 -->
      <g style="fill:#262626;" transform="translate(27.094375 135.724132)scale(0.1 -0.1)">
       <use xlink:href="#DejaVuSans-30"/>
       <use x="63.623047" xlink:href="#DejaVuSans-2e"/>
       <use x="95.410156" xlink:href="#DejaVuSans-39"/>
       <use x="159.033203" xlink:href="#DejaVuSans-35"/>
       <use x="222.65625" xlink:href="#DejaVuSans-32"/>
       <use x="286.279297" xlink:href="#DejaVuSans-35"/>
      </g>
     </g>
    </g>
    <g id="ytick_6">
     <g id="line2d_17">
      <path clip-path="url(#pd43fb9848d)" d="M 69.085 97.069758 
L 563.04 97.069758 
" style="fill:none;stroke:#ffffff;stroke-linecap:round;"/>
     </g>
     <g id="line2d_18"/>
     <g id="text_10">
      <!-- 0.9550 -->
      <g style="fill:#262626;" transform="translate(27.094375 100.868977)scale(0.1 -0.1)">
       <use xlink:href="#DejaVuSans-30"/>
       <use x="63.623047" xlink:href="#DejaVuSans-2e"/>
       <use x="95.410156" xlink:href="#DejaVuSans-39"/>
       <use x="159.033203" xlink:href="#DejaVuSans-35"/>
       <use x="222.65625" xlink:href="#DejaVuSans-35"/>
       <use x="286.279297" xlink:href="#DejaVuSans-30"/>
      </g>
     </g>
    </g>
    <g id="ytick_7">
     <g id="line2d_19">
      <path clip-path="url(#pd43fb9848d)" d="M 69.085 62.214603 
L 563.04 62.214603 
" style="fill:none;stroke:#ffffff;stroke-linecap:round;"/>
     </g>
     <g id="line2d_20"/>
     <g id="text_11">
      <!-- 0.9575 -->
      <g style="fill:#262626;" transform="translate(27.094375 66.013822)scale(0.1 -0.1)">
       <use xlink:href="#DejaVuSans-30"/>
       <use x="63.623047" xlink:href="#DejaVuSans-2e"/>
       <use x="95.410156" xlink:href="#DejaVuSans-39"/>
       <use x="159.033203" xlink:href="#DejaVuSans-35"/>
       <use x="222.65625" xlink:href="#DejaVuSans-37"/>
       <use x="286.279297" xlink:href="#DejaVuSans-35"/>
      </g>
     </g>
    </g>
    <g id="text_12">
     <!-- Auc -->
     <defs>
      <path d="M 34.1875 63.1875 
L 20.796875 26.90625 
L 47.609375 26.90625 
z
M 28.609375 72.90625 
L 39.796875 72.90625 
L 67.578125 0 
L 57.328125 0 
L 50.6875 18.703125 
L 17.828125 18.703125 
L 11.1875 0 
L 0.78125 0 
z
" id="DejaVuSans-41"/>
      <path d="M 8.5 21.578125 
L 8.5 54.6875 
L 17.484375 54.6875 
L 17.484375 21.921875 
Q 17.484375 14.15625 20.5 10.265625 
Q 23.53125 6.390625 29.59375 6.390625 
Q 36.859375 6.390625 41.078125 11.03125 
Q 45.3125 15.671875 45.3125 23.6875 
L 45.3125 54.6875 
L 54.296875 54.6875 
L 54.296875 0 
L 45.3125 0 
L 45.3125 8.40625 
Q 42.046875 3.421875 37.71875 1 
Q 33.40625 -1.421875 27.6875 -1.421875 
Q 18.265625 -1.421875 13.375 4.4375 
Q 8.5 10.296875 8.5 21.578125 
z
M 31.109375 56 
z
" id="DejaVuSans-75"/>
      <path d="M 48.78125 52.59375 
L 48.78125 44.1875 
Q 44.96875 46.296875 41.140625 47.34375 
Q 37.3125 48.390625 33.40625 48.390625 
Q 24.65625 48.390625 19.8125 42.84375 
Q 14.984375 37.3125 14.984375 27.296875 
Q 14.984375 17.28125 19.8125 11.734375 
Q 24.65625 6.203125 33.40625 6.203125 
Q 37.3125 6.203125 41.140625 7.25 
Q 44.96875 8.296875 48.78125 10.40625 
L 48.78125 2.09375 
Q 45.015625 0.34375 40.984375 -0.53125 
Q 36.96875 -1.421875 32.421875 -1.421875 
Q 20.0625 -1.421875 12.78125 6.34375 
Q 5.515625 14.109375 5.515625 27.296875 
Q 5.515625 40.671875 12.859375 48.328125 
Q 20.21875 56 33.015625 56 
Q 37.15625 56 41.109375 55.140625 
Q 45.0625 54.296875 48.78125 52.59375 
z
" id="DejaVuSans-63"/>
     </defs>
     <g style="fill:#262626;" transform="translate(20.806719 175.816982)rotate(-90)scale(0.11 -0.11)">
      <use xlink:href="#DejaVuSans-41"/>
      <use x="68.408203" xlink:href="#DejaVuSans-75"/>
      <use x="131.787109" xlink:href="#DejaVuSans-63"/>
     </g>
    </g>
   </g>
   <g id="PolyCollection_1">
    <defs>
     <path d="M 156.378521 -270.680982 
L 146.443145 -270.680982 
L 145.509093 -271.510518 
L 144.443726 -272.340054 
L 143.237858 -273.169589 
L 141.883471 -273.999125 
L 140.374107 -274.828661 
L 138.705264 -275.658196 
L 136.874783 -276.487732 
L 134.883215 -277.317268 
L 132.734133 -278.146803 
L 130.4344 -278.976339 
L 127.994341 -279.805874 
L 125.427829 -280.63541 
L 122.752263 -281.464946 
L 119.988425 -282.294481 
L 117.160216 -283.124017 
L 114.294272 -283.953553 
L 111.419462 -284.783088 
L 108.566288 -285.612624 
L 105.766196 -286.44216 
L 103.050828 -287.271695 
L 100.451235 -288.101231 
L 97.997093 -288.930767 
L 95.715939 -289.760302 
L 93.632459 -290.589838 
L 91.767875 -291.419374 
L 90.139424 -292.248909 
L 88.759984 -293.078445 
L 87.63783 -293.907981 
L 86.776548 -294.737516 
L 86.175098 -295.567052 
L 85.828015 -296.396587 
L 85.725749 -297.226123 
L 85.855102 -298.055659 
L 86.199765 -298.885194 
L 86.740901 -299.71473 
L 87.457768 -300.544266 
L 88.328346 -301.373801 
L 89.329941 -302.203337 
L 90.439749 -303.032873 
L 91.635354 -303.862408 
L 92.895164 -304.691944 
L 94.198755 -305.52148 
L 95.527142 -306.351015 
L 96.862967 -307.180551 
L 98.190615 -308.010087 
L 99.496273 -308.839622 
L 100.767928 -309.669158 
L 101.995348 -310.498693 
L 103.170022 -311.328229 
L 104.285104 -312.157765 
L 105.335347 -312.9873 
L 106.317055 -313.816836 
L 107.228038 -314.646372 
L 108.067588 -315.475907 
L 108.83646 -316.305443 
L 109.536866 -317.134979 
L 110.172466 -317.964514 
L 110.748355 -318.79405 
L 111.271025 -319.623586 
L 111.748314 -320.453121 
L 112.189304 -321.282657 
L 112.604199 -322.112193 
L 113.00414 -322.941728 
L 113.400988 -323.771264 
L 113.807057 -324.6008 
L 114.234815 -325.430335 
L 114.696548 -326.259871 
L 115.204014 -327.089406 
L 115.768084 -327.918942 
L 116.398397 -328.748478 
L 117.103041 -329.578013 
L 117.888264 -330.407549 
L 118.758249 -331.237085 
L 119.714946 -332.06662 
L 120.757981 -332.896156 
L 121.884636 -333.725692 
L 123.089923 -334.555227 
L 124.366723 -335.384763 
L 125.706001 -336.214299 
L 127.097088 -337.043834 
L 128.528011 -337.87337 
L 129.985857 -338.702906 
L 131.457164 -339.532441 
L 132.928309 -340.361977 
L 134.385893 -341.191512 
L 135.817095 -342.021048 
L 137.20999 -342.850584 
L 138.553815 -343.680119 
L 139.839187 -344.509655 
L 141.058252 -345.339191 
L 142.204781 -346.168726 
L 143.274194 -346.998262 
L 144.263546 -347.827798 
L 145.171444 -348.657333 
L 145.997941 -349.486869 
L 146.744381 -350.316405 
L 147.413229 -351.14594 
L 148.00789 -351.975476 
L 148.532509 -352.805012 
L 154.289158 -352.805012 
L 154.289158 -352.805012 
L 154.813777 -351.975476 
L 155.408437 -351.14594 
L 156.077286 -350.316405 
L 156.823725 -349.486869 
L 157.650222 -348.657333 
L 158.558121 -347.827798 
L 159.547473 -346.998262 
L 160.616886 -346.168726 
L 161.763414 -345.339191 
L 162.98248 -344.509655 
L 164.267852 -343.680119 
L 165.611677 -342.850584 
L 167.004571 -342.021048 
L 168.435773 -341.191512 
L 169.893358 -340.361977 
L 171.364503 -339.532441 
L 172.835809 -338.702906 
L 174.293656 -337.87337 
L 175.724579 -337.043834 
L 177.115666 -336.214299 
L 178.454944 -335.384763 
L 179.731743 -334.555227 
L 180.937031 -333.725692 
L 182.063686 -332.896156 
L 183.10672 -332.06662 
L 184.063418 -331.237085 
L 184.933403 -330.407549 
L 185.718626 -329.578013 
L 186.423269 -328.748478 
L 187.053583 -327.918942 
L 187.617653 -327.089406 
L 188.125118 -326.259871 
L 188.586851 -325.430335 
L 189.014609 -324.6008 
L 189.420679 -323.771264 
L 189.817526 -322.941728 
L 190.217467 -322.112193 
L 190.632362 -321.282657 
L 191.073353 -320.453121 
L 191.550641 -319.623586 
L 192.073312 -318.79405 
L 192.6492 -317.964514 
L 193.284801 -317.134979 
L 193.985206 -316.305443 
L 194.754078 -315.475907 
L 195.593628 -314.646372 
L 196.504612 -313.816836 
L 197.48632 -312.9873 
L 198.536563 -312.157765 
L 199.651644 -311.328229 
L 200.826319 -310.498693 
L 202.053738 -309.669158 
L 203.325394 -308.839622 
L 204.631051 -308.010087 
L 205.9587 -307.180551 
L 207.294525 -306.351015 
L 208.622912 -305.52148 
L 209.926503 -304.691944 
L 211.186312 -303.862408 
L 212.381918 -303.032873 
L 213.491725 -302.203337 
L 214.493321 -301.373801 
L 215.363899 -300.544266 
L 216.080766 -299.71473 
L 216.621902 -298.885194 
L 216.966564 -298.055659 
L 217.095918 -297.226123 
L 216.993652 -296.396587 
L 216.646569 -295.567052 
L 216.045118 -294.737516 
L 215.183837 -293.907981 
L 214.061683 -293.078445 
L 212.682243 -292.248909 
L 211.053792 -291.419374 
L 209.189207 -290.589838 
L 207.105728 -289.760302 
L 204.824573 -288.930767 
L 202.370432 -288.101231 
L 199.770839 -287.271695 
L 197.05547 -286.44216 
L 194.255379 -285.612624 
L 191.402205 -284.783088 
L 188.527395 -283.953553 
L 185.661451 -283.124017 
L 182.833242 -282.294481 
L 180.069404 -281.464946 
L 177.393838 -280.63541 
L 174.827326 -279.805874 
L 172.387267 -278.976339 
L 170.087533 -278.146803 
L 167.938452 -277.317268 
L 165.946883 -276.487732 
L 164.116403 -275.658196 
L 162.44756 -274.828661 
L 160.938196 -273.999125 
L 159.583809 -273.169589 
L 158.377941 -272.340054 
L 157.312574 -271.510518 
L 156.378521 -270.680982 
z
" id="mdb6e495900" style="stroke:#8a8a8a;stroke-width:1.75;"/>
    </defs>
    <g clip-path="url(#pd43fb9848d)">
     <use style="fill:#e6e6e6;stroke:#8a8a8a;stroke-width:1.75;" x="0" xlink:href="#mdb6e495900" y="396"/>
    </g>
   </g>
   <g id="PolyCollection_2">
    <defs>
     <path d="M 319.294421 -212.82366 
L 312.830579 -212.82366 
L 312.131868 -213.78215 
L 311.316097 -214.74064 
L 310.371573 -215.699129 
L 309.287116 -216.657619 
L 308.052462 -217.616109 
L 306.658707 -218.574599 
L 305.098767 -219.533089 
L 303.367845 -220.491578 
L 301.46388 -221.450068 
L 299.387967 -222.408558 
L 297.144703 -223.367048 
L 294.742463 -224.325537 
L 292.193566 -225.284027 
L 289.514319 -226.242517 
L 286.724932 -227.201007 
L 283.849281 -228.159497 
L 280.914535 -229.117986 
L 277.95064 -230.076476 
L 274.989682 -231.034966 
L 272.065142 -231.993456 
L 269.211081 -232.951945 
L 266.461277 -233.910435 
L 263.848352 -234.868925 
L 261.402929 -235.827415 
L 259.152858 -236.785905 
L 257.122533 -237.744394 
L 255.332338 -238.702884 
L 253.798243 -239.661374 
L 252.531558 -240.619864 
L 251.538849 -241.578353 
L 250.822024 -242.536843 
L 250.378555 -243.495333 
L 250.201833 -244.453823 
L 250.281626 -245.412313 
L 250.604596 -246.370802 
L 251.154871 -247.329292 
L 251.914614 -248.287782 
L 252.864575 -249.246272 
L 253.984606 -250.204761 
L 255.254109 -251.163251 
L 256.652418 -252.121741 
L 258.159107 -253.080231 
L 259.754225 -254.038721 
L 261.418468 -254.99721 
L 263.133302 -255.9557 
L 264.88104 -256.91419 
L 266.644912 -257.87268 
L 268.409111 -258.831169 
L 270.158855 -259.789659 
L 271.880455 -260.748149 
L 273.561406 -261.706639 
L 275.19049 -262.665129 
L 276.757898 -263.623618 
L 278.25536 -264.582108 
L 279.676268 -265.540598 
L 281.015792 -266.499088 
L 282.270968 -267.457577 
L 283.440754 -268.416067 
L 284.526039 -269.374557 
L 285.529608 -270.333047 
L 286.456046 -271.291537 
L 287.311592 -272.250026 
L 288.103944 -273.208516 
L 288.842015 -274.167006 
L 289.535646 -275.125496 
L 290.195303 -276.083986 
L 290.831743 -277.042475 
L 291.455679 -278.000965 
L 292.077451 -278.959455 
L 292.706716 -279.917945 
L 293.352154 -280.876434 
L 294.021221 -281.834924 
L 294.719943 -282.793414 
L 295.452759 -283.751904 
L 296.222417 -284.710394 
L 297.029934 -285.668883 
L 297.87461 -286.627373 
L 298.754099 -287.585863 
L 299.664534 -288.544353 
L 300.600703 -289.502842 
L 301.556261 -290.461332 
L 302.523978 -291.419822 
L 303.496005 -292.378312 
L 304.464156 -293.336802 
L 305.420182 -294.295291 
L 306.356042 -295.253781 
L 307.264145 -296.212271 
L 308.137568 -297.170761 
L 308.970229 -298.12925 
L 309.757028 -299.08774 
L 310.493934 -300.04623 
L 311.178027 -301.00472 
L 311.807505 -301.96321 
L 312.381641 -302.921699 
L 312.900709 -303.880189 
L 313.365888 -304.838679 
L 313.779135 -305.797169 
L 314.143051 -306.755658 
L 314.460742 -307.714148 
L 317.664258 -307.714148 
L 317.664258 -307.714148 
L 317.981949 -306.755658 
L 318.345865 -305.797169 
L 318.759112 -304.838679 
L 319.224291 -303.880189 
L 319.743359 -302.921699 
L 320.317495 -301.96321 
L 320.946973 -301.00472 
L 321.631066 -300.04623 
L 322.367972 -299.08774 
L 323.154771 -298.12925 
L 323.987432 -297.170761 
L 324.860855 -296.212271 
L 325.768958 -295.253781 
L 326.704818 -294.295291 
L 327.660844 -293.336802 
L 328.628995 -292.378312 
L 329.601022 -291.419822 
L 330.568739 -290.461332 
L 331.524297 -289.502842 
L 332.460466 -288.544353 
L 333.370901 -287.585863 
L 334.25039 -286.627373 
L 335.095066 -285.668883 
L 335.902583 -284.710394 
L 336.672241 -283.751904 
L 337.405057 -282.793414 
L 338.103779 -281.834924 
L 338.772846 -280.876434 
L 339.418284 -279.917945 
L 340.047549 -278.959455 
L 340.669321 -278.000965 
L 341.293257 -277.042475 
L 341.929697 -276.083986 
L 342.589354 -275.125496 
L 343.282985 -274.167006 
L 344.021056 -273.208516 
L 344.813408 -272.250026 
L 345.668954 -271.291537 
L 346.595392 -270.333047 
L 347.598961 -269.374557 
L 348.684246 -268.416067 
L 349.854032 -267.457577 
L 351.109208 -266.499088 
L 352.448732 -265.540598 
L 353.86964 -264.582108 
L 355.367102 -263.623618 
L 356.93451 -262.665129 
L 358.563594 -261.706639 
L 360.244545 -260.748149 
L 361.966145 -259.789659 
L 363.715889 -258.831169 
L 365.480088 -257.87268 
L 367.24396 -256.91419 
L 368.991698 -255.9557 
L 370.706532 -254.99721 
L 372.370775 -254.038721 
L 373.965893 -253.080231 
L 375.472582 -252.121741 
L 376.870891 -251.163251 
L 378.140394 -250.204761 
L 379.260425 -249.246272 
L 380.210386 -248.287782 
L 380.970129 -247.329292 
L 381.520404 -246.370802 
L 381.843374 -245.412313 
L 381.923167 -244.453823 
L 381.746445 -243.495333 
L 381.302976 -242.536843 
L 380.586151 -241.578353 
L 379.593442 -240.619864 
L 378.326757 -239.661374 
L 376.792662 -238.702884 
L 375.002467 -237.744394 
L 372.972142 -236.785905 
L 370.722071 -235.827415 
L 368.276648 -234.868925 
L 365.663723 -233.910435 
L 362.913919 -232.951945 
L 360.059858 -231.993456 
L 357.135318 -231.034966 
L 354.17436 -230.076476 
L 351.210465 -229.117986 
L 348.275719 -228.159497 
L 345.400068 -227.201007 
L 342.610681 -226.242517 
L 339.931434 -225.284027 
L 337.382537 -224.325537 
L 334.980297 -223.367048 
L 332.737033 -222.408558 
L 330.66112 -221.450068 
L 328.757155 -220.491578 
L 327.026233 -219.533089 
L 325.466293 -218.574599 
L 324.072538 -217.616109 
L 322.837884 -216.657619 
L 321.753427 -215.699129 
L 320.808903 -214.74064 
L 319.993132 -213.78215 
L 319.294421 -212.82366 
z
" id="ma7f36588fb" style="stroke:#8a8a8a;stroke-width:1.75;"/>
    </defs>
    <g clip-path="url(#pd43fb9848d)">
     <use style="fill:#e6e6e6;stroke:#8a8a8a;stroke-width:1.75;" x="0" xlink:href="#ma7f36588fb" y="396"/>
    </g>
   </g>
   <g id="PolyCollection_3">
    <defs>
     <path d="M 483.068054 -108.105242 
L 478.360279 -108.105242 
L 477.813265 -109.417064 
L 477.165741 -110.728885 
L 476.405857 -112.040706 
L 475.521859 -113.352527 
L 474.502471 -114.664349 
L 473.337325 -115.97617 
L 472.017439 -117.287991 
L 470.535725 -118.599812 
L 468.887508 -119.911634 
L 467.071046 -121.223455 
L 465.088001 -122.535276 
L 462.943874 -123.847097 
L 460.648333 -125.158918 
L 458.215447 -126.47074 
L 455.663779 -127.782561 
L 453.016326 -129.094382 
L 450.300295 -130.406203 
L 447.546704 -131.718025 
L 444.789817 -133.029846 
L 442.066413 -134.341667 
L 439.414917 -135.653488 
L 436.874419 -136.96531 
L 434.48361 -138.277131 
L 432.279681 -139.588952 
L 430.297231 -140.900773 
L 428.567222 -142.212594 
L 427.116036 -143.524416 
L 425.964666 -144.836237 
L 425.128086 -146.148058 
L 424.614821 -147.459879 
L 424.426742 -148.771701 
L 424.55909 -150.083522 
L 425.000729 -151.395343 
L 425.734614 -152.707164 
L 426.73845 -154.018986 
L 427.985513 -155.330807 
L 429.445592 -156.642628 
L 431.086006 -157.954449 
L 432.872666 -159.26627 
L 434.771106 -160.578092 
L 436.747483 -161.889913 
L 438.769461 -163.201734 
L 440.806995 -164.513555 
L 442.832946 -165.825377 
L 444.823551 -167.137198 
L 446.75871 -168.449019 
L 448.622117 -169.76084 
L 450.401218 -171.072662 
L 452.087046 -172.384483 
L 453.67392 -173.696304 
L 455.159066 -175.008125 
L 456.542164 -176.319946 
L 457.824869 -177.631768 
L 459.010328 -178.943589 
L 460.10272 -180.25541 
L 461.106841 -181.567231 
L 462.027761 -182.879053 
L 462.870555 -184.190874 
L 463.640123 -185.502695 
L 464.341093 -186.814516 
L 464.977811 -188.126338 
L 465.554391 -189.438159 
L 466.074828 -190.74998 
L 466.543137 -192.061801 
L 466.963512 -193.373622 
L 467.340472 -194.685444 
L 467.678985 -195.997265 
L 467.98454 -197.309086 
L 468.263174 -198.620907 
L 468.521426 -199.932729 
L 468.766233 -201.24455 
L 469.004765 -202.556371 
L 469.24421 -203.868192 
L 469.491526 -205.180014 
L 469.753171 -206.491835 
L 470.034845 -207.803656 
L 470.341242 -209.115477 
L 470.675848 -210.427298 
L 471.040796 -211.73912 
L 471.436773 -213.050941 
L 471.863017 -214.362762 
L 472.317365 -215.674583 
L 472.796387 -216.986405 
L 473.29556 -218.298226 
L 473.809508 -219.610047 
L 474.33225 -220.921868 
L 474.857486 -222.23369 
L 475.378861 -223.545511 
L 475.890231 -224.857332 
L 476.385882 -226.169153 
L 476.860729 -227.480974 
L 477.310451 -228.792796 
L 477.731593 -230.104617 
L 478.121607 -231.416438 
L 478.47886 -232.728259 
L 478.802589 -234.040081 
L 479.092832 -235.351902 
L 479.350334 -236.663723 
L 479.576427 -237.975544 
L 481.851906 -237.975544 
L 481.851906 -237.975544 
L 482.078 -236.663723 
L 482.335501 -235.351902 
L 482.625744 -234.040081 
L 482.949473 -232.728259 
L 483.306726 -231.416438 
L 483.696741 -230.104617 
L 484.117882 -228.792796 
L 484.567604 -227.480974 
L 485.042451 -226.169153 
L 485.538103 -224.857332 
L 486.049472 -223.545511 
L 486.570847 -222.23369 
L 487.096083 -220.921868 
L 487.618825 -219.610047 
L 488.132773 -218.298226 
L 488.631947 -216.986405 
L 489.110968 -215.674583 
L 489.565317 -214.362762 
L 489.99156 -213.050941 
L 490.387538 -211.73912 
L 490.752485 -210.427298 
L 491.087092 -209.115477 
L 491.393488 -207.803656 
L 491.675162 -206.491835 
L 491.936808 -205.180014 
L 492.184123 -203.868192 
L 492.423568 -202.556371 
L 492.6621 -201.24455 
L 492.906908 -199.932729 
L 493.165159 -198.620907 
L 493.443793 -197.309086 
L 493.749348 -195.997265 
L 494.087861 -194.685444 
L 494.464821 -193.373622 
L 494.885196 -192.061801 
L 495.353505 -190.74998 
L 495.873942 -189.438159 
L 496.450522 -188.126338 
L 497.08724 -186.814516 
L 497.78821 -185.502695 
L 498.557778 -184.190874 
L 499.400572 -182.879053 
L 500.321492 -181.567231 
L 501.325613 -180.25541 
L 502.418005 -178.943589 
L 503.603464 -177.631768 
L 504.88617 -176.319946 
L 506.269267 -175.008125 
L 507.754413 -173.696304 
L 509.341288 -172.384483 
L 511.027115 -171.072662 
L 512.806217 -169.76084 
L 514.669623 -168.449019 
L 516.604783 -167.137198 
L 518.595388 -165.825377 
L 520.621339 -164.513555 
L 522.658872 -163.201734 
L 524.680851 -161.889913 
L 526.657227 -160.578092 
L 528.555668 -159.26627 
L 530.342327 -157.954449 
L 531.982742 -156.642628 
L 533.44282 -155.330807 
L 534.689883 -154.018986 
L 535.693719 -152.707164 
L 536.427604 -151.395343 
L 536.869243 -150.083522 
L 537.001592 -148.771701 
L 536.813513 -147.459879 
L 536.300248 -146.148058 
L 535.463667 -144.836237 
L 534.312297 -143.524416 
L 532.861111 -142.212594 
L 531.131103 -140.900773 
L 529.148652 -139.588952 
L 526.944723 -138.277131 
L 524.553914 -136.96531 
L 522.013416 -135.653488 
L 519.36192 -134.341667 
L 516.638516 -133.029846 
L 513.881629 -131.718025 
L 511.128038 -130.406203 
L 508.412007 -129.094382 
L 505.764554 -127.782561 
L 503.212887 -126.47074 
L 500.780001 -125.158918 
L 498.48446 -123.847097 
L 496.340332 -122.535276 
L 494.357288 -121.223455 
L 492.540825 -119.911634 
L 490.892609 -118.599812 
L 489.410895 -117.287991 
L 488.091009 -115.97617 
L 486.925863 -114.664349 
L 485.906474 -113.352527 
L 485.022476 -112.040706 
L 484.262592 -110.728885 
L 483.615069 -109.417064 
L 483.068054 -108.105242 
z
" id="m7f3f10ff6e" style="stroke:#8a8a8a;stroke-width:1.75;"/>
    </defs>
    <g clip-path="url(#pd43fb9848d)">
     <use style="fill:#e6e6e6;stroke:#8a8a8a;stroke-width:1.75;" x="0" xlink:href="#m7f3f10ff6e" y="396"/>
    </g>
   </g>
   <g id="patch_3">
    <path d="M 69.085 300.129746 
L 69.085 30.96 
" style="fill:none;"/>
   </g>
   <g id="patch_4">
    <path d="M 563.04 300.129746 
L 563.04 30.96 
" style="fill:none;"/>
   </g>
   <g id="patch_5">
    <path d="M 69.085 300.129746 
L 563.04 300.129746 
" style="fill:none;"/>
   </g>
   <g id="patch_6">
    <path d="M 69.085 30.96 
L 563.04 30.96 
" style="fill:none;"/>
   </g>
   <g id="PathCollection_1">
    <defs>
     <path d="M 0 2.5 
C 0.663008 2.5 1.29895 2.236584 1.767767 1.767767 
C 2.236584 1.29895 2.5 0.663008 2.5 0 
C 2.5 -0.663008 2.236584 -1.29895 1.767767 -1.767767 
C 1.29895 -2.236584 0.663008 -2.5 0 -2.5 
C -0.663008 -2.5 -1.29895 -2.236584 -1.767767 -1.767767 
C -2.236584 -1.29895 -2.5 -0.663008 -2.5 0 
C -2.5 0.663008 -2.236584 1.29895 -1.767767 1.767767 
C -1.29895 2.236584 -0.663008 2.5 0 2.5 
z
" id="C0_0_88e2891d37"/>
    </defs>
    <g clip-path="url(#pd43fb9848d)">
     <use style="fill:#4c72b0;" x="151.410833" xlink:href="#C0_0_88e2891d37" y="105.016733"/>
    </g>
    <g clip-path="url(#pd43fb9848d)">
     <use style="fill:#4c72b0;" x="145.702741" xlink:href="#C0_0_88e2891d37" y="104.18021"/>
    </g>
    <g clip-path="url(#pd43fb9848d)">
     <use style="fill:#4c72b0;" x="156.951748" xlink:href="#C0_0_88e2891d37" y="103.664353"/>
    </g>
    <g clip-path="url(#pd43fb9848d)">
     <use style="fill:#4c72b0;" x="141.816795" xlink:href="#C0_0_88e2891d37" y="100.834115"/>
    </g>
    <g clip-path="url(#pd43fb9848d)">
     <use style="fill:#4c72b0;" x="151.410833" xlink:href="#C0_0_88e2891d37" y="95.954393"/>
    </g>
    <g clip-path="url(#pd43fb9848d)">
     <use style="fill:#4c72b0;" x="151.410833" xlink:href="#C0_0_88e2891d37" y="88.997304"/>
    </g>
    <g clip-path="url(#pd43fb9848d)">
     <use style="fill:#4c72b0;" x="150.308168" xlink:href="#C0_0_88e2891d37" y="84.57767"/>
    </g>
    <g clip-path="url(#pd43fb9848d)">
     <use style="fill:#4c72b0;" x="151.410833" xlink:href="#C0_0_88e2891d37" y="75.403794"/>
    </g>
    <g clip-path="url(#pd43fb9848d)">
     <use style="fill:#4c72b0;" x="151.410833" xlink:href="#C0_0_88e2891d37" y="64.807827"/>
    </g>
    <g clip-path="url(#pd43fb9848d)">
     <use style="fill:#4c72b0;" x="145.853205" xlink:href="#C0_0_88e2891d37" y="63.497273"/>
    </g>
   </g>
   <g id="PathCollection_2">
    <defs>
     <path d="M 0 2.5 
C 0.663008 2.5 1.29895 2.236584 1.767767 1.767767 
C 2.236584 1.29895 2.5 0.663008 2.5 0 
C 2.5 -0.663008 2.236584 -1.29895 1.767767 -1.767767 
C 1.29895 -2.236584 0.663008 -2.5 0 -2.5 
C -0.663008 -2.5 -1.29895 -2.236584 -1.767767 -1.767767 
C -2.236584 -1.29895 -2.5 -0.663008 -2.5 0 
C -2.5 0.663008 -2.236584 1.29895 -1.767767 1.767767 
C -1.29895 2.236584 -0.663008 2.5 0 2.5 
z
" id="C1_0_55f578ad2a"/>
    </defs>
    <g clip-path="url(#pd43fb9848d)">
     <use style="fill:#55a868;" x="316.0625" xlink:href="#C1_0_55f578ad2a" y="161.677273"/>
    </g>
    <g clip-path="url(#pd43fb9848d)">
     <use style="fill:#55a868;" x="310.937252" xlink:href="#C1_0_55f578ad2a" y="159.55808"/>
    </g>
    <g clip-path="url(#pd43fb9848d)">
     <use style="fill:#55a868;" x="316.0625" xlink:href="#C1_0_55f578ad2a" y="154.915373"/>
    </g>
    <g clip-path="url(#pd43fb9848d)">
     <use style="fill:#55a868;" x="310.544771" xlink:href="#C1_0_55f578ad2a" y="153.507225"/>
    </g>
    <g clip-path="url(#pd43fb9848d)">
     <use style="fill:#55a868;" x="319.555151" xlink:href="#C1_0_55f578ad2a" y="151.318321"/>
    </g>
    <g clip-path="url(#pd43fb9848d)">
     <use style="fill:#55a868;" x="316.0625" xlink:href="#C1_0_55f578ad2a" y="142.576648"/>
    </g>
    <g clip-path="url(#pd43fb9848d)">
     <use style="fill:#55a868;" x="310.468091" xlink:href="#C1_0_55f578ad2a" y="141.363689"/>
    </g>
    <g clip-path="url(#pd43fb9848d)">
     <use style="fill:#55a868;" x="316.0625" xlink:href="#C1_0_55f578ad2a" y="133.86286"/>
    </g>
    <g clip-path="url(#pd43fb9848d)">
     <use style="fill:#55a868;" x="316.0625" xlink:href="#C1_0_55f578ad2a" y="121.133757"/>
    </g>
    <g clip-path="url(#pd43fb9848d)">
     <use style="fill:#55a868;" x="316.0625" xlink:href="#C1_0_55f578ad2a" y="109.784919"/>
    </g>
   </g>
   <g id="PathCollection_3">
    <defs>
     <path d="M 0 2.5 
C 0.663008 2.5 1.29895 2.236584 1.767767 1.767767 
C 2.236584 1.29895 2.5 0.663008 2.5 0 
C 2.5 -0.663008 2.236584 -1.29895 1.767767 -1.767767 
C 1.29895 -2.236584 0.663008 -2.5 0 -2.5 
C -0.663008 -2.5 -1.29895 -2.236584 -1.767767 -1.767767 
C -2.236584 -1.29895 -2.5 -0.663008 -2.5 0 
C -2.5 0.663008 -2.236584 1.29895 -1.767767 1.767767 
C -1.29895 2.236584 -0.663008 2.5 0 2.5 
z
" id="C2_0_fbda49e185"/>
    </defs>
    <g clip-path="url(#pd43fb9848d)">
     <use style="fill:#c44e52;" x="480.714167" xlink:href="#C2_0_fbda49e185" y="259.439012"/>
    </g>
    <g clip-path="url(#pd43fb9848d)">
     <use style="fill:#c44e52;" x="480.714167" xlink:href="#C2_0_fbda49e185" y="253.639114"/>
    </g>
    <g clip-path="url(#pd43fb9848d)">
     <use style="fill:#c44e52;" x="475.373172" xlink:href="#C2_0_fbda49e185" y="251.868472"/>
    </g>
    <g clip-path="url(#pd43fb9848d)">
     <use style="fill:#c44e52;" x="484.716826" xlink:href="#C2_0_fbda49e185" y="250.376671"/>
    </g>
    <g clip-path="url(#pd43fb9848d)">
     <use style="fill:#c44e52;" x="480.714167" xlink:href="#C2_0_fbda49e185" y="244.534948"/>
    </g>
    <g clip-path="url(#pd43fb9848d)">
     <use style="fill:#c44e52;" x="475.220664" xlink:href="#C2_0_fbda49e185" y="243.071031"/>
    </g>
    <g clip-path="url(#pd43fb9848d)">
     <use style="fill:#c44e52;" x="480.714167" xlink:href="#C2_0_fbda49e185" y="239.585516"/>
    </g>
    <g clip-path="url(#pd43fb9848d)">
     <use style="fill:#c44e52;" x="480.714167" xlink:href="#C2_0_fbda49e185" y="227.121312"/>
    </g>
    <g clip-path="url(#pd43fb9848d)">
     <use style="fill:#c44e52;" x="480.714167" xlink:href="#C2_0_fbda49e185" y="211.575913"/>
    </g>
    <g clip-path="url(#pd43fb9848d)">
     <use style="fill:#c44e52;" x="480.714167" xlink:href="#C2_0_fbda49e185" y="186.480201"/>
    </g>
   </g>
   <g id="text_13">
    <!-- Comparing the Top 10 Aucs of two pretraining types -->
    <defs>
     <path d="M 64.40625 67.28125 
L 64.40625 56.890625 
Q 59.421875 61.53125 53.78125 63.8125 
Q 48.140625 66.109375 41.796875 66.109375 
Q 29.296875 66.109375 22.65625 58.46875 
Q 16.015625 50.828125 16.015625 36.375 
Q 16.015625 21.96875 22.65625 14.328125 
Q 29.296875 6.6875 41.796875 6.6875 
Q 48.140625 6.6875 53.78125 8.984375 
Q 59.421875 11.28125 64.40625 15.921875 
L 64.40625 5.609375 
Q 59.234375 2.09375 53.4375 0.328125 
Q 47.65625 -1.421875 41.21875 -1.421875 
Q 24.65625 -1.421875 15.125 8.703125 
Q 5.609375 18.84375 5.609375 36.375 
Q 5.609375 53.953125 15.125 64.078125 
Q 24.65625 74.21875 41.21875 74.21875 
Q 47.75 74.21875 53.53125 72.484375 
Q 59.328125 70.75 64.40625 67.28125 
z
" id="DejaVuSans-43"/>
     <path d="M 30.609375 48.390625 
Q 23.390625 48.390625 19.1875 42.75 
Q 14.984375 37.109375 14.984375 27.296875 
Q 14.984375 17.484375 19.15625 11.84375 
Q 23.34375 6.203125 30.609375 6.203125 
Q 37.796875 6.203125 41.984375 11.859375 
Q 46.1875 17.53125 46.1875 27.296875 
Q 46.1875 37.015625 41.984375 42.703125 
Q 37.796875 48.390625 30.609375 48.390625 
z
M 30.609375 56 
Q 42.328125 56 49.015625 48.375 
Q 55.71875 40.765625 55.71875 27.296875 
Q 55.71875 13.875 49.015625 6.21875 
Q 42.328125 -1.421875 30.609375 -1.421875 
Q 18.84375 -1.421875 12.171875 6.21875 
Q 5.515625 13.875 5.515625 27.296875 
Q 5.515625 40.765625 12.171875 48.375 
Q 18.84375 56 30.609375 56 
z
" id="DejaVuSans-6f"/>
     <path d="M 52 44.1875 
Q 55.375 50.25 60.0625 53.125 
Q 64.75 56 71.09375 56 
Q 79.640625 56 84.28125 50.015625 
Q 88.921875 44.046875 88.921875 33.015625 
L 88.921875 0 
L 79.890625 0 
L 79.890625 32.71875 
Q 79.890625 40.578125 77.09375 44.375 
Q 74.3125 48.1875 68.609375 48.1875 
Q 61.625 48.1875 57.5625 43.546875 
Q 53.515625 38.921875 53.515625 30.90625 
L 53.515625 0 
L 44.484375 0 
L 44.484375 32.71875 
Q 44.484375 40.625 41.703125 44.40625 
Q 38.921875 48.1875 33.109375 48.1875 
Q 26.21875 48.1875 22.15625 43.53125 
Q 18.109375 38.875 18.109375 30.90625 
L 18.109375 0 
L 9.078125 0 
L 9.078125 54.6875 
L 18.109375 54.6875 
L 18.109375 46.1875 
Q 21.1875 51.21875 25.484375 53.609375 
Q 29.78125 56 35.6875 56 
Q 41.65625 56 45.828125 52.96875 
Q 50 49.953125 52 44.1875 
z
" id="DejaVuSans-6d"/>
     <path d="M 18.109375 8.203125 
L 18.109375 -20.796875 
L 9.078125 -20.796875 
L 9.078125 54.6875 
L 18.109375 54.6875 
L 18.109375 46.390625 
Q 20.953125 51.265625 25.265625 53.625 
Q 29.59375 56 35.59375 56 
Q 45.5625 56 51.78125 48.09375 
Q 58.015625 40.1875 58.015625 27.296875 
Q 58.015625 14.40625 51.78125 6.484375 
Q 45.5625 -1.421875 35.59375 -1.421875 
Q 29.59375 -1.421875 25.265625 0.953125 
Q 20.953125 3.328125 18.109375 8.203125 
z
M 48.6875 27.296875 
Q 48.6875 37.203125 44.609375 42.84375 
Q 40.53125 48.484375 33.40625 48.484375 
Q 26.265625 48.484375 22.1875 42.84375 
Q 18.109375 37.203125 18.109375 27.296875 
Q 18.109375 17.390625 22.1875 11.75 
Q 26.265625 6.109375 33.40625 6.109375 
Q 40.53125 6.109375 44.609375 11.75 
Q 48.6875 17.390625 48.6875 27.296875 
z
" id="DejaVuSans-70"/>
     <path d="M 18.3125 70.21875 
L 18.3125 54.6875 
L 36.8125 54.6875 
L 36.8125 47.703125 
L 18.3125 47.703125 
L 18.3125 18.015625 
Q 18.3125 11.328125 20.140625 9.421875 
Q 21.96875 7.515625 27.59375 7.515625 
L 36.8125 7.515625 
L 36.8125 0 
L 27.59375 0 
Q 17.1875 0 13.234375 3.875 
Q 9.28125 7.765625 9.28125 18.015625 
L 9.28125 47.703125 
L 2.6875 47.703125 
L 2.6875 54.6875 
L 9.28125 54.6875 
L 9.28125 70.21875 
z
" id="DejaVuSans-74"/>
     <path d="M 54.890625 33.015625 
L 54.890625 0 
L 45.90625 0 
L 45.90625 32.71875 
Q 45.90625 40.484375 42.875 44.328125 
Q 39.84375 48.1875 33.796875 48.1875 
Q 26.515625 48.1875 22.3125 43.546875 
Q 18.109375 38.921875 18.109375 30.90625 
L 18.109375 0 
L 9.078125 0 
L 9.078125 75.984375 
L 18.109375 75.984375 
L 18.109375 46.1875 
Q 21.34375 51.125 25.703125 53.5625 
Q 30.078125 56 35.796875 56 
Q 45.21875 56 50.046875 50.171875 
Q 54.890625 44.34375 54.890625 33.015625 
z
" id="DejaVuSans-68"/>
     <path d="M 37.109375 75.984375 
L 37.109375 68.5 
L 28.515625 68.5 
Q 23.6875 68.5 21.796875 66.546875 
Q 19.921875 64.59375 19.921875 59.515625 
L 19.921875 54.6875 
L 34.71875 54.6875 
L 34.71875 47.703125 
L 19.921875 47.703125 
L 19.921875 0 
L 10.890625 0 
L 10.890625 47.703125 
L 2.296875 47.703125 
L 2.296875 54.6875 
L 10.890625 54.6875 
L 10.890625 58.5 
Q 10.890625 67.625 15.140625 71.796875 
Q 19.390625 75.984375 28.609375 75.984375 
z
" id="DejaVuSans-66"/>
     <path d="M 4.203125 54.6875 
L 13.1875 54.6875 
L 24.421875 12.015625 
L 35.59375 54.6875 
L 46.1875 54.6875 
L 57.421875 12.015625 
L 68.609375 54.6875 
L 77.59375 54.6875 
L 63.28125 0 
L 52.6875 0 
L 40.921875 44.828125 
L 29.109375 0 
L 18.5 0 
z
" id="DejaVuSans-77"/>
     <path d="M 32.171875 -5.078125 
Q 28.375 -14.84375 24.75 -17.8125 
Q 21.140625 -20.796875 15.09375 -20.796875 
L 7.90625 -20.796875 
L 7.90625 -13.28125 
L 13.1875 -13.28125 
Q 16.890625 -13.28125 18.9375 -11.515625 
Q 21 -9.765625 23.484375 -3.21875 
L 25.09375 0.875 
L 2.984375 54.6875 
L 12.5 54.6875 
L 29.59375 11.921875 
L 46.6875 54.6875 
L 56.203125 54.6875 
z
" id="DejaVuSans-79"/>
    </defs>
    <g style="fill:#262626;" transform="translate(119.079688 24.96)scale(0.15 -0.15)">
     <use xlink:href="#DejaVuSans-43"/>
     <use x="69.824219" xlink:href="#DejaVuSans-6f"/>
     <use x="131.005859" xlink:href="#DejaVuSans-6d"/>
     <use x="228.417969" xlink:href="#DejaVuSans-70"/>
     <use x="291.894531" xlink:href="#DejaVuSans-61"/>
     <use x="353.173828" xlink:href="#DejaVuSans-72"/>
     <use x="394.287109" xlink:href="#DejaVuSans-69"/>
     <use x="422.070312" xlink:href="#DejaVuSans-6e"/>
     <use x="485.449219" xlink:href="#DejaVuSans-67"/>
     <use x="548.925781" xlink:href="#DejaVuSans-20"/>
     <use x="580.712891" xlink:href="#DejaVuSans-74"/>
     <use x="619.921875" xlink:href="#DejaVuSans-68"/>
     <use x="683.300781" xlink:href="#DejaVuSans-65"/>
     <use x="744.824219" xlink:href="#DejaVuSans-20"/>
     <use x="776.611328" xlink:href="#DejaVuSans-54"/>
     <use x="837.429688" xlink:href="#DejaVuSans-6f"/>
     <use x="898.611328" xlink:href="#DejaVuSans-70"/>
     <use x="962.087891" xlink:href="#DejaVuSans-20"/>
     <use x="993.875" xlink:href="#DejaVuSans-31"/>
     <use x="1057.498047" xlink:href="#DejaVuSans-30"/>
     <use x="1121.121094" xlink:href="#DejaVuSans-20"/>
     <use x="1152.908203" xlink:href="#DejaVuSans-41"/>
     <use x="1221.316406" xlink:href="#DejaVuSans-75"/>
     <use x="1284.695312" xlink:href="#DejaVuSans-63"/>
     <use x="1339.675781" xlink:href="#DejaVuSans-73"/>
     <use x="1391.775391" xlink:href="#DejaVuSans-20"/>
     <use x="1423.5625" xlink:href="#DejaVuSans-6f"/>
     <use x="1484.744141" xlink:href="#DejaVuSans-66"/>
     <use x="1519.949219" xlink:href="#DejaVuSans-20"/>
     <use x="1551.736328" xlink:href="#DejaVuSans-74"/>
     <use x="1590.945312" xlink:href="#DejaVuSans-77"/>
     <use x="1672.732422" xlink:href="#DejaVuSans-6f"/>
     <use x="1733.914062" xlink:href="#DejaVuSans-20"/>
     <use x="1765.701172" xlink:href="#DejaVuSans-70"/>
     <use x="1829.177734" xlink:href="#DejaVuSans-72"/>
     <use x="1870.259766" xlink:href="#DejaVuSans-65"/>
     <use x="1931.783203" xlink:href="#DejaVuSans-74"/>
     <use x="1970.992188" xlink:href="#DejaVuSans-72"/>
     <use x="2012.105469" xlink:href="#DejaVuSans-61"/>
     <use x="2073.384766" xlink:href="#DejaVuSans-69"/>
     <use x="2101.167969" xlink:href="#DejaVuSans-6e"/>
     <use x="2164.546875" xlink:href="#DejaVuSans-69"/>
     <use x="2192.330078" xlink:href="#DejaVuSans-6e"/>
     <use x="2255.708984" xlink:href="#DejaVuSans-67"/>
     <use x="2319.185547" xlink:href="#DejaVuSans-20"/>
     <use x="2350.972656" xlink:href="#DejaVuSans-74"/>
     <use x="2390.181641" xlink:href="#DejaVuSans-79"/>
     <use x="2449.361328" xlink:href="#DejaVuSans-70"/>
     <use x="2512.837891" xlink:href="#DejaVuSans-65"/>
     <use x="2574.361328" xlink:href="#DejaVuSans-73"/>
    </g>
   </g>
  </g>
 </g>
 <defs>
  <clipPath id="pd43fb9848d">
   <rect height="269.169746" width="493.955" x="69.085" y="30.96"/>
  </clipPath>
 </defs>
</svg>
