<?xml version="1.0" encoding="UTF-8" standalone="no"?>
<!-- Created with Inkscape (http://www.inkscape.org/) -->

<svg
   xmlns:dc="http://purl.org/dc/elements/1.1/"
   xmlns:cc="http://creativecommons.org/ns#"
   xmlns:rdf="http://www.w3.org/1999/02/22-rdf-syntax-ns#"
   xmlns:svg="http://www.w3.org/2000/svg"
   xmlns="http://www.w3.org/2000/svg"
   xmlns:sodipodi="http://sodipodi.sourceforge.net/DTD/sodipodi-0.dtd"
   xmlns:inkscape="http://www.inkscape.org/namespaces/inkscape"
   width="1920"
   height="1082"
   viewBox="0 0 507.99999 286.27917"
   version="1.1"
   id="svg8"
   inkscape:version="0.92.1 r15371"
   sodipodi:docname="Dropout_without.svg">
  <defs
     id="defs2" />
  <sodipodi:namedview
     id="base"
     pagecolor="#ffffff"
     bordercolor="#666666"
     borderopacity="1.0"
     inkscape:pageopacity="0.0"
     inkscape:pageshadow="2"
     inkscape:zoom="0.49497475"
     inkscape:cx="939.959"
     inkscape:cy="442.77314"
     inkscape:document-units="mm"
     inkscape:current-layer="layer1"
     showgrid="false"
     units="px"
     inkscape:snap-smooth-nodes="true"
     inkscape:snap-bbox="true"
     inkscape:snap-intersection-paths="true"
     inkscape:object-paths="true"
     inkscape:snap-midpoints="true"
     inkscape:window-width="1366"
     inkscape:window-height="719"
     inkscape:window-x="0"
     inkscape:window-y="25"
     inkscape:window-maximized="1" />
  <metadata
     id="metadata5">
    <rdf:RDF>
      <cc:Work
         rdf:about="">
        <dc:format>image/svg+xml</dc:format>
        <dc:type
           rdf:resource="http://purl.org/dc/dcmitype/StillImage" />
        <dc:title />
      </cc:Work>
    </rdf:RDF>
  </metadata>
  <g
     inkscape:label="Layer 1"
     inkscape:groupmode="layer"
     id="layer1"
     transform="translate(0,-10.720817)">
    <g
       id="g870">
      <path
         d="M 382.98967,107.08817 253.99999,83.091347 m 64.49488,23.996823 -64.49488,-23.996823 m 0,23.996823 V 83.091347 M 189.50515,107.08817 253.99999,83.091347 M 125.0103,107.08817 253.99999,83.091347"
         style="fill:none;stroke:#000000;stroke-width:0.79400006;stroke-linecap:round;stroke-linejoin:round;stroke-miterlimit:4;stroke-dasharray:none;stroke-opacity:1;paint-order:stroke fill markers"
         id="path185"
         inkscape:connector-curvature="0" />
      <path
         d="m 382.98967,165.85881 -64.4948,-23.99683 m 0,23.99683 -64.49488,-23.99683 m 0,23.99683 -64.49484,-23.99683 m 0,23.99683 -64.49484,-23.99683 m 0,23.99683 257.97936,-23.99683 m 0,23.99683 -128.98968,-23.99683 m 64.49488,23.99683 -128.98972,-23.99683 m 64.49484,23.99683 -128.98969,-23.99683 m 64.49485,23.99683 193.48452,-23.99683 m -257.97936,23.99683 193.48456,-23.99683 m 64.4948,23.99683 -193.48452,-23.99683 M 318.49487,165.85881 125.0103,141.86198 m 128.98969,23.99683 128.98968,-23.99683 M 189.50515,165.85881 318.49487,141.86198 M 125.01031,165.85881 253.99999,141.86198 M 382.98967,165.85881 125.0103,141.86198 m 193.48457,23.99683 64.4948,-23.99683 m -128.98968,23.99683 64.49488,-23.99683 m -128.98972,23.99683 64.49484,-23.99683 m -128.98968,23.99683 64.49484,-23.99683 m 193.48452,23.99683 v -23.99683 m -64.4948,23.99683 v -23.99683 m -64.49488,23.99683 v -23.99683 m -64.49484,23.99683 v -23.99683 m -64.49484,23.99683 0,-23.99683"
         style="fill:none;stroke:#000000;stroke-width:0.79374999;stroke-linecap:round;stroke-linejoin:round;stroke-miterlimit:4;stroke-dasharray:none;stroke-opacity:1;paint-order:stroke fill markers"
         id="path235"
         inkscape:connector-curvature="0" />
      <path
         d="m 125.01031,200.63262 257.97936,23.99683 m -128.98967,0 64.49487,-23.99683 m -128.98972,23.99683 64.49484,-23.99683 m -128.98968,23.99683 257.97936,-23.99683 m -193.48452,0 193.48452,23.99683 L 253.99999,200.63262 125.01031,224.62945 318.49487,200.63262 189.50515,224.62945 382.98967,200.63262 254,224.62945 125.01031,200.63262 318.49487,224.62945 m -193.48456,0 v -23.99683 l 64.49484,23.99683 v -23.99683 l 64.49484,23.99683 v -23.99683 l 64.49488,23.99683 v -23.99683 l 64.4948,23.99683 v -23.99683 l -64.4948,23.99683 -128.98972,-23.99683 z"
         style="fill:none;stroke:#000000;stroke-width:0.79374999;stroke-linecap:round;stroke-linejoin:round;stroke-miterlimit:4;stroke-dasharray:none;stroke-opacity:1;paint-order:stroke fill markers"
         id="path247"
         inkscape:connector-curvature="0" />
      <circle
         style="fill:#769d06;fill-opacity:1;stroke-width:0.26458332"
         r="17.386906"
         cy="65.704445"
         cx="253.99998"
         id="path10-3-6" />
      <circle
         style="fill:#769d06;fill-opacity:1;stroke-width:0.26458332"
         r="17.386906"
         cy="183.24571"
         cx="125.01031"
         id="path10-5" />
      <circle
         style="fill:#769d06;fill-opacity:1;stroke-width:0.26458332"
         r="17.386906"
         cy="183.24571"
         cx="189.50514"
         id="path10-3-62" />
      <circle
         style="fill:#769d06;fill-opacity:1;stroke-width:0.26458332"
         r="17.386906"
         cy="183.24571"
         cx="253.99998"
         id="path10-3-6-9" />
      <circle
         style="fill:#769d06;fill-opacity:1;stroke-width:0.26458332"
         r="17.386906"
         cy="183.24571"
         cx="318.49487"
         id="path10-3-6-7-1" />
      <circle
         style="fill:#769d06;fill-opacity:1;stroke-width:0.26458332"
         r="17.386906"
         cy="183.24571"
         cx="382.98969"
         id="path10-3-6-5-2" />
      <circle
         style="fill:#769d06;fill-opacity:1;stroke-width:0.26458332"
         r="17.386906"
         cy="124.47508"
         cx="125.01031"
         id="path10-0" />
      <circle
         style="fill:#769d06;fill-opacity:1;stroke-width:0.26458332"
         r="17.386906"
         cy="124.47508"
         cx="189.50514"
         id="path10-3-9" />
      <circle
         style="fill:#769d06;fill-opacity:1;stroke-width:0.26458332"
         r="17.386906"
         cy="124.47508"
         cx="253.99998"
         id="path10-3-6-3" />
      <circle
         style="fill:#769d06;fill-opacity:1;stroke-width:0.26458332"
         r="17.386906"
         cy="124.47508"
         cx="318.49487"
         id="path10-3-6-7-6" />
      <circle
         style="fill:#769d06;fill-opacity:1;stroke-width:0.26458332"
         r="17.386906"
         cy="124.47508"
         cx="382.98969"
         id="path10-3-6-5-0" />
      <circle
         style="fill:#769d06;fill-opacity:1;stroke-width:0.26458332"
         r="17.386906"
         cy="242.01636"
         cx="125.01031"
         id="path10-5-2" />
      <circle
         style="fill:#769d06;fill-opacity:1;stroke-width:0.26458332"
         r="17.386906"
         cy="242.01636"
         cx="189.50514"
         id="path10-3-62-6" />
      <circle
         style="fill:#769d06;fill-opacity:1;stroke-width:0.26458332"
         r="17.386906"
         cy="242.01636"
         cx="253.99998"
         id="path10-3-6-9-1" />
      <circle
         style="fill:#769d06;fill-opacity:1;stroke-width:0.26458332"
         r="17.386906"
         cy="242.01636"
         cx="318.49487"
         id="path10-3-6-7-1-8" />
      <circle
         style="fill:#769d06;fill-opacity:1;stroke-width:0.26458332"
         r="17.386906"
         cy="242.01636"
         cx="382.98969"
         id="path10-3-6-5-2-7" />
    </g>
  </g>
</svg>
