<?xml version="1.0" encoding="UTF-8" standalone="no"?>
<!-- Created with Inkscape (http://www.inkscape.org/) -->

<svg
   xmlns:dc="http://purl.org/dc/elements/1.1/"
   xmlns:cc="http://creativecommons.org/ns#"
   xmlns:rdf="http://www.w3.org/1999/02/22-rdf-syntax-ns#"
   xmlns:svg="http://www.w3.org/2000/svg"
   xmlns="http://www.w3.org/2000/svg"
   xmlns:sodipodi="http://sodipodi.sourceforge.net/DTD/sodipodi-0.dtd"
   xmlns:inkscape="http://www.inkscape.org/namespaces/inkscape"
   version="1.1"
   id="svg4530"
   xml:space="preserve"
   width="480"
   height="384"
   viewBox="0 0 480 384"
   sodipodi:docname="Pretraining_Amounts.svg"
   inkscape:version="0.92.1 r15371"><metadata
     id="metadata4536"><rdf:RDF><cc:Work
         rdf:about=""><dc:format>image/svg+xml</dc:format><dc:type
           rdf:resource="http://purl.org/dc/dcmitype/StillImage" /><dc:title></dc:title></cc:Work></rdf:RDF></metadata><defs
     id="defs4534"><clipPath
       clipPathUnits="userSpaceOnUse"
       id="clipPath4574"><path
         d="M 62.71,43.96 H 334.18062 V 259.04 H 62.71 Z"
         id="path4572"
         inkscape:connector-curvature="0" /></clipPath><clipPath
       clipPathUnits="userSpaceOnUse"
       id="clipPath4590"><path
         d="M 62.71,43.96 H 334.18062 V 259.04 H 62.71 Z"
         id="path4588"
         inkscape:connector-curvature="0" /></clipPath><clipPath
       clipPathUnits="userSpaceOnUse"
       id="clipPath4606"><path
         d="M 62.71,43.96 H 334.18062 V 259.04 H 62.71 Z"
         id="path4604"
         inkscape:connector-curvature="0" /></clipPath><clipPath
       clipPathUnits="userSpaceOnUse"
       id="clipPath4622"><path
         d="M 62.71,43.96 H 334.18062 V 259.04 H 62.71 Z"
         id="path4620"
         inkscape:connector-curvature="0" /></clipPath><clipPath
       clipPathUnits="userSpaceOnUse"
       id="clipPath4638"><path
         d="M 62.71,43.96 H 334.18062 V 259.04 H 62.71 Z"
         id="path4636"
         inkscape:connector-curvature="0" /></clipPath><clipPath
       clipPathUnits="userSpaceOnUse"
       id="clipPath4654"><path
         d="M 62.71,43.96 H 334.18062 V 259.04 H 62.71 Z"
         id="path4652"
         inkscape:connector-curvature="0" /></clipPath><clipPath
       clipPathUnits="userSpaceOnUse"
       id="clipPath4670"><path
         d="M 62.71,43.96 H 334.18062 V 259.04 H 62.71 Z"
         id="path4668"
         inkscape:connector-curvature="0" /></clipPath><clipPath
       clipPathUnits="userSpaceOnUse"
       id="clipPath4686"><path
         d="M 62.71,43.96 H 334.18062 V 259.04 H 62.71 Z"
         id="path4684"
         inkscape:connector-curvature="0" /></clipPath><clipPath
       clipPathUnits="userSpaceOnUse"
       id="clipPath4702"><path
         d="M 62.71,43.96 H 334.18062 V 259.04 H 62.71 Z"
         id="path4700"
         inkscape:connector-curvature="0" /></clipPath><clipPath
       clipPathUnits="userSpaceOnUse"
       id="clipPath4722"><path
         d="M 62.71,43.96 H 334.18062 V 259.04 H 62.71 Z"
         id="path4720"
         inkscape:connector-curvature="0" /></clipPath><clipPath
       clipPathUnits="userSpaceOnUse"
       id="clipPath4732"><path
         d="M 62.71,43.96 H 334.18062 V 259.04 H 62.71 Z"
         id="path4730"
         inkscape:connector-curvature="0" /></clipPath><clipPath
       clipPathUnits="userSpaceOnUse"
       id="clipPath4742"><path
         d="M 62.71,43.96 H 334.18062 V 259.04 H 62.71 Z"
         id="path4740"
         inkscape:connector-curvature="0" /></clipPath><clipPath
       clipPathUnits="userSpaceOnUse"
       id="clipPath4752"><path
         d="M 62.71,43.96 H 334.18062 V 259.04 H 62.71 Z"
         id="path4750"
         inkscape:connector-curvature="0" /></clipPath><clipPath
       clipPathUnits="userSpaceOnUse"
       id="clipPath4762"><path
         d="M 62.71,43.96 H 334.18062 V 259.04 H 62.71 Z"
         id="path4760"
         inkscape:connector-curvature="0" /></clipPath><clipPath
       clipPathUnits="userSpaceOnUse"
       id="clipPath4776"><path
         d="M 62.71,43.96 H 334.18062 V 259.04 H 62.71 Z"
         id="path4774"
         inkscape:connector-curvature="0" /></clipPath><clipPath
       clipPathUnits="userSpaceOnUse"
       id="clipPath4786"><path
         d="m -2.5,-2.5 h 5 v 5 h -5 z"
         id="path4784"
         inkscape:connector-curvature="0" /></clipPath><clipPath
       clipPathUnits="userSpaceOnUse"
       id="clipPath4798"><path
         d="m -2.5,-2.5 h 5 v 5 h -5 z"
         id="path4796"
         inkscape:connector-curvature="0" /></clipPath><clipPath
       clipPathUnits="userSpaceOnUse"
       id="clipPath4810"><path
         d="m -2.5,-2.5 h 5 v 5 h -5 z"
         id="path4808"
         inkscape:connector-curvature="0" /></clipPath><clipPath
       clipPathUnits="userSpaceOnUse"
       id="clipPath4822"><path
         d="m -2.5,-2.5 h 5 v 5 h -5 z"
         id="path4820"
         inkscape:connector-curvature="0" /></clipPath><clipPath
       clipPathUnits="userSpaceOnUse"
       id="clipPath4834"><path
         d="m -2.5,-2.5 h 5 v 5 h -5 z"
         id="path4832"
         inkscape:connector-curvature="0" /></clipPath><clipPath
       clipPathUnits="userSpaceOnUse"
       id="clipPath4846"><path
         d="M 62.71,43.96 H 334.18062 V 259.04 H 62.71 Z"
         id="path4844"
         inkscape:connector-curvature="0" /></clipPath><clipPath
       clipPathUnits="userSpaceOnUse"
       id="clipPath4856"><path
         d="m -2.5,-2.5 h 5 v 5 h -5 z"
         id="path4854"
         inkscape:connector-curvature="0" /></clipPath><clipPath
       clipPathUnits="userSpaceOnUse"
       id="clipPath4868"><path
         d="m -2.5,-2.5 h 5 v 5 h -5 z"
         id="path4866"
         inkscape:connector-curvature="0" /></clipPath><clipPath
       clipPathUnits="userSpaceOnUse"
       id="clipPath4880"><path
         d="m -2.5,-2.5 h 5 v 5 h -5 z"
         id="path4878"
         inkscape:connector-curvature="0" /></clipPath><clipPath
       clipPathUnits="userSpaceOnUse"
       id="clipPath4892"><path
         d="m -2.5,-2.5 h 5 v 5 h -5 z"
         id="path4890"
         inkscape:connector-curvature="0" /></clipPath><clipPath
       clipPathUnits="userSpaceOnUse"
       id="clipPath4904"><path
         d="m -2.5,-2.5 h 5 v 5 h -5 z"
         id="path4902"
         inkscape:connector-curvature="0" /></clipPath><clipPath
       clipPathUnits="userSpaceOnUse"
       id="clipPath4916"><path
         d="M 62.71,43.96 H 334.18062 V 259.04 H 62.71 Z"
         id="path4914"
         inkscape:connector-curvature="0" /></clipPath><clipPath
       clipPathUnits="userSpaceOnUse"
       id="clipPath4926"><path
         d="m -2.5,-2.5 h 5 v 5 h -5 z"
         id="path4924"
         inkscape:connector-curvature="0" /></clipPath><clipPath
       clipPathUnits="userSpaceOnUse"
       id="clipPath4938"><path
         d="m -2.5,-2.5 h 5 v 5 h -5 z"
         id="path4936"
         inkscape:connector-curvature="0" /></clipPath><clipPath
       clipPathUnits="userSpaceOnUse"
       id="clipPath4950"><path
         d="m -2.5,-2.5 h 5 v 5 h -5 z"
         id="path4948"
         inkscape:connector-curvature="0" /></clipPath><clipPath
       clipPathUnits="userSpaceOnUse"
       id="clipPath4962"><path
         d="m -2.5,-2.5 h 5 v 5 h -5 z"
         id="path4960"
         inkscape:connector-curvature="0" /></clipPath><clipPath
       clipPathUnits="userSpaceOnUse"
       id="clipPath4974"><path
         d="m -2.5,-2.5 h 5 v 5 h -5 z"
         id="path4972"
         inkscape:connector-curvature="0" /></clipPath><clipPath
       clipPathUnits="userSpaceOnUse"
       id="clipPath4986"><path
         d="M 62.71,43.96 H 334.18062 V 259.04 H 62.71 Z"
         id="path4984"
         inkscape:connector-curvature="0" /></clipPath><clipPath
       clipPathUnits="userSpaceOnUse"
       id="clipPath4996"><path
         d="m -2.5,-2.5 h 5 v 5 h -5 z"
         id="path4994"
         inkscape:connector-curvature="0" /></clipPath><clipPath
       clipPathUnits="userSpaceOnUse"
       id="clipPath5008"><path
         d="m -2.5,-2.5 h 5 v 5 h -5 z"
         id="path5006"
         inkscape:connector-curvature="0" /></clipPath><clipPath
       clipPathUnits="userSpaceOnUse"
       id="clipPath5020"><path
         d="m -2.5,-2.5 h 5 v 5 h -5 z"
         id="path5018"
         inkscape:connector-curvature="0" /></clipPath><clipPath
       clipPathUnits="userSpaceOnUse"
       id="clipPath5032"><path
         d="m -2.5,-2.5 h 5 v 5 h -5 z"
         id="path5030"
         inkscape:connector-curvature="0" /></clipPath><clipPath
       clipPathUnits="userSpaceOnUse"
       id="clipPath5044"><path
         d="m -2.5,-2.5 h 5 v 5 h -5 z"
         id="path5042"
         inkscape:connector-curvature="0" /></clipPath><clipPath
       clipPathUnits="userSpaceOnUse"
       id="clipPath5056"><path
         d="M 62.71,43.96 H 334.18062 V 259.04 H 62.71 Z"
         id="path5054"
         inkscape:connector-curvature="0" /></clipPath><clipPath
       clipPathUnits="userSpaceOnUse"
       id="clipPath5066"><path
         d="m -2.5,-2.5 h 5 v 5 h -5 z"
         id="path5064"
         inkscape:connector-curvature="0" /></clipPath><clipPath
       clipPathUnits="userSpaceOnUse"
       id="clipPath5078"><path
         d="m -2.5,-2.5 h 5 v 5 h -5 z"
         id="path5076"
         inkscape:connector-curvature="0" /></clipPath><clipPath
       clipPathUnits="userSpaceOnUse"
       id="clipPath5090"><path
         d="m -2.5,-2.5 h 5 v 5 h -5 z"
         id="path5088"
         inkscape:connector-curvature="0" /></clipPath><clipPath
       clipPathUnits="userSpaceOnUse"
       id="clipPath5102"><path
         d="m -2.5,-2.5 h 5 v 5 h -5 z"
         id="path5100"
         inkscape:connector-curvature="0" /></clipPath><clipPath
       clipPathUnits="userSpaceOnUse"
       id="clipPath5114"><path
         d="m -2.5,-2.5 h 5 v 5 h -5 z"
         id="path5112"
         inkscape:connector-curvature="0" /></clipPath></defs><sodipodi:namedview
     pagecolor="#ffffff"
     bordercolor="#666666"
     borderopacity="1"
     objecttolerance="10"
     gridtolerance="10"
     guidetolerance="10"
     inkscape:pageopacity="0"
     inkscape:pageshadow="2"
     inkscape:window-width="1280"
     inkscape:window-height="1000"
     id="namedview4532"
     showgrid="false"
     inkscape:zoom="1.3958333"
     inkscape:cx="240"
     inkscape:cy="192"
     inkscape:window-x="1366"
     inkscape:window-y="0"
     inkscape:window-maximized="1"
     inkscape:current-layer="g4706" /><g
     id="g4538"
     inkscape:groupmode="layer"
     inkscape:label="Pretraining_Amounts"
     transform="matrix(1.3333333,0,0,-1.3333333,0,384)"><path
       d="M 0,0 H 360 V 288 H 0 Z"
       style="fill:#ffffff;fill-opacity:1;fill-rule:nonzero;stroke:none"
       id="path4540"
       inkscape:connector-curvature="0" /><path
       d="M 62.71,43.96 H 334.18063 V 259.04 H 62.71 Z"
       style="fill:#eaeaf2;fill-opacity:1;fill-rule:nonzero;stroke:none"
       id="path4542"
       inkscape:connector-curvature="0" /><text
       transform="matrix(1,0,0,-1,86.677375,29.36625)"
       style="font-variant:normal;font-weight:normal;font-size:10px;font-family:'DejaVu Sans';-inkscape-font-specification:DejaVuSans;writing-mode:lr-tb;fill:#262626;fill-opacity:1;fill-rule:nonzero;stroke:none"
       id="text4546"><tspan
         x="0"
         y="0"
         id="tspan4544"
         style="font-style:normal;font-variant:normal;font-weight:normal;font-stretch:normal;font-family:'Latin Modern Roman';-inkscape-font-specification:'Latin Modern Roman, '">0</tspan></text>
<text
       transform="matrix(1,0,0,-1,131.43244,29.36625)"
       style="font-variant:normal;font-weight:normal;font-size:10px;font-family:'DejaVu Sans';-inkscape-font-specification:DejaVuSans;writing-mode:lr-tb;fill:#262626;fill-opacity:1;fill-rule:nonzero;stroke:none"
       id="text4550"><tspan
         sodipodi:role="line"
         id="tspan4548"
         style="font-style:normal;font-variant:normal;font-weight:normal;font-stretch:normal;font-family:'Latin Modern Roman';-inkscape-font-specification:'Latin Modern Roman, '"
         x="0"
         y="0">1000</tspan></text>
<text
       transform="matrix(1,0,0,-1,185.72656,29.36625)"
       style="font-variant:normal;font-weight:normal;font-size:10px;font-family:'DejaVu Sans';-inkscape-font-specification:DejaVuSans;writing-mode:lr-tb;fill:#262626;fill-opacity:1;fill-rule:nonzero;stroke:none"
       id="text4554"><tspan
         sodipodi:role="line"
         id="tspan4552"
         style="font-style:normal;font-variant:normal;font-weight:normal;font-stretch:normal;font-family:'Latin Modern Roman';-inkscape-font-specification:'Latin Modern Roman, '"
         x="0"
         y="0">2000</tspan></text>
<text
       transform="matrix(1,0,0,-1,240.02069,29.36625)"
       style="font-variant:normal;font-weight:normal;font-size:10px;font-family:'DejaVu Sans';-inkscape-font-specification:DejaVuSans;writing-mode:lr-tb;fill:#262626;fill-opacity:1;fill-rule:nonzero;stroke:none"
       id="text4558"><tspan
         sodipodi:role="line"
         id="tspan4556"
         style="font-style:normal;font-variant:normal;font-weight:normal;font-stretch:normal;font-family:'Latin Modern Roman';-inkscape-font-specification:'Latin Modern Roman, '"
         x="0"
         y="0">5000</tspan></text>
<text
       transform="matrix(1,0,0,-1,294.31481,29.36625)"
       style="font-variant:normal;font-weight:normal;font-size:10px;font-family:'DejaVu Sans';-inkscape-font-specification:DejaVuSans;writing-mode:lr-tb;fill:#262626;fill-opacity:1;fill-rule:nonzero;stroke:none"
       id="text4562"><tspan
         sodipodi:role="line"
         id="tspan4560"
         style="font-style:normal;font-variant:normal;font-weight:normal;font-stretch:normal;font-family:'Latin Modern Roman';-inkscape-font-specification:'Latin Modern Roman, '"
         x="0"
         y="0">8000</tspan></text>
<text
       transform="scale(1,-1)"
       style="font-variant:normal;font-weight:normal;font-size:11px;font-family:'DejaVu Sans';-inkscape-font-specification:DejaVuSans;writing-mode:lr-tb;fill:#262626;fill-opacity:1;fill-rule:nonzero;stroke:none"
       id="text4566"
       x="115.94531"
       y="-14.92875"><tspan
         sodipodi:role="line"
         id="tspan4564"
         style="font-style:normal;font-variant:normal;font-weight:normal;font-stretch:normal;font-size:10px;font-family:'Latin Modern Roman';-inkscape-font-specification:'Latin Modern Roman, '"
         x="115.94531"
         y="-14.92875">Batches used for pretraining per layer</tspan></text>
<g
       id="g4568"><g
         id="g4570"
         clip-path="url(#clipPath4574)"><path
           d="M 62.71,45.839504 H 334.18063"
           style="fill:none;stroke:#ffffff;stroke-width:1;stroke-linecap:round;stroke-linejoin:round;stroke-miterlimit:10;stroke-dasharray:none;stroke-opacity:1"
           id="path4576"
           inkscape:connector-curvature="0" /></g></g><g
       id="g4578"><text
         transform="matrix(1,0,0,-1,27.085,42.042629)"
         style="font-variant:normal;font-weight:normal;font-size:10px;font-family:'DejaVu Sans';-inkscape-font-specification:DejaVuSans;writing-mode:lr-tb;fill:#262626;fill-opacity:1;fill-rule:nonzero;stroke:none"
         id="text4582"><tspan
           sodipodi:role="line"
           id="tspan4580"
           style="font-style:normal;font-variant:normal;font-weight:normal;font-stretch:normal;font-family:'Latin Modern Roman';-inkscape-font-specification:'Latin Modern Roman, '"
           x="0"
           y="0">0.760</tspan></text>
</g><g
       id="g4584"><g
         id="g4586"
         clip-path="url(#clipPath4590)"><path
           d="M 62.71,72.056872 H 334.18063"
           style="fill:none;stroke:#ffffff;stroke-width:1;stroke-linecap:round;stroke-linejoin:round;stroke-miterlimit:10;stroke-dasharray:none;stroke-opacity:1"
           id="path4592"
           inkscape:connector-curvature="0" /></g></g><g
       id="g4594"><text
         transform="matrix(1,0,0,-1,27.085,68.259997)"
         style="font-variant:normal;font-weight:normal;font-size:10px;font-family:'DejaVu Sans';-inkscape-font-specification:DejaVuSans;writing-mode:lr-tb;fill:#262626;fill-opacity:1;fill-rule:nonzero;stroke:none"
         id="text4598"><tspan
           sodipodi:role="line"
           id="tspan4596"
           style="font-style:normal;font-variant:normal;font-weight:normal;font-stretch:normal;font-family:'Latin Modern Roman';-inkscape-font-specification:'Latin Modern Roman, '"
           x="0"
           y="0">0.765</tspan></text>
</g><g
       id="g4600"><g
         id="g4602"
         clip-path="url(#clipPath4606)"><path
           d="M 62.71,98.27424 H 334.18063"
           style="fill:none;stroke:#ffffff;stroke-width:1;stroke-linecap:round;stroke-linejoin:round;stroke-miterlimit:10;stroke-dasharray:none;stroke-opacity:1"
           id="path4608"
           inkscape:connector-curvature="0" /></g></g><g
       id="g4610"><text
         transform="matrix(1,0,0,-1,27.085,94.477365)"
         style="font-variant:normal;font-weight:normal;font-size:10px;font-family:'DejaVu Sans';-inkscape-font-specification:DejaVuSans;writing-mode:lr-tb;fill:#262626;fill-opacity:1;fill-rule:nonzero;stroke:none"
         id="text4614"><tspan
           sodipodi:role="line"
           id="tspan4612"
           style="font-style:normal;font-variant:normal;font-weight:normal;font-stretch:normal;font-family:'Latin Modern Roman';-inkscape-font-specification:'Latin Modern Roman, '"
           x="0"
           y="0">0.770</tspan></text>
</g><g
       id="g4616"><g
         id="g4618"
         clip-path="url(#clipPath4622)"><path
           d="M 62.71,124.49161 H 334.18063"
           style="fill:none;stroke:#ffffff;stroke-width:1;stroke-linecap:round;stroke-linejoin:round;stroke-miterlimit:10;stroke-dasharray:none;stroke-opacity:1"
           id="path4624"
           inkscape:connector-curvature="0" /></g></g><g
       id="g4626"><text
         transform="matrix(1,0,0,-1,27.085,120.69473)"
         style="font-variant:normal;font-weight:normal;font-size:10px;font-family:'DejaVu Sans';-inkscape-font-specification:DejaVuSans;writing-mode:lr-tb;fill:#262626;fill-opacity:1;fill-rule:nonzero;stroke:none"
         id="text4630"><tspan
           sodipodi:role="line"
           id="tspan4628"
           style="font-style:normal;font-variant:normal;font-weight:normal;font-stretch:normal;font-family:'Latin Modern Roman';-inkscape-font-specification:'Latin Modern Roman, '"
           x="0"
           y="0">0.775</tspan></text>
</g><g
       id="g4632"><g
         id="g4634"
         clip-path="url(#clipPath4638)"><path
           d="M 62.71,150.70898 H 334.18063"
           style="fill:none;stroke:#ffffff;stroke-width:1;stroke-linecap:round;stroke-linejoin:round;stroke-miterlimit:10;stroke-dasharray:none;stroke-opacity:1"
           id="path4640"
           inkscape:connector-curvature="0" /></g></g><g
       id="g4642"><text
         transform="matrix(1,0,0,-1,27.085,146.9121)"
         style="font-variant:normal;font-weight:normal;font-size:10px;font-family:'DejaVu Sans';-inkscape-font-specification:DejaVuSans;writing-mode:lr-tb;fill:#262626;fill-opacity:1;fill-rule:nonzero;stroke:none"
         id="text4646"><tspan
           sodipodi:role="line"
           id="tspan4644"
           style="font-style:normal;font-variant:normal;font-weight:normal;font-stretch:normal;font-family:'Latin Modern Roman';-inkscape-font-specification:'Latin Modern Roman, '"
           x="0"
           y="0">0.780</tspan></text>
</g><g
       id="g4648"><g
         id="g4650"
         clip-path="url(#clipPath4654)"><path
           d="M 62.71,176.92634 H 334.18063"
           style="fill:none;stroke:#ffffff;stroke-width:1;stroke-linecap:round;stroke-linejoin:round;stroke-miterlimit:10;stroke-dasharray:none;stroke-opacity:1"
           id="path4656"
           inkscape:connector-curvature="0" /></g></g><g
       id="g4658"><text
         transform="matrix(1,0,0,-1,27.085,173.12947)"
         style="font-variant:normal;font-weight:normal;font-size:10px;font-family:'DejaVu Sans';-inkscape-font-specification:DejaVuSans;writing-mode:lr-tb;fill:#262626;fill-opacity:1;fill-rule:nonzero;stroke:none"
         id="text4662"><tspan
           sodipodi:role="line"
           id="tspan4660"
           style="font-style:normal;font-variant:normal;font-weight:normal;font-stretch:normal;font-family:'Latin Modern Roman';-inkscape-font-specification:'Latin Modern Roman, '"
           x="0"
           y="0">0.785</tspan></text>
</g><g
       id="g4664"><g
         id="g4666"
         clip-path="url(#clipPath4670)"><path
           d="M 62.71,203.14371 H 334.18063"
           style="fill:none;stroke:#ffffff;stroke-width:1;stroke-linecap:round;stroke-linejoin:round;stroke-miterlimit:10;stroke-dasharray:none;stroke-opacity:1"
           id="path4672"
           inkscape:connector-curvature="0" /></g></g><g
       id="g4674"><text
         transform="matrix(1,0,0,-1,27.085,199.34684)"
         style="font-variant:normal;font-weight:normal;font-size:10px;font-family:'DejaVu Sans';-inkscape-font-specification:DejaVuSans;writing-mode:lr-tb;fill:#262626;fill-opacity:1;fill-rule:nonzero;stroke:none"
         id="text4678"><tspan
           sodipodi:role="line"
           id="tspan4676"
           style="font-style:normal;font-variant:normal;font-weight:normal;font-stretch:normal;font-family:'Latin Modern Roman';-inkscape-font-specification:'Latin Modern Roman, '"
           x="0"
           y="0">0.790</tspan></text>
</g><g
       id="g4680"><g
         id="g4682"
         clip-path="url(#clipPath4686)"><path
           d="M 62.71,229.36108 H 334.18063"
           style="fill:none;stroke:#ffffff;stroke-width:1;stroke-linecap:round;stroke-linejoin:round;stroke-miterlimit:10;stroke-dasharray:none;stroke-opacity:1"
           id="path4688"
           inkscape:connector-curvature="0" /></g></g><g
       id="g4690"><text
         transform="matrix(1,0,0,-1,27.085,225.5642)"
         style="font-variant:normal;font-weight:normal;font-size:10px;font-family:'DejaVu Sans';-inkscape-font-specification:DejaVuSans;writing-mode:lr-tb;fill:#262626;fill-opacity:1;fill-rule:nonzero;stroke:none"
         id="text4694"><tspan
           sodipodi:role="line"
           id="tspan4692"
           style="font-style:normal;font-variant:normal;font-weight:normal;font-stretch:normal;font-family:'Latin Modern Roman';-inkscape-font-specification:'Latin Modern Roman, '"
           x="0"
           y="0">0.795</tspan></text>
</g><g
       id="g4696"><g
         id="g4698"
         clip-path="url(#clipPath4702)"><path
           d="M 62.71,255.57845 H 334.18063"
           style="fill:none;stroke:#ffffff;stroke-width:1;stroke-linecap:round;stroke-linejoin:round;stroke-miterlimit:10;stroke-dasharray:none;stroke-opacity:1"
           id="path4704"
           inkscape:connector-curvature="0" /></g></g><g
       id="g4706"><text
         transform="matrix(1,0,0,-1,27.085,251.78157)"
         style="font-variant:normal;font-weight:normal;font-size:10px;font-family:'DejaVu Sans';-inkscape-font-specification:DejaVuSans;writing-mode:lr-tb;fill:#262626;fill-opacity:1;fill-rule:nonzero;stroke:none"
         id="text4710"><tspan
           sodipodi:role="line"
           id="tspan4708"
           style="font-style:normal;font-variant:normal;font-weight:normal;font-stretch:normal;font-family:'Latin Modern Roman';-inkscape-font-specification:'Latin Modern Roman, '"
           x="0"
           y="0">0.800</tspan></text>
<text
         transform="matrix(0,1,1,0,20.80375,139.86719)"
         style="font-variant:normal;font-weight:normal;font-size:11px;font-family:'DejaVu Sans';-inkscape-font-specification:DejaVuSans;writing-mode:lr-tb;fill:#262626;fill-opacity:1;fill-rule:nonzero;stroke:none"
         id="text4714"><tspan
           sodipodi:role="line"
           id="tspan4712"
           style="font-style:normal;font-variant:normal;font-weight:normal;font-stretch:normal;font-size:10px;font-family:'Latin Modern Roman';-inkscape-font-specification:'Latin Modern Roman, '"
           x="0"
           y="0">ROC-AUC</tspan></text>
</g><g
       id="g4716"><g
         id="g4718"
         clip-path="url(#clipPath4722)"><path
           d="m 90.657622,80.052252 h -1.601119 l -0.137931,0.941957 -0.156286,0.941957 -0.176081,0.941957 -0.197262,0.941957 -0.219741,0.941957 -0.243396,0.941957 -0.26807,0.941957 -0.293571,0.941957 -0.319665,0.941957 -0.346088,0.941957 -0.37254,0.941957 -0.398691,0.941957 -0.424182,0.941957 -0.448633,0.941957 -0.471649,0.941957 -0.492827,0.941957 -0.511754,0.941957 -0.528033,0.941957 -0.541276,0.941957 -0.55112,0.941957 -0.557235,0.941957 -0.559337,0.941961 -0.557186,0.94195 -0.550611,0.94196 -0.539504,0.94196 -0.523831,0.94195 -0.503644,0.94196 -0.479074,0.94196 -0.450339,0.94196 -0.417749,0.94195 -0.38169,0.94196 -0.342631,0.94196 -0.301111,0.94195 -0.257733,0.94196 -0.213143,0.94196 -0.168023,0.94195 -0.123073,0.94196 -0.07899,0.94196 -0.03645,0.94195 0.0039,0.94196 0.04149,0.94196 0.07582,0.94196 0.106457,0.94195 0.133102,0.94196 0.155554,0.94196 0.173732,0.94195 0.187676,0.94196 0.197542,0.94196 0.2036,0.94196 0.20622,0.94195 0.205861,0.94196 0.203051,0.94196 0.198367,0.94195 0.192424,0.94196 0.185841,0.94196 0.179226,0.94195 0.173157,0.94196 0.168162,0.94196 0.164697,0.94195 0.163145,0.94196 0.163792,0.94196 0.166832,0.94196 0.172353,0.94195 0.180349,0.94196 0.190712,0.94196 0.203251,0.94195 0.217688,0.94196 0.233687,0.94196 0.250848,0.94196 0.268739,0.94195 0.286903,0.94196 0.30487,0.94196 0.322182,0.94195 0.338399,0.94196 0.353114,0.94196 0.365965,0.94195 0.376643,0.94196 0.384898,0.94196 0.390546,0.94196 0.39347,0.94195 0.393619,0.94196 0.391011,0.94196 0.385719,0.94195 0.377881,0.94196 0.367676,0.94196 0.355332,0.94195 0.341105,0.94196 0.325275,0.94196 0.308144,0.94196 0.290012,0.94195 0.271182,0.94196 0.251947,0.94196 0.232584,0.94195 0.213347,0.94196 0.19447,0.94196 0.17615,0.94196 0.158562,0.94195 0.141844,0.94196 0.126102,0.94196 h 1.508977 v 0 l 0.126102,-0.94196 0.141844,-0.94196 0.158562,-0.94195 0.17615,-0.94196 0.19447,-0.94196 0.213347,-0.94196 0.232584,-0.94195 0.251947,-0.94196 0.271182,-0.94196 0.290012,-0.94195 0.308144,-0.94196 0.325275,-0.94196 0.341105,-0.94196 0.355332,-0.94195 0.367676,-0.94196 0.377881,-0.94196 0.385719,-0.94195 0.391011,-0.94196 0.393619,-0.94196 0.39347,-0.94195 0.390546,-0.94196 0.384898,-0.94196 0.376643,-0.94196 0.365965,-0.94195 0.353114,-0.94196 0.338399,-0.94196 0.322182,-0.94195 0.30487,-0.94196 0.286903,-0.94196 0.268739,-0.94195 0.250848,-0.94196 0.233694,-0.94196 0.21769,-0.94196 0.20325,-0.94195 0.19071,-0.94196 0.18035,-0.94196 0.17235,-0.94195 0.16683,-0.94196 0.16379,-0.94196 0.16315,-0.94196 0.1647,-0.94195 0.16816,-0.94196 0.17316,-0.94196 0.17922,-0.94195 0.18584,-0.94196 0.19243,-0.94196 0.19836,-0.94195 0.20305,-0.94196 0.20587,-0.94196 0.20622,-0.94195 0.20359,-0.94196 0.19755,-0.94196 0.18767,-0.94196 0.17374,-0.94195 0.15555,-0.94196 0.1331,-0.94196 0.10646,-0.94195 0.0758,-0.94196 0.0415,-0.94196 0.004,-0.94196 -0.0365,-0.94195 -0.079,-0.94196 -0.12307,-0.94196 -0.16802,-0.94195 -0.21315,-0.94196 -0.25773,-0.94196 -0.30111,-0.94195 -0.34263,-0.94196 -0.38169,-0.94196 -0.41775,-0.94195 -0.45034,-0.94196 -0.47907,-0.94196 -0.50365,-0.94196 -0.52383,-0.94195 -0.539507,-0.94196 -0.550611,-0.94196 -0.557186,-0.94195 -0.559337,-0.941961 -0.557235,-0.941957 -0.55112,-0.941957 -0.541276,-0.941957 -0.528033,-0.941957 -0.511754,-0.941957 -0.492827,-0.941957 -0.471649,-0.941957 -0.448633,-0.941957 -0.424182,-0.941957 -0.398691,-0.941957 -0.37254,-0.941957 -0.346088,-0.941957 -0.319665,-0.941957 -0.293571,-0.941957 -0.26807,-0.941957 -0.243396,-0.941957 -0.219741,-0.941957 -0.197262,-0.941957 -0.176081,-0.941957 -0.156286,-0.941957 -0.137931,-0.941957 z"
           style="fill:#e6e6e6;fill-opacity:1;fill-rule:nonzero;stroke:#8a8a8a;stroke-width:1.75;stroke-linecap:butt;stroke-linejoin:round;stroke-miterlimit:10;stroke-dasharray:none;stroke-opacity:1"
           id="path4724"
           inkscape:connector-curvature="0" /></g></g><g
       id="g4726"><g
         id="g4728"
         clip-path="url(#clipPath4732)"><path
           d="m 145.19997,105.38999 h -2.09757 l -0.173,0.79661 -0.19462,0.7966 -0.2177,0.79661 -0.24207,0.7966 -0.2676,0.79661 -0.29406,0.7966 -0.32123,0.79661 -0.34878,0.7966 -0.37641,0.79661 -0.40372,0.7966 -0.43034,0.79661 -0.45583,0.7966 -0.47976,0.79661 -0.50169,0.7966 -0.52116,0.79661 -0.53778,0.7966 -0.55114,0.79661 -0.56089,0.7966 -0.56673,0.79661 -0.56843,0.7966 -0.56579,0.79661 -0.55875,0.7966 -0.54727,0.79661 -0.53146,0.7966 -0.51146,0.79661 -0.48752,0.7966 -0.45999,0.79661 -0.42926,0.7966 -0.39581,0.79661 -0.36017,0.7966 -0.3229,0.79661 -0.28464,0.7966 -0.24596,0.79661 -0.20752,0.7966 -0.16991,0.79661 -0.1337,0.7966 -0.0995,0.79661 -0.0676,0.7966 -0.0386,0.79661 -0.0128,0.7966 0.01,0.79661 0.0284,0.7966 0.0436,0.7966 0.055,0.79661 0.063,0.7966 0.0677,0.79661 0.0693,0.79661 0.0684,0.7966 0.0652,0.7966 0.0603,0.79661 0.0543,0.7966 0.0478,0.79661 0.0413,0.7966 0.0354,0.79661 0.0308,0.7966 0.0279,0.79661 0.0273,0.7966 0.0294,0.79661 0.0346,0.7966 0.0431,0.79661 0.0552,0.7966 0.0708,0.79661 0.0899,0.7966 0.11232,0.79661 0.1379,0.7966 0.16619,0.79661 0.19677,0.7966 0.22909,0.79661 0.26259,0.7966 0.29659,0.79661 0.33048,0.7966 0.36355,0.79661 0.39518,0.7966 0.42474,0.79661 0.45167,0.7966 0.47544,0.79661 0.49566,0.7966 0.51197,0.79661 0.52414,0.7966 0.53203,0.79661 0.53557,0.7966 0.53484,0.79661 0.52996,0.7966 0.52115,0.79661 0.50873,0.7966 0.493,0.79661 0.47439,0.7966 0.45334,0.79661 0.43026,0.7966 0.40563,0.79661 0.37989,0.7966 0.35348,0.79661 0.32679,0.7966 0.3002,0.79661 0.27406,0.7966 0.24863,0.79661 0.2242,0.7966 0.20092,0.7966 0.17899,0.79661 h 2.18716 v 0 l 0.17898,-0.79661 0.20093,-0.7966 0.22419,-0.7966 0.24864,-0.79661 0.27405,-0.7966 0.30021,-0.79661 0.32679,-0.7966 0.35347,-0.79661 0.37989,-0.7966 0.40563,-0.79661 0.43026,-0.7966 0.45334,-0.79661 0.4744,-0.7966 0.493,-0.79661 0.50872,-0.7966 0.52116,-0.79661 0.52995,-0.7966 0.53484,-0.79661 0.53558,-0.7966 0.53202,-0.79661 0.52414,-0.7966 0.51198,-0.79661 0.49565,-0.7966 0.47545,-0.79661 0.45166,-0.7966 0.42474,-0.79661 0.39518,-0.7966 0.36356,-0.79661 0.33047,-0.7966 0.2966,-0.79661 0.26258,-0.7966 0.2291,-0.79661 0.19677,-0.7966 0.16619,-0.79661 0.13789,-0.7966 0.11233,-0.79661 0.0899,-0.7966 0.0708,-0.79661 0.0552,-0.7966 0.0431,-0.79661 0.0346,-0.7966 0.0294,-0.79661 0.0273,-0.7966 0.0279,-0.79661 0.0308,-0.7966 0.0354,-0.79661 0.0413,-0.7966 0.0478,-0.79661 0.0543,-0.7966 0.0603,-0.79661 0.0652,-0.7966 0.0684,-0.7966 0.0693,-0.79661 0.0677,-0.79661 0.063,-0.7966 0.055,-0.79661 0.0435,-0.7966 0.0284,-0.7966 0.01,-0.79661 -0.0128,-0.7966 -0.0386,-0.79661 -0.0676,-0.7966 -0.0994,-0.79661 -0.1337,-0.7966 -0.16991,-0.79661 -0.20752,-0.7966 -0.24597,-0.79661 -0.28463,-0.7966 -0.32291,-0.79661 -0.36017,-0.7966 -0.39581,-0.79661 -0.42926,-0.7966 -0.45999,-0.79661 -0.48752,-0.7966 -0.51146,-0.79661 -0.53146,-0.7966 -0.54727,-0.79661 -0.55875,-0.7966 -0.56579,-0.79661 -0.56842,-0.7966 -0.56673,-0.79661 -0.5609,-0.7966 -0.55114,-0.79661 -0.53778,-0.7966 -0.52116,-0.79661 -0.50168,-0.7966 -0.47976,-0.79661 -0.45583,-0.7966 -0.43035,-0.79661 -0.40372,-0.7966 -0.3764,-0.79661 -0.34879,-0.7966 -0.32122,-0.79661 -0.29407,-0.7966 -0.2676,-0.79661 -0.24207,-0.7966 -0.21769,-0.79661 -0.19463,-0.7966 -0.173,-0.79661 z"
           style="fill:#e6e6e6;fill-opacity:1;fill-rule:nonzero;stroke:#8a8a8a;stroke-width:1.75;stroke-linecap:butt;stroke-linejoin:round;stroke-miterlimit:10;stroke-dasharray:none;stroke-opacity:1"
           id="path4734"
           inkscape:connector-curvature="0" /></g></g><g
       id="g4736"><g
         id="g4738"
         clip-path="url(#clipPath4742)"><path
           d="m 198.98243,53.736364 h -1.07424 l -0.0934,1.626926 -0.10588,1.626926 -0.11925,1.626926 -0.13351,1.626926 -0.14856,1.626926 -0.16427,1.626927 -0.18053,1.626926 -0.19716,1.626926 -0.21397,1.626926 -0.23074,1.626926 -0.24722,1.626927 -0.26317,1.626926 -0.27831,1.626926 -0.29237,1.626926 -0.30506,1.626926 -0.31611,1.626926 -0.32526,1.626927 -0.33227,1.626926 -0.33694,1.626926 -0.33908,1.626926 -0.33856,1.626926 -0.33527,1.626926 -0.32919,1.626927 -0.32032,1.626926 -0.30871,1.626926 -0.2945,1.626926 -0.27783,1.626926 -0.25892,1.626926 -0.23802,1.626924 -0.21543,1.62693 -0.19146,1.62692 -0.16644,1.62693 -0.14075,1.62693 -0.1147,1.62692 -0.0887,1.62693 -0.063,1.62693 -0.038,1.62692 -0.014,1.62693 0.009,1.62692 0.0302,1.62693 0.0499,1.62693 0.0679,1.62692 0.084,1.62693 0.0982,1.62693 0.1105,1.62692 0.12089,1.62693 0.12944,1.62692 0.13626,1.62693 0.14146,1.62693 0.14516,1.62692 0.14757,1.62693 0.14881,1.62692 0.14911,1.62693 0.14864,1.62693 0.14759,1.62692 0.14614,1.62693 0.14449,1.62692 0.1428,1.62693 0.14123,1.62693 0.13993,1.62692 0.139,1.62693 0.13857,1.62693 0.13872,1.62692 0.13947,1.62693 0.14091,1.62692 0.14298,1.62693 0.14571,1.62693 0.14902,1.62692 0.15285,1.62693 0.15708,1.62693 0.16163,1.62692 0.16635,1.62693 0.17109,1.62692 0.1757,1.62693 0.18003,1.62693 0.18392,1.62692 0.18724,1.62693 0.18983,1.62692 0.19161,1.62693 0.19244,1.62693 0.19229,1.62692 0.19108,1.62693 0.1888,1.62693 0.18547,1.62692 0.1811,1.62693 0.17575,1.62692 0.16952,1.62693 0.16248,1.62693 0.15476,1.62692 0.14645,1.62693 0.13773,1.62692 0.12869,1.62693 0.11947,1.62693 0.1102,1.62692 0.10101,1.62693 0.092,1.62693 0.0832,1.62692 0.0748,1.62693 0.0669,1.62692 h 0.81845 v 0 l 0.0669,-1.62692 0.0748,-1.62693 0.0832,-1.62692 0.092,-1.62693 0.10101,-1.62693 0.11021,-1.62692 0.11947,-1.62693 0.12868,-1.62693 0.13773,-1.62692 0.14646,-1.62693 0.15475,-1.62692 0.16248,-1.62693 0.16952,-1.62693 0.17576,-1.62692 0.1811,-1.62693 0.18546,-1.62692 0.18881,-1.62693 0.19108,-1.62693 0.19228,-1.62692 0.19245,-1.62693 0.1916,-1.62693 0.18984,-1.62692 0.18723,-1.62693 0.18393,-1.62692 0.18003,-1.62693 0.1757,-1.62693 0.17109,-1.62692 0.16634,-1.62693 0.16163,-1.62692 0.15709,-1.62693 0.15284,-1.62693 0.14902,-1.62692 0.14571,-1.62693 0.14299,-1.62693 0.1409,-1.62692 0.13948,-1.62693 0.13871,-1.62692 0.13857,-1.62693 0.13901,-1.62693 0.13992,-1.62692 0.14123,-1.62693 0.1428,-1.62693 0.14449,-1.62692 0.14615,-1.62693 0.14758,-1.62692 0.14864,-1.62693 0.14912,-1.62693 0.14881,-1.62692 0.14756,-1.62693 0.14517,-1.62692 0.14145,-1.62693 0.13626,-1.62693 0.12945,-1.62692 0.12089,-1.62693 0.11049,-1.62692 0.0982,-1.62693 0.084,-1.62693 0.0679,-1.62692 0.0499,-1.62693 0.0302,-1.62693 0.009,-1.62692 -0.014,-1.62693 -0.038,-1.62692 -0.063,-1.62693 -0.0887,-1.62693 -0.11471,-1.62692 -0.14074,-1.62693 -0.16645,-1.62693 -0.19146,-1.62692 -0.21543,-1.62693 -0.23802,-1.626924 -0.25892,-1.626926 -0.27783,-1.626926 -0.2945,-1.626926 -0.30871,-1.626926 -0.32032,-1.626926 -0.32919,-1.626927 -0.33527,-1.626926 -0.33855,-1.626926 -0.33908,-1.626926 -0.33695,-1.626926 -0.33227,-1.626926 -0.32526,-1.626927 -0.31611,-1.626926 -0.30505,-1.626926 -0.29237,-1.626926 -0.27832,-1.626926 -0.26317,-1.626926 -0.24722,-1.626927 -0.23074,-1.626926 -0.21396,-1.626926 -0.19717,-1.626926 -0.18053,-1.626926 -0.16427,-1.626927 -0.14855,-1.626926 -0.13351,-1.626926 -0.11926,-1.626926 -0.10587,-1.626926 -0.0934,-1.626926 z"
           style="fill:#e6e6e6;fill-opacity:1;fill-rule:nonzero;stroke:#8a8a8a;stroke-width:1.75;stroke-linecap:butt;stroke-linejoin:round;stroke-miterlimit:10;stroke-dasharray:none;stroke-opacity:1"
           id="path4744"
           inkscape:connector-curvature="0" /></g></g><g
       id="g4746"><g
         id="g4748"
         clip-path="url(#clipPath4752)"><path
           d="m 253.77488,183.45043 h -2.07089 l -0.17306,0.66478 -0.1944,0.66478 -0.21697,0.66478 -0.2406,0.66478 -0.26509,0.66478 -0.2902,0.66478 -0.31564,0.66478 -0.34109,0.66478 -0.36622,0.66478 -0.39066,0.66478 -0.41405,0.66478 -0.43601,0.66478 -0.45619,0.66478 -0.47427,0.66478 -0.4899,0.66478 -0.50288,0.66478 -0.51297,0.66478 -0.52005,0.66478 -0.52402,0.66478 -0.52492,0.66478 -0.52279,0.66478 -0.51782,0.66478 -0.51022,0.66478 -0.50026,0.66478 -0.48833,0.66478 -0.47481,0.66478 -0.46012,0.66478 -0.44475,0.66478 -0.42912,0.66478 -0.41371,0.66478 -0.39894,0.66478 -0.38521,0.66478 -0.37284,0.66478 -0.3621,0.66478 -0.35319,0.66478 -0.3462,0.66478 -0.34115,0.66478 -0.33794,0.66478 -0.33641,0.66478 -0.33627,0.66478 -0.33715,0.66477 -0.33861,0.66478 -0.34015,0.66478 -0.3412,0.66478 -0.34118,0.66478 -0.33945,0.66478 -0.33543,0.66478 -0.32854,0.66478 -0.31822,0.66478 -0.30403,0.66478 -0.28556,0.66478 -0.26253,0.66478 -0.23477,0.66478 -0.2022,0.66478 -0.16488,0.66478 -0.12303,0.66478 -0.0769,0.66478 -0.027,0.66478 0.0262,0.66478 0.0822,0.66478 0.14013,0.66478 0.19934,0.66478 0.25907,0.66478 0.31851,0.66478 0.3769,0.66478 0.43348,0.66478 0.48752,0.66478 0.53837,0.66478 0.58541,0.66478 0.62813,0.66478 0.66608,0.66478 0.69892,0.66478 0.72636,0.66478 0.74823,0.66478 0.76446,0.66478 0.77502,0.66478 0.78,0.66478 0.77955,0.66478 0.77392,0.66478 0.76334,0.66478 0.74821,0.66478 0.72888,0.66478 0.7058,0.66478 0.6794,0.66478 0.65018,0.66478 0.61862,0.66478 0.58522,0.66478 0.55045,0.66478 0.5148,0.66478 0.47871,0.66478 0.44263,0.66478 0.40694,0.66478 0.37197,0.66478 0.33808,0.66478 0.30551,0.66478 0.27449,0.66478 0.24519,0.66478 0.21775,0.66478 0.19225,0.66478 h 2.2228 v 0 l 0.19225,-0.66478 0.21775,-0.66478 0.24519,-0.66478 0.27448,-0.66478 0.30551,-0.66478 0.33808,-0.66478 0.37198,-0.66478 0.40693,-0.66478 0.44263,-0.66478 0.47872,-0.66478 0.5148,-0.66478 0.55045,-0.66478 0.58521,-0.66478 0.61862,-0.66478 0.65018,-0.66478 0.6794,-0.66478 0.7058,-0.66478 0.72888,-0.66478 0.74821,-0.66478 0.76335,-0.66478 0.77391,-0.66478 0.77956,-0.66478 0.78,-0.66478 0.77502,-0.66478 0.76445,-0.66478 0.74824,-0.66478 0.72636,-0.66478 0.69891,-0.66478 0.66609,-0.66478 0.62813,-0.66478 0.58541,-0.66478 0.53836,-0.66478 0.48752,-0.66478 0.43348,-0.66478 0.3769,-0.66478 0.31852,-0.66478 0.25907,-0.66478 0.19934,-0.66478 0.14012,-0.66478 0.0822,-0.66478 0.0263,-0.66478 -0.027,-0.66478 -0.0769,-0.66478 -0.12302,-0.66478 -0.16489,-0.66478 -0.2022,-0.66478 -0.23476,-0.66478 -0.26254,-0.66478 -0.28556,-0.66478 -0.30403,-0.66478 -0.31822,-0.66478 -0.32853,-0.66478 -0.33544,-0.66478 -0.33945,-0.66478 -0.34117,-0.66478 -0.34121,-0.66478 -0.34015,-0.66478 -0.33861,-0.66478 -0.33715,-0.66477 -0.33626,-0.66478 -0.33641,-0.66478 -0.33795,-0.66478 -0.34114,-0.66478 -0.34621,-0.66478 -0.35318,-0.66478 -0.3621,-0.66478 -0.37284,-0.66478 -0.38521,-0.66478 -0.39895,-0.66478 -0.41371,-0.66478 -0.42912,-0.66478 -0.44474,-0.66478 -0.46013,-0.66478 -0.4748,-0.66478 -0.48833,-0.66478 -0.50027,-0.66478 -0.51021,-0.66478 -0.51782,-0.66478 -0.5228,-0.66478 -0.52492,-0.66478 -0.52402,-0.66478 -0.52004,-0.66478 -0.51297,-0.66478 -0.50288,-0.66478 -0.48991,-0.66478 -0.47426,-0.66478 -0.4562,-0.66478 -0.43601,-0.66478 -0.41405,-0.66478 -0.39066,-0.66478 -0.36621,-0.66478 -0.34109,-0.66478 -0.31564,-0.66478 -0.2902,-0.66478 -0.2651,-0.66478 -0.2406,-0.66478 -0.21697,-0.66478 -0.1944,-0.66478 -0.17306,-0.66478 z"
           style="fill:#e6e6e6;fill-opacity:1;fill-rule:nonzero;stroke:#8a8a8a;stroke-width:1.75;stroke-linecap:butt;stroke-linejoin:round;stroke-miterlimit:10;stroke-dasharray:none;stroke-opacity:1"
           id="path4754"
           inkscape:connector-curvature="0" /></g></g><g
       id="g4756"><g
         id="g4758"
         clip-path="url(#clipPath4762)"><path
           d="m 308.79035,139.42726 h -3.51358 l -0.26101,0.8436 -0.28917,0.84359 -0.31855,0.8436 -0.34887,0.84359 -0.37981,0.8436 -0.41103,0.84359 -0.44209,0.8436 -0.47252,0.84359 -0.50185,0.84359 -0.5295,0.8436 -0.55494,0.84359 -0.57758,0.8436 -0.59685,0.84359 -0.61219,0.8436 -0.62309,0.84359 -0.62905,0.8436 -0.62967,0.84359 -0.62459,0.84359 -0.61358,0.8436 -0.59649,0.84359 -0.57328,0.8436 -0.54405,0.84359 -0.50904,0.8436 -0.46857,0.84359 -0.42313,0.8436 -0.37331,0.84359 -0.31983,0.84359 -0.26349,0.8436 -0.20515,0.84359 -0.14579,0.8436 -0.0864,0.84359 -0.0279,0.8436 0.0286,0.84359 0.0823,0.8436 0.13214,0.84359 0.1774,0.8436 0.21736,0.84359 0.25141,0.84359 0.27914,0.8436 0.30021,0.84359 0.3145,0.8436 0.32202,0.84359 0.32294,0.8436 0.31758,0.84359 0.30644,0.8436 0.29009,0.84359 0.26925,0.84359 0.24472,0.8436 0.21738,0.84359 0.18816,0.8436 0.15797,0.84359 0.12779,0.8436 0.0985,0.84359 0.071,0.8436 0.0461,0.84359 0.0244,0.8436 0.007,0.84359 -0.007,0.8436 -0.0156,0.84359 -0.0195,0.84359 -0.0183,0.8436 -0.0122,0.84359 -10e-4,0.8436 0.014,0.84359 0.0335,0.8436 0.0566,0.84359 0.0827,0.84359 0.11117,0.8436 0.14139,0.84359 0.17265,0.8436 0.20426,0.84359 0.23554,0.8436 0.26585,0.84359 0.29457,0.8436 0.3212,0.84359 0.34523,0.84359 0.3663,0.8436 0.38408,0.84359 0.39836,0.8436 0.40901,0.84359 0.41598,0.8436 0.41928,0.84359 0.41905,0.8436 0.41542,0.84359 0.40865,0.8436 0.399,0.84359 0.38677,0.84359 0.37231,0.8436 0.35597,0.84359 0.33812,0.8436 0.31909,0.84359 0.29924,0.8436 0.27891,0.84359 0.25839,0.8436 0.23795,0.84359 0.21786,0.8436 0.19831,0.84359 0.17949,0.84359 0.16154,0.8436 h 2.14278 v 0 l 0.16155,-0.8436 0.17949,-0.84359 0.19831,-0.84359 0.21785,-0.8436 0.23796,-0.84359 0.25838,-0.8436 0.27891,-0.84359 0.29925,-0.8436 0.31909,-0.84359 0.33811,-0.8436 0.35598,-0.84359 0.37231,-0.8436 0.38677,-0.84359 0.39899,-0.84359 0.40865,-0.8436 0.41542,-0.84359 0.41905,-0.8436 0.41929,-0.84359 0.41597,-0.8436 0.40901,-0.84359 0.39837,-0.8436 0.38408,-0.84359 0.36629,-0.8436 0.34524,-0.84359 0.32119,-0.84359 0.29458,-0.8436 0.26584,-0.84359 0.23554,-0.8436 0.20426,-0.84359 0.17265,-0.8436 0.14139,-0.84359 0.11117,-0.8436 0.0827,-0.84359 0.0566,-0.84359 0.0335,-0.8436 0.014,-0.84359 -10e-4,-0.8436 -0.0122,-0.84359 -0.0183,-0.8436 -0.0195,-0.84359 -0.0156,-0.84359 -0.007,-0.8436 0.007,-0.84359 0.0244,-0.8436 0.0461,-0.84359 0.071,-0.8436 0.0985,-0.84359 0.12779,-0.8436 0.15798,-0.84359 0.18815,-0.8436 0.21738,-0.84359 0.24472,-0.8436 0.26925,-0.84359 0.29009,-0.84359 0.30644,-0.8436 0.31759,-0.84359 0.32294,-0.8436 0.32202,-0.84359 0.3145,-0.8436 0.30021,-0.84359 0.27913,-0.8436 0.25142,-0.84359 0.21735,-0.84359 0.1774,-0.8436 0.13214,-0.84359 0.0823,-0.8436 0.0286,-0.84359 -0.0279,-0.8436 -0.0864,-0.84359 -0.14579,-0.8436 -0.20516,-0.84359 -0.26348,-0.8436 -0.31983,-0.84359 -0.37332,-0.84359 -0.42313,-0.8436 -0.46857,-0.84359 -0.50903,-0.8436 -0.54406,-0.84359 -0.57328,-0.8436 -0.59648,-0.84359 -0.61358,-0.8436 -0.62459,-0.84359 -0.62967,-0.84359 -0.62905,-0.8436 -0.62309,-0.84359 -0.6122,-0.8436 -0.59685,-0.84359 -0.57758,-0.8436 -0.55493,-0.84359 -0.52951,-0.8436 -0.50184,-0.84359 -0.47253,-0.84359 -0.44209,-0.8436 -0.41102,-0.84359 -0.37982,-0.8436 -0.34886,-0.84359 -0.31855,-0.8436 -0.28918,-0.84359 -0.26101,-0.8436 z"
           style="fill:#e6e6e6;fill-opacity:1;fill-rule:nonzero;stroke:#8a8a8a;stroke-width:1.75;stroke-linecap:butt;stroke-linejoin:round;stroke-miterlimit:10;stroke-dasharray:none;stroke-opacity:1"
           id="path4764"
           inkscape:connector-curvature="0" /></g></g><g
       id="g4766"><g
         id="g4768" /></g><g
       id="g4770"><g
         id="g4772"
         clip-path="url(#clipPath4776)"><g
           id="g4778"
           transform="translate(89.857062,105.09096)"><g
             id="g4780"><g
               id="g4782"
               clip-path="url(#clipPath4786)"><path
                 d="m 0,-2.5 c 0.663008,0 1.29895,0.263416 1.767767,0.732233 C 2.236584,-1.29895 2.5,-0.663008 2.5,0 2.5,0.663008 2.236584,1.29895 1.767767,1.767767 1.29895,2.236584 0.663008,2.5 0,2.5 -0.663008,2.5 -1.29895,2.236584 -1.767767,1.767767 -2.236584,1.29895 -2.5,0.663008 -2.5,0 c 0,-0.663008 0.263416,-1.29895 0.732233,-1.767767 C -1.29895,-2.236584 -0.663008,-2.5 0,-2.5 Z"
                 style="fill:#4c72b0;fill-opacity:1;fill-rule:nonzero;stroke:none"
                 id="path4788"
                 inkscape:connector-curvature="0" /></g></g><g
             id="g4790"
             transform="translate(0,12.259512)"><g
               id="g4792"><g
                 id="g4794"
                 clip-path="url(#clipPath4798)"><path
                   d="m 0,-2.5 c 0.663008,0 1.29895,0.263416 1.767767,0.732233 C 2.236584,-1.29895 2.5,-0.663008 2.5,0 2.5,0.663008 2.236584,1.29895 1.767767,1.767767 1.29895,2.236584 0.663008,2.5 0,2.5 -0.663008,2.5 -1.29895,2.236584 -1.767767,1.767767 -2.236584,1.29895 -2.5,0.663008 -2.5,0 c 0,-0.663008 0.263416,-1.29895 0.732233,-1.767767 C -1.29895,-2.236584 -0.663008,-2.5 0,-2.5 Z"
                   style="fill:#4c72b0;fill-opacity:1;fill-rule:nonzero;stroke:none"
                   id="path4800"
                   inkscape:connector-curvature="0" /></g></g><g
               id="g4802"
               transform="translate(-5.1080033,0.05491718)"><g
                 id="g4804"><g
                   id="g4806"
                   clip-path="url(#clipPath4810)"><path
                     d="m 0,-2.5 c 0.663008,0 1.29895,0.263416 1.767767,0.732233 C 2.236584,-1.29895 2.5,-0.663008 2.5,0 2.5,0.663008 2.236584,1.29895 1.767767,1.767767 1.29895,2.236584 0.663008,2.5 0,2.5 -0.663008,2.5 -1.29895,2.236584 -1.767767,1.767767 -2.236584,1.29895 -2.5,0.663008 -2.5,0 c 0,-0.663008 0.263416,-1.29895 0.732233,-1.767767 C -1.29895,-2.236584 -0.663008,-2.5 0,-2.5 Z"
                     style="fill:#4c72b0;fill-opacity:1;fill-rule:nonzero;stroke:none"
                     id="path4812"
                     inkscape:connector-curvature="0" /></g></g><g
                 id="g4814"
                 transform="translate(5.1080033,19.407404)"><g
                   id="g4816"><g
                     id="g4818"
                     clip-path="url(#clipPath4822)"><path
                       d="m 0,-2.5 c 0.663008,0 1.29895,0.263416 1.767767,0.732233 C 2.236584,-1.29895 2.5,-0.663008 2.5,0 2.5,0.663008 2.236584,1.29895 1.767767,1.767767 1.29895,2.236584 0.663008,2.5 0,2.5 -0.663008,2.5 -1.29895,2.236584 -1.767767,1.767767 -2.236584,1.29895 -2.5,0.663008 -2.5,0 c 0,-0.663008 0.263416,-1.29895 0.732233,-1.767767 C -1.29895,-2.236584 -0.663008,-2.5 0,-2.5 Z"
                       style="fill:#4c72b0;fill-opacity:1;fill-rule:nonzero;stroke:none"
                       id="path4824"
                       inkscape:connector-curvature="0" /></g></g><g
                   id="g4826"
                   transform="translate(0,11.454494)"><g
                     id="g4828"><g
                       id="g4830"
                       clip-path="url(#clipPath4834)"><path
                         d="m 0,-2.5 c 0.663008,0 1.29895,0.263416 1.767767,0.732233 C 2.236584,-1.29895 2.5,-0.663008 2.5,0 2.5,0.663008 2.236584,1.29895 1.767767,1.767767 1.29895,2.236584 0.663008,2.5 0,2.5 -0.663008,2.5 -1.29895,2.236584 -1.767767,1.767767 -2.236584,1.29895 -2.5,0.663008 -2.5,0 c 0,-0.663008 0.263416,-1.29895 0.732233,-1.767767 C -1.29895,-2.236584 -0.663008,-2.5 0,-2.5 Z"
                         style="fill:#4c72b0;fill-opacity:1;fill-rule:nonzero;stroke:none"
                         id="path4836"
                         inkscape:connector-curvature="0" /></g></g></g></g></g></g></g></g></g><g
       id="g4838" /><g
       id="g4840"><g
         id="g4842"
         clip-path="url(#clipPath4846)"><g
           id="g4848"
           transform="translate(144.15119,127.38507)"><g
             id="g4850"><g
               id="g4852"
               clip-path="url(#clipPath4856)"><path
                 d="m 0,-2.5 c 0.663008,0 1.29895,0.263416 1.767767,0.732233 C 2.236584,-1.29895 2.5,-0.663008 2.5,0 2.5,0.663008 2.236584,1.29895 1.767767,1.767767 1.29895,2.236584 0.663008,2.5 0,2.5 -0.663008,2.5 -1.29895,2.236584 -1.767767,1.767767 -2.236584,1.29895 -2.5,0.663008 -2.5,0 c 0,-0.663008 0.263416,-1.29895 0.732233,-1.767767 C -1.29895,-2.236584 -0.663008,-2.5 0,-2.5 Z"
                 style="fill:#55a868;fill-opacity:1;fill-rule:nonzero;stroke:none"
                 id="path4858"
                 inkscape:connector-curvature="0" /></g></g><g
             id="g4860"
             transform="translate(0,5.4063604)"><g
               id="g4862"><g
                 id="g4864"
                 clip-path="url(#clipPath4868)"><path
                   d="m 0,-2.5 c 0.663008,0 1.29895,0.263416 1.767767,0.732233 C 2.236584,-1.29895 2.5,-0.663008 2.5,0 2.5,0.663008 2.236584,1.29895 1.767767,1.767767 1.29895,2.236584 0.663008,2.5 0,2.5 -0.663008,2.5 -1.29895,2.236584 -1.767767,1.767767 -2.236584,1.29895 -2.5,0.663008 -2.5,0 c 0,-0.663008 0.263416,-1.29895 0.732233,-1.767767 C -1.29895,-2.236584 -0.663008,-2.5 0,-2.5 Z"
                   style="fill:#55a868;fill-opacity:1;fill-rule:nonzero;stroke:none"
                   id="path4870"
                   inkscape:connector-curvature="0" /></g></g><g
               id="g4872"
               transform="translate(0,10.545845)"><g
                 id="g4874"><g
                   id="g4876"
                   clip-path="url(#clipPath4880)"><path
                     d="m 0,-2.5 c 0.663008,0 1.29895,0.263416 1.767767,0.732233 C 2.236584,-1.29895 2.5,-0.663008 2.5,0 2.5,0.663008 2.236584,1.29895 1.767767,1.767767 1.29895,2.236584 0.663008,2.5 0,2.5 -0.663008,2.5 -1.29895,2.236584 -1.767767,1.767767 -2.236584,1.29895 -2.5,0.663008 -2.5,0 c 0,-0.663008 0.263416,-1.29895 0.732233,-1.767767 C -1.29895,-2.236584 -0.663008,-2.5 0,-2.5 Z"
                     style="fill:#55a868;fill-opacity:1;fill-rule:nonzero;stroke:none"
                     id="path4882"
                     inkscape:connector-curvature="0" /></g></g><g
                 id="g4884"
                 transform="translate(0,14.369163)"><g
                   id="g4886"><g
                     id="g4888"
                     clip-path="url(#clipPath4892)"><path
                       d="m 0,-2.5 c 0.663008,0 1.29895,0.263416 1.767767,0.732233 C 2.236584,-1.29895 2.5,-0.663008 2.5,0 2.5,0.663008 2.236584,1.29895 1.767767,1.767767 1.29895,2.236584 0.663008,2.5 0,2.5 -0.663008,2.5 -1.29895,2.236584 -1.767767,1.767767 -2.236584,1.29895 -2.5,0.663008 -2.5,0 c 0,-0.663008 0.263416,-1.29895 0.732233,-1.767767 C -1.29895,-2.236584 -0.663008,-2.5 0,-2.5 Z"
                       style="fill:#55a868;fill-opacity:1;fill-rule:nonzero;stroke:none"
                       id="path4894"
                       inkscape:connector-curvature="0" /></g></g><g
                   id="g4896"
                   transform="translate(-1.9964991,4.5523567)"><g
                     id="g4898"><g
                       id="g4900"
                       clip-path="url(#clipPath4904)"><path
                         d="m 0,-2.5 c 0.663008,0 1.29895,0.263416 1.767767,0.732233 C 2.236584,-1.29895 2.5,-0.663008 2.5,0 2.5,0.663008 2.236584,1.29895 1.767767,1.767767 1.29895,2.236584 0.663008,2.5 0,2.5 -0.663008,2.5 -1.29895,2.236584 -1.767767,1.767767 -2.236584,1.29895 -2.5,0.663008 -2.5,0 c 0,-0.663008 0.263416,-1.29895 0.732233,-1.767767 C -1.29895,-2.236584 -0.663008,-2.5 0,-2.5 Z"
                         style="fill:#55a868;fill-opacity:1;fill-rule:nonzero;stroke:none"
                         id="path4906"
                         inkscape:connector-curvature="0" /></g></g></g></g></g></g></g></g></g><g
       id="g4908" /><g
       id="g4910"><g
         id="g4912"
         clip-path="url(#clipPath4916)"><g
           id="g4918"
           transform="translate(198.44531,96.923702)"><g
             id="g4920"><g
               id="g4922"
               clip-path="url(#clipPath4926)"><path
                 d="m 0,-2.5 c 0.663008,0 1.29895,0.263416 1.767767,0.732233 C 2.236584,-1.29895 2.5,-0.663008 2.5,0 2.5,0.663008 2.236584,1.29895 1.767767,1.767767 1.29895,2.236584 0.663008,2.5 0,2.5 -0.663008,2.5 -1.29895,2.236584 -1.767767,1.767767 -2.236584,1.29895 -2.5,0.663008 -2.5,0 c 0,-0.663008 0.263416,-1.29895 0.732233,-1.767767 C -1.29895,-2.236584 -0.663008,-2.5 0,-2.5 Z"
                 style="fill:#c44e52;fill-opacity:1;fill-rule:nonzero;stroke:none"
                 id="path4928"
                 inkscape:connector-curvature="0" /></g></g><g
             id="g4930"
             transform="translate(0,11.275518)"><g
               id="g4932"><g
                 id="g4934"
                 clip-path="url(#clipPath4938)"><path
                   d="m 0,-2.5 c 0.663008,0 1.29895,0.263416 1.767767,0.732233 C 2.236584,-1.29895 2.5,-0.663008 2.5,0 2.5,0.663008 2.236584,1.29895 1.767767,1.767767 1.29895,2.236584 0.663008,2.5 0,2.5 -0.663008,2.5 -1.29895,2.236584 -1.767767,1.767767 -2.236584,1.29895 -2.5,0.663008 -2.5,0 c 0,-0.663008 0.263416,-1.29895 0.732233,-1.767767 C -1.29895,-2.236584 -0.663008,-2.5 0,-2.5 Z"
                   style="fill:#c44e52;fill-opacity:1;fill-rule:nonzero;stroke:none"
                   id="path4940"
                   inkscape:connector-curvature="0" /></g></g><g
               id="g4942"
               transform="translate(0,13.779706)"><g
                 id="g4944"><g
                   id="g4946"
                   clip-path="url(#clipPath4950)"><path
                     d="m 0,-2.5 c 0.663008,0 1.29895,0.263416 1.767767,0.732233 C 2.236584,-1.29895 2.5,-0.663008 2.5,0 2.5,0.663008 2.236584,1.29895 1.767767,1.767767 1.29895,2.236584 0.663008,2.5 0,2.5 -0.663008,2.5 -1.29895,2.236584 -1.767767,1.767767 -2.236584,1.29895 -2.5,0.663008 -2.5,0 c 0,-0.663008 0.263416,-1.29895 0.732233,-1.767767 C -1.29895,-2.236584 -0.663008,-2.5 0,-2.5 Z"
                     style="fill:#c44e52;fill-opacity:1;fill-rule:nonzero;stroke:none"
                     id="path4952"
                     inkscape:connector-curvature="0" /></g></g><g
                 id="g4954"
                 transform="translate(0,22.013471)"><g
                   id="g4956"><g
                     id="g4958"
                     clip-path="url(#clipPath4962)"><path
                       d="m 0,-2.5 c 0.663008,0 1.29895,0.263416 1.767767,0.732233 C 2.236584,-1.29895 2.5,-0.663008 2.5,0 2.5,0.663008 2.236584,1.29895 1.767767,1.767767 1.29895,2.236584 0.663008,2.5 0,2.5 -0.663008,2.5 -1.29895,2.236584 -1.767767,1.767767 -2.236584,1.29895 -2.5,0.663008 -2.5,0 c 0,-0.663008 0.263416,-1.29895 0.732233,-1.767767 C -1.29895,-2.236584 -0.663008,-2.5 0,-2.5 Z"
                       style="fill:#c44e52;fill-opacity:1;fill-rule:nonzero;stroke:none"
                       id="path4964"
                       inkscape:connector-curvature="0" /></g></g><g
                   id="g4966"
                   transform="translate(0,27.622318)"><g
                     id="g4968"><g
                       id="g4970"
                       clip-path="url(#clipPath4974)"><path
                         d="m 0,-2.5 c 0.663008,0 1.29895,0.263416 1.767767,0.732233 C 2.236584,-1.29895 2.5,-0.663008 2.5,0 2.5,0.663008 2.236584,1.29895 1.767767,1.767767 1.29895,2.236584 0.663008,2.5 0,2.5 -0.663008,2.5 -1.29895,2.236584 -1.767767,1.767767 -2.236584,1.29895 -2.5,0.663008 -2.5,0 c 0,-0.663008 0.263416,-1.29895 0.732233,-1.767767 C -1.29895,-2.236584 -0.663008,-2.5 0,-2.5 Z"
                         style="fill:#c44e52;fill-opacity:1;fill-rule:nonzero;stroke:none"
                         id="path4976"
                         inkscape:connector-curvature="0" /></g></g></g></g></g></g></g></g></g><g
       id="g4978" /><g
       id="g4980"><g
         id="g4982"
         clip-path="url(#clipPath4986)"><g
           id="g4988"
           transform="translate(252.73944,200.87663)"><g
             id="g4990"><g
               id="g4992"
               clip-path="url(#clipPath4996)"><path
                 d="m 0,-2.5 c 0.663008,0 1.29895,0.263416 1.767767,0.732233 C 2.236584,-1.29895 2.5,-0.663008 2.5,0 2.5,0.663008 2.236584,1.29895 1.767767,1.767767 1.29895,2.236584 0.663008,2.5 0,2.5 -0.663008,2.5 -1.29895,2.236584 -1.767767,1.767767 -2.236584,1.29895 -2.5,0.663008 -2.5,0 c 0,-0.663008 0.263416,-1.29895 0.732233,-1.767767 C -1.29895,-2.236584 -0.663008,-2.5 0,-2.5 Z"
                 style="fill:#8172b2;fill-opacity:1;fill-rule:nonzero;stroke:none"
                 id="path4998"
                 inkscape:connector-curvature="0" /></g></g><g
             id="g5000"
             transform="translate(0,9.8072754)"><g
               id="g5002"><g
                 id="g5004"
                 clip-path="url(#clipPath5008)"><path
                   d="m 0,-2.5 c 0.663008,0 1.29895,0.263416 1.767767,0.732233 C 2.236584,-1.29895 2.5,-0.663008 2.5,0 2.5,0.663008 2.236584,1.29895 1.767767,1.767767 1.29895,2.236584 0.663008,2.5 0,2.5 -0.663008,2.5 -1.29895,2.236584 -1.767767,1.767767 -2.236584,1.29895 -2.5,0.663008 -2.5,0 c 0,-0.663008 0.263416,-1.29895 0.732233,-1.767767 C -1.29895,-2.236584 -0.663008,-2.5 0,-2.5 Z"
                   style="fill:#8172b2;fill-opacity:1;fill-rule:nonzero;stroke:none"
                   id="path5010"
                   inkscape:connector-curvature="0" /></g></g><g
               id="g5012"
               transform="translate(0,10.837502)"><g
                 id="g5014"><g
                   id="g5016"
                   clip-path="url(#clipPath5020)"><path
                     d="m 0,-2.5 c 0.663008,0 1.29895,0.263416 1.767767,0.732233 C 2.236584,-1.29895 2.5,-0.663008 2.5,0 2.5,0.663008 2.236584,1.29895 1.767767,1.767767 1.29895,2.236584 0.663008,2.5 0,2.5 -0.663008,2.5 -1.29895,2.236584 -1.767767,1.767767 -2.236584,1.29895 -2.5,0.663008 -2.5,0 c 0,-0.663008 0.263416,-1.29895 0.732233,-1.767767 C -1.29895,-2.236584 -0.663008,-2.5 0,-2.5 Z"
                     style="fill:#8172b2;fill-opacity:1;fill-rule:nonzero;stroke:none"
                     id="path5022"
                     inkscape:connector-curvature="0" /></g></g><g
                 id="g5024"
                 transform="translate(-4.7658245,1.7804453)"><g
                   id="g5026"><g
                     id="g5028"
                     clip-path="url(#clipPath5032)"><path
                       d="m 0,-2.5 c 0.663008,0 1.29895,0.263416 1.767767,0.732233 C 2.236584,-1.29895 2.5,-0.663008 2.5,0 2.5,0.663008 2.236584,1.29895 1.767767,1.767767 1.29895,2.236584 0.663008,2.5 0,2.5 -0.663008,2.5 -1.29895,2.236584 -1.767767,1.767767 -2.236584,1.29895 -2.5,0.663008 -2.5,0 c 0,-0.663008 0.263416,-1.29895 0.732233,-1.767767 C -1.29895,-2.236584 -0.663008,-2.5 0,-2.5 Z"
                       style="fill:#8172b2;fill-opacity:1;fill-rule:nonzero;stroke:none"
                       id="path5034"
                       inkscape:connector-curvature="0" /></g></g><g
                   id="g5036"
                   transform="translate(4.7658245,8.5355893)"><g
                     id="g5038"><g
                       id="g5040"
                       clip-path="url(#clipPath5044)"><path
                         d="m 0,-2.5 c 0.663008,0 1.29895,0.263416 1.767767,0.732233 C 2.236584,-1.29895 2.5,-0.663008 2.5,0 2.5,0.663008 2.236584,1.29895 1.767767,1.767767 1.29895,2.236584 0.663008,2.5 0,2.5 -0.663008,2.5 -1.29895,2.236584 -1.767767,1.767767 -2.236584,1.29895 -2.5,0.663008 -2.5,0 c 0,-0.663008 0.263416,-1.29895 0.732233,-1.767767 C -1.29895,-2.236584 -0.663008,-2.5 0,-2.5 Z"
                         style="fill:#8172b2;fill-opacity:1;fill-rule:nonzero;stroke:none"
                         id="path5046"
                         inkscape:connector-curvature="0" /></g></g></g></g></g></g></g></g></g><g
       id="g5048" /><g
       id="g5050"><g
         id="g5052"
         clip-path="url(#clipPath5056)"><g
           id="g5058"
           transform="translate(307.03356,164.24131)"><g
             id="g5060"><g
               id="g5062"
               clip-path="url(#clipPath5066)"><path
                 d="m 0,-2.5 c 0.663008,0 1.29895,0.263416 1.767767,0.732233 C 2.236584,-1.29895 2.5,-0.663008 2.5,0 2.5,0.663008 2.236584,1.29895 1.767767,1.767767 1.29895,2.236584 0.663008,2.5 0,2.5 -0.663008,2.5 -1.29895,2.236584 -1.767767,1.767767 -2.236584,1.29895 -2.5,0.663008 -2.5,0 c 0,-0.663008 0.263416,-1.29895 0.732233,-1.767767 C -1.29895,-2.236584 -0.663008,-2.5 0,-2.5 Z"
                 style="fill:#ccb974;fill-opacity:1;fill-rule:nonzero;stroke:none"
                 id="path5068"
                 inkscape:connector-curvature="0" /></g></g><g
             id="g5070"
             transform="translate(-5.0618606,0.66549596)"><g
               id="g5072"><g
                 id="g5074"
                 clip-path="url(#clipPath5078)"><path
                   d="m 0,-2.5 c 0.663008,0 1.29895,0.263416 1.767767,0.732233 C 2.236584,-1.29895 2.5,-0.663008 2.5,0 2.5,0.663008 2.236584,1.29895 1.767767,1.767767 1.29895,2.236584 0.663008,2.5 0,2.5 -0.663008,2.5 -1.29895,2.236584 -1.767767,1.767767 -2.236584,1.29895 -2.5,0.663008 -2.5,0 c 0,-0.663008 0.263416,-1.29895 0.732233,-1.767767 C -1.29895,-2.236584 -0.663008,-2.5 0,-2.5 Z"
                   style="fill:#ccb974;fill-opacity:1;fill-rule:nonzero;stroke:none"
                   id="path5080"
                   inkscape:connector-curvature="0" /></g></g><g
               id="g5082"
               transform="translate(9.4716541,1.8309315)"><g
                 id="g5084"><g
                   id="g5086"
                   clip-path="url(#clipPath5090)"><path
                     d="m 0,-2.5 c 0.663008,0 1.29895,0.263416 1.767767,0.732233 C 2.236584,-1.29895 2.5,-0.663008 2.5,0 2.5,0.663008 2.236584,1.29895 1.767767,1.767767 1.29895,2.236584 0.663008,2.5 0,2.5 -0.663008,2.5 -1.29895,2.236584 -1.767767,1.767767 -2.236584,1.29895 -2.5,0.663008 -2.5,0 c 0,-0.663008 0.263416,-1.29895 0.732233,-1.767767 C -1.29895,-2.236584 -0.663008,-2.5 0,-2.5 Z"
                     style="fill:#ccb974;fill-opacity:1;fill-rule:nonzero;stroke:none"
                     id="path5092"
                     inkscape:connector-curvature="0" /></g></g><g
                 id="g5094"
                 transform="translate(-4.4097935,27.986973)"><g
                   id="g5096"><g
                     id="g5098"
                     clip-path="url(#clipPath5102)"><path
                       d="m 0,-2.5 c 0.663008,0 1.29895,0.263416 1.767767,0.732233 C 2.236584,-1.29895 2.5,-0.663008 2.5,0 2.5,0.663008 2.236584,1.29895 1.767767,1.767767 1.29895,2.236584 0.663008,2.5 0,2.5 -0.663008,2.5 -1.29895,2.236584 -1.767767,1.767767 -2.236584,1.29895 -2.5,0.663008 -2.5,0 c 0,-0.663008 0.263416,-1.29895 0.732233,-1.767767 C -1.29895,-2.236584 -0.663008,-2.5 0,-2.5 Z"
                       style="fill:#ccb974;fill-opacity:1;fill-rule:nonzero;stroke:none"
                       id="path5104"
                       inkscape:connector-curvature="0" /></g></g><g
                   id="g5106"
                   transform="translate(-3.7054939,3.4043655)"><g
                     id="g5108"><g
                       id="g5110"
                       clip-path="url(#clipPath5114)"><path
                         d="m 0,-2.5 c 0.663008,0 1.29895,0.263416 1.767767,0.732233 C 2.236584,-1.29895 2.5,-0.663008 2.5,0 2.5,0.663008 2.236584,1.29895 1.767767,1.767767 1.29895,2.236584 0.663008,2.5 0,2.5 -0.663008,2.5 -1.29895,2.236584 -1.767767,1.767767 -2.236584,1.29895 -2.5,0.663008 -2.5,0 c 0,-0.663008 0.263416,-1.29895 0.732233,-1.767767 C -1.29895,-2.236584 -0.663008,-2.5 0,-2.5 Z"
                         style="fill:#ccb974;fill-opacity:1;fill-rule:nonzero;stroke:none"
                         id="path5116"
                         inkscape:connector-curvature="0" /></g></g></g></g></g></g></g></g></g><text
       transform="scale(1,-1)"
       style="font-variant:normal;font-weight:normal;font-size:12px;font-family:'DejaVu Sans';-inkscape-font-specification:DejaVuSans;writing-mode:lr-tb;fill:#262626;fill-opacity:1;fill-rule:nonzero;stroke:none"
       id="text5120"
       x="75.234375"
       y="-265.04001"><tspan
         sodipodi:role="line"
         id="tspan5118"
         style="font-style:normal;font-variant:normal;font-weight:normal;font-stretch:normal;font-size:11px;font-family:'Latin Modern Roman';-inkscape-font-specification:'Latin Modern Roman, '"
         x="75.234375"
         y="-265.04001">Comparing the Top 5 of 30 of pretraining amounts</tspan></text>
</g></svg>