<?xml version="1.0" encoding="utf-8" standalone="no"?>
<!DOCTYPE svg PUBLIC "-//W3C//DTD SVG 1.1//EN"
  "http://www.w3.org/Graphics/SVG/1.1/DTD/svg11.dtd">
<!-- Created with matplotlib (http://matplotlib.org/) -->
<svg height="216pt" version="1.1" viewBox="0 0 432 216" width="432pt" xmlns="http://www.w3.org/2000/svg" xmlns:xlink="http://www.w3.org/1999/xlink">
 <defs>
  <style type="text/css">
*{stroke-linecap:butt;stroke-linejoin:round;}
  </style>
 </defs>
 <g id="figure_1">
  <g id="patch_1">
   <path d="M 0 216 
L 432 216 
L 432 0 
L 0 0 
z
" style="fill:#ffffff;"/>
  </g>
  <g id="axes_1">
   <g id="patch_2">
    <path d="M 56.335 171.13375 
L 419.04 171.13375 
L 419.04 28.96 
L 56.335 28.96 
z
" style="fill:#eaeaf2;"/>
   </g>
   <g id="matplotlib.axis_1">
    <g id="xtick_1">
     <g id="line2d_1">
      <path clip-path="url(#p380a97c568)" d="M 67.221652 171.13375 
L 67.221652 28.96 
" style="fill:none;stroke:#ffffff;stroke-linecap:round;"/>
     </g>
     <g id="line2d_2"/>
     <g id="text_1">
      <!-- 0 -->
      <defs>
       <path d="M 31.78125 66.40625 
Q 24.171875 66.40625 20.328125 58.90625 
Q 16.5 51.421875 16.5 36.375 
Q 16.5 21.390625 20.328125 13.890625 
Q 24.171875 6.390625 31.78125 6.390625 
Q 39.453125 6.390625 43.28125 13.890625 
Q 47.125 21.390625 47.125 36.375 
Q 47.125 51.421875 43.28125 58.90625 
Q 39.453125 66.40625 31.78125 66.40625 
z
M 31.78125 74.21875 
Q 44.046875 74.21875 50.515625 64.515625 
Q 56.984375 54.828125 56.984375 36.375 
Q 56.984375 17.96875 50.515625 8.265625 
Q 44.046875 -1.421875 31.78125 -1.421875 
Q 19.53125 -1.421875 13.0625 8.265625 
Q 6.59375 17.96875 6.59375 36.375 
Q 6.59375 54.828125 13.0625 64.515625 
Q 19.53125 74.21875 31.78125 74.21875 
z
" id="DejaVuSans-30"/>
      </defs>
      <g style="fill:#262626;" transform="translate(64.040402 185.732188)scale(0.1 -0.1)">
       <use xlink:href="#DejaVuSans-30"/>
      </g>
     </g>
    </g>
    <g id="xtick_2">
     <g id="line2d_3">
      <path clip-path="url(#p380a97c568)" d="M 123.295944 171.13375 
L 123.295944 28.96 
" style="fill:none;stroke:#ffffff;stroke-linecap:round;"/>
     </g>
     <g id="line2d_4"/>
     <g id="text_2">
      <!-- 50 -->
      <defs>
       <path d="M 10.796875 72.90625 
L 49.515625 72.90625 
L 49.515625 64.59375 
L 19.828125 64.59375 
L 19.828125 46.734375 
Q 21.96875 47.46875 24.109375 47.828125 
Q 26.265625 48.1875 28.421875 48.1875 
Q 40.625 48.1875 47.75 41.5 
Q 54.890625 34.8125 54.890625 23.390625 
Q 54.890625 11.625 47.5625 5.09375 
Q 40.234375 -1.421875 26.90625 -1.421875 
Q 22.3125 -1.421875 17.546875 -0.640625 
Q 12.796875 0.140625 7.71875 1.703125 
L 7.71875 11.625 
Q 12.109375 9.234375 16.796875 8.0625 
Q 21.484375 6.890625 26.703125 6.890625 
Q 35.15625 6.890625 40.078125 11.328125 
Q 45.015625 15.765625 45.015625 23.390625 
Q 45.015625 31 40.078125 35.4375 
Q 35.15625 39.890625 26.703125 39.890625 
Q 22.75 39.890625 18.8125 39.015625 
Q 14.890625 38.140625 10.796875 36.28125 
z
" id="DejaVuSans-35"/>
      </defs>
      <g style="fill:#262626;" transform="translate(116.933444 185.732188)scale(0.1 -0.1)">
       <use xlink:href="#DejaVuSans-35"/>
       <use x="63.623047" xlink:href="#DejaVuSans-30"/>
      </g>
     </g>
    </g>
    <g id="xtick_3">
     <g id="line2d_5">
      <path clip-path="url(#p380a97c568)" d="M 179.370236 171.13375 
L 179.370236 28.96 
" style="fill:none;stroke:#ffffff;stroke-linecap:round;"/>
     </g>
     <g id="line2d_6"/>
     <g id="text_3">
      <!-- 100 -->
      <defs>
       <path d="M 12.40625 8.296875 
L 28.515625 8.296875 
L 28.515625 63.921875 
L 10.984375 60.40625 
L 10.984375 69.390625 
L 28.421875 72.90625 
L 38.28125 72.90625 
L 38.28125 8.296875 
L 54.390625 8.296875 
L 54.390625 0 
L 12.40625 0 
z
" id="DejaVuSans-31"/>
      </defs>
      <g style="fill:#262626;" transform="translate(169.826486 185.732188)scale(0.1 -0.1)">
       <use xlink:href="#DejaVuSans-31"/>
       <use x="63.623047" xlink:href="#DejaVuSans-30"/>
       <use x="127.246094" xlink:href="#DejaVuSans-30"/>
      </g>
     </g>
    </g>
    <g id="xtick_4">
     <g id="line2d_7">
      <path clip-path="url(#p380a97c568)" d="M 235.444528 171.13375 
L 235.444528 28.96 
" style="fill:none;stroke:#ffffff;stroke-linecap:round;"/>
     </g>
     <g id="line2d_8"/>
     <g id="text_4">
      <!-- 150 -->
      <g style="fill:#262626;" transform="translate(225.900778 185.732188)scale(0.1 -0.1)">
       <use xlink:href="#DejaVuSans-31"/>
       <use x="63.623047" xlink:href="#DejaVuSans-35"/>
       <use x="127.246094" xlink:href="#DejaVuSans-30"/>
      </g>
     </g>
    </g>
    <g id="xtick_5">
     <g id="line2d_9">
      <path clip-path="url(#p380a97c568)" d="M 291.51882 171.13375 
L 291.51882 28.96 
" style="fill:none;stroke:#ffffff;stroke-linecap:round;"/>
     </g>
     <g id="line2d_10"/>
     <g id="text_5">
      <!-- 200 -->
      <defs>
       <path d="M 19.1875 8.296875 
L 53.609375 8.296875 
L 53.609375 0 
L 7.328125 0 
L 7.328125 8.296875 
Q 12.9375 14.109375 22.625 23.890625 
Q 32.328125 33.6875 34.8125 36.53125 
Q 39.546875 41.84375 41.421875 45.53125 
Q 43.3125 49.21875 43.3125 52.78125 
Q 43.3125 58.59375 39.234375 62.25 
Q 35.15625 65.921875 28.609375 65.921875 
Q 23.96875 65.921875 18.8125 64.3125 
Q 13.671875 62.703125 7.8125 59.421875 
L 7.8125 69.390625 
Q 13.765625 71.78125 18.9375 73 
Q 24.125 74.21875 28.421875 74.21875 
Q 39.75 74.21875 46.484375 68.546875 
Q 53.21875 62.890625 53.21875 53.421875 
Q 53.21875 48.921875 51.53125 44.890625 
Q 49.859375 40.875 45.40625 35.40625 
Q 44.1875 33.984375 37.640625 27.21875 
Q 31.109375 20.453125 19.1875 8.296875 
z
" id="DejaVuSans-32"/>
      </defs>
      <g style="fill:#262626;" transform="translate(281.97507 185.732188)scale(0.1 -0.1)">
       <use xlink:href="#DejaVuSans-32"/>
       <use x="63.623047" xlink:href="#DejaVuSans-30"/>
       <use x="127.246094" xlink:href="#DejaVuSans-30"/>
      </g>
     </g>
    </g>
    <g id="xtick_6">
     <g id="line2d_11">
      <path clip-path="url(#p380a97c568)" d="M 347.593113 171.13375 
L 347.593113 28.96 
" style="fill:none;stroke:#ffffff;stroke-linecap:round;"/>
     </g>
     <g id="line2d_12"/>
     <g id="text_6">
      <!-- 250 -->
      <g style="fill:#262626;" transform="translate(338.049363 185.732188)scale(0.1 -0.1)">
       <use xlink:href="#DejaVuSans-32"/>
       <use x="63.623047" xlink:href="#DejaVuSans-35"/>
       <use x="127.246094" xlink:href="#DejaVuSans-30"/>
      </g>
     </g>
    </g>
    <g id="xtick_7">
     <g id="line2d_13">
      <path clip-path="url(#p380a97c568)" d="M 403.667405 171.13375 
L 403.667405 28.96 
" style="fill:none;stroke:#ffffff;stroke-linecap:round;"/>
     </g>
     <g id="line2d_14"/>
     <g id="text_7">
      <!-- 300 -->
      <defs>
       <path d="M 40.578125 39.3125 
Q 47.65625 37.796875 51.625 33 
Q 55.609375 28.21875 55.609375 21.1875 
Q 55.609375 10.40625 48.1875 4.484375 
Q 40.765625 -1.421875 27.09375 -1.421875 
Q 22.515625 -1.421875 17.65625 -0.515625 
Q 12.796875 0.390625 7.625 2.203125 
L 7.625 11.71875 
Q 11.71875 9.328125 16.59375 8.109375 
Q 21.484375 6.890625 26.8125 6.890625 
Q 36.078125 6.890625 40.9375 10.546875 
Q 45.796875 14.203125 45.796875 21.1875 
Q 45.796875 27.640625 41.28125 31.265625 
Q 36.765625 34.90625 28.71875 34.90625 
L 20.21875 34.90625 
L 20.21875 43.015625 
L 29.109375 43.015625 
Q 36.375 43.015625 40.234375 45.921875 
Q 44.09375 48.828125 44.09375 54.296875 
Q 44.09375 59.90625 40.109375 62.90625 
Q 36.140625 65.921875 28.71875 65.921875 
Q 24.65625 65.921875 20.015625 65.03125 
Q 15.375 64.15625 9.8125 62.3125 
L 9.8125 71.09375 
Q 15.4375 72.65625 20.34375 73.4375 
Q 25.25 74.21875 29.59375 74.21875 
Q 40.828125 74.21875 47.359375 69.109375 
Q 53.90625 64.015625 53.90625 55.328125 
Q 53.90625 49.265625 50.4375 45.09375 
Q 46.96875 40.921875 40.578125 39.3125 
z
" id="DejaVuSans-33"/>
      </defs>
      <g style="fill:#262626;" transform="translate(394.123655 185.732188)scale(0.1 -0.1)">
       <use xlink:href="#DejaVuSans-33"/>
       <use x="63.623047" xlink:href="#DejaVuSans-30"/>
       <use x="127.246094" xlink:href="#DejaVuSans-30"/>
      </g>
     </g>
    </g>
    <g id="text_8">
     <!-- Hidden_Nodes -->
     <defs>
      <path d="M 9.8125 72.90625 
L 19.671875 72.90625 
L 19.671875 43.015625 
L 55.515625 43.015625 
L 55.515625 72.90625 
L 65.375 72.90625 
L 65.375 0 
L 55.515625 0 
L 55.515625 34.71875 
L 19.671875 34.71875 
L 19.671875 0 
L 9.8125 0 
z
" id="DejaVuSans-48"/>
      <path d="M 9.421875 54.6875 
L 18.40625 54.6875 
L 18.40625 0 
L 9.421875 0 
z
M 9.421875 75.984375 
L 18.40625 75.984375 
L 18.40625 64.59375 
L 9.421875 64.59375 
z
" id="DejaVuSans-69"/>
      <path d="M 45.40625 46.390625 
L 45.40625 75.984375 
L 54.390625 75.984375 
L 54.390625 0 
L 45.40625 0 
L 45.40625 8.203125 
Q 42.578125 3.328125 38.25 0.953125 
Q 33.9375 -1.421875 27.875 -1.421875 
Q 17.96875 -1.421875 11.734375 6.484375 
Q 5.515625 14.40625 5.515625 27.296875 
Q 5.515625 40.1875 11.734375 48.09375 
Q 17.96875 56 27.875 56 
Q 33.9375 56 38.25 53.625 
Q 42.578125 51.265625 45.40625 46.390625 
z
M 14.796875 27.296875 
Q 14.796875 17.390625 18.875 11.75 
Q 22.953125 6.109375 30.078125 6.109375 
Q 37.203125 6.109375 41.296875 11.75 
Q 45.40625 17.390625 45.40625 27.296875 
Q 45.40625 37.203125 41.296875 42.84375 
Q 37.203125 48.484375 30.078125 48.484375 
Q 22.953125 48.484375 18.875 42.84375 
Q 14.796875 37.203125 14.796875 27.296875 
z
" id="DejaVuSans-64"/>
      <path d="M 56.203125 29.59375 
L 56.203125 25.203125 
L 14.890625 25.203125 
Q 15.484375 15.921875 20.484375 11.0625 
Q 25.484375 6.203125 34.421875 6.203125 
Q 39.59375 6.203125 44.453125 7.46875 
Q 49.3125 8.734375 54.109375 11.28125 
L 54.109375 2.78125 
Q 49.265625 0.734375 44.1875 -0.34375 
Q 39.109375 -1.421875 33.890625 -1.421875 
Q 20.796875 -1.421875 13.15625 6.1875 
Q 5.515625 13.8125 5.515625 26.8125 
Q 5.515625 40.234375 12.765625 48.109375 
Q 20.015625 56 32.328125 56 
Q 43.359375 56 49.78125 48.890625 
Q 56.203125 41.796875 56.203125 29.59375 
z
M 47.21875 32.234375 
Q 47.125 39.59375 43.09375 43.984375 
Q 39.0625 48.390625 32.421875 48.390625 
Q 24.90625 48.390625 20.390625 44.140625 
Q 15.875 39.890625 15.1875 32.171875 
z
" id="DejaVuSans-65"/>
      <path d="M 54.890625 33.015625 
L 54.890625 0 
L 45.90625 0 
L 45.90625 32.71875 
Q 45.90625 40.484375 42.875 44.328125 
Q 39.84375 48.1875 33.796875 48.1875 
Q 26.515625 48.1875 22.3125 43.546875 
Q 18.109375 38.921875 18.109375 30.90625 
L 18.109375 0 
L 9.078125 0 
L 9.078125 54.6875 
L 18.109375 54.6875 
L 18.109375 46.1875 
Q 21.34375 51.125 25.703125 53.5625 
Q 30.078125 56 35.796875 56 
Q 45.21875 56 50.046875 50.171875 
Q 54.890625 44.34375 54.890625 33.015625 
z
" id="DejaVuSans-6e"/>
      <path d="M 50.984375 -16.609375 
L 50.984375 -23.578125 
L -0.984375 -23.578125 
L -0.984375 -16.609375 
z
" id="DejaVuSans-5f"/>
      <path d="M 9.8125 72.90625 
L 23.09375 72.90625 
L 55.421875 11.921875 
L 55.421875 72.90625 
L 64.984375 72.90625 
L 64.984375 0 
L 51.703125 0 
L 19.390625 60.984375 
L 19.390625 0 
L 9.8125 0 
z
" id="DejaVuSans-4e"/>
      <path d="M 30.609375 48.390625 
Q 23.390625 48.390625 19.1875 42.75 
Q 14.984375 37.109375 14.984375 27.296875 
Q 14.984375 17.484375 19.15625 11.84375 
Q 23.34375 6.203125 30.609375 6.203125 
Q 37.796875 6.203125 41.984375 11.859375 
Q 46.1875 17.53125 46.1875 27.296875 
Q 46.1875 37.015625 41.984375 42.703125 
Q 37.796875 48.390625 30.609375 48.390625 
z
M 30.609375 56 
Q 42.328125 56 49.015625 48.375 
Q 55.71875 40.765625 55.71875 27.296875 
Q 55.71875 13.875 49.015625 6.21875 
Q 42.328125 -1.421875 30.609375 -1.421875 
Q 18.84375 -1.421875 12.171875 6.21875 
Q 5.515625 13.875 5.515625 27.296875 
Q 5.515625 40.765625 12.171875 48.375 
Q 18.84375 56 30.609375 56 
z
" id="DejaVuSans-6f"/>
      <path d="M 44.28125 53.078125 
L 44.28125 44.578125 
Q 40.484375 46.53125 36.375 47.5 
Q 32.28125 48.484375 27.875 48.484375 
Q 21.1875 48.484375 17.84375 46.4375 
Q 14.5 44.390625 14.5 40.28125 
Q 14.5 37.15625 16.890625 35.375 
Q 19.28125 33.59375 26.515625 31.984375 
L 29.59375 31.296875 
Q 39.15625 29.25 43.1875 25.515625 
Q 47.21875 21.78125 47.21875 15.09375 
Q 47.21875 7.46875 41.1875 3.015625 
Q 35.15625 -1.421875 24.609375 -1.421875 
Q 20.21875 -1.421875 15.453125 -0.5625 
Q 10.6875 0.296875 5.421875 2 
L 5.421875 11.28125 
Q 10.40625 8.6875 15.234375 7.390625 
Q 20.0625 6.109375 24.8125 6.109375 
Q 31.15625 6.109375 34.5625 8.28125 
Q 37.984375 10.453125 37.984375 14.40625 
Q 37.984375 18.0625 35.515625 20.015625 
Q 33.0625 21.96875 24.703125 23.78125 
L 21.578125 24.515625 
Q 13.234375 26.265625 9.515625 29.90625 
Q 5.8125 33.546875 5.8125 39.890625 
Q 5.8125 47.609375 11.28125 51.796875 
Q 16.75 56 26.8125 56 
Q 31.78125 56 36.171875 55.265625 
Q 40.578125 54.546875 44.28125 53.078125 
z
" id="DejaVuSans-73"/>
     </defs>
     <g style="fill:#262626;" transform="translate(198.199219 200.170156)scale(0.11 -0.11)">
      <use xlink:href="#DejaVuSans-48"/>
      <use x="75.195312" xlink:href="#DejaVuSans-69"/>
      <use x="102.978516" xlink:href="#DejaVuSans-64"/>
      <use x="166.455078" xlink:href="#DejaVuSans-64"/>
      <use x="229.931641" xlink:href="#DejaVuSans-65"/>
      <use x="291.455078" xlink:href="#DejaVuSans-6e"/>
      <use x="354.833984" xlink:href="#DejaVuSans-5f"/>
      <use x="404.833984" xlink:href="#DejaVuSans-4e"/>
      <use x="479.638672" xlink:href="#DejaVuSans-6f"/>
      <use x="540.820312" xlink:href="#DejaVuSans-64"/>
      <use x="604.296875" xlink:href="#DejaVuSans-65"/>
      <use x="665.820312" xlink:href="#DejaVuSans-73"/>
     </g>
    </g>
   </g>
   <g id="matplotlib.axis_2">
    <g id="ytick_1">
     <g id="line2d_15">
      <path clip-path="url(#p380a97c568)" d="M 56.335 146.906082 
L 419.04 146.906082 
" style="fill:none;stroke:#ffffff;stroke-linecap:round;"/>
     </g>
     <g id="line2d_16"/>
     <g id="text_9">
      <!-- 0.90 -->
      <defs>
       <path d="M 10.6875 12.40625 
L 21 12.40625 
L 21 0 
L 10.6875 0 
z
" id="DejaVuSans-2e"/>
       <path d="M 10.984375 1.515625 
L 10.984375 10.5 
Q 14.703125 8.734375 18.5 7.8125 
Q 22.3125 6.890625 25.984375 6.890625 
Q 35.75 6.890625 40.890625 13.453125 
Q 46.046875 20.015625 46.78125 33.40625 
Q 43.953125 29.203125 39.59375 26.953125 
Q 35.25 24.703125 29.984375 24.703125 
Q 19.046875 24.703125 12.671875 31.3125 
Q 6.296875 37.9375 6.296875 49.421875 
Q 6.296875 60.640625 12.9375 67.421875 
Q 19.578125 74.21875 30.609375 74.21875 
Q 43.265625 74.21875 49.921875 64.515625 
Q 56.59375 54.828125 56.59375 36.375 
Q 56.59375 19.140625 48.40625 8.859375 
Q 40.234375 -1.421875 26.421875 -1.421875 
Q 22.703125 -1.421875 18.890625 -0.6875 
Q 15.09375 0.046875 10.984375 1.515625 
z
M 30.609375 32.421875 
Q 37.25 32.421875 41.125 36.953125 
Q 45.015625 41.5 45.015625 49.421875 
Q 45.015625 57.28125 41.125 61.84375 
Q 37.25 66.40625 30.609375 66.40625 
Q 23.96875 66.40625 20.09375 61.84375 
Q 16.21875 57.28125 16.21875 49.421875 
Q 16.21875 41.5 20.09375 36.953125 
Q 23.96875 32.421875 30.609375 32.421875 
z
" id="DejaVuSans-39"/>
      </defs>
      <g style="fill:#262626;" transform="translate(27.069375 150.7053)scale(0.1 -0.1)">
       <use xlink:href="#DejaVuSans-30"/>
       <use x="63.623047" xlink:href="#DejaVuSans-2e"/>
       <use x="95.410156" xlink:href="#DejaVuSans-39"/>
       <use x="159.033203" xlink:href="#DejaVuSans-30"/>
      </g>
     </g>
    </g>
    <g id="ytick_2">
     <g id="line2d_17">
      <path clip-path="url(#p380a97c568)" d="M 56.335 114.662769 
L 419.04 114.662769 
" style="fill:none;stroke:#ffffff;stroke-linecap:round;"/>
     </g>
     <g id="line2d_18"/>
     <g id="text_10">
      <!-- 0.92 -->
      <g style="fill:#262626;" transform="translate(27.069375 118.461987)scale(0.1 -0.1)">
       <use xlink:href="#DejaVuSans-30"/>
       <use x="63.623047" xlink:href="#DejaVuSans-2e"/>
       <use x="95.410156" xlink:href="#DejaVuSans-39"/>
       <use x="159.033203" xlink:href="#DejaVuSans-32"/>
      </g>
     </g>
    </g>
    <g id="ytick_3">
     <g id="line2d_19">
      <path clip-path="url(#p380a97c568)" d="M 56.335 82.419456 
L 419.04 82.419456 
" style="fill:none;stroke:#ffffff;stroke-linecap:round;"/>
     </g>
     <g id="line2d_20"/>
     <g id="text_11">
      <!-- 0.94 -->
      <defs>
       <path d="M 37.796875 64.3125 
L 12.890625 25.390625 
L 37.796875 25.390625 
z
M 35.203125 72.90625 
L 47.609375 72.90625 
L 47.609375 25.390625 
L 58.015625 25.390625 
L 58.015625 17.1875 
L 47.609375 17.1875 
L 47.609375 0 
L 37.796875 0 
L 37.796875 17.1875 
L 4.890625 17.1875 
L 4.890625 26.703125 
z
" id="DejaVuSans-34"/>
      </defs>
      <g style="fill:#262626;" transform="translate(27.069375 86.218675)scale(0.1 -0.1)">
       <use xlink:href="#DejaVuSans-30"/>
       <use x="63.623047" xlink:href="#DejaVuSans-2e"/>
       <use x="95.410156" xlink:href="#DejaVuSans-39"/>
       <use x="159.033203" xlink:href="#DejaVuSans-34"/>
      </g>
     </g>
    </g>
    <g id="ytick_4">
     <g id="line2d_21">
      <path clip-path="url(#p380a97c568)" d="M 56.335 50.176143 
L 419.04 50.176143 
" style="fill:none;stroke:#ffffff;stroke-linecap:round;"/>
     </g>
     <g id="line2d_22"/>
     <g id="text_12">
      <!-- 0.96 -->
      <defs>
       <path d="M 33.015625 40.375 
Q 26.375 40.375 22.484375 35.828125 
Q 18.609375 31.296875 18.609375 23.390625 
Q 18.609375 15.53125 22.484375 10.953125 
Q 26.375 6.390625 33.015625 6.390625 
Q 39.65625 6.390625 43.53125 10.953125 
Q 47.40625 15.53125 47.40625 23.390625 
Q 47.40625 31.296875 43.53125 35.828125 
Q 39.65625 40.375 33.015625 40.375 
z
M 52.59375 71.296875 
L 52.59375 62.3125 
Q 48.875 64.0625 45.09375 64.984375 
Q 41.3125 65.921875 37.59375 65.921875 
Q 27.828125 65.921875 22.671875 59.328125 
Q 17.53125 52.734375 16.796875 39.40625 
Q 19.671875 43.65625 24.015625 45.921875 
Q 28.375 48.1875 33.59375 48.1875 
Q 44.578125 48.1875 50.953125 41.515625 
Q 57.328125 34.859375 57.328125 23.390625 
Q 57.328125 12.15625 50.6875 5.359375 
Q 44.046875 -1.421875 33.015625 -1.421875 
Q 20.359375 -1.421875 13.671875 8.265625 
Q 6.984375 17.96875 6.984375 36.375 
Q 6.984375 53.65625 15.1875 63.9375 
Q 23.390625 74.21875 37.203125 74.21875 
Q 40.921875 74.21875 44.703125 73.484375 
Q 48.484375 72.75 52.59375 71.296875 
z
" id="DejaVuSans-36"/>
      </defs>
      <g style="fill:#262626;" transform="translate(27.069375 53.975362)scale(0.1 -0.1)">
       <use xlink:href="#DejaVuSans-30"/>
       <use x="63.623047" xlink:href="#DejaVuSans-2e"/>
       <use x="95.410156" xlink:href="#DejaVuSans-39"/>
       <use x="159.033203" xlink:href="#DejaVuSans-36"/>
      </g>
     </g>
    </g>
    <g id="text_13">
     <!-- Auc -->
     <defs>
      <path d="M 34.1875 63.1875 
L 20.796875 26.90625 
L 47.609375 26.90625 
z
M 28.609375 72.90625 
L 39.796875 72.90625 
L 67.578125 0 
L 57.328125 0 
L 50.6875 18.703125 
L 17.828125 18.703125 
L 11.1875 0 
L 0.78125 0 
z
" id="DejaVuSans-41"/>
      <path d="M 8.5 21.578125 
L 8.5 54.6875 
L 17.484375 54.6875 
L 17.484375 21.921875 
Q 17.484375 14.15625 20.5 10.265625 
Q 23.53125 6.390625 29.59375 6.390625 
Q 36.859375 6.390625 41.078125 11.03125 
Q 45.3125 15.671875 45.3125 23.6875 
L 45.3125 54.6875 
L 54.296875 54.6875 
L 54.296875 0 
L 45.3125 0 
L 45.3125 8.40625 
Q 42.046875 3.421875 37.71875 1 
Q 33.40625 -1.421875 27.6875 -1.421875 
Q 18.265625 -1.421875 13.375 4.4375 
Q 8.5 10.296875 8.5 21.578125 
z
M 31.109375 56 
z
" id="DejaVuSans-75"/>
      <path d="M 48.78125 52.59375 
L 48.78125 44.1875 
Q 44.96875 46.296875 41.140625 47.34375 
Q 37.3125 48.390625 33.40625 48.390625 
Q 24.65625 48.390625 19.8125 42.84375 
Q 14.984375 37.3125 14.984375 27.296875 
Q 14.984375 17.28125 19.8125 11.734375 
Q 24.65625 6.203125 33.40625 6.203125 
Q 37.3125 6.203125 41.140625 7.25 
Q 44.96875 8.296875 48.78125 10.40625 
L 48.78125 2.09375 
Q 45.015625 0.34375 40.984375 -0.53125 
Q 36.96875 -1.421875 32.421875 -1.421875 
Q 20.0625 -1.421875 12.78125 6.34375 
Q 5.515625 14.109375 5.515625 27.296875 
Q 5.515625 40.671875 12.859375 48.328125 
Q 20.21875 56 33.015625 56 
Q 37.15625 56 41.109375 55.140625 
Q 45.0625 54.296875 48.78125 52.59375 
z
" id="DejaVuSans-63"/>
     </defs>
     <g style="fill:#262626;" transform="translate(20.781719 110.318984)rotate(-90)scale(0.11 -0.11)">
      <use xlink:href="#DejaVuSans-41"/>
      <use x="68.408203" xlink:href="#DejaVuSans-75"/>
      <use x="131.787109" xlink:href="#DejaVuSans-63"/>
     </g>
    </g>
   </g>
   <g id="PathCollection_1">
    <defs>
     <path d="M 0 2.236068 
C 0.593012 2.236068 1.161816 2.000462 1.581139 1.581139 
C 2.000462 1.161816 2.236068 0.593012 2.236068 0 
C 2.236068 -0.593012 2.000462 -1.161816 1.581139 -1.581139 
C 1.161816 -2.000462 0.593012 -2.236068 0 -2.236068 
C -0.593012 -2.236068 -1.161816 -2.000462 -1.581139 -1.581139 
C -2.000462 -1.161816 -2.236068 -0.593012 -2.236068 0 
C -2.236068 0.593012 -2.000462 1.161816 -1.581139 1.581139 
C -1.161816 2.000462 -0.593012 2.236068 0 2.236068 
z
" id="mb7670a7b74" style="stroke:#ee810a;stroke-width:0.3;"/>
    </defs>
    <g clip-path="url(#p380a97c568)">
     <use style="fill:#ee810a;stroke:#ee810a;stroke-width:0.3;" x="265.724646" xlink:href="#mb7670a7b74" y="74.271571"/>
     <use style="fill:#ee810a;stroke:#ee810a;stroke-width:0.3;" x="145.725661" xlink:href="#mb7670a7b74" y="73.87659"/>
     <use style="fill:#ee810a;stroke:#ee810a;stroke-width:0.3;" x="284.789905" xlink:href="#mb7670a7b74" y="71.427711"/>
     <use style="fill:#ee810a;stroke:#ee810a;stroke-width:0.3;" x="331.892311" xlink:href="#mb7670a7b74" y="77.062229"/>
     <use style="fill:#ee810a;stroke:#ee810a;stroke-width:0.3;" x="106.473656" xlink:href="#mb7670a7b74" y="60.566551"/>
     <use style="fill:#ee810a;stroke:#ee810a;stroke-width:0.3;" x="90.772855" xlink:href="#mb7670a7b74" y="60.819661"/>
     <use style="fill:#ee810a;stroke:#ee810a;stroke-width:0.3;" x="95.258798" xlink:href="#mb7670a7b74" y="57.527618"/>
     <use style="fill:#ee810a;stroke:#ee810a;stroke-width:0.3;" x="124.41743" xlink:href="#mb7670a7b74" y="77.078351"/>
     <use style="fill:#ee810a;stroke:#ee810a;stroke-width:0.3;" x="73.950567" xlink:href="#mb7670a7b74" y="66.278453"/>
     <use style="fill:#ee810a;stroke:#ee810a;stroke-width:0.3;" x="280.303962" xlink:href="#mb7670a7b74" y="76.788161"/>
     <use style="fill:#ee810a;stroke:#ee810a;stroke-width:0.3;" x="183.85618" xlink:href="#mb7670a7b74" y="88.529564"/>
     <use style="fill:#ee810a;stroke:#ee810a;stroke-width:0.3;" x="98.623255" xlink:href="#mb7670a7b74" y="74.834217"/>
     <use style="fill:#ee810a;stroke:#ee810a;stroke-width:0.3;" x="128.903373" xlink:href="#mb7670a7b74" y="71.877505"/>
     <use style="fill:#ee810a;stroke:#ee810a;stroke-width:0.3;" x="262.360189" xlink:href="#mb7670a7b74" y="78.906547"/>
     <use style="fill:#ee810a;stroke:#ee810a;stroke-width:0.3;" x="209.650354" xlink:href="#mb7670a7b74" y="90.902671"/>
     <use style="fill:#ee810a;stroke:#ee810a;stroke-width:0.3;" x="213.014811" xlink:href="#mb7670a7b74" y="90.443204"/>
     <use style="fill:#ee810a;stroke:#ee810a;stroke-width:0.3;" x="159.183491" xlink:href="#mb7670a7b74" y="64.777527"/>
     <use style="fill:#ee810a;stroke:#ee810a;stroke-width:0.3;" x="386.845117" xlink:href="#mb7670a7b74" y="93.393467"/>
     <use style="fill:#ee810a;stroke:#ee810a;stroke-width:0.3;" x="93.015826" xlink:href="#mb7670a7b74" y="68.064733"/>
     <use style="fill:#ee810a;stroke:#ee810a;stroke-width:0.3;" x="309.462594" xlink:href="#mb7670a7b74" y="95.597298"/>
     <use style="fill:#ee810a;stroke:#ee810a;stroke-width:0.3;" x="390.209575" xlink:href="#mb7670a7b74" y="97.269114"/>
     <use style="fill:#ee810a;stroke:#ee810a;stroke-width:0.3;" x="96.380284" xlink:href="#mb7670a7b74" y="74.850338"/>
     <use style="fill:#ee810a;stroke:#ee810a;stroke-width:0.3;" x="142.361203" xlink:href="#mb7670a7b74" y="90.03049"/>
     <use style="fill:#ee810a;stroke:#ee810a;stroke-width:0.3;" x="178.24875" xlink:href="#mb7670a7b74" y="95.87459"/>
     <use style="fill:#ee810a;stroke:#ee810a;stroke-width:0.3;" x="329.649339" xlink:href="#mb7670a7b74" y="78.413224"/>
     <use style="fill:#ee810a;stroke:#ee810a;stroke-width:0.3;" x="402.545919" xlink:href="#mb7670a7b74" y="97.525448"/>
     <use style="fill:#ee810a;stroke:#ee810a;stroke-width:0.3;" x="362.172429" xlink:href="#mb7670a7b74" y="102.324865"/>
     <use style="fill:#ee810a;stroke:#ee810a;stroke-width:0.3;" x="170.398349" xlink:href="#mb7670a7b74" y="72.12739"/>
     <use style="fill:#ee810a;stroke:#ee810a;stroke-width:0.3;" x="357.686485" xlink:href="#mb7670a7b74" y="96.590392"/>
     <use style="fill:#ee810a;stroke:#ee810a;stroke-width:0.3;" x="142.361203" xlink:href="#mb7670a7b74" y="74.050704"/>
     <use style="fill:#ee810a;stroke:#ee810a;stroke-width:0.3;" x="315.070023" xlink:href="#mb7670a7b74" y="97.022452"/>
     <use style="fill:#ee810a;stroke:#ee810a;stroke-width:0.3;" x="391.33106" xlink:href="#mb7670a7b74" y="73.736332"/>
     <use style="fill:#ee810a;stroke:#ee810a;stroke-width:0.3;" x="127.781887" xlink:href="#mb7670a7b74" y="93.235475"/>
     <use style="fill:#ee810a;stroke:#ee810a;stroke-width:0.3;" x="260.117217" xlink:href="#mb7670a7b74" y="96.227655"/>
     <use style="fill:#ee810a;stroke:#ee810a;stroke-width:0.3;" x="353.200542" xlink:href="#mb7670a7b74" y="96.176065"/>
     <use style="fill:#ee810a;stroke:#ee810a;stroke-width:0.3;" x="304.976651" xlink:href="#mb7670a7b74" y="69.862298"/>
     <use style="fill:#ee810a;stroke:#ee810a;stroke-width:0.3;" x="190.585095" xlink:href="#mb7670a7b74" y="78.532525"/>
     <use style="fill:#ee810a;stroke:#ee810a;stroke-width:0.3;" x="221.986698" xlink:href="#mb7670a7b74" y="82.793478"/>
     <use style="fill:#ee810a;stroke:#ee810a;stroke-width:0.3;" x="278.06099" xlink:href="#mb7670a7b74" y="80.642849"/>
     <use style="fill:#ee810a;stroke:#ee810a;stroke-width:0.3;" x="76.193539" xlink:href="#mb7670a7b74" y="62.581758"/>
     <use style="fill:#ee810a;stroke:#ee810a;stroke-width:0.3;" x="160.304977" xlink:href="#mb7670a7b74" y="76.614047"/>
     <use style="fill:#ee810a;stroke:#ee810a;stroke-width:0.3;" x="329.649339" xlink:href="#mb7670a7b74" y="83.035303"/>
     <use style="fill:#ee810a;stroke:#ee810a;stroke-width:0.3;" x="298.247736" xlink:href="#mb7670a7b74" y="85.992015"/>
     <use style="fill:#ee810a;stroke:#ee810a;stroke-width:0.3;" x="91.89434" xlink:href="#mb7670a7b74" y="65.299869"/>
     <use style="fill:#ee810a;stroke:#ee810a;stroke-width:0.3;" x="214.136297" xlink:href="#mb7670a7b74" y="75.861166"/>
     <use style="fill:#ee810a;stroke:#ee810a;stroke-width:0.3;" x="316.191509" xlink:href="#mb7670a7b74" y="85.568015"/>
     <use style="fill:#ee810a;stroke:#ee810a;stroke-width:0.3;" x="107.595142" xlink:href="#mb7670a7b74" y="67.495639"/>
     <use style="fill:#ee810a;stroke:#ee810a;stroke-width:0.3;" x="91.89434" xlink:href="#mb7670a7b74" y="74.279632"/>
     <use style="fill:#ee810a;stroke:#ee810a;stroke-width:0.3;" x="131.146345" xlink:href="#mb7670a7b74" y="96.600065"/>
     <use style="fill:#ee810a;stroke:#ee810a;stroke-width:0.3;" x="356.564999" xlink:href="#mb7670a7b74" y="114.092062"/>
     <use style="fill:#ee810a;stroke:#ee810a;stroke-width:0.3;" x="256.752759" xlink:href="#mb7670a7b74" y="69.385097"/>
     <use style="fill:#ee810a;stroke:#ee810a;stroke-width:0.3;" x="87.408397" xlink:href="#mb7670a7b74" y="67.224795"/>
     <use style="fill:#ee810a;stroke:#ee810a;stroke-width:0.3;" x="98.623255" xlink:href="#mb7670a7b74" y="71.927482"/>
     <use style="fill:#ee810a;stroke:#ee810a;stroke-width:0.3;" x="135.632288" xlink:href="#mb7670a7b74" y="77.315339"/>
     <use style="fill:#ee810a;stroke:#ee810a;stroke-width:0.3;" x="162.547949" xlink:href="#mb7670a7b74" y="82.129266"/>
     <use style="fill:#ee810a;stroke:#ee810a;stroke-width:0.3;" x="141.239718" xlink:href="#mb7670a7b74" y="78.206867"/>
     <use style="fill:#ee810a;stroke:#ee810a;stroke-width:0.3;" x="171.519835" xlink:href="#mb7670a7b74" y="76.006261"/>
     <use style="fill:#ee810a;stroke:#ee810a;stroke-width:0.3;" x="100.866227" xlink:href="#mb7670a7b74" y="70.947285"/>
     <use style="fill:#ee810a;stroke:#ee810a;stroke-width:0.3;" x="104.230685" xlink:href="#mb7670a7b74" y="76.423812"/>
     <use style="fill:#ee810a;stroke:#ee810a;stroke-width:0.3;" x="122.174458" xlink:href="#mb7670a7b74" y="71.514767"/>
     <use style="fill:#ee810a;stroke:#ee810a;stroke-width:0.3;" x="153.576062" xlink:href="#mb7670a7b74" y="80.236584"/>
     <use style="fill:#ee810a;stroke:#ee810a;stroke-width:0.3;" x="155.819033" xlink:href="#mb7670a7b74" y="87.875024"/>
     <use style="fill:#ee810a;stroke:#ee810a;stroke-width:0.3;" x="95.258798" xlink:href="#mb7670a7b74" y="71.748531"/>
     <use style="fill:#ee810a;stroke:#ee810a;stroke-width:0.3;" x="146.847147" xlink:href="#mb7670a7b74" y="83.307759"/>
     <use style="fill:#ee810a;stroke:#ee810a;stroke-width:0.3;" x="128.903373" xlink:href="#mb7670a7b74" y="74.36024"/>
     <use style="fill:#ee810a;stroke:#ee810a;stroke-width:0.3;" x="80.679482" xlink:href="#mb7670a7b74" y="68.880489"/>
     <use style="fill:#ee810a;stroke:#ee810a;stroke-width:0.3;" x="85.165425" xlink:href="#mb7670a7b74" y="74.880969"/>
     <use style="fill:#ee810a;stroke:#ee810a;stroke-width:0.3;" x="86.286911" xlink:href="#mb7670a7b74" y="68.582238"/>
     <use style="fill:#ee810a;stroke:#ee810a;stroke-width:0.3;" x="121.052972" xlink:href="#mb7670a7b74" y="80.800842"/>
     <use style="fill:#ee810a;stroke:#ee810a;stroke-width:0.3;" x="123.295944" xlink:href="#mb7670a7b74" y="83.855895"/>
     <use style="fill:#ee810a;stroke:#ee810a;stroke-width:0.3;" x="160.304977" xlink:href="#mb7670a7b74" y="72.84158"/>
     <use style="fill:#ee810a;stroke:#ee810a;stroke-width:0.3;" x="171.519835" xlink:href="#mb7670a7b74" y="73.415511"/>
     <use style="fill:#ee810a;stroke:#ee810a;stroke-width:0.3;" x="155.819033" xlink:href="#mb7670a7b74" y="86.741672"/>
     <use style="fill:#ee810a;stroke:#ee810a;stroke-width:0.3;" x="125.538916" xlink:href="#mb7670a7b74" y="75.799904"/>
     <use style="fill:#ee810a;stroke:#ee810a;stroke-width:0.3;" x="143.482689" xlink:href="#mb7670a7b74" y="83.428672"/>
     <use style="fill:#ee810a;stroke:#ee810a;stroke-width:0.3;" x="88.529883" xlink:href="#mb7670a7b74" y="69.691408"/>
     <use style="fill:#ee810a;stroke:#ee810a;stroke-width:0.3;" x="123.295944" xlink:href="#mb7670a7b74" y="75.572588"/>
     <use style="fill:#ee810a;stroke:#ee810a;stroke-width:0.3;" x="145.725661" xlink:href="#mb7670a7b74" y="91.811933"/>
     <use style="fill:#ee810a;stroke:#ee810a;stroke-width:0.3;" x="127.781887" xlink:href="#mb7670a7b74" y="74.716528"/>
     <use style="fill:#ee810a;stroke:#ee810a;stroke-width:0.3;" x="149.090118" xlink:href="#mb7670a7b74" y="90.546383"/>
     <use style="fill:#ee810a;stroke:#ee810a;stroke-width:0.3;" x="103.109199" xlink:href="#mb7670a7b74" y="69.702693"/>
     <use style="fill:#ee810a;stroke:#ee810a;stroke-width:0.3;" x="138.996746" xlink:href="#mb7670a7b74" y="68.566117"/>
     <use style="fill:#ee810a;stroke:#ee810a;stroke-width:0.3;" x="106.473656" xlink:href="#mb7670a7b74" y="71.147194"/>
     <use style="fill:#ee810a;stroke:#ee810a;stroke-width:0.3;" x="93.015826" xlink:href="#mb7670a7b74" y="79.852888"/>
     <use style="fill:#ee810a;stroke:#ee810a;stroke-width:0.3;" x="94.137312" xlink:href="#mb7670a7b74" y="65.972142"/>
     <use style="fill:#ee810a;stroke:#ee810a;stroke-width:0.3;" x="94.137312" xlink:href="#mb7670a7b74" y="72.251527"/>
     <use style="fill:#ee810a;stroke:#ee810a;stroke-width:0.3;" x="178.24875" xlink:href="#mb7670a7b74" y="91.747446"/>
     <use style="fill:#ee810a;stroke:#ee810a;stroke-width:0.3;" x="138.996746" xlink:href="#mb7670a7b74" y="68.383942"/>
     <use style="fill:#ee810a;stroke:#ee810a;stroke-width:0.3;" x="159.183491" xlink:href="#mb7670a7b74" y="76.312572"/>
     <use style="fill:#ee810a;stroke:#ee810a;stroke-width:0.3;" x="112.081086" xlink:href="#mb7670a7b74" y="73.907221"/>
     <use style="fill:#ee810a;stroke:#ee810a;stroke-width:0.3;" x="145.725661" xlink:href="#mb7670a7b74" y="83.024018"/>
     <use style="fill:#ee810a;stroke:#ee810a;stroke-width:0.3;" x="149.090118" xlink:href="#mb7670a7b74" y="90.364208"/>
     <use style="fill:#ee810a;stroke:#ee810a;stroke-width:0.3;" x="132.267831" xlink:href="#mb7670a7b74" y="77.257301"/>
     <use style="fill:#ee810a;stroke:#ee810a;stroke-width:0.3;" x="135.632288" xlink:href="#mb7670a7b74" y="88.508605"/>
     <use style="fill:#ee810a;stroke:#ee810a;stroke-width:0.3;" x="156.940519" xlink:href="#mb7670a7b74" y="77.079963"/>
     <use style="fill:#ee810a;stroke:#ee810a;stroke-width:0.3;" x="150.211604" xlink:href="#mb7670a7b74" y="88.245822"/>
     <use style="fill:#ee810a;stroke:#ee810a;stroke-width:0.3;" x="144.604175" xlink:href="#mb7670a7b74" y="92.432617"/>
     <use style="fill:#ee810a;stroke:#ee810a;stroke-width:0.3;" x="143.482689" xlink:href="#mb7670a7b74" y="76.096542"/>
     <use style="fill:#ee810a;stroke:#ee810a;stroke-width:0.3;" x="130.024859" xlink:href="#mb7670a7b74" y="85.808228"/>
     <use style="fill:#ee810a;stroke:#ee810a;stroke-width:0.3;" x="125.538916" xlink:href="#mb7670a7b74" y="82.442026"/>
     <use style="fill:#ee810a;stroke:#ee810a;stroke-width:0.3;" x="86.286911" xlink:href="#mb7670a7b74" y="74.777791"/>
     <use style="fill:#ee810a;stroke:#ee810a;stroke-width:0.3;" x="122.174458" xlink:href="#mb7670a7b74" y="77.90378"/>
     <use style="fill:#ee810a;stroke:#ee810a;stroke-width:0.3;" x="116.567029" xlink:href="#mb7670a7b74" y="85.621217"/>
     <use style="fill:#ee810a;stroke:#ee810a;stroke-width:0.3;" x="146.847147" xlink:href="#mb7670a7b74" y="81.02332"/>
     <use style="fill:#ee810a;stroke:#ee810a;stroke-width:0.3;" x="93.015826" xlink:href="#mb7670a7b74" y="66.568643"/>
     <use style="fill:#ee810a;stroke:#ee810a;stroke-width:0.3;" x="130.024859" xlink:href="#mb7670a7b74" y="87.978203"/>
     <use style="fill:#ee810a;stroke:#ee810a;stroke-width:0.3;" x="145.725661" xlink:href="#mb7670a7b74" y="80.357496"/>
     <use style="fill:#ee810a;stroke:#ee810a;stroke-width:0.3;" x="117.688515" xlink:href="#mb7670a7b74" y="69.236777"/>
     <use style="fill:#ee810a;stroke:#ee810a;stroke-width:0.3;" x="121.052972" xlink:href="#mb7670a7b74" y="88.98097"/>
     <use style="fill:#ee810a;stroke:#ee810a;stroke-width:0.3;" x="179.370236" xlink:href="#mb7670a7b74" y="76.211006"/>
     <use style="fill:#ee810a;stroke:#ee810a;stroke-width:0.3;" x="142.361203" xlink:href="#mb7670a7b74" y="92.048921"/>
     <use style="fill:#ee810a;stroke:#ee810a;stroke-width:0.3;" x="78.43651" xlink:href="#mb7670a7b74" y="68.737006"/>
     <use style="fill:#ee810a;stroke:#ee810a;stroke-width:0.3;" x="124.41743" xlink:href="#mb7670a7b74" y="80.297846"/>
     <use style="fill:#ee810a;stroke:#ee810a;stroke-width:0.3;" x="168.155378" xlink:href="#mb7670a7b74" y="96.309875"/>
     <use style="fill:#ee810a;stroke:#ee810a;stroke-width:0.3;" x="127.781887" xlink:href="#mb7670a7b74" y="74.369913"/>
     <use style="fill:#ee810a;stroke:#ee810a;stroke-width:0.3;" x="80.679482" xlink:href="#mb7670a7b74" y="69.190025"/>
     <use style="fill:#ee810a;stroke:#ee810a;stroke-width:0.3;" x="150.211604" xlink:href="#mb7670a7b74" y="95.102363"/>
     <use style="fill:#ee810a;stroke:#ee810a;stroke-width:0.3;" x="73.950567" xlink:href="#mb7670a7b74" y="73.380043"/>
     <use style="fill:#ee810a;stroke:#ee810a;stroke-width:0.3;" x="125.538916" xlink:href="#mb7670a7b74" y="77.88927"/>
     <use style="fill:#ee810a;stroke:#ee810a;stroke-width:0.3;" x="80.679482" xlink:href="#mb7670a7b74" y="78.574441"/>
     <use style="fill:#ee810a;stroke:#ee810a;stroke-width:0.3;" x="72.829081" xlink:href="#mb7670a7b74" y="139.7658"/>
     <use style="fill:#ee810a;stroke:#ee810a;stroke-width:0.3;" x="78.43651" xlink:href="#mb7670a7b74" y="73.778248"/>
     <use style="fill:#ee810a;stroke:#ee810a;stroke-width:0.3;" x="171.519835" xlink:href="#mb7670a7b74" y="63.453939"/>
     <use style="fill:#ee810a;stroke:#ee810a;stroke-width:0.3;" x="164.79092" xlink:href="#mb7670a7b74" y="100.536973"/>
     <use style="fill:#ee810a;stroke:#ee810a;stroke-width:0.3;" x="133.389317" xlink:href="#mb7670a7b74" y="76.011097"/>
     <use style="fill:#ee810a;stroke:#ee810a;stroke-width:0.3;" x="87.408397" xlink:href="#mb7670a7b74" y="78.584114"/>
     <use style="fill:#ee810a;stroke:#ee810a;stroke-width:0.3;" x="75.072053" xlink:href="#mb7670a7b74" y="87.717032"/>
     <use style="fill:#ee810a;stroke:#ee810a;stroke-width:0.3;" x="116.567029" xlink:href="#mb7670a7b74" y="77.873149"/>
     <use style="fill:#ee810a;stroke:#ee810a;stroke-width:0.3;" x="124.41743" xlink:href="#mb7670a7b74" y="90.493181"/>
     <use style="fill:#ee810a;stroke:#ee810a;stroke-width:0.3;" x="141.239718" xlink:href="#mb7670a7b74" y="77.562001"/>
     <use style="fill:#ee810a;stroke:#ee810a;stroke-width:0.3;" x="86.286911" xlink:href="#mb7670a7b74" y="68.342025"/>
     <use style="fill:#ee810a;stroke:#ee810a;stroke-width:0.3;" x="107.595142" xlink:href="#mb7670a7b74" y="87.214036"/>
     <use style="fill:#ee810a;stroke:#ee810a;stroke-width:0.3;" x="87.408397" xlink:href="#mb7670a7b74" y="68.503242"/>
     <use style="fill:#ee810a;stroke:#ee810a;stroke-width:0.3;" x="87.408397" xlink:href="#mb7670a7b74" y="78.979094"/>
     <use style="fill:#ee810a;stroke:#ee810a;stroke-width:0.3;" x="89.651369" xlink:href="#mb7670a7b74" y="79.004889"/>
     <use style="fill:#ee810a;stroke:#ee810a;stroke-width:0.3;" x="159.183491" xlink:href="#mb7670a7b74" y="85.339088"/>
     <use style="fill:#ee810a;stroke:#ee810a;stroke-width:0.3;" x="107.595142" xlink:href="#mb7670a7b74" y="75.695113"/>
     <use style="fill:#ee810a;stroke:#ee810a;stroke-width:0.3;" x="174.884293" xlink:href="#mb7670a7b74" y="74.595616"/>
     <use style="fill:#ee810a;stroke:#ee810a;stroke-width:0.3;" x="159.183491" xlink:href="#mb7670a7b74" y="86.104867"/>
     <use style="fill:#ee810a;stroke:#ee810a;stroke-width:0.3;" x="88.529883" xlink:href="#mb7670a7b74" y="77.905392"/>
     <use style="fill:#ee810a;stroke:#ee810a;stroke-width:0.3;" x="165.912406" xlink:href="#mb7670a7b74" y="80.910469"/>
     <use style="fill:#ee810a;stroke:#ee810a;stroke-width:0.3;" x="81.800968" xlink:href="#mb7670a7b74" y="93.170989"/>
     <use style="fill:#ee810a;stroke:#ee810a;stroke-width:0.3;" x="85.165425" xlink:href="#mb7670a7b74" y="65.828659"/>
     <use style="fill:#ee810a;stroke:#ee810a;stroke-width:0.3;" x="119.931487" xlink:href="#mb7670a7b74" y="64.996782"/>
     <use style="fill:#ee810a;stroke:#ee810a;stroke-width:0.3;" x="100.866227" xlink:href="#mb7670a7b74" y="75.746702"/>
     <use style="fill:#ee810a;stroke:#ee810a;stroke-width:0.3;" x="179.370236" xlink:href="#mb7670a7b74" y="73.002796"/>
     <use style="fill:#ee810a;stroke:#ee810a;stroke-width:0.3;" x="133.389317" xlink:href="#mb7670a7b74" y="68.293661"/>
     <use style="fill:#ee810a;stroke:#ee810a;stroke-width:0.3;" x="132.267831" xlink:href="#mb7670a7b74" y="80.570302"/>
     <use style="fill:#ee810a;stroke:#ee810a;stroke-width:0.3;" x="108.716628" xlink:href="#mb7670a7b74" y="72.393398"/>
     <use style="fill:#ee810a;stroke:#ee810a;stroke-width:0.3;" x="171.519835" xlink:href="#mb7670a7b74" y="82.817661"/>
     <use style="fill:#ee810a;stroke:#ee810a;stroke-width:0.3;" x="115.445543" xlink:href="#mb7670a7b74" y="67.829357"/>
     <use style="fill:#ee810a;stroke:#ee810a;stroke-width:0.3;" x="171.519835" xlink:href="#mb7670a7b74" y="68.134056"/>
     <use style="fill:#ee810a;stroke:#ee810a;stroke-width:0.3;" x="99.744741" xlink:href="#mb7670a7b74" y="69.905826"/>
     <use style="fill:#ee810a;stroke:#ee810a;stroke-width:0.3;" x="168.155378" xlink:href="#mb7670a7b74" y="68.088915"/>
     <use style="fill:#ee810a;stroke:#ee810a;stroke-width:0.3;" x="136.753774" xlink:href="#mb7670a7b74" y="64.756569"/>
     <use style="fill:#ee810a;stroke:#ee810a;stroke-width:0.3;" x="140.118232" xlink:href="#mb7670a7b74" y="73.223663"/>
     <use style="fill:#ee810a;stroke:#ee810a;stroke-width:0.3;" x="97.50177" xlink:href="#mb7670a7b74" y="90.078855"/>
     <use style="fill:#ee810a;stroke:#ee810a;stroke-width:0.3;" x="103.109199" xlink:href="#mb7670a7b74" y="69.244838"/>
     <use style="fill:#ee810a;stroke:#ee810a;stroke-width:0.3;" x="172.641321" xlink:href="#mb7670a7b74" y="70.512"/>
     <use style="fill:#ee810a;stroke:#ee810a;stroke-width:0.3;" x="113.202571" xlink:href="#mb7670a7b74" y="72.843192"/>
     <use style="fill:#ee810a;stroke:#ee810a;stroke-width:0.3;" x="136.753774" xlink:href="#mb7670a7b74" y="61.506443"/>
     <use style="fill:#ee810a;stroke:#ee810a;stroke-width:0.3;" x="98.623255" xlink:href="#mb7670a7b74" y="66.360674"/>
     <use style="fill:#ee810a;stroke:#ee810a;stroke-width:0.3;" x="105.352171" xlink:href="#mb7670a7b74" y="70.960182"/>
     <use style="fill:#ee810a;stroke:#ee810a;stroke-width:0.3;" x="150.211604" xlink:href="#mb7670a7b74" y="75.319478"/>
     <use style="fill:#ee810a;stroke:#ee810a;stroke-width:0.3;" x="93.015826" xlink:href="#mb7670a7b74" y="142.566132"/>
     <use style="fill:#ee810a;stroke:#ee810a;stroke-width:0.3;" x="89.651369" xlink:href="#mb7670a7b74" y="72.778705"/>
     <use style="fill:#ee810a;stroke:#ee810a;stroke-width:0.3;" x="169.276864" xlink:href="#mb7670a7b74" y="96.126088"/>
     <use style="fill:#ee810a;stroke:#ee810a;stroke-width:0.3;" x="132.267831" xlink:href="#mb7670a7b74" y="72.828682"/>
    </g>
   </g>
   <g id="patch_3">
    <path d="M 56.335 171.13375 
L 56.335 28.96 
" style="fill:none;"/>
   </g>
   <g id="patch_4">
    <path d="M 419.04 171.13375 
L 419.04 28.96 
" style="fill:none;"/>
   </g>
   <g id="patch_5">
    <path d="M 56.335 171.13375 
L 419.04 171.13375 
" style="fill:none;"/>
   </g>
   <g id="patch_6">
    <path d="M 56.335 28.96 
L 419.04 28.96 
" style="fill:none;"/>
   </g>
   <g id="text_14">
    <!-- Impact of Hidden_Nodes on the Auc -->
    <defs>
     <path d="M 9.8125 72.90625 
L 19.671875 72.90625 
L 19.671875 0 
L 9.8125 0 
z
" id="DejaVuSans-49"/>
     <path d="M 52 44.1875 
Q 55.375 50.25 60.0625 53.125 
Q 64.75 56 71.09375 56 
Q 79.640625 56 84.28125 50.015625 
Q 88.921875 44.046875 88.921875 33.015625 
L 88.921875 0 
L 79.890625 0 
L 79.890625 32.71875 
Q 79.890625 40.578125 77.09375 44.375 
Q 74.3125 48.1875 68.609375 48.1875 
Q 61.625 48.1875 57.5625 43.546875 
Q 53.515625 38.921875 53.515625 30.90625 
L 53.515625 0 
L 44.484375 0 
L 44.484375 32.71875 
Q 44.484375 40.625 41.703125 44.40625 
Q 38.921875 48.1875 33.109375 48.1875 
Q 26.21875 48.1875 22.15625 43.53125 
Q 18.109375 38.875 18.109375 30.90625 
L 18.109375 0 
L 9.078125 0 
L 9.078125 54.6875 
L 18.109375 54.6875 
L 18.109375 46.1875 
Q 21.1875 51.21875 25.484375 53.609375 
Q 29.78125 56 35.6875 56 
Q 41.65625 56 45.828125 52.96875 
Q 50 49.953125 52 44.1875 
z
" id="DejaVuSans-6d"/>
     <path d="M 18.109375 8.203125 
L 18.109375 -20.796875 
L 9.078125 -20.796875 
L 9.078125 54.6875 
L 18.109375 54.6875 
L 18.109375 46.390625 
Q 20.953125 51.265625 25.265625 53.625 
Q 29.59375 56 35.59375 56 
Q 45.5625 56 51.78125 48.09375 
Q 58.015625 40.1875 58.015625 27.296875 
Q 58.015625 14.40625 51.78125 6.484375 
Q 45.5625 -1.421875 35.59375 -1.421875 
Q 29.59375 -1.421875 25.265625 0.953125 
Q 20.953125 3.328125 18.109375 8.203125 
z
M 48.6875 27.296875 
Q 48.6875 37.203125 44.609375 42.84375 
Q 40.53125 48.484375 33.40625 48.484375 
Q 26.265625 48.484375 22.1875 42.84375 
Q 18.109375 37.203125 18.109375 27.296875 
Q 18.109375 17.390625 22.1875 11.75 
Q 26.265625 6.109375 33.40625 6.109375 
Q 40.53125 6.109375 44.609375 11.75 
Q 48.6875 17.390625 48.6875 27.296875 
z
" id="DejaVuSans-70"/>
     <path d="M 34.28125 27.484375 
Q 23.390625 27.484375 19.1875 25 
Q 14.984375 22.515625 14.984375 16.5 
Q 14.984375 11.71875 18.140625 8.90625 
Q 21.296875 6.109375 26.703125 6.109375 
Q 34.1875 6.109375 38.703125 11.40625 
Q 43.21875 16.703125 43.21875 25.484375 
L 43.21875 27.484375 
z
M 52.203125 31.203125 
L 52.203125 0 
L 43.21875 0 
L 43.21875 8.296875 
Q 40.140625 3.328125 35.546875 0.953125 
Q 30.953125 -1.421875 24.3125 -1.421875 
Q 15.921875 -1.421875 10.953125 3.296875 
Q 6 8.015625 6 15.921875 
Q 6 25.140625 12.171875 29.828125 
Q 18.359375 34.515625 30.609375 34.515625 
L 43.21875 34.515625 
L 43.21875 35.40625 
Q 43.21875 41.609375 39.140625 45 
Q 35.0625 48.390625 27.6875 48.390625 
Q 23 48.390625 18.546875 47.265625 
Q 14.109375 46.140625 10.015625 43.890625 
L 10.015625 52.203125 
Q 14.9375 54.109375 19.578125 55.046875 
Q 24.21875 56 28.609375 56 
Q 40.484375 56 46.34375 49.84375 
Q 52.203125 43.703125 52.203125 31.203125 
z
" id="DejaVuSans-61"/>
     <path d="M 18.3125 70.21875 
L 18.3125 54.6875 
L 36.8125 54.6875 
L 36.8125 47.703125 
L 18.3125 47.703125 
L 18.3125 18.015625 
Q 18.3125 11.328125 20.140625 9.421875 
Q 21.96875 7.515625 27.59375 7.515625 
L 36.8125 7.515625 
L 36.8125 0 
L 27.59375 0 
Q 17.1875 0 13.234375 3.875 
Q 9.28125 7.765625 9.28125 18.015625 
L 9.28125 47.703125 
L 2.6875 47.703125 
L 2.6875 54.6875 
L 9.28125 54.6875 
L 9.28125 70.21875 
z
" id="DejaVuSans-74"/>
     <path id="DejaVuSans-20"/>
     <path d="M 37.109375 75.984375 
L 37.109375 68.5 
L 28.515625 68.5 
Q 23.6875 68.5 21.796875 66.546875 
Q 19.921875 64.59375 19.921875 59.515625 
L 19.921875 54.6875 
L 34.71875 54.6875 
L 34.71875 47.703125 
L 19.921875 47.703125 
L 19.921875 0 
L 10.890625 0 
L 10.890625 47.703125 
L 2.296875 47.703125 
L 2.296875 54.6875 
L 10.890625 54.6875 
L 10.890625 58.5 
Q 10.890625 67.625 15.140625 71.796875 
Q 19.390625 75.984375 28.609375 75.984375 
z
" id="DejaVuSans-66"/>
     <path d="M 54.890625 33.015625 
L 54.890625 0 
L 45.90625 0 
L 45.90625 32.71875 
Q 45.90625 40.484375 42.875 44.328125 
Q 39.84375 48.1875 33.796875 48.1875 
Q 26.515625 48.1875 22.3125 43.546875 
Q 18.109375 38.921875 18.109375 30.90625 
L 18.109375 0 
L 9.078125 0 
L 9.078125 75.984375 
L 18.109375 75.984375 
L 18.109375 46.1875 
Q 21.34375 51.125 25.703125 53.5625 
Q 30.078125 56 35.796875 56 
Q 45.21875 56 50.046875 50.171875 
Q 54.890625 44.34375 54.890625 33.015625 
z
" id="DejaVuSans-68"/>
    </defs>
    <g style="fill:#262626;" transform="translate(130.01375 22.96)scale(0.12 -0.12)">
     <use xlink:href="#DejaVuSans-49"/>
     <use x="29.492188" xlink:href="#DejaVuSans-6d"/>
     <use x="126.904297" xlink:href="#DejaVuSans-70"/>
     <use x="190.380859" xlink:href="#DejaVuSans-61"/>
     <use x="251.660156" xlink:href="#DejaVuSans-63"/>
     <use x="306.640625" xlink:href="#DejaVuSans-74"/>
     <use x="345.849609" xlink:href="#DejaVuSans-20"/>
     <use x="377.636719" xlink:href="#DejaVuSans-6f"/>
     <use x="438.818359" xlink:href="#DejaVuSans-66"/>
     <use x="474.023438" xlink:href="#DejaVuSans-20"/>
     <use x="505.810547" xlink:href="#DejaVuSans-48"/>
     <use x="581.005859" xlink:href="#DejaVuSans-69"/>
     <use x="608.789062" xlink:href="#DejaVuSans-64"/>
     <use x="672.265625" xlink:href="#DejaVuSans-64"/>
     <use x="735.742188" xlink:href="#DejaVuSans-65"/>
     <use x="797.265625" xlink:href="#DejaVuSans-6e"/>
     <use x="860.644531" xlink:href="#DejaVuSans-5f"/>
     <use x="910.644531" xlink:href="#DejaVuSans-4e"/>
     <use x="985.449219" xlink:href="#DejaVuSans-6f"/>
     <use x="1046.630859" xlink:href="#DejaVuSans-64"/>
     <use x="1110.107422" xlink:href="#DejaVuSans-65"/>
     <use x="1171.630859" xlink:href="#DejaVuSans-73"/>
     <use x="1223.730469" xlink:href="#DejaVuSans-20"/>
     <use x="1255.517578" xlink:href="#DejaVuSans-6f"/>
     <use x="1316.699219" xlink:href="#DejaVuSans-6e"/>
     <use x="1380.078125" xlink:href="#DejaVuSans-20"/>
     <use x="1411.865234" xlink:href="#DejaVuSans-74"/>
     <use x="1451.074219" xlink:href="#DejaVuSans-68"/>
     <use x="1514.453125" xlink:href="#DejaVuSans-65"/>
     <use x="1575.976562" xlink:href="#DejaVuSans-20"/>
     <use x="1607.763672" xlink:href="#DejaVuSans-41"/>
     <use x="1676.171875" xlink:href="#DejaVuSans-75"/>
     <use x="1739.550781" xlink:href="#DejaVuSans-63"/>
    </g>
   </g>
  </g>
 </g>
 <defs>
  <clipPath id="p380a97c568">
   <rect height="142.17375" width="362.705" x="56.335" y="28.96"/>
  </clipPath>
 </defs>
</svg>
