<?xml version="1.0" encoding="utf-8" standalone="no"?>
<!DOCTYPE svg PUBLIC "-//W3C//DTD SVG 1.1//EN"
  "http://www.w3.org/Graphics/SVG/1.1/DTD/svg11.dtd">
<!-- Created with matplotlib (http://matplotlib.org/) -->
<svg height="396pt" version="1.1" viewBox="0 0 576 396" width="576pt" xmlns="http://www.w3.org/2000/svg" xmlns:xlink="http://www.w3.org/1999/xlink">
 <defs>
  <style type="text/css">
*{stroke-linecap:butt;stroke-linejoin:round;}
  </style>
 </defs>
 <g id="figure_1">
  <g id="patch_1">
   <path d="M 0 396 
L 576 396 
L 576 0 
L 0 0 
z
" style="fill:#ffffff;"/>
  </g>
  <g id="axes_1">
   <g id="patch_2">
    <path d="M 62.71 328.21991 
L 552.130625 328.21991 
L 552.130625 30.96 
L 62.71 30.96 
z
" style="fill:#eaeaf2;"/>
   </g>
   <g id="matplotlib.axis_1">
    <g id="xtick_1">
     <g id="line2d_1">
      <path clip-path="url(#p08db86e85b)" d="M 93.298789 328.21991 
L 93.298789 30.96 
" style="fill:none;stroke:#ffffff;stroke-linecap:round;"/>
     </g>
     <g id="line2d_2"/>
     <g id="text_1">
      <!-- 3c_d_3f -->
      <defs>
       <path d="M 40.578125 39.3125 
Q 47.65625 37.796875 51.625 33 
Q 55.609375 28.21875 55.609375 21.1875 
Q 55.609375 10.40625 48.1875 4.484375 
Q 40.765625 -1.421875 27.09375 -1.421875 
Q 22.515625 -1.421875 17.65625 -0.515625 
Q 12.796875 0.390625 7.625 2.203125 
L 7.625 11.71875 
Q 11.71875 9.328125 16.59375 8.109375 
Q 21.484375 6.890625 26.8125 6.890625 
Q 36.078125 6.890625 40.9375 10.546875 
Q 45.796875 14.203125 45.796875 21.1875 
Q 45.796875 27.640625 41.28125 31.265625 
Q 36.765625 34.90625 28.71875 34.90625 
L 20.21875 34.90625 
L 20.21875 43.015625 
L 29.109375 43.015625 
Q 36.375 43.015625 40.234375 45.921875 
Q 44.09375 48.828125 44.09375 54.296875 
Q 44.09375 59.90625 40.109375 62.90625 
Q 36.140625 65.921875 28.71875 65.921875 
Q 24.65625 65.921875 20.015625 65.03125 
Q 15.375 64.15625 9.8125 62.3125 
L 9.8125 71.09375 
Q 15.4375 72.65625 20.34375 73.4375 
Q 25.25 74.21875 29.59375 74.21875 
Q 40.828125 74.21875 47.359375 69.109375 
Q 53.90625 64.015625 53.90625 55.328125 
Q 53.90625 49.265625 50.4375 45.09375 
Q 46.96875 40.921875 40.578125 39.3125 
z
" id="DejaVuSans-33"/>
       <path d="M 48.78125 52.59375 
L 48.78125 44.1875 
Q 44.96875 46.296875 41.140625 47.34375 
Q 37.3125 48.390625 33.40625 48.390625 
Q 24.65625 48.390625 19.8125 42.84375 
Q 14.984375 37.3125 14.984375 27.296875 
Q 14.984375 17.28125 19.8125 11.734375 
Q 24.65625 6.203125 33.40625 6.203125 
Q 37.3125 6.203125 41.140625 7.25 
Q 44.96875 8.296875 48.78125 10.40625 
L 48.78125 2.09375 
Q 45.015625 0.34375 40.984375 -0.53125 
Q 36.96875 -1.421875 32.421875 -1.421875 
Q 20.0625 -1.421875 12.78125 6.34375 
Q 5.515625 14.109375 5.515625 27.296875 
Q 5.515625 40.671875 12.859375 48.328125 
Q 20.21875 56 33.015625 56 
Q 37.15625 56 41.109375 55.140625 
Q 45.0625 54.296875 48.78125 52.59375 
z
" id="DejaVuSans-63"/>
       <path d="M 50.984375 -16.609375 
L 50.984375 -23.578125 
L -0.984375 -23.578125 
L -0.984375 -16.609375 
z
" id="DejaVuSans-5f"/>
       <path d="M 45.40625 46.390625 
L 45.40625 75.984375 
L 54.390625 75.984375 
L 54.390625 0 
L 45.40625 0 
L 45.40625 8.203125 
Q 42.578125 3.328125 38.25 0.953125 
Q 33.9375 -1.421875 27.875 -1.421875 
Q 17.96875 -1.421875 11.734375 6.484375 
Q 5.515625 14.40625 5.515625 27.296875 
Q 5.515625 40.1875 11.734375 48.09375 
Q 17.96875 56 27.875 56 
Q 33.9375 56 38.25 53.625 
Q 42.578125 51.265625 45.40625 46.390625 
z
M 14.796875 27.296875 
Q 14.796875 17.390625 18.875 11.75 
Q 22.953125 6.109375 30.078125 6.109375 
Q 37.203125 6.109375 41.296875 11.75 
Q 45.40625 17.390625 45.40625 27.296875 
Q 45.40625 37.203125 41.296875 42.84375 
Q 37.203125 48.484375 30.078125 48.484375 
Q 22.953125 48.484375 18.875 42.84375 
Q 14.796875 37.203125 14.796875 27.296875 
z
" id="DejaVuSans-64"/>
       <path d="M 37.109375 75.984375 
L 37.109375 68.5 
L 28.515625 68.5 
Q 23.6875 68.5 21.796875 66.546875 
Q 19.921875 64.59375 19.921875 59.515625 
L 19.921875 54.6875 
L 34.71875 54.6875 
L 34.71875 47.703125 
L 19.921875 47.703125 
L 19.921875 0 
L 10.890625 0 
L 10.890625 47.703125 
L 2.296875 47.703125 
L 2.296875 54.6875 
L 10.890625 54.6875 
L 10.890625 58.5 
Q 10.890625 67.625 15.140625 71.796875 
Q 19.390625 75.984375 28.609375 75.984375 
z
" id="DejaVuSans-66"/>
      </defs>
      <g style="fill:#262626;" transform="translate(78.114544 360.846444)rotate(-30)scale(0.1 -0.1)">
       <use xlink:href="#DejaVuSans-33"/>
       <use x="63.623047" xlink:href="#DejaVuSans-63"/>
       <use x="118.603516" xlink:href="#DejaVuSans-5f"/>
       <use x="168.603516" xlink:href="#DejaVuSans-64"/>
       <use x="232.080078" xlink:href="#DejaVuSans-5f"/>
       <use x="282.080078" xlink:href="#DejaVuSans-33"/>
       <use x="345.703125" xlink:href="#DejaVuSans-66"/>
      </g>
     </g>
    </g>
    <g id="xtick_2">
     <g id="line2d_3">
      <path clip-path="url(#p08db86e85b)" d="M 154.476367 328.21991 
L 154.476367 30.96 
" style="fill:none;stroke:#ffffff;stroke-linecap:round;"/>
     </g>
     <g id="line2d_4"/>
     <g id="text_2">
      <!-- 3c_2fd_f -->
      <defs>
       <path d="M 19.1875 8.296875 
L 53.609375 8.296875 
L 53.609375 0 
L 7.328125 0 
L 7.328125 8.296875 
Q 12.9375 14.109375 22.625 23.890625 
Q 32.328125 33.6875 34.8125 36.53125 
Q 39.546875 41.84375 41.421875 45.53125 
Q 43.3125 49.21875 43.3125 52.78125 
Q 43.3125 58.59375 39.234375 62.25 
Q 35.15625 65.921875 28.609375 65.921875 
Q 23.96875 65.921875 18.8125 64.3125 
Q 13.671875 62.703125 7.8125 59.421875 
L 7.8125 69.390625 
Q 13.765625 71.78125 18.9375 73 
Q 24.125 74.21875 28.421875 74.21875 
Q 39.75 74.21875 46.484375 68.546875 
Q 53.21875 62.890625 53.21875 53.421875 
Q 53.21875 48.921875 51.53125 44.890625 
Q 49.859375 40.875 45.40625 35.40625 
Q 44.1875 33.984375 37.640625 27.21875 
Q 31.109375 20.453125 19.1875 8.296875 
z
" id="DejaVuSans-32"/>
      </defs>
      <g style="fill:#262626;" transform="translate(137.767782 362.6066)rotate(-30)scale(0.1 -0.1)">
       <use xlink:href="#DejaVuSans-33"/>
       <use x="63.623047" xlink:href="#DejaVuSans-63"/>
       <use x="118.603516" xlink:href="#DejaVuSans-5f"/>
       <use x="168.603516" xlink:href="#DejaVuSans-32"/>
       <use x="232.226562" xlink:href="#DejaVuSans-66"/>
       <use x="267.431641" xlink:href="#DejaVuSans-64"/>
       <use x="330.908203" xlink:href="#DejaVuSans-5f"/>
       <use x="380.908203" xlink:href="#DejaVuSans-66"/>
      </g>
     </g>
    </g>
    <g id="xtick_3">
     <g id="line2d_5">
      <path clip-path="url(#p08db86e85b)" d="M 215.653945 328.21991 
L 215.653945 30.96 
" style="fill:none;stroke:#ffffff;stroke-linecap:round;"/>
     </g>
     <g id="line2d_6"/>
     <g id="text_3">
      <!-- 3c_f_d_2f -->
      <g style="fill:#262626;" transform="translate(196.780297 365.1066)rotate(-30)scale(0.1 -0.1)">
       <use xlink:href="#DejaVuSans-33"/>
       <use x="63.623047" xlink:href="#DejaVuSans-63"/>
       <use x="118.603516" xlink:href="#DejaVuSans-5f"/>
       <use x="168.603516" xlink:href="#DejaVuSans-66"/>
       <use x="203.808594" xlink:href="#DejaVuSans-5f"/>
       <use x="253.808594" xlink:href="#DejaVuSans-64"/>
       <use x="317.285156" xlink:href="#DejaVuSans-5f"/>
       <use x="367.285156" xlink:href="#DejaVuSans-32"/>
       <use x="430.908203" xlink:href="#DejaVuSans-66"/>
      </g>
     </g>
    </g>
    <g id="xtick_4">
     <g id="line2d_7">
      <path clip-path="url(#p08db86e85b)" d="M 276.831523 328.21991 
L 276.831523 30.96 
" style="fill:none;stroke:#ffffff;stroke-linecap:round;"/>
     </g>
     <g id="line2d_8"/>
     <g id="text_4">
      <!-- 2c_d_c_3f -->
      <g style="fill:#262626;" transform="translate(257.101322 366.095663)rotate(-30)scale(0.1 -0.1)">
       <use xlink:href="#DejaVuSans-32"/>
       <use x="63.623047" xlink:href="#DejaVuSans-63"/>
       <use x="118.603516" xlink:href="#DejaVuSans-5f"/>
       <use x="168.603516" xlink:href="#DejaVuSans-64"/>
       <use x="232.080078" xlink:href="#DejaVuSans-5f"/>
       <use x="282.080078" xlink:href="#DejaVuSans-63"/>
       <use x="337.060547" xlink:href="#DejaVuSans-5f"/>
       <use x="387.060547" xlink:href="#DejaVuSans-33"/>
       <use x="450.683594" xlink:href="#DejaVuSans-66"/>
      </g>
     </g>
    </g>
    <g id="xtick_5">
     <g id="line2d_9">
      <path clip-path="url(#p08db86e85b)" d="M 338.009102 328.21991 
L 338.009102 30.96 
" style="fill:none;stroke:#ffffff;stroke-linecap:round;"/>
     </g>
     <g id="line2d_10"/>
     <g id="text_5">
      <!-- 3c_3f -->
      <g style="fill:#262626;" transform="translate(327.738874 355.172225)rotate(-30)scale(0.1 -0.1)">
       <use xlink:href="#DejaVuSans-33"/>
       <use x="63.623047" xlink:href="#DejaVuSans-63"/>
       <use x="118.603516" xlink:href="#DejaVuSans-5f"/>
       <use x="168.603516" xlink:href="#DejaVuSans-33"/>
       <use x="232.226562" xlink:href="#DejaVuSans-66"/>
      </g>
     </g>
    </g>
    <g id="xtick_6">
     <g id="line2d_11">
      <path clip-path="url(#p08db86e85b)" d="M 399.18668 328.21991 
L 399.18668 30.96 
" style="fill:none;stroke:#ffffff;stroke-linecap:round;"/>
     </g>
     <g id="line2d_12"/>
     <g id="text_6">
      <!-- 3c_3f_d -->
      <g style="fill:#262626;" transform="translate(384.002435 360.846444)rotate(-30)scale(0.1 -0.1)">
       <use xlink:href="#DejaVuSans-33"/>
       <use x="63.623047" xlink:href="#DejaVuSans-63"/>
       <use x="118.603516" xlink:href="#DejaVuSans-5f"/>
       <use x="168.603516" xlink:href="#DejaVuSans-33"/>
       <use x="232.226562" xlink:href="#DejaVuSans-66"/>
       <use x="267.431641" xlink:href="#DejaVuSans-5f"/>
       <use x="317.431641" xlink:href="#DejaVuSans-64"/>
      </g>
     </g>
    </g>
    <g id="xtick_7">
     <g id="line2d_13">
      <path clip-path="url(#p08db86e85b)" d="M 460.364258 328.21991 
L 460.364258 30.96 
" style="fill:none;stroke:#ffffff;stroke-linecap:round;"/>
     </g>
     <g id="line2d_14"/>
     <g id="text_7">
      <!-- cd_2c_3f -->
      <g style="fill:#262626;" transform="translate(442.79912 363.595663)rotate(-30)scale(0.1 -0.1)">
       <use xlink:href="#DejaVuSans-63"/>
       <use x="54.980469" xlink:href="#DejaVuSans-64"/>
       <use x="118.457031" xlink:href="#DejaVuSans-5f"/>
       <use x="168.457031" xlink:href="#DejaVuSans-32"/>
       <use x="232.080078" xlink:href="#DejaVuSans-63"/>
       <use x="287.060547" xlink:href="#DejaVuSans-5f"/>
       <use x="337.060547" xlink:href="#DejaVuSans-33"/>
       <use x="400.683594" xlink:href="#DejaVuSans-66"/>
      </g>
     </g>
    </g>
    <g id="xtick_8">
     <g id="line2d_15">
      <path clip-path="url(#p08db86e85b)" d="M 521.541836 328.21991 
L 521.541836 30.96 
" style="fill:none;stroke:#ffffff;stroke-linecap:round;"/>
     </g>
     <g id="line2d_16"/>
     <g id="text_8">
      <!-- 3c_2f_d_f -->
      <g style="fill:#262626;" transform="translate(502.668188 365.1066)rotate(-30)scale(0.1 -0.1)">
       <use xlink:href="#DejaVuSans-33"/>
       <use x="63.623047" xlink:href="#DejaVuSans-63"/>
       <use x="118.603516" xlink:href="#DejaVuSans-5f"/>
       <use x="168.603516" xlink:href="#DejaVuSans-32"/>
       <use x="232.226562" xlink:href="#DejaVuSans-66"/>
       <use x="267.431641" xlink:href="#DejaVuSans-5f"/>
       <use x="317.431641" xlink:href="#DejaVuSans-64"/>
       <use x="380.908203" xlink:href="#DejaVuSans-5f"/>
       <use x="430.908203" xlink:href="#DejaVuSans-66"/>
      </g>
     </g>
    </g>
    <g id="text_9">
     <!-- Architectures -->
     <defs>
      <path d="M 34.1875 63.1875 
L 20.796875 26.90625 
L 47.609375 26.90625 
z
M 28.609375 72.90625 
L 39.796875 72.90625 
L 67.578125 0 
L 57.328125 0 
L 50.6875 18.703125 
L 17.828125 18.703125 
L 11.1875 0 
L 0.78125 0 
z
" id="DejaVuSans-41"/>
      <path d="M 41.109375 46.296875 
Q 39.59375 47.171875 37.8125 47.578125 
Q 36.03125 48 33.890625 48 
Q 26.265625 48 22.1875 43.046875 
Q 18.109375 38.09375 18.109375 28.8125 
L 18.109375 0 
L 9.078125 0 
L 9.078125 54.6875 
L 18.109375 54.6875 
L 18.109375 46.1875 
Q 20.953125 51.171875 25.484375 53.578125 
Q 30.03125 56 36.53125 56 
Q 37.453125 56 38.578125 55.875 
Q 39.703125 55.765625 41.0625 55.515625 
z
" id="DejaVuSans-72"/>
      <path d="M 54.890625 33.015625 
L 54.890625 0 
L 45.90625 0 
L 45.90625 32.71875 
Q 45.90625 40.484375 42.875 44.328125 
Q 39.84375 48.1875 33.796875 48.1875 
Q 26.515625 48.1875 22.3125 43.546875 
Q 18.109375 38.921875 18.109375 30.90625 
L 18.109375 0 
L 9.078125 0 
L 9.078125 75.984375 
L 18.109375 75.984375 
L 18.109375 46.1875 
Q 21.34375 51.125 25.703125 53.5625 
Q 30.078125 56 35.796875 56 
Q 45.21875 56 50.046875 50.171875 
Q 54.890625 44.34375 54.890625 33.015625 
z
" id="DejaVuSans-68"/>
      <path d="M 9.421875 54.6875 
L 18.40625 54.6875 
L 18.40625 0 
L 9.421875 0 
z
M 9.421875 75.984375 
L 18.40625 75.984375 
L 18.40625 64.59375 
L 9.421875 64.59375 
z
" id="DejaVuSans-69"/>
      <path d="M 18.3125 70.21875 
L 18.3125 54.6875 
L 36.8125 54.6875 
L 36.8125 47.703125 
L 18.3125 47.703125 
L 18.3125 18.015625 
Q 18.3125 11.328125 20.140625 9.421875 
Q 21.96875 7.515625 27.59375 7.515625 
L 36.8125 7.515625 
L 36.8125 0 
L 27.59375 0 
Q 17.1875 0 13.234375 3.875 
Q 9.28125 7.765625 9.28125 18.015625 
L 9.28125 47.703125 
L 2.6875 47.703125 
L 2.6875 54.6875 
L 9.28125 54.6875 
L 9.28125 70.21875 
z
" id="DejaVuSans-74"/>
      <path d="M 56.203125 29.59375 
L 56.203125 25.203125 
L 14.890625 25.203125 
Q 15.484375 15.921875 20.484375 11.0625 
Q 25.484375 6.203125 34.421875 6.203125 
Q 39.59375 6.203125 44.453125 7.46875 
Q 49.3125 8.734375 54.109375 11.28125 
L 54.109375 2.78125 
Q 49.265625 0.734375 44.1875 -0.34375 
Q 39.109375 -1.421875 33.890625 -1.421875 
Q 20.796875 -1.421875 13.15625 6.1875 
Q 5.515625 13.8125 5.515625 26.8125 
Q 5.515625 40.234375 12.765625 48.109375 
Q 20.015625 56 32.328125 56 
Q 43.359375 56 49.78125 48.890625 
Q 56.203125 41.796875 56.203125 29.59375 
z
M 47.21875 32.234375 
Q 47.125 39.59375 43.09375 43.984375 
Q 39.0625 48.390625 32.421875 48.390625 
Q 24.90625 48.390625 20.390625 44.140625 
Q 15.875 39.890625 15.1875 32.171875 
z
" id="DejaVuSans-65"/>
      <path d="M 8.5 21.578125 
L 8.5 54.6875 
L 17.484375 54.6875 
L 17.484375 21.921875 
Q 17.484375 14.15625 20.5 10.265625 
Q 23.53125 6.390625 29.59375 6.390625 
Q 36.859375 6.390625 41.078125 11.03125 
Q 45.3125 15.671875 45.3125 23.6875 
L 45.3125 54.6875 
L 54.296875 54.6875 
L 54.296875 0 
L 45.3125 0 
L 45.3125 8.40625 
Q 42.046875 3.421875 37.71875 1 
Q 33.40625 -1.421875 27.6875 -1.421875 
Q 18.265625 -1.421875 13.375 4.4375 
Q 8.5 10.296875 8.5 21.578125 
z
M 31.109375 56 
z
" id="DejaVuSans-75"/>
      <path d="M 44.28125 53.078125 
L 44.28125 44.578125 
Q 40.484375 46.53125 36.375 47.5 
Q 32.28125 48.484375 27.875 48.484375 
Q 21.1875 48.484375 17.84375 46.4375 
Q 14.5 44.390625 14.5 40.28125 
Q 14.5 37.15625 16.890625 35.375 
Q 19.28125 33.59375 26.515625 31.984375 
L 29.59375 31.296875 
Q 39.15625 29.25 43.1875 25.515625 
Q 47.21875 21.78125 47.21875 15.09375 
Q 47.21875 7.46875 41.1875 3.015625 
Q 35.15625 -1.421875 24.609375 -1.421875 
Q 20.21875 -1.421875 15.453125 -0.5625 
Q 10.6875 0.296875 5.421875 2 
L 5.421875 11.28125 
Q 10.40625 8.6875 15.234375 7.390625 
Q 20.0625 6.109375 24.8125 6.109375 
Q 31.15625 6.109375 34.5625 8.28125 
Q 37.984375 10.453125 37.984375 14.40625 
Q 37.984375 18.0625 35.515625 20.015625 
Q 33.0625 21.96875 24.703125 23.78125 
L 21.578125 24.515625 
Q 13.234375 26.265625 9.515625 29.90625 
Q 5.8125 33.546875 5.8125 39.890625 
Q 5.8125 47.609375 11.28125 51.796875 
Q 16.75 56 26.8125 56 
Q 31.78125 56 36.171875 55.265625 
Q 40.578125 54.546875 44.28125 53.078125 
z
" id="DejaVuSans-73"/>
     </defs>
     <g style="fill:#262626;" transform="translate(270.645938 380.49587)scale(0.11 -0.11)">
      <use xlink:href="#DejaVuSans-41"/>
      <use x="68.408203" xlink:href="#DejaVuSans-72"/>
      <use x="109.490234" xlink:href="#DejaVuSans-63"/>
      <use x="164.470703" xlink:href="#DejaVuSans-68"/>
      <use x="227.849609" xlink:href="#DejaVuSans-69"/>
      <use x="255.632812" xlink:href="#DejaVuSans-74"/>
      <use x="294.841797" xlink:href="#DejaVuSans-65"/>
      <use x="356.365234" xlink:href="#DejaVuSans-63"/>
      <use x="411.345703" xlink:href="#DejaVuSans-74"/>
      <use x="450.554688" xlink:href="#DejaVuSans-75"/>
      <use x="513.933594" xlink:href="#DejaVuSans-72"/>
      <use x="555.015625" xlink:href="#DejaVuSans-65"/>
      <use x="616.539062" xlink:href="#DejaVuSans-73"/>
     </g>
    </g>
   </g>
   <g id="matplotlib.axis_2">
    <g id="ytick_1">
     <g id="line2d_17">
      <path clip-path="url(#p08db86e85b)" d="M 62.71 311.365925 
L 552.130625 311.365925 
" style="fill:none;stroke:#ffffff;stroke-linecap:round;"/>
     </g>
     <g id="line2d_18"/>
     <g id="text_10">
      <!-- 0.935 -->
      <defs>
       <path d="M 31.78125 66.40625 
Q 24.171875 66.40625 20.328125 58.90625 
Q 16.5 51.421875 16.5 36.375 
Q 16.5 21.390625 20.328125 13.890625 
Q 24.171875 6.390625 31.78125 6.390625 
Q 39.453125 6.390625 43.28125 13.890625 
Q 47.125 21.390625 47.125 36.375 
Q 47.125 51.421875 43.28125 58.90625 
Q 39.453125 66.40625 31.78125 66.40625 
z
M 31.78125 74.21875 
Q 44.046875 74.21875 50.515625 64.515625 
Q 56.984375 54.828125 56.984375 36.375 
Q 56.984375 17.96875 50.515625 8.265625 
Q 44.046875 -1.421875 31.78125 -1.421875 
Q 19.53125 -1.421875 13.0625 8.265625 
Q 6.59375 17.96875 6.59375 36.375 
Q 6.59375 54.828125 13.0625 64.515625 
Q 19.53125 74.21875 31.78125 74.21875 
z
" id="DejaVuSans-30"/>
       <path d="M 10.6875 12.40625 
L 21 12.40625 
L 21 0 
L 10.6875 0 
z
" id="DejaVuSans-2e"/>
       <path d="M 10.984375 1.515625 
L 10.984375 10.5 
Q 14.703125 8.734375 18.5 7.8125 
Q 22.3125 6.890625 25.984375 6.890625 
Q 35.75 6.890625 40.890625 13.453125 
Q 46.046875 20.015625 46.78125 33.40625 
Q 43.953125 29.203125 39.59375 26.953125 
Q 35.25 24.703125 29.984375 24.703125 
Q 19.046875 24.703125 12.671875 31.3125 
Q 6.296875 37.9375 6.296875 49.421875 
Q 6.296875 60.640625 12.9375 67.421875 
Q 19.578125 74.21875 30.609375 74.21875 
Q 43.265625 74.21875 49.921875 64.515625 
Q 56.59375 54.828125 56.59375 36.375 
Q 56.59375 19.140625 48.40625 8.859375 
Q 40.234375 -1.421875 26.421875 -1.421875 
Q 22.703125 -1.421875 18.890625 -0.6875 
Q 15.09375 0.046875 10.984375 1.515625 
z
M 30.609375 32.421875 
Q 37.25 32.421875 41.125 36.953125 
Q 45.015625 41.5 45.015625 49.421875 
Q 45.015625 57.28125 41.125 61.84375 
Q 37.25 66.40625 30.609375 66.40625 
Q 23.96875 66.40625 20.09375 61.84375 
Q 16.21875 57.28125 16.21875 49.421875 
Q 16.21875 41.5 20.09375 36.953125 
Q 23.96875 32.421875 30.609375 32.421875 
z
" id="DejaVuSans-39"/>
       <path d="M 10.796875 72.90625 
L 49.515625 72.90625 
L 49.515625 64.59375 
L 19.828125 64.59375 
L 19.828125 46.734375 
Q 21.96875 47.46875 24.109375 47.828125 
Q 26.265625 48.1875 28.421875 48.1875 
Q 40.625 48.1875 47.75 41.5 
Q 54.890625 34.8125 54.890625 23.390625 
Q 54.890625 11.625 47.5625 5.09375 
Q 40.234375 -1.421875 26.90625 -1.421875 
Q 22.3125 -1.421875 17.546875 -0.640625 
Q 12.796875 0.140625 7.71875 1.703125 
L 7.71875 11.625 
Q 12.109375 9.234375 16.796875 8.0625 
Q 21.484375 6.890625 26.703125 6.890625 
Q 35.15625 6.890625 40.078125 11.328125 
Q 45.015625 15.765625 45.015625 23.390625 
Q 45.015625 31 40.078125 35.4375 
Q 35.15625 39.890625 26.703125 39.890625 
Q 22.75 39.890625 18.8125 39.015625 
Q 14.890625 38.140625 10.796875 36.28125 
z
" id="DejaVuSans-35"/>
      </defs>
      <g style="fill:#262626;" transform="translate(27.081875 315.165144)scale(0.1 -0.1)">
       <use xlink:href="#DejaVuSans-30"/>
       <use x="63.623047" xlink:href="#DejaVuSans-2e"/>
       <use x="95.410156" xlink:href="#DejaVuSans-39"/>
       <use x="159.033203" xlink:href="#DejaVuSans-33"/>
       <use x="222.65625" xlink:href="#DejaVuSans-35"/>
      </g>
     </g>
    </g>
    <g id="ytick_2">
     <g id="line2d_19">
      <path clip-path="url(#p08db86e85b)" d="M 62.71 248.643079 
L 552.130625 248.643079 
" style="fill:none;stroke:#ffffff;stroke-linecap:round;"/>
     </g>
     <g id="line2d_20"/>
     <g id="text_11">
      <!-- 0.940 -->
      <defs>
       <path d="M 37.796875 64.3125 
L 12.890625 25.390625 
L 37.796875 25.390625 
z
M 35.203125 72.90625 
L 47.609375 72.90625 
L 47.609375 25.390625 
L 58.015625 25.390625 
L 58.015625 17.1875 
L 47.609375 17.1875 
L 47.609375 0 
L 37.796875 0 
L 37.796875 17.1875 
L 4.890625 17.1875 
L 4.890625 26.703125 
z
" id="DejaVuSans-34"/>
      </defs>
      <g style="fill:#262626;" transform="translate(27.081875 252.442298)scale(0.1 -0.1)">
       <use xlink:href="#DejaVuSans-30"/>
       <use x="63.623047" xlink:href="#DejaVuSans-2e"/>
       <use x="95.410156" xlink:href="#DejaVuSans-39"/>
       <use x="159.033203" xlink:href="#DejaVuSans-34"/>
       <use x="222.65625" xlink:href="#DejaVuSans-30"/>
      </g>
     </g>
    </g>
    <g id="ytick_3">
     <g id="line2d_21">
      <path clip-path="url(#p08db86e85b)" d="M 62.71 185.920233 
L 552.130625 185.920233 
" style="fill:none;stroke:#ffffff;stroke-linecap:round;"/>
     </g>
     <g id="line2d_22"/>
     <g id="text_12">
      <!-- 0.945 -->
      <g style="fill:#262626;" transform="translate(27.081875 189.719452)scale(0.1 -0.1)">
       <use xlink:href="#DejaVuSans-30"/>
       <use x="63.623047" xlink:href="#DejaVuSans-2e"/>
       <use x="95.410156" xlink:href="#DejaVuSans-39"/>
       <use x="159.033203" xlink:href="#DejaVuSans-34"/>
       <use x="222.65625" xlink:href="#DejaVuSans-35"/>
      </g>
     </g>
    </g>
    <g id="ytick_4">
     <g id="line2d_23">
      <path clip-path="url(#p08db86e85b)" d="M 62.71 123.197387 
L 552.130625 123.197387 
" style="fill:none;stroke:#ffffff;stroke-linecap:round;"/>
     </g>
     <g id="line2d_24"/>
     <g id="text_13">
      <!-- 0.950 -->
      <g style="fill:#262626;" transform="translate(27.081875 126.996605)scale(0.1 -0.1)">
       <use xlink:href="#DejaVuSans-30"/>
       <use x="63.623047" xlink:href="#DejaVuSans-2e"/>
       <use x="95.410156" xlink:href="#DejaVuSans-39"/>
       <use x="159.033203" xlink:href="#DejaVuSans-35"/>
       <use x="222.65625" xlink:href="#DejaVuSans-30"/>
      </g>
     </g>
    </g>
    <g id="ytick_5">
     <g id="line2d_25">
      <path clip-path="url(#p08db86e85b)" d="M 62.71 60.47454 
L 552.130625 60.47454 
" style="fill:none;stroke:#ffffff;stroke-linecap:round;"/>
     </g>
     <g id="line2d_26"/>
     <g id="text_14">
      <!-- 0.955 -->
      <g style="fill:#262626;" transform="translate(27.081875 64.273759)scale(0.1 -0.1)">
       <use xlink:href="#DejaVuSans-30"/>
       <use x="63.623047" xlink:href="#DejaVuSans-2e"/>
       <use x="95.410156" xlink:href="#DejaVuSans-39"/>
       <use x="159.033203" xlink:href="#DejaVuSans-35"/>
       <use x="222.65625" xlink:href="#DejaVuSans-35"/>
      </g>
     </g>
    </g>
    <g id="text_15">
     <!-- Auc -->
     <g style="fill:#262626;" transform="translate(20.794219 189.862065)rotate(-90)scale(0.11 -0.11)">
      <use xlink:href="#DejaVuSans-41"/>
      <use x="68.408203" xlink:href="#DejaVuSans-75"/>
      <use x="131.787109" xlink:href="#DejaVuSans-63"/>
     </g>
    </g>
   </g>
   <g id="PolyCollection_1">
    <defs>
     <path d="M 94.171517 -245.334151 
L 92.426061 -245.334151 
L 92.260782 -246.406818 
L 92.071789 -247.479485 
L 91.857286 -248.552152 
L 91.615665 -249.624819 
L 91.345577 -250.697486 
L 91.046009 -251.770153 
L 90.716361 -252.84282 
L 90.356525 -253.915487 
L 89.966957 -254.988154 
L 89.548738 -256.060821 
L 89.103626 -257.133488 
L 88.634094 -258.206155 
L 88.143344 -259.278822 
L 87.635302 -260.351489 
L 87.114589 -261.424156 
L 86.586467 -262.496823 
L 86.056761 -263.56949 
L 85.531749 -264.642157 
L 85.018036 -265.714824 
L 84.522406 -266.787491 
L 84.051656 -267.860158 
L 83.612423 -268.932825 
L 83.211001 -270.005492 
L 82.853163 -271.078159 
L 82.54399 -272.150826 
L 82.287715 -273.223493 
L 82.087589 -274.29616 
L 81.945771 -275.368827 
L 81.863254 -276.441494 
L 81.839818 -277.514161 
L 81.874031 -278.586828 
L 81.963276 -279.659495 
L 82.103825 -280.732162 
L 82.29094 -281.804829 
L 82.519008 -282.877497 
L 82.781701 -283.950164 
L 83.072157 -285.022831 
L 83.38317 -286.095498 
L 83.707395 -287.168165 
L 84.037543 -288.240832 
L 84.366575 -289.313499 
L 84.68788 -290.386166 
L 84.995433 -291.458833 
L 85.283931 -292.5315 
L 85.548905 -293.604167 
L 85.786792 -294.676834 
L 85.994992 -295.749501 
L 86.171882 -296.822168 
L 86.316803 -297.894835 
L 86.43003 -298.967502 
L 86.512703 -300.040169 
L 86.566751 -301.112836 
L 86.59479 -302.185503 
L 86.600014 -303.25817 
L 86.586079 -304.330837 
L 86.556981 -305.403504 
L 86.516932 -306.476171 
L 86.470248 -307.548838 
L 86.421232 -308.621505 
L 86.374077 -309.694172 
L 86.332774 -310.766839 
L 86.301028 -311.839506 
L 86.2822 -312.912173 
L 86.279242 -313.98484 
L 86.294665 -315.057507 
L 86.330504 -316.130174 
L 86.388303 -317.202841 
L 86.469103 -318.275508 
L 86.573454 -319.348175 
L 86.701418 -320.420842 
L 86.852593 -321.493509 
L 87.02614 -322.566176 
L 87.220819 -323.638843 
L 87.435028 -324.71151 
L 87.666846 -325.784177 
L 87.914089 -326.856844 
L 88.174355 -327.929511 
L 88.445088 -329.002178 
L 88.723627 -330.074845 
L 89.007268 -331.147512 
L 89.29332 -332.22018 
L 89.579152 -333.292847 
L 89.862249 -334.365514 
L 90.140257 -335.438181 
L 90.411015 -336.510848 
L 90.672596 -337.583515 
L 90.923324 -338.656182 
L 91.161796 -339.728849 
L 91.38689 -340.801516 
L 91.597766 -341.874183 
L 91.79386 -342.94685 
L 91.974871 -344.019517 
L 92.140747 -345.092184 
L 92.291658 -346.164851 
L 92.427969 -347.237518 
L 92.550218 -348.310185 
L 92.659077 -349.382852 
L 92.75533 -350.455519 
L 92.839839 -351.528186 
L 93.757739 -351.528186 
L 93.757739 -351.528186 
L 93.842248 -350.455519 
L 93.938501 -349.382852 
L 94.04736 -348.310185 
L 94.169609 -347.237518 
L 94.30592 -346.164851 
L 94.456831 -345.092184 
L 94.622707 -344.019517 
L 94.803718 -342.94685 
L 94.999812 -341.874183 
L 95.210688 -340.801516 
L 95.435782 -339.728849 
L 95.674254 -338.656182 
L 95.924982 -337.583515 
L 96.186563 -336.510848 
L 96.457321 -335.438181 
L 96.735329 -334.365514 
L 97.018427 -333.292847 
L 97.304259 -332.22018 
L 97.59031 -331.147512 
L 97.873951 -330.074845 
L 98.15249 -329.002178 
L 98.423223 -327.929511 
L 98.683489 -326.856844 
L 98.930732 -325.784177 
L 99.16255 -324.71151 
L 99.376759 -323.638843 
L 99.571438 -322.566176 
L 99.744985 -321.493509 
L 99.89616 -320.420842 
L 100.024124 -319.348175 
L 100.128475 -318.275508 
L 100.209276 -317.202841 
L 100.267074 -316.130174 
L 100.302913 -315.057507 
L 100.318336 -313.98484 
L 100.315378 -312.912173 
L 100.29655 -311.839506 
L 100.264805 -310.766839 
L 100.223501 -309.694172 
L 100.176346 -308.621505 
L 100.12733 -307.548838 
L 100.080646 -306.476171 
L 100.040597 -305.403504 
L 100.011499 -304.330837 
L 99.997564 -303.25817 
L 100.002788 -302.185503 
L 100.030827 -301.112836 
L 100.084875 -300.040169 
L 100.167548 -298.967502 
L 100.280775 -297.894835 
L 100.425697 -296.822168 
L 100.602586 -295.749501 
L 100.810786 -294.676834 
L 101.048673 -293.604167 
L 101.313647 -292.5315 
L 101.602145 -291.458833 
L 101.909698 -290.386166 
L 102.231003 -289.313499 
L 102.560035 -288.240832 
L 102.890183 -287.168165 
L 103.214408 -286.095498 
L 103.525422 -285.022831 
L 103.815877 -283.950164 
L 104.07857 -282.877497 
L 104.306638 -281.804829 
L 104.493753 -280.732162 
L 104.634302 -279.659495 
L 104.723547 -278.586828 
L 104.75776 -277.514161 
L 104.734324 -276.441494 
L 104.651807 -275.368827 
L 104.509989 -274.29616 
L 104.309863 -273.223493 
L 104.053588 -272.150826 
L 103.744415 -271.078159 
L 103.386577 -270.005492 
L 102.985155 -268.932825 
L 102.545922 -267.860158 
L 102.075173 -266.787491 
L 101.579542 -265.714824 
L 101.065829 -264.642157 
L 100.540817 -263.56949 
L 100.011111 -262.496823 
L 99.48299 -261.424156 
L 98.962276 -260.351489 
L 98.454234 -259.278822 
L 97.963484 -258.206155 
L 97.493952 -257.133488 
L 97.048841 -256.060821 
L 96.630621 -254.988154 
L 96.241053 -253.915487 
L 95.881217 -252.84282 
L 95.551569 -251.770153 
L 95.252001 -250.697486 
L 94.981913 -249.624819 
L 94.740292 -248.552152 
L 94.525789 -247.479485 
L 94.336796 -246.406818 
L 94.171517 -245.334151 
z
" id="mb5e9118e63" style="stroke:#8a8a8a;stroke-width:1.75;"/>
    </defs>
    <g clip-path="url(#p08db86e85b)">
     <use style="fill:#e6e6e6;stroke:#8a8a8a;stroke-width:1.75;" x="0" xlink:href="#mb5e9118e63" y="396"/>
    </g>
   </g>
   <g id="PolyCollection_2">
    <defs>
     <path d="M 155.047084 -227.783231 
L 153.905651 -227.783231 
L 153.762928 -228.632651 
L 153.591399 -229.482072 
L 153.386939 -230.331493 
L 153.145192 -231.180913 
L 152.861624 -232.030334 
L 152.531598 -232.879754 
L 152.150462 -233.729175 
L 151.713655 -234.578596 
L 151.216832 -235.428016 
L 150.656011 -236.277437 
L 150.027736 -237.126857 
L 149.32926 -237.976278 
L 148.558751 -238.825699 
L 147.715511 -239.675119 
L 146.800204 -240.52454 
L 145.815087 -241.37396 
L 144.764242 -242.223381 
L 143.653771 -243.072802 
L 142.491978 -243.922222 
L 141.289476 -244.771643 
L 140.059235 -245.621063 
L 138.816544 -246.470484 
L 137.578853 -247.319905 
L 136.36552 -248.169325 
L 135.197418 -249.018746 
L 134.096434 -249.868166 
L 133.084856 -250.717587 
L 132.184667 -251.567008 
L 131.416779 -252.416428 
L 130.800241 -253.265849 
L 130.351457 -254.115269 
L 130.083469 -254.96469 
L 130.005336 -255.814111 
L 130.121656 -256.663531 
L 130.432266 -257.512952 
L 130.932141 -258.362372 
L 131.6115 -259.211793 
L 132.456125 -260.061214 
L 133.447873 -260.910634 
L 134.565351 -261.760055 
L 135.784727 -262.609475 
L 137.080614 -263.458896 
L 138.426991 -264.308317 
L 139.79811 -265.157737 
L 141.169333 -266.007158 
L 142.517864 -266.856578 
L 143.823352 -267.705999 
L 145.068324 -268.55542 
L 146.238467 -269.40484 
L 147.32273 -270.254261 
L 148.313283 -271.103681 
L 149.205341 -271.953102 
L 149.996884 -272.802523 
L 150.688297 -273.651943 
L 151.281966 -274.501364 
L 151.781867 -275.350784 
L 152.193155 -276.200205 
L 152.521796 -277.049626 
L 152.774245 -277.899046 
L 152.95719 -278.748467 
L 153.077353 -279.597887 
L 153.141367 -280.447308 
L 153.155699 -281.296729 
L 153.126632 -282.146149 
L 153.060276 -282.99557 
L 152.962606 -283.84499 
L 152.839505 -284.694411 
L 152.696805 -285.543832 
L 152.540311 -286.393252 
L 152.375799 -287.242673 
L 152.208991 -288.092093 
L 152.04549 -288.941514 
L 151.890693 -289.790935 
L 151.749679 -290.640355 
L 151.627079 -291.489776 
L 151.526945 -292.339196 
L 151.452618 -293.188617 
L 151.406618 -294.038038 
L 151.390558 -294.887458 
L 151.405093 -295.736879 
L 151.449909 -296.586299 
L 151.523757 -297.43572 
L 151.624522 -298.285141 
L 151.74934 -299.134561 
L 151.894741 -299.983982 
L 152.056811 -300.833402 
L 152.231373 -301.682823 
L 152.414166 -302.532244 
L 152.601017 -303.381664 
L 152.787991 -304.231085 
L 152.971525 -305.080505 
L 153.148521 -305.929926 
L 153.316417 -306.779347 
L 153.473218 -307.628767 
L 153.617499 -308.478188 
L 153.748383 -309.327608 
L 153.865493 -310.177029 
L 153.96889 -311.026449 
L 154.059002 -311.87587 
L 154.893732 -311.87587 
L 154.893732 -311.87587 
L 154.983845 -311.026449 
L 155.087242 -310.177029 
L 155.204351 -309.327608 
L 155.335235 -308.478188 
L 155.479516 -307.628767 
L 155.636317 -306.779347 
L 155.804213 -305.929926 
L 155.981209 -305.080505 
L 156.164743 -304.231085 
L 156.351718 -303.381664 
L 156.538568 -302.532244 
L 156.721361 -301.682823 
L 156.895923 -300.833402 
L 157.057993 -299.983982 
L 157.203394 -299.134561 
L 157.328213 -298.285141 
L 157.428978 -297.43572 
L 157.502825 -296.586299 
L 157.547641 -295.736879 
L 157.562176 -294.887458 
L 157.546116 -294.038038 
L 157.500116 -293.188617 
L 157.425789 -292.339196 
L 157.325655 -291.489776 
L 157.203056 -290.640355 
L 157.062041 -289.790935 
L 156.907244 -288.941514 
L 156.743743 -288.092093 
L 156.576935 -287.242673 
L 156.412424 -286.393252 
L 156.255929 -285.543832 
L 156.11323 -284.694411 
L 155.990129 -283.84499 
L 155.892459 -282.99557 
L 155.826103 -282.146149 
L 155.797036 -281.296729 
L 155.811368 -280.447308 
L 155.875381 -279.597887 
L 155.995545 -278.748467 
L 156.178489 -277.899046 
L 156.430938 -277.049626 
L 156.759579 -276.200205 
L 157.170867 -275.350784 
L 157.670768 -274.501364 
L 158.264438 -273.651943 
L 158.95585 -272.802523 
L 159.747393 -271.953102 
L 160.639452 -271.103681 
L 161.630005 -270.254261 
L 162.714267 -269.40484 
L 163.88441 -268.55542 
L 165.129383 -267.705999 
L 166.43487 -266.856578 
L 167.783402 -266.007158 
L 169.154624 -265.157737 
L 170.525743 -264.308317 
L 171.87212 -263.458896 
L 173.168007 -262.609475 
L 174.387383 -261.760055 
L 175.504862 -260.910634 
L 176.496609 -260.061214 
L 177.341234 -259.211793 
L 178.020593 -258.362372 
L 178.520468 -257.512952 
L 178.831078 -256.663531 
L 178.947398 -255.814111 
L 178.869265 -254.96469 
L 178.601278 -254.115269 
L 178.152494 -253.265849 
L 177.535955 -252.416428 
L 176.768067 -251.567008 
L 175.867878 -250.717587 
L 174.8563 -249.868166 
L 173.755317 -249.018746 
L 172.587214 -248.169325 
L 171.373881 -247.319905 
L 170.136191 -246.470484 
L 168.893499 -245.621063 
L 167.663259 -244.771643 
L 166.460756 -243.922222 
L 165.298963 -243.072802 
L 164.188493 -242.223381 
L 163.137647 -241.37396 
L 162.152531 -240.52454 
L 161.237223 -239.675119 
L 160.393983 -238.825699 
L 159.623475 -237.976278 
L 158.924999 -237.126857 
L 158.296723 -236.277437 
L 157.735902 -235.428016 
L 157.239079 -234.578596 
L 156.802272 -233.729175 
L 156.421136 -232.879754 
L 156.09111 -232.030334 
L 155.807543 -231.180913 
L 155.565796 -230.331493 
L 155.361336 -229.482072 
L 155.189806 -228.632651 
L 155.047084 -227.783231 
z
" id="m9f312f9633" style="stroke:#8a8a8a;stroke-width:1.75;"/>
    </defs>
    <g clip-path="url(#p08db86e85b)">
     <use style="fill:#e6e6e6;stroke:#8a8a8a;stroke-width:1.75;" x="0" xlink:href="#m9f312f9633" y="396"/>
    </g>
   </g>
   <g id="PolyCollection_3">
    <defs>
     <path d="M 215.944464 -174.903945 
L 215.363427 -174.903945 
L 215.308731 -175.979121 
L 215.246652 -177.054296 
L 215.176793 -178.129472 
L 215.098851 -179.204647 
L 215.012633 -180.279823 
L 214.918068 -181.354998 
L 214.815227 -182.430174 
L 214.704321 -183.505349 
L 214.58571 -184.580524 
L 214.459892 -185.6557 
L 214.327495 -186.730875 
L 214.189255 -187.806051 
L 214.045996 -188.881226 
L 213.898595 -189.956402 
L 213.747954 -191.031577 
L 213.594963 -192.106753 
L 213.440468 -193.181928 
L 213.285238 -194.257103 
L 213.129945 -195.332279 
L 212.975147 -196.407454 
L 212.821275 -197.48263 
L 212.668642 -198.557805 
L 212.517453 -199.632981 
L 212.367833 -200.708156 
L 212.219848 -201.783332 
L 212.073555 -202.858507 
L 211.929031 -203.933682 
L 211.786414 -205.008858 
L 211.645936 -206.084033 
L 211.507946 -207.159209 
L 211.372916 -208.234384 
L 211.241434 -209.30956 
L 211.114181 -210.384735 
L 210.991886 -211.459911 
L 210.875262 -212.535086 
L 210.764926 -213.610261 
L 210.661317 -214.685437 
L 210.564589 -215.760612 
L 210.474526 -216.835788 
L 210.390441 -217.910963 
L 210.31111 -218.986139 
L 210.234712 -220.061314 
L 210.158804 -221.13649 
L 210.080328 -222.211665 
L 209.995653 -223.28684 
L 209.900658 -224.362016 
L 209.790851 -225.437191 
L 209.661526 -226.512367 
L 209.507949 -227.587542 
L 209.325574 -228.662718 
L 209.110267 -229.737893 
L 208.858543 -230.813069 
L 208.567797 -231.888244 
L 208.236514 -232.963419 
L 207.864459 -234.038595 
L 207.452824 -235.11377 
L 207.00433 -236.188946 
L 206.523268 -237.264121 
L 206.015488 -238.339297 
L 205.488318 -239.414472 
L 204.950421 -240.489648 
L 204.411593 -241.564823 
L 203.882502 -242.639999 
L 203.374387 -243.715174 
L 202.898714 -244.790349 
L 202.466819 -245.865525 
L 202.089537 -246.9407 
L 201.776843 -248.015876 
L 201.537514 -249.091051 
L 201.378833 -250.166227 
L 201.306338 -251.241402 
L 201.323637 -252.316578 
L 201.432292 -253.391753 
L 201.631775 -254.466928 
L 201.9195 -255.542104 
L 202.290933 -256.617279 
L 202.739757 -257.692455 
L 203.258106 -258.76763 
L 203.836843 -259.842806 
L 204.46587 -260.917981 
L 205.134454 -261.993157 
L 205.83157 -263.068332 
L 206.546221 -264.143507 
L 207.267744 -265.218683 
L 207.986085 -266.293858 
L 208.692026 -267.369034 
L 209.377368 -268.444209 
L 210.035069 -269.519385 
L 210.659319 -270.59456 
L 211.245575 -271.669736 
L 211.790546 -272.744911 
L 212.292138 -273.820086 
L 212.749366 -274.895262 
L 213.162241 -275.970437 
L 213.531636 -277.045613 
L 213.859147 -278.120788 
L 214.146945 -279.195964 
L 214.39763 -280.271139 
L 214.614103 -281.346315 
L 216.693788 -281.346315 
L 216.693788 -281.346315 
L 216.910261 -280.271139 
L 217.160946 -279.195964 
L 217.448743 -278.120788 
L 217.776254 -277.045613 
L 218.14565 -275.970437 
L 218.558524 -274.895262 
L 219.015752 -273.820086 
L 219.517344 -272.744911 
L 220.062315 -271.669736 
L 220.648571 -270.59456 
L 221.272821 -269.519385 
L 221.930522 -268.444209 
L 222.615865 -267.369034 
L 223.321805 -266.293858 
L 224.040146 -265.218683 
L 224.76167 -264.143507 
L 225.47632 -263.068332 
L 226.173436 -261.993157 
L 226.842021 -260.917981 
L 227.471047 -259.842806 
L 228.049785 -258.76763 
L 228.568134 -257.692455 
L 229.016957 -256.617279 
L 229.38839 -255.542104 
L 229.676116 -254.466928 
L 229.875599 -253.391753 
L 229.984253 -252.316578 
L 230.001552 -251.241402 
L 229.929057 -250.166227 
L 229.770376 -249.091051 
L 229.531048 -248.015876 
L 229.218354 -246.9407 
L 228.841072 -245.865525 
L 228.409177 -244.790349 
L 227.933504 -243.715174 
L 227.425388 -242.639999 
L 226.896298 -241.564823 
L 226.35747 -240.489648 
L 225.819573 -239.414472 
L 225.292403 -238.339297 
L 224.784623 -237.264121 
L 224.303561 -236.188946 
L 223.855066 -235.11377 
L 223.443432 -234.038595 
L 223.071377 -232.963419 
L 222.740094 -231.888244 
L 222.449347 -230.813069 
L 222.197624 -229.737893 
L 221.982317 -228.662718 
L 221.799942 -227.587542 
L 221.646365 -226.512367 
L 221.51704 -225.437191 
L 221.407233 -224.362016 
L 221.312238 -223.28684 
L 221.227563 -222.211665 
L 221.149087 -221.13649 
L 221.073179 -220.061314 
L 220.99678 -218.986139 
L 220.917449 -217.910963 
L 220.833365 -216.835788 
L 220.743301 -215.760612 
L 220.646574 -214.685437 
L 220.542964 -213.610261 
L 220.432629 -212.535086 
L 220.316004 -211.459911 
L 220.193709 -210.384735 
L 220.066457 -209.30956 
L 219.934975 -208.234384 
L 219.799944 -207.159209 
L 219.661954 -206.084033 
L 219.521477 -205.008858 
L 219.37886 -203.933682 
L 219.234335 -202.858507 
L 219.088042 -201.783332 
L 218.940058 -200.708156 
L 218.790437 -199.632981 
L 218.639249 -198.557805 
L 218.486616 -197.48263 
L 218.332744 -196.407454 
L 218.177945 -195.332279 
L 218.022653 -194.257103 
L 217.867423 -193.181928 
L 217.712927 -192.106753 
L 217.559936 -191.031577 
L 217.409295 -189.956402 
L 217.261895 -188.881226 
L 217.118636 -187.806051 
L 216.980396 -186.730875 
L 216.847999 -185.6557 
L 216.722181 -184.580524 
L 216.603569 -183.505349 
L 216.492664 -182.430174 
L 216.389822 -181.354998 
L 216.295258 -180.279823 
L 216.209039 -179.204647 
L 216.131098 -178.129472 
L 216.061239 -177.054296 
L 215.99916 -175.979121 
L 215.944464 -174.903945 
z
" id="m0599d19184" style="stroke:#8a8a8a;stroke-width:1.75;"/>
    </defs>
    <g clip-path="url(#p08db86e85b)">
     <use style="fill:#e6e6e6;stroke:#8a8a8a;stroke-width:1.75;" x="0" xlink:href="#m0599d19184" y="396"/>
    </g>
   </g>
   <g id="PolyCollection_4">
    <defs>
     <path d="M 277.25359 -167.433745 
L 276.409456 -167.433745 
L 276.323695 -168.931886 
L 276.22468 -170.430027 
L 276.111298 -171.928168 
L 275.982532 -173.426309 
L 275.837513 -174.92445 
L 275.675564 -176.422591 
L 275.496249 -177.920732 
L 275.29942 -179.418873 
L 275.085259 -180.917014 
L 274.854317 -182.415155 
L 274.607537 -183.913296 
L 274.346275 -185.411437 
L 274.072302 -186.909578 
L 273.78779 -188.407719 
L 273.495285 -189.90586 
L 273.197667 -191.404001 
L 272.898083 -192.902142 
L 272.599879 -194.400283 
L 272.306509 -195.898424 
L 272.021441 -197.396565 
L 271.74805 -198.894706 
L 271.489523 -200.392847 
L 271.248749 -201.890988 
L 271.028228 -203.389129 
L 270.829993 -204.88727 
L 270.655537 -206.385411 
L 270.505771 -207.883552 
L 270.380995 -209.381693 
L 270.280893 -210.879834 
L 270.204556 -212.377975 
L 270.150519 -213.876116 
L 270.116824 -215.374257 
L 270.101097 -216.872398 
L 270.100639 -218.370539 
L 270.112526 -219.86868 
L 270.133713 -221.366821 
L 270.16114 -222.864962 
L 270.191834 -224.363103 
L 270.222999 -225.861244 
L 270.252101 -227.359385 
L 270.276938 -228.857526 
L 270.295694 -230.355668 
L 270.30698 -231.853809 
L 270.309856 -233.35195 
L 270.303846 -234.850091 
L 270.288933 -236.348232 
L 270.265541 -237.846373 
L 270.234513 -239.344514 
L 270.197072 -240.842655 
L 270.154783 -242.340796 
L 270.109497 -243.838937 
L 270.063305 -245.337078 
L 270.018472 -246.835219 
L 269.977381 -248.33336 
L 269.942467 -249.831501 
L 269.916154 -251.329642 
L 269.900791 -252.827783 
L 269.898589 -254.325924 
L 269.911566 -255.824065 
L 269.941487 -257.322206 
L 269.989824 -258.820347 
L 270.05771 -260.318488 
L 270.14591 -261.816629 
L 270.254808 -263.31477 
L 270.38439 -264.812911 
L 270.534252 -266.311052 
L 270.703615 -267.809193 
L 270.891347 -269.307334 
L 271.096001 -270.805475 
L 271.315857 -272.303616 
L 271.548968 -273.801757 
L 271.793215 -275.299898 
L 272.046359 -276.798039 
L 272.306098 -278.29618 
L 272.570116 -279.794321 
L 272.83613 -281.292462 
L 273.101937 -282.790603 
L 273.36545 -284.288744 
L 273.624726 -285.786885 
L 273.877997 -287.285026 
L 274.123681 -288.783167 
L 274.360399 -290.281308 
L 274.586983 -291.779449 
L 274.802471 -293.27759 
L 275.006112 -294.775731 
L 275.197356 -296.273872 
L 275.375845 -297.772013 
L 275.541405 -299.270154 
L 275.694024 -300.768295 
L 275.833847 -302.266436 
L 275.961152 -303.764577 
L 276.076337 -305.262718 
L 276.1799 -306.760859 
L 276.272422 -308.259 
L 276.354549 -309.757141 
L 276.426977 -311.255282 
L 276.490432 -312.753423 
L 276.545656 -314.251564 
L 276.593396 -315.749705 
L 277.069651 -315.749705 
L 277.069651 -315.749705 
L 277.117391 -314.251564 
L 277.172615 -312.753423 
L 277.23607 -311.255282 
L 277.308498 -309.757141 
L 277.390625 -308.259 
L 277.483147 -306.760859 
L 277.58671 -305.262718 
L 277.701895 -303.764577 
L 277.8292 -302.266436 
L 277.969023 -300.768295 
L 278.121642 -299.270154 
L 278.287201 -297.772013 
L 278.465691 -296.273872 
L 278.656935 -294.775731 
L 278.860576 -293.27759 
L 279.076064 -291.779449 
L 279.302648 -290.281308 
L 279.539366 -288.783167 
L 279.78505 -287.285026 
L 280.038321 -285.786885 
L 280.297597 -284.288744 
L 280.56111 -282.790603 
L 280.826917 -281.292462 
L 281.092931 -279.794321 
L 281.356949 -278.29618 
L 281.616688 -276.798039 
L 281.869832 -275.299898 
L 282.114079 -273.801757 
L 282.34719 -272.303616 
L 282.567046 -270.805475 
L 282.7717 -269.307334 
L 282.959432 -267.809193 
L 283.128795 -266.311052 
L 283.278657 -264.812911 
L 283.408239 -263.31477 
L 283.517136 -261.816629 
L 283.605337 -260.318488 
L 283.673223 -258.820347 
L 283.721559 -257.322206 
L 283.751481 -255.824065 
L 283.764458 -254.325924 
L 283.762256 -252.827783 
L 283.746893 -251.329642 
L 283.72058 -249.831501 
L 283.685666 -248.33336 
L 283.644575 -246.835219 
L 283.599742 -245.337078 
L 283.55355 -243.838937 
L 283.508264 -242.340796 
L 283.465975 -240.842655 
L 283.428534 -239.344514 
L 283.397506 -237.846373 
L 283.374114 -236.348232 
L 283.359201 -234.850091 
L 283.353191 -233.35195 
L 283.356067 -231.853809 
L 283.367353 -230.355668 
L 283.386108 -228.857526 
L 283.410946 -227.359385 
L 283.440048 -225.861244 
L 283.471213 -224.363103 
L 283.501906 -222.864962 
L 283.529334 -221.366821 
L 283.550521 -219.86868 
L 283.562407 -218.370539 
L 283.561949 -216.872398 
L 283.546223 -215.374257 
L 283.512528 -213.876116 
L 283.458491 -212.377975 
L 283.382154 -210.879834 
L 283.282052 -209.381693 
L 283.157276 -207.883552 
L 283.00751 -206.385411 
L 282.833054 -204.88727 
L 282.634819 -203.389129 
L 282.414298 -201.890988 
L 282.173524 -200.392847 
L 281.914996 -198.894706 
L 281.641606 -197.396565 
L 281.356538 -195.898424 
L 281.063168 -194.400283 
L 280.764964 -192.902142 
L 280.46538 -191.404001 
L 280.167762 -189.90586 
L 279.875257 -188.407719 
L 279.590745 -186.909578 
L 279.316772 -185.411437 
L 279.05551 -183.913296 
L 278.80873 -182.415155 
L 278.577788 -180.917014 
L 278.363627 -179.418873 
L 278.166798 -177.920732 
L 277.987483 -176.422591 
L 277.825534 -174.92445 
L 277.680515 -173.426309 
L 277.551749 -171.928168 
L 277.438367 -170.430027 
L 277.339352 -168.931886 
L 277.25359 -167.433745 
z
" id="mfea0d3a953" style="stroke:#8a8a8a;stroke-width:1.75;"/>
    </defs>
    <g clip-path="url(#p08db86e85b)">
     <use style="fill:#e6e6e6;stroke:#8a8a8a;stroke-width:1.75;" x="0" xlink:href="#mfea0d3a953" y="396"/>
    </g>
   </g>
   <g id="PolyCollection_5">
    <defs>
     <path d="M 338.367085 -158.27141 
L 337.651118 -158.27141 
L 337.578072 -159.823628 
L 337.493498 -161.375845 
L 337.396328 -162.928063 
L 337.285549 -164.480281 
L 337.160237 -166.032498 
L 337.019596 -167.584716 
L 336.863 -169.136934 
L 336.690031 -170.689151 
L 336.500522 -172.241369 
L 336.294586 -173.793586 
L 336.072653 -175.345804 
L 335.835488 -176.898022 
L 335.584209 -178.450239 
L 335.320287 -180.002457 
L 335.045542 -181.554675 
L 334.762116 -183.106892 
L 334.472446 -184.65911 
L 334.179212 -186.211327 
L 333.885283 -187.763545 
L 333.593647 -189.315763 
L 333.307336 -190.86798 
L 333.029346 -192.420198 
L 332.762558 -193.972416 
L 332.509654 -195.524633 
L 332.273044 -197.076851 
L 332.054802 -198.629069 
L 331.856607 -200.181286 
L 331.679709 -201.733504 
L 331.524897 -203.285721 
L 331.392497 -204.837939 
L 331.28238 -206.390157 
L 331.193986 -207.942374 
L 331.126363 -209.494592 
L 331.078226 -211.04681 
L 331.048012 -212.599027 
L 331.033953 -214.151245 
L 331.034147 -215.703462 
L 331.046627 -217.25568 
L 331.069432 -218.807898 
L 331.100664 -220.360115 
L 331.138542 -221.912333 
L 331.181446 -223.464551 
L 331.227941 -225.016768 
L 331.276802 -226.568986 
L 331.327021 -228.121203 
L 331.377802 -229.673421 
L 331.428558 -231.225639 
L 331.478888 -232.777856 
L 331.528566 -234.330074 
L 331.577512 -235.882292 
L 331.625772 -237.434509 
L 331.6735 -238.986727 
L 331.72094 -240.538944 
L 331.768409 -242.091162 
L 331.816288 -243.64338 
L 331.865016 -245.195597 
L 331.915086 -246.747815 
L 331.967041 -248.300033 
L 332.021477 -249.85225 
L 332.07904 -251.404468 
L 332.140424 -252.956686 
L 332.206366 -254.508903 
L 332.27764 -256.061121 
L 332.355042 -257.613338 
L 332.439372 -259.165556 
L 332.531417 -260.717774 
L 332.631918 -262.269991 
L 332.741551 -263.822209 
L 332.860887 -265.374427 
L 332.990369 -266.926644 
L 333.130277 -268.478862 
L 333.280706 -270.031079 
L 333.441539 -271.583297 
L 333.612438 -273.135515 
L 333.792833 -274.687732 
L 333.981922 -276.23995 
L 334.178683 -277.792168 
L 334.381889 -279.344385 
L 334.590137 -280.896603 
L 334.801881 -282.44882 
L 335.015471 -284.001038 
L 335.229195 -285.553256 
L 335.441329 -287.105473 
L 335.650177 -288.657691 
L 335.854119 -290.209909 
L 336.051649 -291.762126 
L 336.241413 -293.314344 
L 336.422234 -294.866561 
L 336.593133 -296.418779 
L 336.753348 -297.970997 
L 336.902331 -299.523214 
L 337.039754 -301.075432 
L 337.165496 -302.62765 
L 337.279627 -304.179867 
L 337.382393 -305.732085 
L 337.474189 -307.284302 
L 337.555536 -308.83652 
L 337.627053 -310.388738 
L 337.689433 -311.940955 
L 338.32877 -311.940955 
L 338.32877 -311.940955 
L 338.39115 -310.388738 
L 338.462667 -308.83652 
L 338.544014 -307.284302 
L 338.63581 -305.732085 
L 338.738576 -304.179867 
L 338.852707 -302.62765 
L 338.978449 -301.075432 
L 339.115872 -299.523214 
L 339.264856 -297.970997 
L 339.42507 -296.418779 
L 339.59597 -294.866561 
L 339.77679 -293.314344 
L 339.966554 -291.762126 
L 340.164084 -290.209909 
L 340.368026 -288.657691 
L 340.576874 -287.105473 
L 340.789008 -285.553256 
L 341.002732 -284.001038 
L 341.216322 -282.44882 
L 341.428066 -280.896603 
L 341.636314 -279.344385 
L 341.83952 -277.792168 
L 342.036281 -276.23995 
L 342.22537 -274.687732 
L 342.405765 -273.135515 
L 342.576664 -271.583297 
L 342.737498 -270.031079 
L 342.887926 -268.478862 
L 343.027834 -266.926644 
L 343.157316 -265.374427 
L 343.276652 -263.822209 
L 343.386285 -262.269991 
L 343.486787 -260.717774 
L 343.578831 -259.165556 
L 343.663161 -257.613338 
L 343.740563 -256.061121 
L 343.811837 -254.508903 
L 343.877779 -252.956686 
L 343.939163 -251.404468 
L 343.996726 -249.85225 
L 344.051162 -248.300033 
L 344.103117 -246.747815 
L 344.153187 -245.195597 
L 344.201915 -243.64338 
L 344.249794 -242.091162 
L 344.297263 -240.538944 
L 344.344703 -238.986727 
L 344.392431 -237.434509 
L 344.440691 -235.882292 
L 344.489637 -234.330074 
L 344.539315 -232.777856 
L 344.589646 -231.225639 
L 344.640401 -229.673421 
L 344.691182 -228.121203 
L 344.741401 -226.568986 
L 344.790262 -225.016768 
L 344.836757 -223.464551 
L 344.879661 -221.912333 
L 344.917539 -220.360115 
L 344.948771 -218.807898 
L 344.971576 -217.25568 
L 344.984056 -215.703462 
L 344.98425 -214.151245 
L 344.970191 -212.599027 
L 344.939977 -211.04681 
L 344.89184 -209.494592 
L 344.824217 -207.942374 
L 344.735823 -206.390157 
L 344.625706 -204.837939 
L 344.493306 -203.285721 
L 344.338494 -201.733504 
L 344.161596 -200.181286 
L 343.963401 -198.629069 
L 343.745159 -197.076851 
L 343.508549 -195.524633 
L 343.255645 -193.972416 
L 342.988857 -192.420198 
L 342.710867 -190.86798 
L 342.424556 -189.315763 
L 342.13292 -187.763545 
L 341.838991 -186.211327 
L 341.545757 -184.65911 
L 341.256087 -183.106892 
L 340.972661 -181.554675 
L 340.697916 -180.002457 
L 340.433994 -178.450239 
L 340.182715 -176.898022 
L 339.94555 -175.345804 
L 339.723617 -173.793586 
L 339.517681 -172.241369 
L 339.328172 -170.689151 
L 339.155204 -169.136934 
L 338.998607 -167.584716 
L 338.857966 -166.032498 
L 338.732654 -164.480281 
L 338.621875 -162.928063 
L 338.524705 -161.375845 
L 338.440131 -159.823628 
L 338.367085 -158.27141 
z
" id="m4308d60bfd" style="stroke:#8a8a8a;stroke-width:1.75;"/>
    </defs>
    <g clip-path="url(#p08db86e85b)">
     <use style="fill:#e6e6e6;stroke:#8a8a8a;stroke-width:1.75;" x="0" xlink:href="#m4308d60bfd" y="396"/>
    </g>
   </g>
   <g id="PolyCollection_6">
    <defs>
     <path d="M 400.06345 -192.117984 
L 398.30991 -192.117984 
L 398.117402 -192.825507 
L 397.891811 -193.53303 
L 397.629603 -194.240553 
L 397.327323 -194.948077 
L 396.981706 -195.6556 
L 396.589797 -196.363123 
L 396.149086 -197.070646 
L 395.657642 -197.778169 
L 395.114251 -198.485692 
L 394.518554 -199.193216 
L 393.871166 -199.900739 
L 393.173785 -200.608262 
L 392.429275 -201.315785 
L 391.641721 -202.023308 
L 390.816446 -202.730832 
L 389.959998 -203.438355 
L 389.080084 -204.145878 
L 388.185468 -204.853401 
L 387.285822 -205.560924 
L 386.391538 -206.268447 
L 385.5135 -206.975971 
L 384.662827 -207.683494 
L 383.850591 -208.391017 
L 383.087521 -209.09854 
L 382.383705 -209.806063 
L 381.748301 -210.513587 
L 381.189264 -211.22111 
L 380.713108 -211.928633 
L 380.324712 -212.636156 
L 380.027175 -213.343679 
L 379.821732 -214.051202 
L 379.70773 -214.758726 
L 379.682683 -215.466249 
L 379.742373 -216.173772 
L 379.881031 -216.881295 
L 380.091554 -217.588818 
L 380.365783 -218.296342 
L 380.694799 -219.003865 
L 381.069241 -219.711388 
L 381.479629 -220.418911 
L 381.916673 -221.126434 
L 382.371554 -221.833957 
L 382.836176 -222.541481 
L 383.303359 -223.249004 
L 383.766987 -223.956527 
L 384.222095 -224.66405 
L 384.664899 -225.371573 
L 385.092769 -226.079097 
L 385.504154 -226.78662 
L 385.898472 -227.494143 
L 386.275956 -228.201666 
L 386.637493 -228.909189 
L 386.984449 -229.616712 
L 387.318494 -230.324236 
L 387.641445 -231.031759 
L 387.955124 -231.739282 
L 388.261244 -232.446805 
L 388.561326 -233.154328 
L 388.856643 -233.861852 
L 389.1482 -234.569375 
L 389.436737 -235.276898 
L 389.722759 -235.984421 
L 390.006577 -236.691944 
L 390.288368 -237.399467 
L 390.568235 -238.106991 
L 390.846262 -238.814514 
L 391.122569 -239.522037 
L 391.397348 -240.22956 
L 391.670887 -240.937083 
L 391.943576 -241.644607 
L 392.215897 -242.35213 
L 392.488396 -243.059653 
L 392.761642 -243.767176 
L 393.036179 -244.474699 
L 393.312474 -245.182222 
L 393.590857 -245.889746 
L 393.871474 -246.597269 
L 394.154246 -247.304792 
L 394.438838 -248.012315 
L 394.724646 -248.719838 
L 395.010798 -249.427362 
L 395.296172 -250.134885 
L 395.579429 -250.842408 
L 395.859059 -251.549931 
L 396.133437 -252.257454 
L 396.400887 -252.964977 
L 396.659746 -253.672501 
L 396.908423 -254.380024 
L 397.145468 -255.087547 
L 397.369611 -255.79507 
L 397.579811 -256.502593 
L 397.775282 -257.210116 
L 397.955504 -257.91764 
L 398.120233 -258.625163 
L 398.269492 -259.332686 
L 398.403548 -260.040209 
L 398.522891 -260.747732 
L 398.628197 -261.455256 
L 398.720296 -262.162779 
L 399.653063 -262.162779 
L 399.653063 -262.162779 
L 399.745163 -261.455256 
L 399.850469 -260.747732 
L 399.969811 -260.040209 
L 400.103867 -259.332686 
L 400.253126 -258.625163 
L 400.417856 -257.91764 
L 400.598078 -257.210116 
L 400.793548 -256.502593 
L 401.003748 -255.79507 
L 401.227892 -255.087547 
L 401.464936 -254.380024 
L 401.713614 -253.672501 
L 401.972472 -252.964977 
L 402.239922 -252.257454 
L 402.514301 -251.549931 
L 402.793931 -250.842408 
L 403.077187 -250.134885 
L 403.362561 -249.427362 
L 403.648713 -248.719838 
L 403.934521 -248.012315 
L 404.219113 -247.304792 
L 404.501885 -246.597269 
L 404.782502 -245.889746 
L 405.060885 -245.182222 
L 405.33718 -244.474699 
L 405.611718 -243.767176 
L 405.884963 -243.059653 
L 406.157462 -242.35213 
L 406.429783 -241.644607 
L 406.702472 -240.937083 
L 406.976012 -240.22956 
L 407.25079 -239.522037 
L 407.527097 -238.814514 
L 407.805124 -238.106991 
L 408.084991 -237.399467 
L 408.366782 -236.691944 
L 408.6506 -235.984421 
L 408.936622 -235.276898 
L 409.225159 -234.569375 
L 409.516716 -233.861852 
L 409.812034 -233.154328 
L 410.112115 -232.446805 
L 410.418236 -231.739282 
L 410.731915 -231.031759 
L 411.054866 -230.324236 
L 411.388911 -229.616712 
L 411.735866 -228.909189 
L 412.097403 -228.201666 
L 412.474887 -227.494143 
L 412.869205 -226.78662 
L 413.280591 -226.079097 
L 413.70846 -225.371573 
L 414.151264 -224.66405 
L 414.606372 -223.956527 
L 415.07 -223.249004 
L 415.537183 -222.541481 
L 416.001805 -221.833957 
L 416.456687 -221.126434 
L 416.89373 -220.418911 
L 417.304119 -219.711388 
L 417.678561 -219.003865 
L 418.007576 -218.296342 
L 418.281806 -217.588818 
L 418.492329 -216.881295 
L 418.630986 -216.173772 
L 418.690676 -215.466249 
L 418.665629 -214.758726 
L 418.551628 -214.051202 
L 418.346184 -213.343679 
L 418.048647 -212.636156 
L 417.660251 -211.928633 
L 417.184095 -211.22111 
L 416.625058 -210.513587 
L 415.989654 -209.806063 
L 415.285839 -209.09854 
L 414.522769 -208.391017 
L 413.710532 -207.683494 
L 412.859859 -206.975971 
L 411.981822 -206.268447 
L 411.087538 -205.560924 
L 410.187892 -204.853401 
L 409.293275 -204.145878 
L 408.413361 -203.438355 
L 407.556913 -202.730832 
L 406.731639 -202.023308 
L 405.944084 -201.315785 
L 405.199574 -200.608262 
L 404.502193 -199.900739 
L 403.854805 -199.193216 
L 403.259108 -198.485692 
L 402.715718 -197.778169 
L 402.224273 -197.070646 
L 401.783562 -196.363123 
L 401.391654 -195.6556 
L 401.046037 -194.948077 
L 400.743757 -194.240553 
L 400.481548 -193.53303 
L 400.255957 -192.825507 
L 400.06345 -192.117984 
z
" id="m598102041b" style="stroke:#8a8a8a;stroke-width:1.75;"/>
    </defs>
    <g clip-path="url(#p08db86e85b)">
     <use style="fill:#e6e6e6;stroke:#8a8a8a;stroke-width:1.75;" x="0" xlink:href="#m598102041b" y="396"/>
    </g>
   </g>
   <g id="PolyCollection_7">
    <defs>
     <path d="M 460.515009 -81.291904 
L 460.213507 -81.291904 
L 460.179148 -83.8435 
L 460.13894 -86.395097 
L 460.092348 -88.946694 
L 460.038872 -91.498291 
L 459.978068 -94.049887 
L 459.909555 -96.601484 
L 459.833025 -99.153081 
L 459.748246 -101.704678 
L 459.655061 -104.256274 
L 459.553379 -106.807871 
L 459.443164 -109.359468 
L 459.324414 -111.911065 
L 459.197145 -114.462661 
L 459.061365 -117.014258 
L 458.917058 -119.565855 
L 458.764165 -122.117452 
L 458.602576 -124.669048 
L 458.432133 -127.220645 
L 458.252642 -129.772242 
L 458.063897 -132.323839 
L 457.86572 -134.875435 
L 457.658009 -137.427032 
L 457.4408 -139.978629 
L 457.214328 -142.530225 
L 456.979095 -145.081822 
L 456.73593 -147.633419 
L 456.486043 -150.185016 
L 456.231063 -152.736612 
L 455.973055 -155.288209 
L 455.714518 -157.839806 
L 455.458357 -160.391403 
L 455.207828 -162.942999 
L 454.966468 -165.494596 
L 454.737991 -168.046193 
L 454.526183 -170.59779 
L 454.334773 -173.149386 
L 454.167316 -175.700983 
L 454.027066 -178.25258 
L 453.916864 -180.804177 
L 453.839043 -183.355773 
L 453.79535 -185.90737 
L 453.786896 -188.458967 
L 453.814119 -191.010564 
L 453.876785 -193.56216 
L 453.974004 -196.113757 
L 454.104263 -198.665354 
L 454.265486 -201.216951 
L 454.455091 -203.768547 
L 454.670072 -206.320144 
L 454.907072 -208.871741 
L 455.162463 -211.423338 
L 455.432426 -213.974934 
L 455.713029 -216.526531 
L 456.000298 -219.078128 
L 456.290291 -221.629725 
L 456.579163 -224.181321 
L 456.863234 -226.732918 
L 457.139051 -229.284515 
L 457.403449 -231.836111 
L 457.653608 -234.387708 
L 457.887108 -236.939305 
L 458.101974 -239.490902 
L 458.296718 -242.042498 
L 458.470368 -244.594095 
L 458.622486 -247.145692 
L 458.753168 -249.697289 
L 458.863035 -252.248885 
L 458.953203 -254.800482 
L 459.025234 -257.352079 
L 459.081077 -259.903676 
L 459.12299 -262.455272 
L 459.153454 -265.006869 
L 459.175079 -267.558466 
L 459.190503 -270.110063 
L 459.202297 -272.661659 
L 459.212869 -275.213256 
L 459.224387 -277.764853 
L 459.238707 -280.31645 
L 459.25732 -282.868046 
L 459.281322 -285.419643 
L 459.3114 -287.97124 
L 459.347838 -290.522837 
L 459.390542 -293.074433 
L 459.43908 -295.62603 
L 459.492738 -298.177627 
L 459.550583 -300.729224 
L 459.611527 -303.28082 
L 459.674398 -305.832417 
L 459.738004 -308.384014 
L 459.801194 -310.93561 
L 459.862904 -313.487207 
L 459.922199 -316.038804 
L 459.978297 -318.590401 
L 460.03059 -321.141997 
L 460.078644 -323.693594 
L 460.122194 -326.245191 
L 460.161137 -328.796788 
L 460.195506 -331.348384 
L 460.225452 -333.899981 
L 460.503064 -333.899981 
L 460.503064 -333.899981 
L 460.53301 -331.348384 
L 460.567379 -328.796788 
L 460.606321 -326.245191 
L 460.649872 -323.693594 
L 460.697925 -321.141997 
L 460.750218 -318.590401 
L 460.806317 -316.038804 
L 460.865611 -313.487207 
L 460.927321 -310.93561 
L 460.990511 -308.384014 
L 461.054118 -305.832417 
L 461.116989 -303.28082 
L 461.177933 -300.729224 
L 461.235777 -298.177627 
L 461.289436 -295.62603 
L 461.337974 -293.074433 
L 461.380677 -290.522837 
L 461.417115 -287.97124 
L 461.447193 -285.419643 
L 461.471196 -282.868046 
L 461.489809 -280.31645 
L 461.504128 -277.764853 
L 461.515647 -275.213256 
L 461.526219 -272.661659 
L 461.538012 -270.110063 
L 461.553437 -267.558466 
L 461.575062 -265.006869 
L 461.605526 -262.455272 
L 461.647439 -259.903676 
L 461.703281 -257.352079 
L 461.775312 -254.800482 
L 461.86548 -252.248885 
L 461.975348 -249.697289 
L 462.10603 -247.145692 
L 462.258147 -244.594095 
L 462.431798 -242.042498 
L 462.626542 -239.490902 
L 462.841408 -236.939305 
L 463.074907 -234.387708 
L 463.325066 -231.836111 
L 463.589464 -229.284515 
L 463.865282 -226.732918 
L 464.149353 -224.181321 
L 464.438225 -221.629725 
L 464.728218 -219.078128 
L 465.015487 -216.526531 
L 465.29609 -213.974934 
L 465.566053 -211.423338 
L 465.821444 -208.871741 
L 466.058443 -206.320144 
L 466.273425 -203.768547 
L 466.46303 -201.216951 
L 466.624252 -198.665354 
L 466.754512 -196.113757 
L 466.85173 -193.56216 
L 466.914397 -191.010564 
L 466.94162 -188.458967 
L 466.933165 -185.90737 
L 466.889473 -183.355773 
L 466.811652 -180.804177 
L 466.70145 -178.25258 
L 466.561199 -175.700983 
L 466.393743 -173.149386 
L 466.202333 -170.59779 
L 465.990524 -168.046193 
L 465.762047 -165.494596 
L 465.520687 -162.942999 
L 465.270159 -160.391403 
L 465.013998 -157.839806 
L 464.75546 -155.288209 
L 464.497452 -152.736612 
L 464.242472 -150.185016 
L 463.992586 -147.633419 
L 463.749421 -145.081822 
L 463.514187 -142.530225 
L 463.287715 -139.978629 
L 463.070506 -137.427032 
L 462.862796 -134.875435 
L 462.664619 -132.323839 
L 462.475874 -129.772242 
L 462.296383 -127.220645 
L 462.12594 -124.669048 
L 461.964351 -122.117452 
L 461.811458 -119.565855 
L 461.667151 -117.014258 
L 461.531371 -114.462661 
L 461.404102 -111.911065 
L 461.285352 -109.359468 
L 461.175136 -106.807871 
L 461.073454 -104.256274 
L 460.980269 -101.704678 
L 460.89549 -99.153081 
L 460.81896 -96.601484 
L 460.750448 -94.049887 
L 460.689644 -91.498291 
L 460.636168 -88.946694 
L 460.589575 -86.395097 
L 460.549368 -83.8435 
L 460.515009 -81.291904 
z
" id="mc9a22a97c9" style="stroke:#8a8a8a;stroke-width:1.75;"/>
    </defs>
    <g clip-path="url(#p08db86e85b)">
     <use style="fill:#e6e6e6;stroke:#8a8a8a;stroke-width:1.75;" x="0" xlink:href="#mc9a22a97c9" y="396"/>
    </g>
   </g>
   <g id="PolyCollection_8">
    <defs>
     <path d="M 522.10201 -123.009719 
L 520.981662 -123.009719 
L 520.875826 -124.53049 
L 520.755246 -126.05126 
L 520.618989 -127.572031 
L 520.466291 -129.092802 
L 520.296603 -130.613573 
L 520.109642 -132.134344 
L 519.905433 -133.655114 
L 519.684356 -135.175885 
L 519.447175 -136.696656 
L 519.195062 -138.217427 
L 518.929612 -139.738197 
L 518.652834 -141.258968 
L 518.367135 -142.779739 
L 518.07528 -144.30051 
L 517.780342 -145.82128 
L 517.485629 -147.342051 
L 517.194596 -148.862822 
L 516.91075 -150.383593 
L 516.637542 -151.904364 
L 516.378254 -153.425134 
L 516.135888 -154.945905 
L 515.913062 -156.466676 
L 515.71191 -157.987447 
L 515.534008 -159.508217 
L 515.38031 -161.028988 
L 515.251112 -162.549759 
L 515.146049 -164.07053 
L 515.064108 -165.5913 
L 515.003676 -167.112071 
L 514.962616 -168.632842 
L 514.93836 -170.153613 
L 514.928025 -171.674384 
L 514.928542 -173.195154 
L 514.936793 -174.715925 
L 514.949746 -176.236696 
L 514.964589 -177.757467 
L 514.978843 -179.278237 
L 514.990466 -180.799008 
L 514.997928 -182.319779 
L 515.000261 -183.84055 
L 514.997078 -185.36132 
L 514.988567 -186.882091 
L 514.975454 -188.402862 
L 514.958937 -189.923633 
L 514.940605 -191.444404 
L 514.922338 -192.965174 
L 514.906191 -194.485945 
L 514.894282 -196.006716 
L 514.888678 -197.527487 
L 514.891287 -199.048257 
L 514.903768 -200.569028 
L 514.927458 -202.089799 
L 514.963315 -203.61057 
L 515.011896 -205.131341 
L 515.073344 -206.652111 
L 515.147414 -208.172882 
L 515.233504 -209.693653 
L 515.330717 -211.214424 
L 515.437928 -212.735194 
L 515.553862 -214.255965 
L 515.677172 -215.776736 
L 515.806524 -217.297507 
L 515.940663 -218.818277 
L 516.078478 -220.339048 
L 516.219049 -221.859819 
L 516.361676 -223.38059 
L 516.505897 -224.901361 
L 516.651479 -226.422131 
L 516.798406 -227.942902 
L 516.946839 -229.463673 
L 517.097077 -230.984444 
L 517.249504 -232.505214 
L 517.404531 -234.025985 
L 517.562546 -235.546756 
L 517.72386 -237.067527 
L 517.888658 -238.588297 
L 518.056971 -240.109068 
L 518.228646 -241.629839 
L 518.403334 -243.15061 
L 518.580493 -244.671381 
L 518.759392 -246.192151 
L 518.939143 -247.712922 
L 519.118722 -249.233693 
L 519.297009 -250.754464 
L 519.47283 -252.275234 
L 519.645 -253.796005 
L 519.812359 -255.316776 
L 519.973817 -256.837547 
L 520.128384 -258.358317 
L 520.2752 -259.879088 
L 520.413554 -261.399859 
L 520.542901 -262.92063 
L 520.662865 -264.441401 
L 520.773241 -265.962171 
L 520.873987 -267.482942 
L 520.965212 -269.003713 
L 521.047164 -270.524484 
L 521.120203 -272.045254 
L 521.184787 -273.566025 
L 521.898885 -273.566025 
L 521.898885 -273.566025 
L 521.963469 -272.045254 
L 522.036508 -270.524484 
L 522.118459 -269.003713 
L 522.209685 -267.482942 
L 522.310431 -265.962171 
L 522.420807 -264.441401 
L 522.540771 -262.92063 
L 522.670118 -261.399859 
L 522.808472 -259.879088 
L 522.955288 -258.358317 
L 523.109855 -256.837547 
L 523.271313 -255.316776 
L 523.438672 -253.796005 
L 523.610841 -252.275234 
L 523.786663 -250.754464 
L 523.96495 -249.233693 
L 524.144529 -247.712922 
L 524.324279 -246.192151 
L 524.503179 -244.671381 
L 524.680337 -243.15061 
L 524.855026 -241.629839 
L 525.026701 -240.109068 
L 525.195014 -238.588297 
L 525.359812 -237.067527 
L 525.521125 -235.546756 
L 525.679141 -234.025985 
L 525.834168 -232.505214 
L 525.986595 -230.984444 
L 526.136833 -229.463673 
L 526.285266 -227.942902 
L 526.432193 -226.422131 
L 526.577775 -224.901361 
L 526.721996 -223.38059 
L 526.864623 -221.859819 
L 527.005194 -220.339048 
L 527.143009 -218.818277 
L 527.277148 -217.297507 
L 527.4065 -215.776736 
L 527.52981 -214.255965 
L 527.645743 -212.735194 
L 527.752954 -211.214424 
L 527.850168 -209.693653 
L 527.936258 -208.172882 
L 528.010327 -206.652111 
L 528.071776 -205.131341 
L 528.120356 -203.61057 
L 528.156214 -202.089799 
L 528.179904 -200.569028 
L 528.192385 -199.048257 
L 528.194994 -197.527487 
L 528.18939 -196.006716 
L 528.177481 -194.485945 
L 528.161334 -192.965174 
L 528.143067 -191.444404 
L 528.124735 -189.923633 
L 528.108218 -188.402862 
L 528.095104 -186.882091 
L 528.086594 -185.36132 
L 528.083411 -183.84055 
L 528.085744 -182.319779 
L 528.093206 -180.799008 
L 528.104829 -179.278237 
L 528.119083 -177.757467 
L 528.133926 -176.236696 
L 528.146879 -174.715925 
L 528.15513 -173.195154 
L 528.155647 -171.674384 
L 528.145312 -170.153613 
L 528.121056 -168.632842 
L 528.079996 -167.112071 
L 528.019564 -165.5913 
L 527.937623 -164.07053 
L 527.83256 -162.549759 
L 527.703362 -161.028988 
L 527.549664 -159.508217 
L 527.371761 -157.987447 
L 527.17061 -156.466676 
L 526.947784 -154.945905 
L 526.705418 -153.425134 
L 526.44613 -151.904364 
L 526.172922 -150.383593 
L 525.889076 -148.862822 
L 525.598043 -147.342051 
L 525.30333 -145.82128 
L 525.008392 -144.30051 
L 524.716537 -142.779739 
L 524.430838 -141.258968 
L 524.15406 -139.738197 
L 523.888609 -138.217427 
L 523.636497 -136.696656 
L 523.399316 -135.175885 
L 523.178239 -133.655114 
L 522.97403 -132.134344 
L 522.787068 -130.613573 
L 522.61738 -129.092802 
L 522.464683 -127.572031 
L 522.328426 -126.05126 
L 522.207846 -124.53049 
L 522.10201 -123.009719 
z
" id="mfcfe88b253" style="stroke:#8a8a8a;stroke-width:1.75;"/>
    </defs>
    <g clip-path="url(#p08db86e85b)">
     <use style="fill:#e6e6e6;stroke:#8a8a8a;stroke-width:1.75;" x="0" xlink:href="#mfcfe88b253" y="396"/>
    </g>
   </g>
   <g id="patch_3">
    <path d="M 62.71 328.21991 
L 62.71 30.96 
" style="fill:none;"/>
   </g>
   <g id="patch_4">
    <path d="M 552.130625 328.21991 
L 552.130625 30.96 
" style="fill:none;"/>
   </g>
   <g id="patch_5">
    <path d="M 62.71 328.21991 
L 552.130625 328.21991 
" style="fill:none;"/>
   </g>
   <g id="patch_6">
    <path d="M 62.71 30.96 
L 552.130625 30.96 
" style="fill:none;"/>
   </g>
   <g id="PathCollection_1">
    <defs>
     <path d="M 0 2.5 
C 0.663008 2.5 1.29895 2.236584 1.767767 1.767767 
C 2.236584 1.29895 2.5 0.663008 2.5 0 
C 2.5 -0.663008 2.236584 -1.29895 1.767767 -1.767767 
C 1.29895 -2.236584 0.663008 -2.5 0 -2.5 
C -0.663008 -2.5 -1.29895 -2.236584 -1.767767 -1.767767 
C -2.236584 -1.29895 -2.5 -0.663008 -2.5 0 
C -2.5 0.663008 -2.236584 1.29895 -1.767767 1.767767 
C -1.29895 2.236584 -0.663008 2.5 0 2.5 
z
" id="C0_0_db440c195f"/>
    </defs>
    <g clip-path="url(#p08db86e85b)">
     <use style="fill:#f8889a;" x="93.298789" xlink:href="#C0_0_db440c195f" y="123.937516"/>
    </g>
    <g clip-path="url(#p08db86e85b)">
     <use style="fill:#f8889a;" x="87.717928" xlink:href="#C0_0_db440c195f" y="122.720693"/>
    </g>
    <g clip-path="url(#p08db86e85b)">
     <use style="fill:#f8889a;" x="95.9983" xlink:href="#C0_0_db440c195f" y="119.546917"/>
    </g>
    <g clip-path="url(#p08db86e85b)">
     <use style="fill:#f8889a;" x="101.741854" xlink:href="#C0_0_db440c195f" y="119.220758"/>
    </g>
    <g clip-path="url(#p08db86e85b)">
     <use style="fill:#f8889a;" x="84.42438" xlink:href="#C0_0_db440c195f" y="118.643708"/>
    </g>
    <g clip-path="url(#p08db86e85b)">
     <use style="fill:#f8889a;" x="93.298789" xlink:href="#C0_0_db440c195f" y="111.204778"/>
    </g>
    <g clip-path="url(#p08db86e85b)">
     <use style="fill:#f8889a;" x="93.298789" xlink:href="#C0_0_db440c195f" y="88.097682"/>
    </g>
    <g clip-path="url(#p08db86e85b)">
     <use style="fill:#f8889a;" x="88.127355" xlink:href="#C0_0_db440c195f" y="85.914927"/>
    </g>
    <g clip-path="url(#p08db86e85b)">
     <use style="fill:#f8889a;" x="93.298789" xlink:href="#C0_0_db440c195f" y="74.047764"/>
    </g>
    <g clip-path="url(#p08db86e85b)">
     <use style="fill:#f8889a;" x="88.580737" xlink:href="#C0_0_db440c195f" y="71.200147"/>
    </g>
   </g>
   <g id="PathCollection_2">
    <defs>
     <path d="M 0 2.5 
C 0.663008 2.5 1.29895 2.236584 1.767767 1.767767 
C 2.236584 1.29895 2.5 0.663008 2.5 0 
C 2.5 -0.663008 2.236584 -1.29895 1.767767 -1.767767 
C 1.29895 -2.236584 0.663008 -2.5 0 -2.5 
C -0.663008 -2.5 -1.29895 -2.236584 -1.767767 -1.767767 
C -2.236584 -1.29895 -2.5 -0.663008 -2.5 0 
C -2.5 0.663008 -2.236584 1.29895 -1.767767 1.767767 
C -1.29895 2.236584 -0.663008 2.5 0 2.5 
z
" id="C1_0_6e431652be"/>
    </defs>
    <g clip-path="url(#p08db86e85b)">
     <use style="fill:#df9c37;" x="154.476367" xlink:href="#C1_0_6e431652be" y="151.272133"/>
    </g>
    <g clip-path="url(#p08db86e85b)">
     <use style="fill:#df9c37;" x="154.476367" xlink:href="#C1_0_6e431652be" y="144.698778"/>
    </g>
    <g clip-path="url(#p08db86e85b)">
     <use style="fill:#df9c37;" x="148.827256" xlink:href="#C1_0_6e431652be" y="143.745391"/>
    </g>
    <g clip-path="url(#p08db86e85b)">
     <use style="fill:#df9c37;" x="157.282556" xlink:href="#C1_0_6e431652be" y="140.358357"/>
    </g>
    <g clip-path="url(#p08db86e85b)">
     <use style="fill:#df9c37;" x="151.712877" xlink:href="#C1_0_6e431652be" y="139.1039"/>
    </g>
    <g clip-path="url(#p08db86e85b)">
     <use style="fill:#df9c37;" x="162.719987" xlink:href="#C1_0_6e431652be" y="138.727563"/>
    </g>
    <g clip-path="url(#p08db86e85b)">
     <use style="fill:#df9c37;" x="146.135702" xlink:href="#C1_0_6e431652be" y="137.874533"/>
    </g>
    <g clip-path="url(#p08db86e85b)">
     <use style="fill:#df9c37;" x="168.293434" xlink:href="#C1_0_6e431652be" y="137.485651"/>
    </g>
    <g clip-path="url(#p08db86e85b)">
     <use style="fill:#df9c37;" x="155.147557" xlink:href="#C1_0_6e431652be" y="135.114727"/>
    </g>
    <g clip-path="url(#p08db86e85b)">
     <use style="fill:#df9c37;" x="154.476367" xlink:href="#C1_0_6e431652be" y="101.068766"/>
    </g>
   </g>
   <g id="PathCollection_3">
    <defs>
     <path d="M 0 2.5 
C 0.663008 2.5 1.29895 2.236584 1.767767 1.767767 
C 2.236584 1.29895 2.5 0.663008 2.5 0 
C 2.5 -0.663008 2.236584 -1.29895 1.767767 -1.767767 
C 1.29895 -2.236584 0.663008 -2.5 0 -2.5 
C -0.663008 -2.5 -1.29895 -2.236584 -1.767767 -1.767767 
C -2.236584 -1.29895 -2.5 -0.663008 -2.5 0 
C -2.5 0.663008 -2.236584 1.29895 -1.767767 1.767767 
C -1.29895 2.236584 -0.663008 2.5 0 2.5 
z
" id="C2_0_eb85d2e5a1"/>
    </defs>
    <g clip-path="url(#p08db86e85b)">
     <use style="fill:#a4b136;" x="215.653945" xlink:href="#C2_0_eb85d2e5a1" y="196.319681"/>
    </g>
    <g clip-path="url(#p08db86e85b)">
     <use style="fill:#a4b136;" x="215.653945" xlink:href="#C2_0_eb85d2e5a1" y="176.762697"/>
    </g>
    <g clip-path="url(#p08db86e85b)">
     <use style="fill:#a4b136;" x="210.78173" xlink:href="#C2_0_eb85d2e5a1" y="174.115793"/>
    </g>
    <g clip-path="url(#p08db86e85b)">
     <use style="fill:#a4b136;" x="215.653945" xlink:href="#C2_0_eb85d2e5a1" y="151.008697"/>
    </g>
    <g clip-path="url(#p08db86e85b)">
     <use style="fill:#a4b136;" x="215.036618" xlink:href="#C2_0_eb85d2e5a1" y="146.066136"/>
    </g>
    <g clip-path="url(#p08db86e85b)">
     <use style="fill:#a4b136;" x="220.77714" xlink:href="#C2_0_eb85d2e5a1" y="145.702344"/>
    </g>
    <g clip-path="url(#p08db86e85b)">
     <use style="fill:#a4b136;" x="210.258847" xlink:href="#C2_0_eb85d2e5a1" y="143.293787"/>
    </g>
    <g clip-path="url(#p08db86e85b)">
     <use style="fill:#a4b136;" x="224.8358" xlink:href="#C2_0_eb85d2e5a1" y="142.17732"/>
    </g>
    <g clip-path="url(#p08db86e85b)">
     <use style="fill:#a4b136;" x="215.653945" xlink:href="#C2_0_eb85d2e5a1" y="140.847596"/>
    </g>
    <g clip-path="url(#p08db86e85b)">
     <use style="fill:#a4b136;" x="206.637012" xlink:href="#C2_0_eb85d2e5a1" y="139.430059"/>
    </g>
   </g>
   <g id="PathCollection_4">
    <defs>
     <path d="M 0 2.5 
C 0.663008 2.5 1.29895 2.236584 1.767767 1.767767 
C 2.236584 1.29895 2.5 0.663008 2.5 0 
C 2.5 -0.663008 2.236584 -1.29895 1.767767 -1.767767 
C 1.29895 -2.236584 0.663008 -2.5 0 -2.5 
C -0.663008 -2.5 -1.29895 -2.236584 -1.767767 -1.767767 
C -2.236584 -1.29895 -2.5 -0.663008 -2.5 0 
C -2.5 0.663008 -2.236584 1.29895 -1.767767 1.767767 
C -1.29895 2.236584 -0.663008 2.5 0 2.5 
z
" id="C3_0_7eca7ea3da"/>
    </defs>
    <g clip-path="url(#p08db86e85b)">
     <use style="fill:#37c06f;" x="276.831523" xlink:href="#C3_0_7eca7ea3da" y="193.622598"/>
    </g>
    <g clip-path="url(#p08db86e85b)">
     <use style="fill:#37c06f;" x="273.037296" xlink:href="#C3_0_7eca7ea3da" y="189.884317"/>
    </g>
    <g clip-path="url(#p08db86e85b)">
     <use style="fill:#37c06f;" x="276.831523" xlink:href="#C3_0_7eca7ea3da" y="184.8414"/>
    </g>
    <g clip-path="url(#p08db86e85b)">
     <use style="fill:#37c06f;" x="276.831523" xlink:href="#C3_0_7eca7ea3da" y="178.518937"/>
    </g>
    <g clip-path="url(#p08db86e85b)">
     <use style="fill:#37c06f;" x="276.831523" xlink:href="#C3_0_7eca7ea3da" y="158.874142"/>
    </g>
    <g clip-path="url(#p08db86e85b)">
     <use style="fill:#37c06f;" x="273.227703" xlink:href="#C3_0_7eca7ea3da" y="154.99787"/>
    </g>
    <g clip-path="url(#p08db86e85b)">
     <use style="fill:#37c06f;" x="276.831523" xlink:href="#C3_0_7eca7ea3da" y="136.19356"/>
    </g>
    <g clip-path="url(#p08db86e85b)">
     <use style="fill:#37c06f;" x="271.414618" xlink:href="#C3_0_7eca7ea3da" y="134.512588"/>
    </g>
    <g clip-path="url(#p08db86e85b)">
     <use style="fill:#37c06f;" x="281.599504" xlink:href="#C3_0_7eca7ea3da" y="133.408666"/>
    </g>
    <g clip-path="url(#p08db86e85b)">
     <use style="fill:#37c06f;" x="276.831523" xlink:href="#C3_0_7eca7ea3da" y="115.193951"/>
    </g>
   </g>
   <g id="PathCollection_5">
    <defs>
     <path d="M 0 2.5 
C 0.663008 2.5 1.29895 2.236584 1.767767 1.767767 
C 2.236584 1.29895 2.5 0.663008 2.5 0 
C 2.5 -0.663008 2.236584 -1.29895 1.767767 -1.767767 
C 1.29895 -2.236584 0.663008 -2.5 0 -2.5 
C -0.663008 -2.5 -1.29895 -2.236584 -1.767767 -1.767767 
C -2.236584 -1.29895 -2.5 -0.663008 -2.5 0 
C -2.5 0.663008 -2.236584 1.29895 -1.767767 1.767767 
C -1.29895 2.236584 -0.663008 2.5 0 2.5 
z
" id="C4_0_51e6bbf86e"/>
    </defs>
    <g clip-path="url(#p08db86e85b)">
     <use style="fill:#3bbbb2;" x="338.009102" xlink:href="#C4_0_51e6bbf86e" y="201.124251"/>
    </g>
    <g clip-path="url(#p08db86e85b)">
     <use style="fill:#3bbbb2;" x="338.009102" xlink:href="#C4_0_51e6bbf86e" y="195.366294"/>
    </g>
    <g clip-path="url(#p08db86e85b)">
     <use style="fill:#3bbbb2;" x="338.009102" xlink:href="#C4_0_51e6bbf86e" y="188.705127"/>
    </g>
    <g clip-path="url(#p08db86e85b)">
     <use style="fill:#3bbbb2;" x="333.23133" xlink:href="#C4_0_51e6bbf86e" y="185.932777"/>
    </g>
    <g clip-path="url(#p08db86e85b)">
     <use style="fill:#3bbbb2;" x="338.009102" xlink:href="#C4_0_51e6bbf86e" y="167.003022"/>
    </g>
    <g clip-path="url(#p08db86e85b)">
     <use style="fill:#3bbbb2;" x="333.615359" xlink:href="#C4_0_51e6bbf86e" y="163.791613"/>
    </g>
    <g clip-path="url(#p08db86e85b)">
     <use style="fill:#3bbbb2;" x="338.009102" xlink:href="#C4_0_51e6bbf86e" y="149.691517"/>
    </g>
    <g clip-path="url(#p08db86e85b)">
     <use style="fill:#3bbbb2;" x="338.009102" xlink:href="#C4_0_51e6bbf86e" y="140.973041"/>
    </g>
    <g clip-path="url(#p08db86e85b)">
     <use style="fill:#3bbbb2;" x="338.009102" xlink:href="#C4_0_51e6bbf86e" y="125.304874"/>
    </g>
    <g clip-path="url(#p08db86e85b)">
     <use style="fill:#3bbbb2;" x="335.947691" xlink:href="#C4_0_51e6bbf86e" y="120.663384"/>
    </g>
   </g>
   <g id="PathCollection_6">
    <defs>
     <path d="M 0 2.5 
C 0.663008 2.5 1.29895 2.236584 1.767767 1.767767 
C 2.236584 1.29895 2.5 0.663008 2.5 0 
C 2.5 -0.663008 2.236584 -1.29895 1.767767 -1.767767 
C 1.29895 -2.236584 0.663008 -2.5 0 -2.5 
C -0.663008 -2.5 -1.29895 -2.236584 -1.767767 -1.767767 
C -2.236584 -1.29895 -2.5 -0.663008 -2.5 0 
C -2.5 0.663008 -2.236584 1.29895 -1.767767 1.767767 
C -1.29895 2.236584 -0.663008 2.5 0 2.5 
z
" id="C5_0_8ad81d273d"/>
    </defs>
    <g clip-path="url(#p08db86e85b)">
     <use style="fill:#3eb6e2;" x="399.18668" xlink:href="#C5_0_8ad81d273d" y="188.115532"/>
    </g>
    <g clip-path="url(#p08db86e85b)">
     <use style="fill:#3eb6e2;" x="393.973558" xlink:href="#C5_0_8ad81d273d" y="186.008045"/>
    </g>
    <g clip-path="url(#p08db86e85b)">
     <use style="fill:#3eb6e2;" x="399.18668" xlink:href="#C5_0_8ad81d273d" y="182.407753"/>
    </g>
    <g clip-path="url(#p08db86e85b)">
     <use style="fill:#3eb6e2;" x="404.824128" xlink:href="#C5_0_8ad81d273d" y="181.404188"/>
    </g>
    <g clip-path="url(#p08db86e85b)">
     <use style="fill:#3eb6e2;" x="395.511675" xlink:href="#C5_0_8ad81d273d" y="178.58166"/>
    </g>
    <g clip-path="url(#p08db86e85b)">
     <use style="fill:#3eb6e2;" x="389.764596" xlink:href="#C5_0_8ad81d273d" y="178.305679"/>
    </g>
    <g clip-path="url(#p08db86e85b)">
     <use style="fill:#3eb6e2;" x="399.18668" xlink:href="#C5_0_8ad81d273d" y="169.524481"/>
    </g>
    <g clip-path="url(#p08db86e85b)">
     <use style="fill:#3eb6e2;" x="395.637808" xlink:href="#C5_0_8ad81d273d" y="165.610575"/>
    </g>
    <g clip-path="url(#p08db86e85b)">
     <use style="fill:#3eb6e2;" x="399.18668" xlink:href="#C5_0_8ad81d273d" y="159.476281"/>
    </g>
    <g clip-path="url(#p08db86e85b)">
     <use style="fill:#3eb6e2;" x="399.18668" xlink:href="#C5_0_8ad81d273d" y="149.603705"/>
    </g>
   </g>
   <g id="PathCollection_7">
    <defs>
     <path d="M 0 2.5 
C 0.663008 2.5 1.29895 2.236584 1.767767 1.767767 
C 2.236584 1.29895 2.5 0.663008 2.5 0 
C 2.5 -0.663008 2.236584 -1.29895 1.767767 -1.767767 
C 1.29895 -2.236584 0.663008 -2.5 0 -2.5 
C -0.663008 -2.5 -1.29895 -2.236584 -1.767767 -1.767767 
C -2.236584 -1.29895 -2.5 -0.663008 -2.5 0 
C -2.5 0.663008 -2.236584 1.29895 -1.767767 1.767767 
C -1.29895 2.236584 -0.663008 2.5 0 2.5 
z
" id="C6_0_78adf32af4"/>
    </defs>
    <g clip-path="url(#p08db86e85b)">
     <use style="fill:#b09cf6;" x="460.364258" xlink:href="#C6_0_78adf32af4" y="263.734196"/>
    </g>
    <g clip-path="url(#p08db86e85b)">
     <use style="fill:#b09cf6;" x="460.364258" xlink:href="#C6_0_78adf32af4" y="236.901362"/>
    </g>
    <g clip-path="url(#p08db86e85b)">
     <use style="fill:#b09cf6;" x="460.364258" xlink:href="#C6_0_78adf32af4" y="222.073681"/>
    </g>
    <g clip-path="url(#p08db86e85b)">
     <use style="fill:#b09cf6;" x="460.364258" xlink:href="#C6_0_78adf32af4" y="214.145514"/>
    </g>
    <g clip-path="url(#p08db86e85b)">
     <use style="fill:#b09cf6;" x="454.654302" xlink:href="#C6_0_78adf32af4" y="213.518285"/>
    </g>
    <g clip-path="url(#p08db86e85b)">
     <use style="fill:#b09cf6;" x="460.364258" xlink:href="#C6_0_78adf32af4" y="201.488043"/>
    </g>
    <g clip-path="url(#p08db86e85b)">
     <use style="fill:#b09cf6;" x="454.642288" xlink:href="#C6_0_78adf32af4" y="200.948627"/>
    </g>
    <g clip-path="url(#p08db86e85b)">
     <use style="fill:#b09cf6;" x="460.364258" xlink:href="#C6_0_78adf32af4" y="183.122794"/>
    </g>
    <g clip-path="url(#p08db86e85b)">
     <use style="fill:#b09cf6;" x="460.364258" xlink:href="#C6_0_78adf32af4" y="175.37025"/>
    </g>
    <g clip-path="url(#p08db86e85b)">
     <use style="fill:#b09cf6;" x="460.364258" xlink:href="#C6_0_78adf32af4" y="113.073919"/>
    </g>
   </g>
   <g id="PathCollection_8">
    <defs>
     <path d="M 0 2.5 
C 0.663008 2.5 1.29895 2.236584 1.767767 1.767767 
C 2.236584 1.29895 2.5 0.663008 2.5 0 
C 2.5 -0.663008 2.236584 -1.29895 1.767767 -1.767767 
C 1.29895 -2.236584 0.663008 -2.5 0 -2.5 
C -0.663008 -2.5 -1.29895 -2.236584 -1.767767 -1.767767 
C -2.236584 -1.29895 -2.5 -0.663008 -2.5 0 
C -2.5 0.663008 -2.236584 1.29895 -1.767767 1.767767 
C -1.29895 2.236584 -0.663008 2.5 0 2.5 
z
" id="C7_0_7abe0a340c"/>
    </defs>
    <g clip-path="url(#p08db86e85b)">
     <use style="fill:#f67de1;" x="521.541836" xlink:href="#C7_0_7abe0a340c" y="236.048332"/>
    </g>
    <g clip-path="url(#p08db86e85b)">
     <use style="fill:#f67de1;" x="517.39738" xlink:href="#C7_0_7abe0a340c" y="232.598575"/>
    </g>
    <g clip-path="url(#p08db86e85b)">
     <use style="fill:#f67de1;" x="525.090707" xlink:href="#C7_0_7abe0a340c" y="232.134426"/>
    </g>
    <g clip-path="url(#p08db86e85b)">
     <use style="fill:#f67de1;" x="530.820138" xlink:href="#C7_0_7abe0a340c" y="231.657732"/>
    </g>
    <g clip-path="url(#p08db86e85b)">
     <use style="fill:#f67de1;" x="521.541836" xlink:href="#C7_0_7abe0a340c" y="200.333943"/>
    </g>
    <g clip-path="url(#p08db86e85b)">
     <use style="fill:#f67de1;" x="517.135842" xlink:href="#C7_0_7abe0a340c" y="197.135078"/>
    </g>
    <g clip-path="url(#p08db86e85b)">
     <use style="fill:#f67de1;" x="521.541836" xlink:href="#C7_0_7abe0a340c" y="189.984673"/>
    </g>
    <g clip-path="url(#p08db86e85b)">
     <use style="fill:#f67de1;" x="515.861441" xlink:href="#C7_0_7abe0a340c" y="189.181821"/>
    </g>
    <g clip-path="url(#p08db86e85b)">
     <use style="fill:#f67de1;" x="521.541836" xlink:href="#C7_0_7abe0a340c" y="160.931451"/>
    </g>
    <g clip-path="url(#p08db86e85b)">
     <use style="fill:#f67de1;" x="516.074921" xlink:href="#C7_0_7abe0a340c" y="159.375924"/>
    </g>
   </g>
   <g id="text_16">
    <!-- Comparing the Top 10 Aucs of the best Dropout-Architectures -->
    <defs>
     <path d="M 64.40625 67.28125 
L 64.40625 56.890625 
Q 59.421875 61.53125 53.78125 63.8125 
Q 48.140625 66.109375 41.796875 66.109375 
Q 29.296875 66.109375 22.65625 58.46875 
Q 16.015625 50.828125 16.015625 36.375 
Q 16.015625 21.96875 22.65625 14.328125 
Q 29.296875 6.6875 41.796875 6.6875 
Q 48.140625 6.6875 53.78125 8.984375 
Q 59.421875 11.28125 64.40625 15.921875 
L 64.40625 5.609375 
Q 59.234375 2.09375 53.4375 0.328125 
Q 47.65625 -1.421875 41.21875 -1.421875 
Q 24.65625 -1.421875 15.125 8.703125 
Q 5.609375 18.84375 5.609375 36.375 
Q 5.609375 53.953125 15.125 64.078125 
Q 24.65625 74.21875 41.21875 74.21875 
Q 47.75 74.21875 53.53125 72.484375 
Q 59.328125 70.75 64.40625 67.28125 
z
" id="DejaVuSans-43"/>
     <path d="M 30.609375 48.390625 
Q 23.390625 48.390625 19.1875 42.75 
Q 14.984375 37.109375 14.984375 27.296875 
Q 14.984375 17.484375 19.15625 11.84375 
Q 23.34375 6.203125 30.609375 6.203125 
Q 37.796875 6.203125 41.984375 11.859375 
Q 46.1875 17.53125 46.1875 27.296875 
Q 46.1875 37.015625 41.984375 42.703125 
Q 37.796875 48.390625 30.609375 48.390625 
z
M 30.609375 56 
Q 42.328125 56 49.015625 48.375 
Q 55.71875 40.765625 55.71875 27.296875 
Q 55.71875 13.875 49.015625 6.21875 
Q 42.328125 -1.421875 30.609375 -1.421875 
Q 18.84375 -1.421875 12.171875 6.21875 
Q 5.515625 13.875 5.515625 27.296875 
Q 5.515625 40.765625 12.171875 48.375 
Q 18.84375 56 30.609375 56 
z
" id="DejaVuSans-6f"/>
     <path d="M 52 44.1875 
Q 55.375 50.25 60.0625 53.125 
Q 64.75 56 71.09375 56 
Q 79.640625 56 84.28125 50.015625 
Q 88.921875 44.046875 88.921875 33.015625 
L 88.921875 0 
L 79.890625 0 
L 79.890625 32.71875 
Q 79.890625 40.578125 77.09375 44.375 
Q 74.3125 48.1875 68.609375 48.1875 
Q 61.625 48.1875 57.5625 43.546875 
Q 53.515625 38.921875 53.515625 30.90625 
L 53.515625 0 
L 44.484375 0 
L 44.484375 32.71875 
Q 44.484375 40.625 41.703125 44.40625 
Q 38.921875 48.1875 33.109375 48.1875 
Q 26.21875 48.1875 22.15625 43.53125 
Q 18.109375 38.875 18.109375 30.90625 
L 18.109375 0 
L 9.078125 0 
L 9.078125 54.6875 
L 18.109375 54.6875 
L 18.109375 46.1875 
Q 21.1875 51.21875 25.484375 53.609375 
Q 29.78125 56 35.6875 56 
Q 41.65625 56 45.828125 52.96875 
Q 50 49.953125 52 44.1875 
z
" id="DejaVuSans-6d"/>
     <path d="M 18.109375 8.203125 
L 18.109375 -20.796875 
L 9.078125 -20.796875 
L 9.078125 54.6875 
L 18.109375 54.6875 
L 18.109375 46.390625 
Q 20.953125 51.265625 25.265625 53.625 
Q 29.59375 56 35.59375 56 
Q 45.5625 56 51.78125 48.09375 
Q 58.015625 40.1875 58.015625 27.296875 
Q 58.015625 14.40625 51.78125 6.484375 
Q 45.5625 -1.421875 35.59375 -1.421875 
Q 29.59375 -1.421875 25.265625 0.953125 
Q 20.953125 3.328125 18.109375 8.203125 
z
M 48.6875 27.296875 
Q 48.6875 37.203125 44.609375 42.84375 
Q 40.53125 48.484375 33.40625 48.484375 
Q 26.265625 48.484375 22.1875 42.84375 
Q 18.109375 37.203125 18.109375 27.296875 
Q 18.109375 17.390625 22.1875 11.75 
Q 26.265625 6.109375 33.40625 6.109375 
Q 40.53125 6.109375 44.609375 11.75 
Q 48.6875 17.390625 48.6875 27.296875 
z
" id="DejaVuSans-70"/>
     <path d="M 34.28125 27.484375 
Q 23.390625 27.484375 19.1875 25 
Q 14.984375 22.515625 14.984375 16.5 
Q 14.984375 11.71875 18.140625 8.90625 
Q 21.296875 6.109375 26.703125 6.109375 
Q 34.1875 6.109375 38.703125 11.40625 
Q 43.21875 16.703125 43.21875 25.484375 
L 43.21875 27.484375 
z
M 52.203125 31.203125 
L 52.203125 0 
L 43.21875 0 
L 43.21875 8.296875 
Q 40.140625 3.328125 35.546875 0.953125 
Q 30.953125 -1.421875 24.3125 -1.421875 
Q 15.921875 -1.421875 10.953125 3.296875 
Q 6 8.015625 6 15.921875 
Q 6 25.140625 12.171875 29.828125 
Q 18.359375 34.515625 30.609375 34.515625 
L 43.21875 34.515625 
L 43.21875 35.40625 
Q 43.21875 41.609375 39.140625 45 
Q 35.0625 48.390625 27.6875 48.390625 
Q 23 48.390625 18.546875 47.265625 
Q 14.109375 46.140625 10.015625 43.890625 
L 10.015625 52.203125 
Q 14.9375 54.109375 19.578125 55.046875 
Q 24.21875 56 28.609375 56 
Q 40.484375 56 46.34375 49.84375 
Q 52.203125 43.703125 52.203125 31.203125 
z
" id="DejaVuSans-61"/>
     <path d="M 54.890625 33.015625 
L 54.890625 0 
L 45.90625 0 
L 45.90625 32.71875 
Q 45.90625 40.484375 42.875 44.328125 
Q 39.84375 48.1875 33.796875 48.1875 
Q 26.515625 48.1875 22.3125 43.546875 
Q 18.109375 38.921875 18.109375 30.90625 
L 18.109375 0 
L 9.078125 0 
L 9.078125 54.6875 
L 18.109375 54.6875 
L 18.109375 46.1875 
Q 21.34375 51.125 25.703125 53.5625 
Q 30.078125 56 35.796875 56 
Q 45.21875 56 50.046875 50.171875 
Q 54.890625 44.34375 54.890625 33.015625 
z
" id="DejaVuSans-6e"/>
     <path d="M 45.40625 27.984375 
Q 45.40625 37.75 41.375 43.109375 
Q 37.359375 48.484375 30.078125 48.484375 
Q 22.859375 48.484375 18.828125 43.109375 
Q 14.796875 37.75 14.796875 27.984375 
Q 14.796875 18.265625 18.828125 12.890625 
Q 22.859375 7.515625 30.078125 7.515625 
Q 37.359375 7.515625 41.375 12.890625 
Q 45.40625 18.265625 45.40625 27.984375 
z
M 54.390625 6.78125 
Q 54.390625 -7.171875 48.1875 -13.984375 
Q 42 -20.796875 29.203125 -20.796875 
Q 24.46875 -20.796875 20.265625 -20.09375 
Q 16.0625 -19.390625 12.109375 -17.921875 
L 12.109375 -9.1875 
Q 16.0625 -11.328125 19.921875 -12.34375 
Q 23.78125 -13.375 27.78125 -13.375 
Q 36.625 -13.375 41.015625 -8.765625 
Q 45.40625 -4.15625 45.40625 5.171875 
L 45.40625 9.625 
Q 42.625 4.78125 38.28125 2.390625 
Q 33.9375 0 27.875 0 
Q 17.828125 0 11.671875 7.65625 
Q 5.515625 15.328125 5.515625 27.984375 
Q 5.515625 40.671875 11.671875 48.328125 
Q 17.828125 56 27.875 56 
Q 33.9375 56 38.28125 53.609375 
Q 42.625 51.21875 45.40625 46.390625 
L 45.40625 54.6875 
L 54.390625 54.6875 
z
" id="DejaVuSans-67"/>
     <path id="DejaVuSans-20"/>
     <path d="M -0.296875 72.90625 
L 61.375 72.90625 
L 61.375 64.59375 
L 35.5 64.59375 
L 35.5 0 
L 25.59375 0 
L 25.59375 64.59375 
L -0.296875 64.59375 
z
" id="DejaVuSans-54"/>
     <path d="M 12.40625 8.296875 
L 28.515625 8.296875 
L 28.515625 63.921875 
L 10.984375 60.40625 
L 10.984375 69.390625 
L 28.421875 72.90625 
L 38.28125 72.90625 
L 38.28125 8.296875 
L 54.390625 8.296875 
L 54.390625 0 
L 12.40625 0 
z
" id="DejaVuSans-31"/>
     <path d="M 48.6875 27.296875 
Q 48.6875 37.203125 44.609375 42.84375 
Q 40.53125 48.484375 33.40625 48.484375 
Q 26.265625 48.484375 22.1875 42.84375 
Q 18.109375 37.203125 18.109375 27.296875 
Q 18.109375 17.390625 22.1875 11.75 
Q 26.265625 6.109375 33.40625 6.109375 
Q 40.53125 6.109375 44.609375 11.75 
Q 48.6875 17.390625 48.6875 27.296875 
z
M 18.109375 46.390625 
Q 20.953125 51.265625 25.265625 53.625 
Q 29.59375 56 35.59375 56 
Q 45.5625 56 51.78125 48.09375 
Q 58.015625 40.1875 58.015625 27.296875 
Q 58.015625 14.40625 51.78125 6.484375 
Q 45.5625 -1.421875 35.59375 -1.421875 
Q 29.59375 -1.421875 25.265625 0.953125 
Q 20.953125 3.328125 18.109375 8.203125 
L 18.109375 0 
L 9.078125 0 
L 9.078125 75.984375 
L 18.109375 75.984375 
z
" id="DejaVuSans-62"/>
     <path d="M 19.671875 64.796875 
L 19.671875 8.109375 
L 31.59375 8.109375 
Q 46.6875 8.109375 53.6875 14.9375 
Q 60.6875 21.78125 60.6875 36.53125 
Q 60.6875 51.171875 53.6875 57.984375 
Q 46.6875 64.796875 31.59375 64.796875 
z
M 9.8125 72.90625 
L 30.078125 72.90625 
Q 51.265625 72.90625 61.171875 64.09375 
Q 71.09375 55.28125 71.09375 36.53125 
Q 71.09375 17.671875 61.125 8.828125 
Q 51.171875 0 30.078125 0 
L 9.8125 0 
z
" id="DejaVuSans-44"/>
     <path d="M 4.890625 31.390625 
L 31.203125 31.390625 
L 31.203125 23.390625 
L 4.890625 23.390625 
z
" id="DejaVuSans-2d"/>
    </defs>
    <g style="fill:#262626;" transform="translate(74.403516 24.96)scale(0.15 -0.15)">
     <use xlink:href="#DejaVuSans-43"/>
     <use x="69.824219" xlink:href="#DejaVuSans-6f"/>
     <use x="131.005859" xlink:href="#DejaVuSans-6d"/>
     <use x="228.417969" xlink:href="#DejaVuSans-70"/>
     <use x="291.894531" xlink:href="#DejaVuSans-61"/>
     <use x="353.173828" xlink:href="#DejaVuSans-72"/>
     <use x="394.287109" xlink:href="#DejaVuSans-69"/>
     <use x="422.070312" xlink:href="#DejaVuSans-6e"/>
     <use x="485.449219" xlink:href="#DejaVuSans-67"/>
     <use x="548.925781" xlink:href="#DejaVuSans-20"/>
     <use x="580.712891" xlink:href="#DejaVuSans-74"/>
     <use x="619.921875" xlink:href="#DejaVuSans-68"/>
     <use x="683.300781" xlink:href="#DejaVuSans-65"/>
     <use x="744.824219" xlink:href="#DejaVuSans-20"/>
     <use x="776.611328" xlink:href="#DejaVuSans-54"/>
     <use x="837.429688" xlink:href="#DejaVuSans-6f"/>
     <use x="898.611328" xlink:href="#DejaVuSans-70"/>
     <use x="962.087891" xlink:href="#DejaVuSans-20"/>
     <use x="993.875" xlink:href="#DejaVuSans-31"/>
     <use x="1057.498047" xlink:href="#DejaVuSans-30"/>
     <use x="1121.121094" xlink:href="#DejaVuSans-20"/>
     <use x="1152.908203" xlink:href="#DejaVuSans-41"/>
     <use x="1221.316406" xlink:href="#DejaVuSans-75"/>
     <use x="1284.695312" xlink:href="#DejaVuSans-63"/>
     <use x="1339.675781" xlink:href="#DejaVuSans-73"/>
     <use x="1391.775391" xlink:href="#DejaVuSans-20"/>
     <use x="1423.5625" xlink:href="#DejaVuSans-6f"/>
     <use x="1484.744141" xlink:href="#DejaVuSans-66"/>
     <use x="1519.949219" xlink:href="#DejaVuSans-20"/>
     <use x="1551.736328" xlink:href="#DejaVuSans-74"/>
     <use x="1590.945312" xlink:href="#DejaVuSans-68"/>
     <use x="1654.324219" xlink:href="#DejaVuSans-65"/>
     <use x="1715.847656" xlink:href="#DejaVuSans-20"/>
     <use x="1747.634766" xlink:href="#DejaVuSans-62"/>
     <use x="1811.111328" xlink:href="#DejaVuSans-65"/>
     <use x="1872.634766" xlink:href="#DejaVuSans-73"/>
     <use x="1924.734375" xlink:href="#DejaVuSans-74"/>
     <use x="1963.943359" xlink:href="#DejaVuSans-20"/>
     <use x="1995.730469" xlink:href="#DejaVuSans-44"/>
     <use x="2072.732422" xlink:href="#DejaVuSans-72"/>
     <use x="2113.814453" xlink:href="#DejaVuSans-6f"/>
     <use x="2174.996094" xlink:href="#DejaVuSans-70"/>
     <use x="2238.472656" xlink:href="#DejaVuSans-6f"/>
     <use x="2299.654297" xlink:href="#DejaVuSans-75"/>
     <use x="2363.033203" xlink:href="#DejaVuSans-74"/>
     <use x="2402.242188" xlink:href="#DejaVuSans-2d"/>
     <use x="2438.294922" xlink:href="#DejaVuSans-41"/>
     <use x="2506.703125" xlink:href="#DejaVuSans-72"/>
     <use x="2547.785156" xlink:href="#DejaVuSans-63"/>
     <use x="2602.765625" xlink:href="#DejaVuSans-68"/>
     <use x="2666.144531" xlink:href="#DejaVuSans-69"/>
     <use x="2693.927734" xlink:href="#DejaVuSans-74"/>
     <use x="2733.136719" xlink:href="#DejaVuSans-65"/>
     <use x="2794.660156" xlink:href="#DejaVuSans-63"/>
     <use x="2849.640625" xlink:href="#DejaVuSans-74"/>
     <use x="2888.849609" xlink:href="#DejaVuSans-75"/>
     <use x="2952.228516" xlink:href="#DejaVuSans-72"/>
     <use x="2993.310547" xlink:href="#DejaVuSans-65"/>
     <use x="3054.833984" xlink:href="#DejaVuSans-73"/>
    </g>
   </g>
  </g>
 </g>
 <defs>
  <clipPath id="p08db86e85b">
   <rect height="297.25991" width="489.420625" x="62.71" y="30.96"/>
  </clipPath>
 </defs>
</svg>
